<svg xmlns="http://www.w3.org/2000/svg" width="14" height="12" viewBox="0 0 14 12" fill="none">
  <path d="M 14 7 C 14.552 7 15 6.552 15 6 C 15 5.448 14.552 5 14 5 L 14 6 L 14 7 Z M 0 6 L -0.707 5.293 C -1.098 5.683 -1.098 6.317 -0.707 6.707 L 0 6 Z M 5.293 12.707 C 5.683 13.098 6.317 13.098 6.707 12.707 C 7.098 12.317 7.098 11.683 6.707 11.293 L 6 12 L 5.293 12.707 Z M 6.707 0.707 C 7.098 0.317 7.098 -0.317 6.707 -0.707 C 6.317 -1.098 5.683 -1.098 5.293 -0.707 L 6 0 L 6.707 0.707 Z M 14 6 L 14 5 L 0 5 L 0 6 L 0 7 L 14 7 L 14 6 Z M 6 12 L 6.707 11.293 L 0.707 5.293 L 0 6 L -0.707 6.707 L 5.293 12.707 L 6 12 Z M 0 6 L 0.707 6.707 L 6.707 0.707 L 6 0 L 5.293 -0.707 L -0.707 5.293 L 0 6 Z" fill="currentColor" fill-rule="nonzero"></path>
</svg>