<svg xmlns="http://www.w3.org/2000/svg" width="18" height="18" viewBox="0 0 18 18" fill="none">
  <path d="M 4.51 16.802 L 5.009 15.936 L 5.009 15.935 L 4.51 16.802 Z M 3.824 16.725 L 4.14 17.674 L 4.14 17.674 L 3.824 16.725 Z M 1.518 17.494 L 1.201 16.545 C 1.191 16.549 1.181 16.552 1.171 16.556 L 1.518 17.494 Z M 0.506 16.482 L -0.443 16.166 L -0.447 16.178 L 0.506 16.482 Z M 1.275 14.176 L 0.326 13.86 L 0.326 13.86 L 1.275 14.176 Z M 1.198 13.49 L 0.332 13.989 L 0.332 13.989 L 1.198 13.49 Z M 1.344 13.915 L 0.347 13.846 L 0.347 13.846 L 1.344 13.915 Z M 1.201 13.495 L 0.335 13.995 L 0.335 13.995 L 1.201 13.495 Z M 1.328 13.747 L 0.364 14.013 L 0.364 14.013 L 1.328 13.747 Z M 1.512 17.496 L 1.828 18.445 C 1.838 18.441 1.848 18.438 1.859 18.434 L 1.512 17.496 Z M 0.623 17.681 L 0.959 16.739 L 0.959 16.739 L 0.623 17.681 Z M 0.505 16.485 L 1.454 16.802 L 1.458 16.789 L 0.505 16.485 Z M 0.319 17.377 L -0.623 17.713 L -0.623 17.713 L 0.319 17.377 Z M 4.506 16.799 L 4.006 17.666 L 4.006 17.666 L 4.506 16.799 Z M 4.253 16.672 L 3.987 17.636 L 3.987 17.636 L 4.253 16.672 Z M 4.086 16.655 L 4.017 15.657 L 4.017 15.657 L 4.086 16.655 Z M 9 18 L 9 17 C 7.545 17 6.183 16.612 5.009 15.936 L 4.51 16.802 L 4.01 17.668 C 5.48 18.515 7.185 19 9 19 L 9 18 Z M 3.824 16.725 L 3.508 15.776 L 1.201 16.545 L 1.518 17.494 L 1.834 18.443 L 4.14 17.674 L 3.824 16.725 Z M 0.506 16.482 L 1.455 16.798 L 2.223 14.492 L 1.275 14.176 L 0.326 13.86 L -0.443 16.166 L 0.506 16.482 Z M 1.198 13.49 L 2.064 12.99 C 1.388 11.817 1 10.455 1 9 L 0 9 L -1 9 C -1 10.815 -0.515 12.52 0.332 13.989 L 1.198 13.49 Z M 0 9 L 1 9 C 1 4.582 4.582 1 9 1 L 9 0 L 9 -1 C 3.477 -1 -1 3.477 -1 9 L 0 9 Z M 9 0 L 9 1 C 13.418 1 17 4.582 17 9 L 18 9 L 19 9 C 19 3.477 14.523 -1 9 -1 L 9 0 Z M 18 9 L 17 9 C 17 13.418 13.418 17 9 17 L 9 18 L 9 19 C 14.522 19 19 14.523 19 9 L 18 9 Z M 1.275 14.176 L 2.223 14.492 C 2.252 14.407 2.327 14.203 2.342 13.983 L 1.344 13.915 L 0.347 13.846 C 0.348 13.832 0.349 13.819 0.351 13.806 C 0.352 13.794 0.354 13.783 0.356 13.775 C 0.359 13.758 0.362 13.749 0.361 13.751 C 0.361 13.752 0.36 13.755 0.358 13.761 C 0.357 13.766 0.354 13.773 0.351 13.783 C 0.348 13.792 0.345 13.803 0.34 13.816 C 0.336 13.829 0.331 13.843 0.326 13.86 L 1.275 14.176 Z M 1.198 13.49 L 0.332 13.989 L 0.335 13.995 L 1.201 13.495 L 2.067 12.995 L 2.064 12.99 L 1.198 13.49 Z M 1.201 13.495 L 0.335 13.995 C 0.354 14.027 0.368 14.051 0.379 14.072 C 0.391 14.092 0.396 14.102 0.398 14.107 C 0.401 14.111 0.397 14.104 0.39 14.088 C 0.383 14.072 0.373 14.046 0.364 14.013 L 1.328 13.747 L 2.292 13.48 C 2.233 13.266 2.11 13.069 2.067 12.995 L 1.201 13.495 Z M 1.344 13.915 L 2.342 13.983 C 2.353 13.821 2.34 13.655 2.292 13.48 L 1.328 13.747 L 0.364 14.013 C 0.358 13.989 0.351 13.958 0.348 13.923 C 0.345 13.889 0.346 13.862 0.347 13.846 L 1.344 13.915 Z M 1.518 17.494 L 1.171 16.556 L 1.165 16.558 L 1.512 17.496 L 1.859 18.434 L 1.865 18.432 L 1.518 17.494 Z M 1.512 17.496 L 1.195 16.547 C 1.072 16.589 0.975 16.621 0.891 16.647 C 0.807 16.674 0.753 16.689 0.718 16.697 C 0.681 16.706 0.689 16.701 0.725 16.7 C 0.765 16.698 0.852 16.701 0.959 16.739 L 0.623 17.681 L 0.287 18.623 C 0.652 18.753 0.992 18.687 1.175 18.644 C 1.371 18.598 1.604 18.519 1.828 18.445 L 1.512 17.496 Z M 0.506 16.482 L -0.447 16.178 L -0.448 16.181 L 0.505 16.485 L 1.458 16.789 L 1.459 16.786 L 0.506 16.482 Z M 0.505 16.485 L -0.444 16.169 C -0.519 16.393 -0.598 16.627 -0.644 16.824 C -0.687 17.007 -0.753 17.348 -0.623 17.713 L 0.319 17.377 L 1.261 17.041 C 1.3 17.149 1.302 17.236 1.3 17.276 C 1.299 17.311 1.294 17.319 1.303 17.282 C 1.311 17.246 1.327 17.192 1.353 17.107 C 1.38 17.023 1.412 16.926 1.454 16.802 L 0.505 16.485 Z M 0.623 17.681 L 0.959 16.739 C 1.099 16.789 1.21 16.899 1.261 17.041 L 0.319 17.377 L -0.623 17.713 C -0.471 18.138 -0.136 18.472 0.287 18.623 L 0.623 17.681 Z M 4.51 16.802 L 5.009 15.935 L 5.005 15.933 L 4.506 16.799 L 4.006 17.666 L 4.01 17.668 L 4.51 16.802 Z M 4.506 16.799 L 5.005 15.933 C 4.931 15.89 4.734 15.767 4.519 15.708 L 4.253 16.672 L 3.987 17.636 C 3.954 17.627 3.928 17.617 3.911 17.61 C 3.896 17.603 3.889 17.599 3.893 17.602 C 3.898 17.604 3.908 17.61 3.929 17.621 C 3.949 17.633 3.973 17.647 4.006 17.666 L 4.506 16.799 Z M 3.824 16.725 L 4.14 17.674 C 4.157 17.668 4.171 17.663 4.185 17.659 C 4.198 17.655 4.209 17.651 4.219 17.648 C 4.228 17.645 4.236 17.642 4.241 17.641 C 4.247 17.639 4.25 17.638 4.251 17.638 C 4.254 17.637 4.245 17.64 4.229 17.643 C 4.211 17.646 4.185 17.65 4.154 17.652 L 4.086 16.655 L 4.017 15.657 C 3.796 15.672 3.586 15.75 3.508 15.776 L 3.824 16.725 Z M 4.253 16.672 L 4.519 15.708 C 4.356 15.663 4.191 15.645 4.017 15.657 L 4.086 16.655 L 4.154 17.652 C 4.132 17.654 4.103 17.654 4.068 17.651 C 4.033 17.647 4.005 17.641 3.987 17.636 L 4.253 16.672 Z" fill="currentColor" fill-rule="nonzero"></path>
</svg>