<svg xmlns="http://www.w3.org/2000/svg" width="18" height="15.960" viewBox="0 0 18 15.960" fill="none">
  <path d="M 9 3.154 L 8.08 3.546 C 8.237 3.915 8.599 4.154 9 4.154 C 9.401 4.154 9.763 3.915 9.92 3.546 L 9 3.154 Z M 9 15.96 L 8.514 16.834 C 8.816 17.002 9.184 17.002 9.486 16.834 L 9 15.96 Z M 0 4.96 L 1 4.96 C 1 3.66 1.376 2.742 1.89 2.13 C 2.408 1.515 3.116 1.148 3.893 1.036 C 5.455 0.811 7.262 1.626 8.08 3.546 L 9 3.154 L 9.92 2.762 C 8.738 -0.012 6.045 -1.294 3.607 -0.943 C 2.384 -0.767 1.217 -0.177 0.36 0.843 C -0.501 1.866 -1 3.26 -1 4.96 L 0 4.96 Z M 9 3.154 L 9.92 3.546 C 10.738 1.626 12.545 0.811 14.107 1.036 C 14.884 1.148 15.592 1.515 16.11 2.13 C 16.624 2.742 17 3.66 17 4.96 L 18 4.96 L 19 4.96 C 19 3.26 18.501 1.866 17.64 0.843 C 16.783 -0.177 15.616 -0.767 14.393 -0.943 C 11.955 -1.294 9.262 -0.012 8.08 2.762 L 9 3.154 Z M 18 4.96 L 17 4.96 C 17 7.493 15.062 9.984 12.836 11.963 C 11.755 12.923 10.669 13.708 9.852 14.253 C 9.444 14.525 9.105 14.736 8.87 14.877 C 8.753 14.948 8.662 15.001 8.601 15.037 C 8.57 15.054 8.548 15.067 8.533 15.075 C 8.526 15.08 8.52 15.082 8.517 15.084 C 8.516 15.085 8.515 15.086 8.514 15.086 C 8.514 15.086 8.514 15.086 8.514 15.086 C 8.514 15.086 8.514 15.086 8.514 15.086 C 8.514 15.086 8.514 15.086 9 15.96 C 9.486 16.834 9.486 16.834 9.486 16.834 C 9.486 16.834 9.487 16.834 9.487 16.833 C 9.488 16.833 9.488 16.833 9.489 16.832 C 9.491 16.831 9.493 16.83 9.496 16.829 C 9.501 16.826 9.509 16.821 9.519 16.816 C 9.538 16.805 9.566 16.789 9.601 16.768 C 9.672 16.727 9.774 16.667 9.903 16.59 C 10.161 16.435 10.525 16.208 10.961 15.917 C 11.831 15.337 12.995 14.497 14.164 13.457 C 16.438 11.436 19 8.427 19 4.96 L 18 4.96 Z M 9 15.96 C 9.486 15.086 9.486 15.086 9.486 15.086 C 9.486 15.086 9.486 15.086 9.486 15.086 C 9.486 15.086 9.486 15.086 9.486 15.086 C 9.485 15.086 9.484 15.085 9.483 15.084 C 9.48 15.082 9.474 15.08 9.467 15.075 C 9.452 15.067 9.43 15.054 9.399 15.037 C 9.338 15.001 9.247 14.948 9.13 14.877 C 8.895 14.736 8.556 14.525 8.148 14.253 C 7.331 13.708 6.245 12.923 5.164 11.963 C 2.938 9.984 1 7.493 1 4.96 L 0 4.96 L -1 4.96 C -1 8.427 1.562 11.436 3.836 13.457 C 5.005 14.497 6.169 15.337 7.039 15.917 C 7.475 16.208 7.839 16.435 8.097 16.59 C 8.226 16.667 8.328 16.727 8.399 16.768 C 8.434 16.789 8.462 16.805 8.481 16.816 C 8.491 16.821 8.499 16.826 8.504 16.829 C 8.507 16.83 8.509 16.831 8.511 16.832 C 8.512 16.833 8.512 16.833 8.513 16.833 C 8.513 16.834 8.514 16.834 8.514 16.834 C 8.514 16.834 8.514 16.834 9 15.96 Z" fill="currentColor" fill-rule="nonzero"></path>
</svg>