<svg xmlns="http://www.w3.org/2000/svg" width="16" height="16.343" viewBox="0 0 16 16.343" fill="none">
  <path d="M 16 13.342 L 16 7.795 C 16 7.26 16 6.993 15.935 6.744 C 15.877 6.524 15.782 6.315 15.655 6.127 C 15.51 5.914 15.31 5.738 14.907 5.386 L 10.107 1.186 C 9.361 0.533 8.988 0.206 8.567 0.082 C 8.197 -0.027 7.803 -0.027 7.432 0.082 C 7.013 0.206 6.64 0.532 5.894 1.185 L 1.093 5.386 C 0.691 5.738 0.49 5.914 0.346 6.127 C 0.218 6.315 0.123 6.524 0.065 6.744 C 0 6.993 0 7.26 0 7.795 L 0 13.342 C 0 14.274 0 14.74 0.152 15.108 C 0.355 15.598 0.744 15.988 1.234 16.191 C 1.602 16.343 2.068 16.343 3 16.343 C 3.932 16.343 4.398 16.343 4.766 16.191 C 5.256 15.988 5.645 15.598 5.848 15.108 C 6 14.74 6 14.274 6 13.342 L 6 12.342 C 6 11.238 6.895 10.342 8 10.342 C 9.105 10.342 10 11.238 10 12.342 L 10 13.342 C 10 14.274 10 14.74 10.152 15.108 C 10.355 15.598 10.744 15.988 11.234 16.191 C 11.602 16.343 12.068 16.343 13 16.343 C 13.932 16.343 14.398 16.343 14.766 16.191 C 15.256 15.988 15.645 15.598 15.848 15.108 C 16 14.74 16 14.274 16 13.342 Z" fill="currentColor" fill-rule="nonzero"></path>
  <path d="M 1.093 5.386 L 1.751 6.139 L 1.751 6.139 L 1.093 5.386 Z M 10.107 1.186 L 9.449 1.939 L 9.449 1.939 L 10.107 1.186 Z M 14.907 5.386 L 14.249 6.139 L 14.249 6.139 L 14.907 5.386 Z M 5.894 1.185 L 5.236 0.432 L 5.236 0.432 L 5.894 1.185 Z M 7.432 0.082 L 7.149 -0.877 L 7.149 -0.877 L 7.432 0.082 Z M 8.567 0.082 L 8.851 -0.877 L 8.851 -0.877 L 8.567 0.082 Z M 0.065 6.744 L 1.032 6.997 L 1.032 6.997 L 0.065 6.744 Z M 0.346 6.127 L 1.173 6.689 L 1.173 6.689 L 0.346 6.127 Z M 1.234 16.191 L 0.852 17.114 L 0.852 17.114 L 1.234 16.191 Z M 0.152 15.108 L -0.772 15.49 L -0.772 15.49 L 0.152 15.108 Z M 5.848 15.108 L 4.924 14.725 L 4.924 14.725 L 5.848 15.108 Z M 4.766 16.191 L 5.148 17.114 L 5.148 17.114 L 4.766 16.191 Z M 11.234 16.191 L 10.852 17.114 L 10.852 17.114 L 11.234 16.191 Z M 10.152 15.108 L 9.228 15.49 L 9.228 15.49 L 10.152 15.108 Z M 15.848 15.108 L 14.924 14.725 L 14.924 14.725 L 15.848 15.108 Z M 14.766 16.191 L 15.148 17.114 L 15.148 17.114 L 14.766 16.191 Z M 15.935 6.744 L 16.902 6.491 L 16.902 6.491 L 15.935 6.744 Z M 15.655 6.127 L 16.482 5.565 L 16.482 5.565 L 15.655 6.127 Z M 16 7.795 L 15 7.795 L 15 13.342 L 16 13.342 L 17 13.342 L 17 7.795 L 16 7.795 Z M 10 13.342 L 11 13.342 L 11 12.342 L 10 12.342 L 9 12.342 L 9 13.342 L 10 13.342 Z M 6 12.342 L 5 12.342 L 5 13.342 L 6 13.342 L 7 13.342 L 7 12.342 L 6 12.342 Z M 0 13.342 L 1 13.342 L 1 7.795 L 0 7.795 L -1 7.795 L -1 13.342 L 0 13.342 Z M 10.107 1.186 L 9.449 1.939 L 14.249 6.139 L 14.907 5.386 L 15.566 4.634 L 10.766 0.434 L 10.107 1.186 Z M 5.894 1.185 L 6.553 1.937 C 6.937 1.601 7.183 1.386 7.384 1.236 C 7.575 1.093 7.665 1.056 7.716 1.041 L 7.432 0.082 L 7.149 -0.877 C 6.78 -0.768 6.474 -0.58 6.187 -0.366 C 5.91 -0.159 5.597 0.116 5.236 0.432 L 5.894 1.185 Z M 10.107 1.186 L 10.766 0.434 C 10.404 0.117 10.091 -0.158 9.814 -0.365 C 9.527 -0.58 9.22 -0.768 8.851 -0.877 L 8.567 0.082 L 8.284 1.041 C 8.335 1.056 8.425 1.094 8.616 1.237 C 8.817 1.387 9.064 1.602 9.449 1.939 L 10.107 1.186 Z M 7.432 0.082 L 7.716 1.041 C 7.901 0.986 8.099 0.986 8.284 1.041 L 8.567 0.082 L 8.851 -0.877 C 8.296 -1.041 7.704 -1.041 7.149 -0.877 L 7.432 0.082 Z M 0 7.795 L 1 7.795 C 1 7.208 1.008 7.092 1.032 6.997 L 0.065 6.744 L -0.903 6.491 C -1.008 6.893 -1 7.313 -1 7.795 L 0 7.795 Z M 1.093 5.386 L 0.434 4.634 C 0.07 4.952 -0.249 5.222 -0.482 5.565 L 0.346 6.127 L 1.173 6.689 C 1.229 6.607 1.311 6.524 1.751 6.139 L 1.093 5.386 Z M 0.065 6.744 L 1.032 6.997 C 1.061 6.888 1.108 6.784 1.173 6.689 L 0.346 6.127 L -0.482 5.565 C -0.673 5.847 -0.816 6.159 -0.903 6.491 L 0.065 6.744 Z M 3 16.343 L 3 15.343 C 2.52 15.343 2.21 15.342 1.974 15.326 C 1.746 15.31 1.659 15.284 1.617 15.267 L 1.234 16.191 L 0.852 17.114 C 1.178 17.249 1.508 17.299 1.837 17.321 C 2.158 17.343 2.547 17.343 3 17.343 L 3 16.343 Z M 0 13.342 L -1 13.342 C -1 13.795 -1.001 14.184 -0.979 14.505 C -0.956 14.835 -0.907 15.164 -0.772 15.49 L 0.152 15.108 L 1.076 14.725 C 1.059 14.683 1.032 14.597 1.017 14.369 C 1.001 14.132 1 13.822 1 13.342 L 0 13.342 Z M 1.234 16.191 L 1.617 15.267 C 1.373 15.165 1.178 14.971 1.076 14.725 L 0.152 15.108 L -0.772 15.49 C -0.467 16.225 0.116 16.81 0.852 17.114 L 1.234 16.191 Z M 6 13.342 L 5 13.342 C 5 13.822 4.999 14.132 4.983 14.369 C 4.968 14.596 4.941 14.683 4.924 14.725 L 5.848 15.108 L 6.772 15.49 C 6.907 15.165 6.956 14.835 6.979 14.505 C 7.001 14.184 7 13.795 7 13.342 L 6 13.342 Z M 3 16.343 L 3 17.343 C 3.452 17.343 3.841 17.343 4.162 17.321 C 4.492 17.299 4.822 17.249 5.148 17.114 L 4.766 16.191 L 4.383 15.267 C 4.341 15.284 4.254 15.31 4.026 15.326 C 3.789 15.342 3.479 15.343 3 15.343 L 3 16.343 Z M 5.848 15.108 L 4.924 14.725 C 4.822 14.971 4.627 15.165 4.383 15.267 L 4.766 16.191 L 5.148 17.114 C 5.884 16.81 6.467 16.225 6.772 15.49 L 5.848 15.108 Z M 8 10.342 L 8 9.342 C 6.343 9.342 5 10.686 5 12.342 L 6 12.342 L 7 12.342 C 7 11.79 7.448 11.342 8 11.342 L 8 10.342 Z M 10 12.342 L 11 12.342 C 11 10.686 9.657 9.342 8 9.342 L 8 10.342 L 8 11.342 C 8.552 11.342 9 11.79 9 12.342 L 10 12.342 Z M 13 16.343 L 13 15.343 C 12.52 15.343 12.21 15.342 11.974 15.326 C 11.746 15.31 11.659 15.284 11.617 15.267 L 11.234 16.191 L 10.852 17.114 C 11.178 17.249 11.508 17.299 11.837 17.321 C 12.158 17.343 12.547 17.343 13 17.343 L 13 16.343 Z M 10 13.342 L 9 13.342 C 9 13.795 8.999 14.184 9.021 14.505 C 9.044 14.835 9.093 15.164 9.228 15.49 L 10.152 15.108 L 11.076 14.725 C 11.059 14.683 11.032 14.597 11.017 14.369 C 11.001 14.132 11 13.822 11 13.342 L 10 13.342 Z M 11.234 16.191 L 11.617 15.267 C 11.373 15.165 11.178 14.971 11.076 14.725 L 10.152 15.108 L 9.228 15.49 C 9.533 16.225 10.116 16.81 10.852 17.114 L 11.234 16.191 Z M 16 13.342 L 15 13.342 C 15 13.822 14.999 14.132 14.983 14.368 C 14.968 14.596 14.941 14.683 14.924 14.725 L 15.848 15.108 L 16.772 15.49 C 16.907 15.164 16.956 14.835 16.979 14.505 C 17.001 14.184 17 13.795 17 13.342 L 16 13.342 Z M 13 16.343 L 13 17.343 C 13.452 17.343 13.841 17.343 14.162 17.321 C 14.492 17.299 14.822 17.249 15.148 17.114 L 14.766 16.191 L 14.383 15.267 C 14.341 15.284 14.254 15.31 14.026 15.326 C 13.789 15.342 13.479 15.343 13 15.343 L 13 16.343 Z M 15.848 15.108 L 14.924 14.725 C 14.822 14.971 14.627 15.165 14.383 15.267 L 14.766 16.191 L 15.148 17.114 C 15.884 16.81 16.467 16.225 16.772 15.49 L 15.848 15.108 Z M 16 7.795 L 17 7.795 C 17 7.311 17.007 6.893 16.902 6.491 L 15.935 6.744 L 14.967 6.997 C 14.992 7.093 15 7.209 15 7.795 L 16 7.795 Z M 14.907 5.386 L 14.249 6.139 C 14.689 6.524 14.772 6.607 14.827 6.689 L 15.655 6.127 L 16.482 5.565 C 16.249 5.222 15.93 4.952 15.566 4.634 L 14.907 5.386 Z M 15.935 6.744 L 16.902 6.491 C 16.816 6.161 16.674 5.848 16.482 5.565 L 15.655 6.127 L 14.827 6.689 C 14.891 6.783 14.938 6.887 14.967 6.997 L 15.935 6.744 Z M 1.093 5.386 L 1.751 6.139 L 6.553 1.937 L 5.894 1.185 L 5.236 0.432 L 0.434 4.634 L 1.093 5.386 Z" fill="currentColor" fill-rule="nonzero"></path>
</svg>