<svg xmlns="http://www.w3.org/2000/svg" width="14.824" height="14.824" viewBox="0 0 14.824 14.824" fill="none">
  <path d="M 5.756 7.866 C 5.424 8.198 5.424 8.736 5.756 9.068 C 6.088 9.4 6.626 9.4 6.958 9.068 L 6.357 8.467 L 5.756 7.866 Z M 10.996 5.029 C 11.328 4.697 11.328 4.159 10.996 3.827 C 10.664 3.495 10.126 3.495 9.794 3.827 L 10.395 4.428 L 10.996 5.029 Z M 14.526 1.964 L 13.747 1.623 C 13.735 1.653 13.723 1.683 13.714 1.714 L 14.526 1.964 Z M 11.117 13.043 L 10.305 12.793 L 11.117 13.043 Z M 8.651 13.246 L 9.411 12.866 L 9.411 12.866 L 8.651 13.246 Z M 6.491 8.928 L 5.731 9.308 L 5.731 9.308 L 6.491 8.928 Z M 1.577 6.173 L 1.197 6.933 L 1.197 6.933 L 1.577 6.173 Z M 1.781 3.706 L 2.031 4.518 L 2.031 4.518 L 1.781 3.706 Z M 12.86 0.297 L 13.11 1.109 L 13.11 1.109 L 12.86 0.297 Z M 0.064 5.189 L -0.721 5.515 L -0.721 5.515 L 0.064 5.189 Z M 0.127 4.428 L 0.848 4.879 L 0.848 4.879 L 0.127 4.428 Z M 6.332 8.643 L 7.005 8.124 L 7.005 8.124 L 6.332 8.643 Z M 5.905 8.337 L 5.525 9.097 L 5.525 9.097 L 5.905 8.337 Z M 6.181 8.492 L 6.7 7.819 L 6.7 7.819 L 6.181 8.492 Z M 10.396 14.697 L 10.846 15.418 L 10.846 15.418 L 10.396 14.697 Z M 9.635 14.76 L 9.309 15.545 L 9.309 15.545 L 9.635 14.76 Z M 14.527 1.963 L 15.306 2.303 C 15.319 2.273 15.33 2.243 15.339 2.213 L 14.527 1.963 Z M 14.79 0.529 L 15.588 0.236 L 15.588 0.236 L 14.79 0.529 Z M 14.295 0.034 L 14.002 0.832 L 14.002 0.832 L 14.295 0.034 Z M 6.357 8.467 L 6.958 9.068 L 10.996 5.029 L 10.395 4.428 L 9.794 3.827 L 5.756 7.866 L 6.357 8.467 Z M 14.526 1.964 L 13.714 1.714 L 10.305 12.793 L 11.117 13.043 L 11.93 13.293 L 15.339 2.214 L 14.526 1.964 Z M 8.651 13.246 L 9.411 12.866 L 7.252 8.548 L 6.491 8.928 L 5.731 9.308 L 7.89 13.627 L 8.651 13.246 Z M 1.781 3.706 L 2.031 4.518 L 13.11 1.109 L 12.86 0.297 L 12.61 -0.515 L 1.531 2.893 L 1.781 3.706 Z M 1.577 6.173 L 1.957 5.413 C 1.477 5.173 1.169 5.018 0.962 4.89 C 0.727 4.746 0.796 4.736 0.849 4.863 L 0.064 5.189 L -0.721 5.515 C -0.55 5.928 -0.189 6.178 0.071 6.338 C 0.358 6.515 0.747 6.708 1.197 6.933 L 1.577 6.173 Z M 1.781 3.706 L 1.531 2.893 C 1.05 3.041 0.635 3.169 0.323 3.295 C 0.04 3.411 -0.357 3.598 -0.594 3.978 L 0.127 4.428 L 0.848 4.879 C 0.775 4.995 0.709 4.974 0.964 4.87 C 1.189 4.778 1.519 4.676 2.031 4.518 L 1.781 3.706 Z M 0.064 5.189 L 0.849 4.863 C 0.851 4.868 0.85 4.874 0.848 4.879 L 0.127 4.428 L -0.594 3.978 C -0.882 4.439 -0.93 5.012 -0.721 5.515 L 0.064 5.189 Z M 6.491 8.928 L 7.252 8.548 C 7.192 8.428 7.116 8.268 7.005 8.124 L 6.332 8.643 L 5.658 9.162 C 5.647 9.148 5.645 9.142 5.657 9.164 C 5.672 9.191 5.692 9.23 5.731 9.308 L 6.491 8.928 Z M 5.905 8.337 L 5.525 9.097 C 5.561 9.116 5.589 9.129 5.613 9.142 C 5.637 9.154 5.652 9.162 5.663 9.168 C 5.684 9.179 5.677 9.177 5.662 9.165 L 6.181 8.492 L 6.7 7.819 C 6.557 7.709 6.398 7.633 6.285 7.577 L 5.905 8.337 Z M 6.332 8.643 L 7.005 8.124 C 6.919 8.013 6.817 7.909 6.7 7.819 L 6.181 8.492 L 5.662 9.165 C 5.658 9.162 5.657 9.161 5.658 9.162 L 6.332 8.643 Z M 11.117 13.043 L 10.305 12.793 C 10.147 13.305 10.045 13.634 9.953 13.86 C 9.85 14.115 9.829 14.049 9.945 13.976 L 10.396 14.697 L 10.846 15.418 C 11.226 15.18 11.413 14.783 11.528 14.5 C 11.655 14.189 11.782 13.773 11.93 13.293 L 11.117 13.043 Z M 8.651 13.246 L 7.89 13.627 C 8.115 14.076 8.309 14.466 8.486 14.753 C 8.646 15.013 8.896 15.374 9.309 15.545 L 9.635 14.76 L 9.961 13.975 C 10.088 14.027 10.078 14.096 9.933 13.862 C 9.806 13.654 9.651 13.346 9.411 12.866 L 8.651 13.246 Z M 10.396 14.697 L 9.945 13.976 C 9.949 13.974 9.955 13.972 9.961 13.975 L 9.635 14.76 L 9.309 15.545 C 9.813 15.754 10.385 15.705 10.846 15.418 L 10.396 14.697 Z M 14.526 1.964 L 15.305 2.304 L 15.306 2.303 L 14.527 1.963 L 13.748 1.622 L 13.747 1.623 L 14.526 1.964 Z M 14.527 1.963 L 15.339 2.213 C 15.454 1.839 15.559 1.502 15.617 1.227 C 15.673 0.961 15.722 0.6 15.588 0.236 L 14.79 0.529 L 13.992 0.821 C 13.955 0.721 13.993 0.687 13.953 0.877 C 13.915 1.058 13.839 1.306 13.714 1.713 L 14.527 1.963 Z M 12.86 0.297 L 13.11 1.109 C 13.516 0.984 13.765 0.909 13.946 0.871 C 14.136 0.831 14.103 0.868 14.002 0.832 L 14.295 0.034 L 14.588 -0.764 C 14.224 -0.898 13.863 -0.849 13.597 -0.793 C 13.321 -0.735 12.984 -0.631 12.61 -0.515 L 12.86 0.297 Z M 14.79 0.529 L 15.588 0.236 C 15.418 -0.229 15.052 -0.594 14.588 -0.764 L 14.295 0.034 L 14.002 0.832 C 13.998 0.83 13.994 0.826 13.992 0.821 L 14.79 0.529 Z M 5.905 8.337 L 6.285 7.577 L 1.957 5.413 L 1.577 6.173 L 1.197 6.933 L 5.525 9.097 L 5.905 8.337 Z" fill="currentColor" fill-rule="nonzero"></path>
</svg>