<svg xmlns="http://www.w3.org/2000/svg" width="13.333" height="12.988" viewBox="0 0 13.333 12.988" fill="none">
  <path d="M 0 12.988 L -0.85 12.988 C -0.85 13.458 -0.469 13.838 0 13.838 L 0 12.988 Z M 13.333 13.838 C 13.803 13.838 14.183 13.458 14.183 12.988 C 14.183 12.519 13.803 12.138 13.333 12.138 L 13.333 12.988 L 13.333 13.838 Z M 0 9.655 L -0.601 9.054 C -0.76 9.213 -0.85 9.43 -0.85 9.655 L 0 9.655 Z M 9.057 0.598 L 8.46 -0.007 L 8.456 -0.003 L 9.057 0.598 Z M 12.391 3.931 L 11.797 3.322 L 11.789 3.33 L 12.391 3.931 Z M 3.333 12.988 L 3.333 13.838 C 3.559 13.838 3.775 13.749 3.934 13.589 L 3.333 12.988 Z M 12.391 2.046 L 12.992 1.445 L 12.992 1.445 L 12.391 2.046 Z M 12.947 2.731 L 12.139 2.994 L 12.139 2.994 L 12.947 2.731 Z M 12.391 3.93 L 12.984 4.539 L 12.992 4.532 L 12.391 3.93 Z M 12.947 3.246 L 12.139 2.983 L 12.139 2.983 L 12.947 3.246 Z M 9.059 0.596 L 9.655 1.202 L 9.66 1.197 L 9.059 0.596 Z M 9.743 0.041 L 9.48 -0.768 L 9.48 -0.768 L 9.743 0.041 Z M 10.941 0.596 L 10.34 1.197 L 10.34 1.197 L 10.941 0.596 Z M 10.258 0.041 L 10.52 -0.768 L 10.52 -0.768 L 10.258 0.041 Z M 0 12.988 L 0 13.838 L 13.333 13.838 L 13.333 12.988 L 13.333 12.138 L 0 12.138 L 0 12.988 Z M 0 12.988 L 0.85 12.988 L 0.85 9.655 L 0 9.655 L -0.85 9.655 L -0.85 12.988 L 0 12.988 Z M 0 9.655 L 0.601 10.256 L 7.268 3.589 L 6.667 2.988 L 6.066 2.387 L -0.601 9.054 L 0 9.655 Z M 6.667 2.988 L 7.268 3.589 L 9.658 1.199 L 9.057 0.598 L 8.456 -0.003 L 6.066 2.387 L 6.667 2.988 Z M 12.391 3.931 L 11.789 3.33 L 9.399 5.721 L 10 6.322 L 10.601 6.923 L 12.992 4.532 L 12.391 3.931 Z M 10 6.322 L 9.399 5.721 L 2.732 12.387 L 3.333 12.988 L 3.934 13.589 L 10.601 6.923 L 10 6.322 Z M 3.333 12.988 L 3.333 12.138 L 0 12.138 L 0 12.988 L 0 13.838 L 3.333 13.838 L 3.333 12.988 Z M 12.391 2.046 L 11.789 2.647 C 11.964 2.822 12.059 2.917 12.122 2.991 C 12.178 3.057 12.157 3.048 12.139 2.994 L 12.947 2.731 L 13.756 2.468 C 13.676 2.224 13.542 2.037 13.418 1.891 C 13.3 1.752 13.147 1.6 12.992 1.445 L 12.391 2.046 Z M 12.391 3.931 L 12.984 4.54 L 12.984 4.539 L 12.391 3.93 L 11.798 3.322 L 11.797 3.322 L 12.391 3.931 Z M 12.391 3.93 L 12.992 4.532 C 13.147 4.377 13.3 4.225 13.418 4.086 C 13.542 3.94 13.676 3.753 13.756 3.509 L 12.947 3.246 L 12.139 2.983 C 12.157 2.929 12.178 2.92 12.122 2.986 C 12.059 3.059 11.965 3.155 11.79 3.329 L 12.391 3.93 Z M 12.947 2.731 L 12.139 2.994 C 12.138 2.99 12.138 2.987 12.139 2.983 L 12.947 3.246 L 13.756 3.509 C 13.866 3.171 13.866 2.806 13.756 2.468 L 12.947 2.731 Z M 9.057 0.598 L 9.654 1.203 L 9.655 1.202 L 9.059 0.596 L 8.462 -0.009 L 8.46 -0.007 L 9.057 0.598 Z M 9.059 0.596 L 9.66 1.197 C 9.834 1.023 9.929 0.929 10.003 0.866 C 10.069 0.81 10.059 0.832 10.005 0.849 L 9.743 0.041 L 9.48 -0.768 C 9.236 -0.688 9.049 -0.554 8.903 -0.43 C 8.764 -0.312 8.612 -0.159 8.458 -0.005 L 9.059 0.596 Z M 10.941 0.596 L 11.542 -0.005 C 11.387 -0.16 11.236 -0.312 11.097 -0.43 C 10.951 -0.554 10.764 -0.688 10.52 -0.768 L 10.258 0.041 L 9.995 0.849 C 9.941 0.832 9.931 0.81 9.997 0.866 C 10.07 0.928 10.165 1.023 10.34 1.197 L 10.941 0.596 Z M 9.743 0.041 L 10.005 0.849 C 10.002 0.85 9.998 0.85 9.995 0.849 L 10.258 0.041 L 10.52 -0.768 C 10.182 -0.877 9.818 -0.877 9.48 -0.768 L 9.743 0.041 Z M 6.667 2.988 L 6.066 3.589 L 9.399 6.923 L 10 6.322 L 10.601 5.721 L 7.268 2.387 L 6.667 2.988 Z M 10.941 0.596 L 10.34 1.197 L 11.789 2.647 L 12.391 2.046 L 12.992 1.445 L 11.542 -0.005 L 10.941 0.596 Z" fill="currentColor" fill-rule="nonzero"></path>
</svg>