<svg xmlns="http://www.w3.org/2000/svg" width="12" height="12" viewBox="0 0 12 12" fill="none">
  <path d="M 0 5.15 C -0.469 5.15 -0.85 5.531 -0.85 6 C -0.85 6.469 -0.469 6.85 0 6.85 L 0 6 L 0 5.15 Z M 12 6.85 C 12.469 6.85 12.85 6.469 12.85 6 C 12.85 5.531 12.469 5.15 12 5.15 L 12 6 L 12 6.85 Z M 5.15 12 C 5.15 12.469 5.531 12.85 6 12.85 C 6.469 12.85 6.85 12.469 6.85 12 L 6 12 L 5.15 12 Z M 6.85 0 C 6.85 -0.469 6.469 -0.85 6 -0.85 C 5.531 -0.85 5.15 -0.469 5.15 0 L 6 0 L 6.85 0 Z M 0 6 L 0 6.85 L 6 6.85 L 6 6 L 6 5.15 L 0 5.15 L 0 6 Z M 6 6 L 6 6.85 L 12 6.85 L 12 6 L 12 5.15 L 6 5.15 L 6 6 Z M 6 12 L 6.85 12 L 6.85 6 L 6 6 L 5.15 6 L 5.15 12 L 6 12 Z M 6 6 L 6.85 6 L 6.85 0 L 6 0 L 5.15 0 L 5.15 6 L 6 6 Z" fill="currentColor" fill-rule="nonzero"></path>
</svg>