<svg xmlns="http://www.w3.org/2000/svg" width="16.000" height="14" viewBox="0 0 16.000 14" fill="none">
  <path d="M 0.038 10.61 L -0.942 10.415 L -0.942 10.415 L 0.038 10.61 Z M 1.61 9.038 L 1.415 8.058 L 1.415 8.058 L 1.61 9.038 Z M 1.61 13.961 L 1.805 12.981 L 1.805 12.981 L 1.61 13.961 Z M 0.038 12.39 L -0.942 12.585 L -0.942 12.585 L 0.038 12.39 Z M 15.961 12.39 L 16.942 12.585 L 16.942 12.585 L 15.961 12.39 Z M 14.39 13.961 L 14.585 14.942 L 14.585 14.942 L 14.39 13.961 Z M 15.961 10.61 L 16.942 10.415 L 16.942 10.415 L 15.961 10.61 Z M 14.39 9.038 L 14.585 8.058 L 14.585 8.058 L 14.39 9.038 Z M 0.038 1.61 L -0.942 1.415 L -0.942 1.415 L 0.038 1.61 Z M 1.61 0.038 L 1.415 -0.942 L 1.415 -0.942 L 1.61 0.038 Z M 1.61 4.961 L 1.805 3.981 L 1.805 3.981 L 1.61 4.961 Z M 0.038 3.39 L 1.019 3.195 L 1.019 3.195 L 0.038 3.39 Z M 15.961 3.39 L 14.981 3.195 L 14.981 3.195 L 15.961 3.39 Z M 14.39 4.961 L 14.585 5.942 L 14.585 5.942 L 14.39 4.961 Z M 15.961 1.61 L 14.981 1.805 L 14.981 1.805 L 15.961 1.61 Z M 14.39 0.038 L 14.585 -0.942 L 14.585 -0.942 L 14.39 0.038 Z M 13.5 14 L 13.5 13 L 2.5 13 L 2.5 14 L 2.5 15 L 13.5 15 L 13.5 14 Z M 2.5 9 L 2.5 10 L 13.5 10 L 13.5 9 L 13.5 8 L 2.5 8 L 2.5 9 Z M 0 11.5 L 1 11.5 C 1 10.987 1.005 10.877 1.019 10.805 L 0.038 10.61 L -0.942 10.415 C -1.005 10.729 -1 11.083 -1 11.5 L 0 11.5 Z M 2.5 9 L 2.5 8 C 2.083 8 1.729 7.995 1.415 8.058 L 1.61 9.038 L 1.805 10.019 C 1.877 10.005 1.987 10 2.5 10 L 2.5 9 Z M 0.038 10.61 L 1.019 10.805 C 1.098 10.408 1.408 10.098 1.805 10.019 L 1.61 9.038 L 1.415 8.058 C 0.225 8.294 -0.706 9.225 -0.942 10.415 L 0.038 10.61 Z M 2.5 14 L 2.5 13 C 1.988 13 1.877 12.995 1.805 12.981 L 1.61 13.961 L 1.415 14.942 C 1.729 15.005 2.083 15 2.5 15 L 2.5 14 Z M 0 11.5 L -1 11.5 C -1 11.917 -1.005 12.271 -0.942 12.585 L 0.038 12.39 L 1.019 12.195 C 1.005 12.123 1 12.013 1 11.5 L 0 11.5 Z M 1.61 13.961 L 1.805 12.981 C 1.408 12.902 1.098 12.592 1.019 12.195 L 0.038 12.39 L -0.942 12.585 C -0.706 13.775 0.225 14.706 1.415 14.942 L 1.61 13.961 Z M 16 11.5 L 15 11.5 C 15 12.013 14.995 12.123 14.981 12.195 L 15.961 12.39 L 16.942 12.585 C 17.005 12.271 17 11.917 17 11.5 L 16 11.5 Z M 13.5 14 L 13.5 15 C 13.917 15 14.271 15.005 14.585 14.942 L 14.39 13.961 L 14.195 12.981 C 14.123 12.995 14.012 13 13.5 13 L 13.5 14 Z M 15.961 12.39 L 14.981 12.195 C 14.902 12.592 14.592 12.902 14.195 12.981 L 14.39 13.961 L 14.585 14.942 C 15.775 14.705 16.705 13.775 16.942 12.585 L 15.961 12.39 Z M 16 11.5 L 17 11.5 C 17 11.083 17.005 10.729 16.942 10.415 L 15.961 10.61 L 14.981 10.805 C 14.995 10.877 15 10.987 15 11.5 L 16 11.5 Z M 13.5 9 L 13.5 10 C 14.013 10 14.123 10.005 14.195 10.019 L 14.39 9.038 L 14.585 8.058 C 14.271 7.995 13.917 8 13.5 8 L 13.5 9 Z M 15.961 10.61 L 16.942 10.415 C 16.706 9.225 15.775 8.294 14.585 8.058 L 14.39 9.038 L 14.195 10.019 C 14.592 10.098 14.902 10.408 14.981 10.805 L 15.961 10.61 Z M 13.5 5 L 13.5 4 L 2.5 4 L 2.5 5 L 2.5 6 L 13.5 6 L 13.5 5 Z M 2.5 0 L 2.5 1 L 13.5 1 L 13.5 0 L 13.5 -1 L 2.5 -1 L 2.5 0 Z M 0 2.5 L 1 2.5 C 1 1.987 1.005 1.877 1.019 1.805 L 0.038 1.61 L -0.942 1.415 C -1.005 1.729 -1 2.083 -1 2.5 L 0 2.5 Z M 2.5 0 L 2.5 -1 C 2.083 -1 1.729 -1.005 1.415 -0.942 L 1.61 0.038 L 1.805 1.019 C 1.877 1.005 1.987 1 2.5 1 L 2.5 0 Z M 0.038 1.61 L 1.019 1.805 C 1.098 1.408 1.408 1.098 1.805 1.019 L 1.61 0.038 L 1.415 -0.942 C 0.225 -0.706 -0.706 0.225 -0.942 1.415 L 0.038 1.61 Z M 2.5 5 L 2.5 4 C 1.988 4 1.877 3.995 1.805 3.981 L 1.61 4.961 L 1.415 5.942 C 1.729 6.005 2.083 6 2.5 6 L 2.5 5 Z M 0 2.5 L -1 2.5 C -1 2.917 -1.005 3.271 -0.942 3.585 L 0.038 3.39 L 1.019 3.195 C 1.005 3.123 1 3.013 1 2.5 L 0 2.5 Z M 1.61 4.961 L 1.805 3.981 C 1.408 3.902 1.098 3.592 1.019 3.195 L 0.038 3.39 L -0.942 3.585 C -0.706 4.775 0.225 5.706 1.415 5.942 L 1.61 4.961 Z M 16 2.5 L 15 2.5 C 15 3.013 14.995 3.123 14.981 3.195 L 15.961 3.39 L 16.942 3.585 C 17.005 3.271 17 2.917 17 2.5 L 16 2.5 Z M 13.5 5 L 13.5 6 C 13.917 6 14.271 6.005 14.585 5.942 L 14.39 4.961 L 14.195 3.981 C 14.123 3.995 14.012 4 13.5 4 L 13.5 5 Z M 15.961 3.39 L 14.981 3.195 C 14.902 3.592 14.592 3.902 14.195 3.981 L 14.39 4.961 L 14.585 5.942 C 15.775 5.705 16.705 4.775 16.942 3.585 L 15.961 3.39 Z M 16 2.5 L 17 2.5 C 17 2.083 17.005 1.729 16.942 1.415 L 15.961 1.61 L 14.981 1.805 C 14.995 1.877 15 1.987 15 2.5 L 16 2.5 Z M 13.5 0 L 13.5 1 C 14.013 1 14.123 1.005 14.195 1.019 L 14.39 0.038 L 14.585 -0.942 C 14.271 -1.005 13.917 -1 13.5 -1 L 13.5 0 Z M 15.961 1.61 L 16.942 1.415 C 16.706 0.225 15.775 -0.706 14.585 -0.942 L 14.39 0.038 L 14.195 1.019 C 14.592 1.098 14.902 1.408 14.981 1.805 L 15.961 1.61 Z" fill="currentColor" fill-rule="nonzero"></path>
</svg>