<svg xmlns="http://www.w3.org/2000/svg" width="12.750" height="12.750" viewBox="0 0 12.750 12.750" fill="none">
  <path d="M 9.03 7.97 C 8.737 7.677 8.263 7.677 7.97 7.97 C 7.677 8.263 7.677 8.737 7.97 9.03 L 8.5 8.5 L 9.03 7.97 Z M 12.22 13.28 C 12.513 13.573 12.987 13.573 13.28 13.28 C 13.573 12.987 13.573 12.513 13.28 12.22 L 12.75 12.75 L 12.22 13.28 Z M 4.958 9.917 L 4.958 9.167 C 2.634 9.167 0.75 7.283 0.75 4.958 L 0 4.958 L -0.75 4.958 C -0.75 8.111 1.806 10.667 4.958 10.667 L 4.958 9.917 Z M 0 4.958 L 0.75 4.958 C 0.75 2.634 2.634 0.75 4.958 0.75 L 4.958 0 L 4.958 -0.75 C 1.806 -0.75 -0.75 1.806 -0.75 4.958 L 0 4.958 Z M 4.958 0 L 4.958 0.75 C 7.283 0.75 9.167 2.634 9.167 4.958 L 9.917 4.958 L 10.667 4.958 C 10.667 1.806 8.111 -0.75 4.958 -0.75 L 4.958 0 Z M 9.917 4.958 L 9.167 4.958 C 9.167 7.283 7.283 9.167 4.958 9.167 L 4.958 9.917 L 4.958 10.667 C 8.111 10.667 10.667 8.111 10.667 4.958 L 9.917 4.958 Z M 8.5 8.5 L 7.97 9.03 L 12.22 13.28 L 12.75 12.75 L 13.28 12.22 L 9.03 7.97 L 8.5 8.5 Z" fill="currentColor" fill-rule="nonzero"></path>
</svg>