<svg xmlns="http://www.w3.org/2000/svg" width="16.059" height="16.060" viewBox="0 0 16.059 16.060" fill="none">
  <path d="M 0.384 3.28 L -0.612 3.183 L -0.612 3.19 L 0.384 3.28 Z M 3.28 0.383 L 3.19 -0.613 L 3.28 0.383 Z M 6.91 0.053 L 6.82 -0.943 L 6.91 0.053 Z M 9.463 0.978 L 10.17 0.27 L 10.17 0.27 L 9.463 0.978 Z M 14.626 6.14 L 15.333 5.433 L 15.333 5.433 L 14.626 6.14 Z M 14.626 10.666 L 13.919 9.958 L 13.919 9.958 L 14.626 10.666 Z M 10.666 14.625 L 9.959 13.918 L 9.959 13.918 L 10.666 14.625 Z M 9.02 15.962 L 8.711 15.011 L 8.711 15.011 L 9.02 15.962 Z M 6.148 14.633 L 6.855 13.926 L 6.855 13.926 L 6.148 14.633 Z M 7.784 15.962 L 7.475 16.913 L 7.475 16.913 L 7.784 15.962 Z M 15.961 7.785 L 15.01 8.094 L 15.01 8.094 L 15.961 7.785 Z M 15.962 9.021 L 15.01 8.712 L 15.01 8.712 L 15.962 9.021 Z M 7.994 0.024 L 7.822 1.009 L 7.822 1.009 L 7.994 0.024 Z M 8.649 0.261 L 9.148 -0.605 L 9.148 -0.605 L 8.649 0.261 Z M 0.385 3.266 L 1.38 3.363 L 1.381 3.357 L 0.385 3.266 Z M 0.717 1.494 L 1.591 1.98 L 1.591 1.98 L 0.717 1.494 Z M 1.493 0.718 L 1.007 -0.156 L 1.007 -0.156 L 1.493 0.718 Z M 0.052 6.924 L 1.048 7.014 L 1.048 7.014 L 0.052 6.924 Z M 0.024 7.994 L -0.962 8.165 L -0.962 8.165 L 0.024 7.994 Z M 0.972 9.458 L 1.679 8.751 L 1.679 8.75 L 0.972 9.458 Z M 0.261 8.649 L -0.606 9.149 L -0.606 9.149 L 0.261 8.649 Z M 5.348 3.934 L 4.641 4.641 L 4.641 4.641 L 5.348 3.934 Z M 5.348 5.348 L 4.641 4.641 L 4.641 4.641 L 5.348 5.348 Z M 3.933 5.348 L 4.64 4.641 L 4.64 4.641 L 3.933 5.348 Z M 3.934 3.934 L 4.641 4.641 L 3.934 3.934 Z M 3.28 0.383 L 3.371 1.379 L 7.001 1.049 L 6.91 0.053 L 6.82 -0.943 L 3.19 -0.613 L 3.28 0.383 Z M 9.463 0.978 L 8.756 1.685 L 13.918 6.847 L 14.626 6.14 L 15.333 5.433 L 10.17 0.27 L 9.463 0.978 Z M 14.626 10.666 L 13.919 9.958 L 9.959 13.918 L 10.666 14.625 L 11.373 15.332 L 15.333 11.373 L 14.626 10.666 Z M 10.666 14.625 L 9.959 13.918 C 9.551 14.326 9.287 14.589 9.07 14.773 C 8.862 14.949 8.764 14.994 8.711 15.011 L 9.02 15.962 L 9.329 16.913 C 9.733 16.782 10.062 16.554 10.364 16.298 C 10.658 16.048 10.989 15.717 11.373 15.332 L 10.666 14.625 Z M 6.148 14.633 L 5.441 15.34 C 5.822 15.722 6.151 16.052 6.443 16.3 C 6.744 16.555 7.072 16.782 7.475 16.913 L 7.784 15.962 L 8.093 15.011 C 8.04 14.994 7.943 14.95 7.737 14.775 C 7.522 14.592 7.26 14.331 6.855 13.926 L 6.148 14.633 Z M 9.02 15.962 L 8.711 15.011 C 8.511 15.076 8.294 15.076 8.093 15.011 L 7.784 15.962 L 7.475 16.913 C 8.077 17.108 8.726 17.109 9.329 16.913 L 9.02 15.962 Z M 14.626 6.14 L 13.918 6.847 C 14.326 7.255 14.588 7.519 14.772 7.735 C 14.948 7.942 14.992 8.04 15.01 8.094 L 15.961 7.785 L 16.912 7.476 C 16.781 7.072 16.554 6.744 16.297 6.442 C 16.048 6.148 15.717 5.818 15.333 5.433 L 14.626 6.14 Z M 14.626 10.666 L 15.333 11.373 C 15.717 10.988 16.049 10.658 16.298 10.364 C 16.554 10.062 16.781 9.734 16.913 9.33 L 15.962 9.021 L 15.01 8.712 C 14.993 8.765 14.949 8.863 14.773 9.071 C 14.589 9.287 14.326 9.551 13.919 9.958 L 14.626 10.666 Z M 15.961 7.785 L 15.01 8.094 C 15.075 8.296 15.075 8.512 15.01 8.712 L 15.962 9.021 L 16.913 9.33 C 17.109 8.726 17.107 8.077 16.912 7.476 L 15.961 7.785 Z M 6.91 0.053 L 7.001 1.049 C 7.603 0.994 7.723 0.992 7.822 1.009 L 7.994 0.024 L 8.165 -0.961 C 7.744 -1.035 7.314 -0.988 6.82 -0.943 L 6.91 0.053 Z M 9.463 0.978 L 10.17 0.27 C 9.819 -0.081 9.519 -0.392 9.148 -0.605 L 8.649 0.261 L 8.15 1.128 C 8.238 1.178 8.328 1.257 8.756 1.685 L 9.463 0.978 Z M 7.994 0.024 L 7.822 1.009 C 7.937 1.029 8.049 1.069 8.15 1.128 L 8.649 0.261 L 9.148 -0.605 C 8.844 -0.781 8.511 -0.901 8.165 -0.961 L 7.994 0.024 Z M 0.384 3.28 L 1.379 3.377 L 1.38 3.363 L 0.385 3.266 L -0.61 3.169 L -0.612 3.183 L 0.384 3.28 Z M 0.385 3.266 L 1.381 3.357 C 1.425 2.874 1.453 2.567 1.493 2.332 C 1.53 2.11 1.566 2.025 1.591 1.98 L 0.717 1.494 L -0.157 1.008 C -0.336 1.33 -0.423 1.664 -0.48 2.002 C -0.534 2.328 -0.57 2.723 -0.611 3.176 L 0.385 3.266 Z M 3.28 0.383 L 3.19 -0.613 C 2.732 -0.571 2.334 -0.536 2.006 -0.481 C 1.666 -0.424 1.331 -0.336 1.007 -0.156 L 1.493 0.718 L 1.979 1.592 C 2.025 1.566 2.111 1.529 2.336 1.492 C 2.573 1.452 2.884 1.423 3.371 1.379 L 3.28 0.383 Z M 0.717 1.494 L 1.591 1.98 C 1.682 1.817 1.816 1.682 1.979 1.592 L 1.493 0.718 L 1.007 -0.156 C 0.518 0.116 0.115 0.519 -0.157 1.008 L 0.717 1.494 Z M 0.052 6.924 L -0.943 6.833 C -0.988 7.319 -1.035 7.746 -0.962 8.165 L 0.024 7.994 L 1.009 7.822 C 0.992 7.725 0.994 7.607 1.048 7.014 L 0.052 6.924 Z M 0.972 9.458 L 1.679 8.75 C 1.255 8.326 1.177 8.237 1.127 8.15 L 0.261 8.649 L -0.606 9.149 C -0.393 9.518 -0.083 9.817 0.265 10.165 L 0.972 9.458 Z M 0.024 7.994 L -0.962 8.165 C -0.902 8.51 -0.782 8.843 -0.606 9.149 L 0.261 8.649 L 1.127 8.15 C 1.069 8.049 1.029 7.938 1.009 7.822 L 0.024 7.994 Z M 5.348 3.934 L 4.641 4.641 L 4.641 4.641 L 5.348 5.348 L 6.055 6.055 C 6.836 5.274 6.836 4.008 6.055 3.227 L 5.348 3.934 Z M 5.348 5.348 L 4.641 4.641 L 4.64 4.641 L 3.933 5.348 L 3.226 6.055 C 4.007 6.836 5.274 6.837 6.055 6.055 L 5.348 5.348 Z M 3.933 5.348 L 4.64 4.641 L 4.641 4.641 L 3.934 3.934 L 3.227 3.227 C 2.446 4.007 2.445 5.274 3.226 6.055 L 3.933 5.348 Z M 3.934 3.934 L 4.641 4.641 L 4.641 4.641 L 5.348 3.934 L 6.055 3.227 C 5.274 2.446 4.008 2.446 3.227 3.227 L 3.934 3.934 Z M 0.052 6.924 L 1.048 7.014 L 1.38 3.371 L 0.384 3.28 L -0.612 3.19 L -0.943 6.833 L 0.052 6.924 Z M 0.972 9.458 L 0.265 10.165 L 5.441 15.34 L 6.148 14.633 L 6.855 13.926 L 1.679 8.751 L 0.972 9.458 Z" fill="currentColor" fill-rule="nonzero"></path>
</svg>