<svg xmlns="http://www.w3.org/2000/svg" width="13.333" height="15" viewBox="0 0 13.333 15" fill="none">
  <path d="M 2.576 14.819 L 2.962 14.061 L 2.962 14.061 L 2.576 14.819 Z M 1.848 14.09 L 1.091 14.476 L 1.091 14.476 L 1.848 14.09 Z M 11.485 14.09 L 12.243 14.476 L 12.243 14.476 L 11.485 14.09 Z M 10.756 14.819 L 10.37 14.061 L 10.37 14.061 L 10.756 14.819 Z M 0 1.65 C -0.469 1.65 -0.85 2.031 -0.85 2.5 C -0.85 2.969 -0.469 3.35 0 3.35 L 0 2.5 L 0 1.65 Z M 13.333 3.35 C 13.803 3.35 14.183 2.969 14.183 2.5 C 14.183 2.031 13.803 1.65 13.333 1.65 L 13.333 2.5 L 13.333 3.35 Z M 3.46 1.029 L 2.675 0.704 L 2.675 0.704 L 3.46 1.029 Z M 4.362 0.127 L 4.037 -0.658 L 4.037 -0.658 L 4.362 0.127 Z M 9.873 1.029 L 9.088 1.354 L 9.088 1.354 L 9.873 1.029 Z M 8.971 0.127 L 9.296 -0.658 L 9.296 -0.658 L 8.971 0.127 Z M 1.667 12.333 L 2.517 12.333 L 2.517 2.5 L 1.667 2.5 L 0.817 2.5 L 0.817 12.333 L 1.667 12.333 Z M 1.667 2.5 L 1.667 3.35 L 3.333 3.35 L 3.333 2.5 L 3.333 1.65 L 1.667 1.65 L 1.667 2.5 Z M 3.333 2.5 L 3.333 3.35 L 10 3.35 L 10 2.5 L 10 1.65 L 3.333 1.65 L 3.333 2.5 Z M 10 2.5 L 10 3.35 L 11.667 3.35 L 11.667 2.5 L 11.667 1.65 L 10 1.65 L 10 2.5 Z M 4.331 15 L 4.331 14.15 C 3.851 14.15 3.542 14.149 3.307 14.13 C 3.082 14.112 3.001 14.081 2.962 14.061 L 2.576 14.819 L 2.191 15.576 C 2.509 15.738 2.838 15.798 3.169 15.824 C 3.489 15.851 3.879 15.85 4.331 15.85 L 4.331 15 Z M 1.667 12.333 L 0.817 12.333 C 0.817 12.786 0.816 13.177 0.842 13.497 C 0.869 13.828 0.929 14.158 1.091 14.476 L 1.848 14.09 L 2.606 13.704 C 2.586 13.665 2.555 13.584 2.537 13.359 C 2.517 13.123 2.517 12.814 2.517 12.333 L 1.667 12.333 Z M 2.576 14.819 L 2.962 14.061 C 2.809 13.983 2.684 13.858 2.606 13.704 L 1.848 14.09 L 1.091 14.476 C 1.332 14.948 1.716 15.334 2.191 15.576 L 2.576 14.819 Z M 11.667 12.336 L 10.817 12.336 C 10.817 12.816 10.816 13.125 10.797 13.359 C 10.778 13.584 10.747 13.665 10.728 13.704 L 11.485 14.09 L 12.243 14.476 C 12.404 14.158 12.464 13.828 12.491 13.498 C 12.517 13.178 12.517 12.788 12.517 12.336 L 11.667 12.336 Z M 9.003 15 L 9.003 15.85 C 9.454 15.85 9.844 15.851 10.164 15.824 C 10.495 15.797 10.824 15.738 11.142 15.576 L 10.756 14.819 L 10.37 14.061 C 10.332 14.081 10.251 14.112 10.026 14.13 C 9.791 14.149 9.482 14.15 9.003 14.15 L 9.003 15 Z M 11.485 14.09 L 10.728 13.704 C 10.65 13.857 10.524 13.983 10.37 14.061 L 10.756 14.819 L 11.142 15.576 C 11.615 15.335 12.001 14.949 12.243 14.476 L 11.485 14.09 Z M 0 2.5 L 0 3.35 L 1.667 3.35 L 1.667 2.5 L 1.667 1.65 L 0 1.65 L 0 2.5 Z M 11.667 2.5 L 11.667 3.35 L 13.333 3.35 L 13.333 2.5 L 13.333 1.65 L 11.667 1.65 L 11.667 2.5 Z M 5.833 0 L 5.833 0.85 L 7.5 0.85 L 7.5 0 L 7.5 -0.85 L 5.833 -0.85 L 5.833 0 Z M 3.333 2.5 L 4.183 2.5 C 4.183 2.1 4.184 1.843 4.197 1.646 C 4.21 1.457 4.232 1.387 4.245 1.354 L 3.46 1.029 L 2.675 0.704 C 2.561 0.978 2.52 1.255 2.501 1.53 C 2.483 1.798 2.483 2.123 2.483 2.5 L 3.333 2.5 Z M 5.833 0 L 5.833 -0.85 C 5.457 -0.85 5.132 -0.85 4.863 -0.832 C 4.588 -0.813 4.311 -0.772 4.037 -0.658 L 4.362 0.127 L 4.687 0.912 C 4.72 0.899 4.79 0.877 4.979 0.864 C 5.176 0.85 5.433 0.85 5.833 0.85 L 5.833 0 Z M 3.46 1.029 L 4.245 1.354 C 4.329 1.154 4.488 0.995 4.687 0.912 L 4.362 0.127 L 4.037 -0.658 C 3.42 -0.403 2.93 0.087 2.675 0.704 L 3.46 1.029 Z M 10 2.5 L 10.85 2.5 C 10.85 2.123 10.85 1.798 10.832 1.53 C 10.813 1.254 10.772 0.978 10.658 0.704 L 9.873 1.029 L 9.088 1.354 C 9.101 1.387 9.123 1.457 9.136 1.646 C 9.15 1.843 9.15 2.1 9.15 2.5 L 10 2.5 Z M 7.5 0 L 7.5 0.85 C 7.9 0.85 8.157 0.85 8.354 0.864 C 8.543 0.877 8.614 0.899 8.646 0.912 L 8.971 0.127 L 9.296 -0.658 C 9.022 -0.772 8.745 -0.813 8.47 -0.832 C 8.202 -0.85 7.877 -0.85 7.5 -0.85 L 7.5 0 Z M 9.873 1.029 L 10.658 0.704 C 10.403 0.087 9.913 -0.403 9.296 -0.658 L 8.971 0.127 L 8.646 0.912 C 8.846 0.995 9.005 1.154 9.088 1.354 L 9.873 1.029 Z M 11.667 2.5 L 10.817 2.5 L 10.817 12.336 L 11.667 12.336 L 12.517 12.336 L 12.517 2.5 L 11.667 2.5 Z M 9.003 15 L 9.003 14.15 L 4.331 14.15 L 4.331 15 L 4.331 15.85 L 9.003 15.85 L 9.003 15 Z" fill="currentColor" fill-rule="nonzero"></path>
</svg>