<?xml version="1.0" encoding="UTF-8"?>
<svg id="Layer_1" data-name="Layer 1" xmlns="http://www.w3.org/2000/svg" viewBox="0 0 1000 1000">
  <defs>
    
  </defs>
  <g>
    <path class="cls-2" d="M676.69,433.54h0s.75-11.52.75-11.52c.54-8.22-1.37-25.1-3.39-33.38-4.32-17.77-13.66-32.05-27.12-44.31-10.6-9.66-20.63-9.36-24.42-12.01-2.18-1.51-5.29-.51-7.76-.87-6.01-.89-17.04-.48-22.53,1.04-8.91,2.47-17.93,4.59-26.04,9.33l-16.78,9.8c-2.27,1.32-3.72,3.98-6.01,5.61-5.84,4.19-10.87,9.36-15.68,14.7-2.35,2.6-3.87,5.65-6.5,8.02-1.84,1.66-2.24,4.35-3.49,6.33l-5.77,9.12c-1.89,3-11.94,13.24-16.09,9.31-.56.61-.66,1.91-1.41,1.81-.66-.09-1.14-.63-1.86-.9-2.55-.92-6.13-.54-8.16-2.69-4.75-5.01-6.55-7.76-9.85-13.74-5.11-9.24-10.79-17.93-18.51-25.39l-10.81-10.46c-7.14-6.9-25.75-15.27-35.5-17.81-22.45-5.85-33.85-1.82-53.37,8.06-2.88,1.45-5.15,3.95-8.22,4.99-2.5.85-3.53,3.04-5.38,4.5-13,10.27-21.58,24.03-25.38,40.01-1.08,4.54-1.82,8.4-2.16,13.03-.56,7.65-1.44,14.87-.85,22.74.99,13.19,4.56,25.83,8.47,38.53,1.21,3.91,2.25,7.6,3.81,11.32l6.51,15.43,9.13,18.06c3.84,7.59,8.42,14.45,12.73,21.73,1.6,2.7,3.83,4.7,5.53,7.17,1.66,2.4,3.05,4.43,5.32,6.47,2.74,2.46,5.72,9.13,7.66,9.95.09-.51-.74-.92-.13-1.87,1.91,1.99,3.75,3.71,4.92,5.91.13.25.4.42.57.64l5.17,6.83c6.27,8.29,14.67,17.53,22.4,24.4,2.59,2.3,4.83,5.35,7.71,6.98,1.73.97,2.64,1.85,3.38,3.21,3.84,3.09,7.26,6.75,10.74,10.58.51-.16.76-.51,1.05-.45.24.04.95.28,1.11.58,1.77,3.13,4.87,4.74,7.11,7.33,2.05,2.38,4.3,4.16,6.7,6.16l10.33,8.64,14.06,12.96c2.82,2.59,5.53,5.27,7.88,8.26,2.72,3.47,3.21.29,3.5,2.85.08.67-.47-.02-1.23,0-.4,1.27,1.41,1.49,1.99,1.98-.15-.62.1-.92.39-1.12.24-.16.65-.04.85.27.13.18-.11.63.01.88.32.29.52.42.58.58.87,0,1.51-.18,1.73.29.16.34-.01.7-.29.86-.24.14-.54.21-.82.14,3.62,2.92,6.92,6.13,10.6,9.94,0,0,2.52-2.39,5.85-5.48,1.98-1.85,4.25-3.95,6.45-5.93,4.13-3.73,8.01-7.11,9.32-7.8,1.91,3.46,3.55,6.53,5.19,9.87.02.05.05.11.08.16.39.78-.69,1.54-1.02,2.32,1.24.06,2.5.54,3.63,1.21l6.1-8.71c-.05-.08-.11-.16-.16-.24l-2.14-3.19-5.17-7.72c-1.97-2.95-2.56-3.54-2.78-3.76-.48-.48-.57-.68-1.11-1.99-.26-.62-.65-1.57-1.27-3.03-6.48-15.24-9.52-27.41-9.89-39.47-.04-1.29-.02-2.54,0-3.75.04-2.25.08-4.36-.24-6.74-.96-7.17,2.7-19.18,5.98-28.83,3.57-10.48,9.51-20.74,18.74-32.28,4.08-5.12,8.25-10.05,14.23-14.23,1.27-.88,2.52-1.82,3.73-2.72,2.14-1.59,4.34-3.23,6.74-4.7,10.26-6.29,19.76-10.33,29.91-12.72.63-.15,1.27-.3,1.89-.45,4.13-.99,8.02-1.92,12.59-2.07,5.82-.2,7.62-.82,8.95-1.27,2.11-.71,3.45-1,10.57.09l21.54,3.3-.24,1.58-.03.18c.26.1.62.23,1.06.38.02-.06.04-.12.05-.18.23-.84-.3-1.54-.72-1.74.66.31,5.43,1.73,8,2.49,1.1.33,2.1.62,2.81.84.37.12.67.2.87.28.11.03.21.08.3.11,6.28,1.33,11.89,4.05,17.49,8.48.26.2.52.41.76.61l4.96-11.49c-.31-.27-.62-.52-.94-.75-.02-.01-.04-.03-.06-.04-2.19-1.57-14.53-7.06-17.77-7.73.56-2.18,1.49-3.98,2.48-5.78.32-.58.65-1.16.97-1.76.13-.25.26-.49.39-.75,3.03-5.91,6.79-15.84,8.37-20.93.44-1.4,1.95-2.59,1.61-4.38-.51-2.7.59-4.75,1.97-6.97.28-.46,2.63-12.64,2.8-13.1ZM359.88,420.22c.17,2.63.17,2.47,2.36,11.98,2.19,9.51,0,27.62,3.07,33.25,3.06,5.63,11.66,11.79,10.43,15.29,0,0-.85,6.25-2.57,7.5-1.73,1.26,2.57,9.9,2.57,9.9,0,0,1.39,24.68,3.15,28.19,1.76,3.5-1.47-4.58,3.53,6.14,1.38,2.93,3.5,7.22,5.88,11.89l-3.88-5.14-1.3.63c-1.38-1.99-3.01-4.06-5.02-5.87-.61-.55-1.14-1.28-2.49-3.25-1.26-1.84-2.53-3.32-3.54-4.51-.49-.58-1.16-1.38-1.32-1.61-1.38-2.32-2.77-4.6-4.17-6.87-1.46-2.39-2.88-4.7-4.24-7l.05-.31-.37-.21c-1.21-2.09-2.36-4.16-3.43-6.27l-8.84-17.5-6.26-14.8c-.92-2.2-1.68-4.65-2.54-7.49-.23-.72-.44-1.45-.66-2.15-3.43-11.12-6.85-22.94-7.72-34.51-.37-4.95.03-9.86.51-15.54.12-1.48.24-2.99.34-4.47.27-3.54.86-6.51,1.72-10.15,2.9-12.22,9.28-22.28,18.94-29.92,1.26-.99,2.27-1.99,3.04-2.81,2.79-1.32,4.93-2.87,6.48-3.99.38-.27.87-.63,1.12-.78,10.67-5.41,17.36-8.34,25-8.7-3.61,3.76-8.72,9.68-10.86,15.09-3.49,8.84-5.75,17.61-5.72,22.87.03,5.27-13.3,16.22-13.3,16.22,0,0-.18,12.28,0,14.91ZM658.23,488.4c.45.14.41.67.3.83-.11.15-.47.68-.92.53.17,0,.38-1.44.62-1.35Z"></path>
    <path class="cls-2" d="M699.63,586.71l-2.18-6.9c-1.31-.03-2.54-.55-3.47-1.44-.99-.97-1.56-2.31-1.57-3.7-.19-1.28-2.45-7.33-4.89-13.08l-2.81.97c-.66-1.52-1.35-3.01-2.1-4.46-7.8-15.4-20.07-27.2-36.51-35.1l-8.29-3.99c-8.03-3.86-14.51-5.08-21.69-4.1-2.29.32-4.49.41-6.63.49-3.02.13-5.87.25-8.9.96-20.48,4.81-36.08,12.61-47.7,23.87-3.93,3.81-6.89,8.62-9.75,13.29-.98,1.59-1.99,3.24-3.02,4.83-3.48,5.33-5.41,10.15-6.05,15.13.03.04.06.1.1.13.43.56,1.24,1.6.87,2.99-2.27,8.39-3.17,18.34-2.56,27.99.66,10.48,3.02,19.72,6.82,26.71.45.84.84,1.7,1.2,2.52.84,1.9,1.65,3.69,3.19,5.01,1.17,1.01,1.91,2.25,2.62,3.44.46.76.89,1.48,1.41,2.07,1.04,1.19,2.23,2.3,3.48,3.46,1.75,1.61,3.55,3.28,4.97,5.28.55.75,1.17.92,2.33,1.18.78.18,1.69.39,2.55.92,3.81,2.36,7.51,4.13,11.46,5.99.89.42,1.78.85,2.7,1.29,22.34,10.73,44.96,12.36,65.42,4.73,5.89-2.2,12.45-6.53,18.65-10.86,3.9-2.73,7.12-5.12,9.93-8.92.8-1.09,1.69-2.13,2.54-3.14,1.15-1.35,2.34-2.75,3.34-4.28.85-1.28,1.69-2.57,2.53-3.93h0c2-3.24,4.01-6.76,6.26-10.95.4-.75.67-1.54.97-2.38.63-1.81,1.34-3.85,3.45-5.29l2.15-1.47.29,2.33,6.37-15.92,1.56,3.28c.04.1.09.19.13.29,2.14-8.69.83-19.23.83-19.23ZM558.66,571.08c0-.84.17-1.58.42-2.2.05-.14.22-.51.45-.9-.11-.18-.23-.37-.35-.55-.49-.7-1.24-1.77-.67-3.24.21-.57.65-1,1.21-1.2,1.05-.39,2.1.18,3.02.7.09-.53.23-1.09.59-1.56l.65-.82,1,.26c.48.12,1.15.17,1.86.23,1.5.12,3.21.25,4.7,1.12,1.97,1.17,6.8,3.6,9.39,1.09l.72-.72c1.35-1.38,2.53-2.56,5.05-3.35.18-.06.48-.25.76-.42,1.08-.65,3.29-1.99,5.5.44.22.24,1.01.48,1.55.64.73.23,1.49.45,2.12.9,3.46,2.49,2.55,6.2,1.89,8.9-.14.56-.27,1.09-.35,1.57-.81,4.45-2.86,8.19-5.94,10.84-3.01,2.57-6.82,3.91-11.02,3.91-.25,0-.49-.01-.75-.01-6.05-.23-11.04-2.03-15.22-5.51-5.12-4.25-6.57-7.63-6.57-10.1ZM658.98,636.89l-.1.27-.18.22c-1.08,1.31-2.76,2.11-4.39,2.88-.88.42-1.71.81-2.39,1.26l-1.24.8-4.57-5.96c-.53.29-1.04.39-1.46.41-2.63.12-4.99-2.82-7.06-5.4-.75-.92-1.45-1.81-1.95-2.24-7.35-6.44-17.21-8.92-27.05-6.79l-6.26,1.34c-.41.1-.81.17-1.2.26-3.27.7-5.62,1.19-8.31,2.86-.35.23-.72.45-1.08.67-3.31,2.03-6.44,3.96-8.04,7.46l-1.44,3.17-1.45-3.17c-.18-.42-.29-.82-.35-1.18-.29.39-.57.78-.84,1.17-1.43,2.01-2.91,4.1-5.38,5.61l-2.5,1.55.09-2.95c.01-.38.03-.74.05-1.11.06-1.28.09-2.18-.13-2.89l-2.76,2.99-1.16-1.4c-1.44-1.75-.73-3.5-.31-4.55.15-.37.28-.7.33-.98l.98-5.45c.59-3.21,2.96-5.43,5.05-7.39.77-.73,1.5-1.41,2.14-2.12,3.72-4.19,8.16-6.82,12.38-9.14,6.7-3.69,9.77-4.94,17.2-6.17,21.6-3.58,36.96,1.37,48.34,15.54,3.95,4.91,8.08,11.66,5.02,20.41ZM661.41,574.01c-.28.31-.54.6-.67.87-.67,1.41-1.44,2.45-2.27,3.33-.84.87-1.72,1.57-2.6,2.26-.56.44-1.09.85-1.6,1.32-2.81,2.5-5,4.17-9.36,4.17h-.33c-5.85-.11-11.84-.89-15.99-5.84-3.57-4.25-5.39-6.69-6.05-9.07-.69-2.5-.09-4.59.92-8.04.41-1.41.87-3,1.35-4.99l.28-1.11,1.13-.1c3.33-.28,4.54-1.03,5.11-1.4.41-.26,1.02-.65,1.83-.45.67.16,1.04.55,1.47,1.23.58-.32,1.45-.61,2.39-.04l.28.17c1.25.75,2.53,1.53,3.04,3.34,1,3.49,4.75,4.26,7.67,3.86,1.31-.18,2.36.42,3.14.86.2.12.42.24.61.32,1.57-1.55,3.25-2.06,5.2-1.6,3.15.73,3.96,2.1,4.57,4.87.04.18.22.47.38.76.34.58.77,1.3.84,2.24.11,1.43-.73,2.35-1.33,3.03Z"></path>
  </g>
  <path class="cls-1" d="M484.07,664.27c-.24.14-.54.22-.82.14-.31-.67-.39-1.05-.62-1.29.87,0,1.5-.18,1.73.29.16.34-.01.7-.29.86Z"></path>
  <path class="cls-1" d="M482.05,662.54c-.69,0-.99.01-1.25-.03-.15-.62.1-.92.39-1.12.24-.16.65-.04.85.27.13.18-.11.63.01.88Z"></path>
  <g>
    <path class="cls-1" d="M658.23,488.4c-.25-.09-.45,1.35-.62,1.35.45.15.82-.38.92-.53.11-.16.15-.69-.3-.83ZM416.95,603.93s-.01.03,0,.03c0-.01,0-.02.01-.03h-.01Z"></path>
    <path class="cls-1" d="M712.96,397.3c-.47-1.98-.45-3.67-.78-5.54-1.23-6.73-2.93-13.17-4.92-19.68-.56-1.8-1.39-3.67-1.48-5.35-1.4-1.38-1.69-3.2-2.11-5.04-.42-1.86-2.67-3.32-2.55-5.41-3.67-3.86-2.96-8.42-6.24-9.99l.68-.88-8.36-12.04c-6.63-9.55-21.3-21.13-31.63-26l-13.29-6.27c-1.13-.54-2.19-.86-3.2-.94-.2.32.41.84.33,1.11-.13.52-3.26-.66-3.38-.72-.63-.33-.72-1.15-.6-1.87-.56,0-1.13-.27-1.7-.19.01.41.16,1.13-.29,1.28-.66.21-1.59.02-1.9-.88l1.61-.87c-9.17-2.34-18.65-2.71-28.35-2.23l-9.14.46c.24,1.09,1.57.37,2.86.87-1.56,1.19-3.65.56-5.68,1.04-.41.1-.81.19-1.2.3-.65.16-1.27.33-1.89.5-.09.02-.16.04-.24.06-.37.1-.73.19-1.09.29-.57.15-1.13.29-1.69.41-.3.08-.61.13-.91.19-.06.01-.12.02-.18.03-.28.04-.55.1-.83.13-.02.01-.04.01-.06.01s-.03,0-.05.01c-.03.01-.09.01-.16.02-.06.01-.15.02-.25.03-.05.01-.11.01-.16.02-2.64.91-5.55,1-8.65,1.34-1.1.13-2.34-1.21-3.01,0,1.34.02,1.83.33,1.86.84.03.61-3.24,2.34-4.26,1.18,1.23-.99,2.33-.96,2.4-2.02-19.55,6.57-37.12,15.11-51.8,30.41-5.84,6.07-11.92,11.55-16.63,18.51-.86,1.26-1,2.03-2.3,3.1-2.58,2.07-3.96,5.38-6.35,7.87l-6.96-8.66c-8.43-10.49-16.18-14-24.23-22.37-4.85-5.03-10.22-8.26-16.19-11.66-8.46-4.83-16.96-8.21-26.62-10.21-6.35-1.31-12.28-2.5-18.88-2.59-14.85-.2-23.53-.75-37.92,3.52-8.31,2.47-15.44,6.82-23.14,10.59-6.27,3.06-11.91,6.62-17.09,11.26-8.78,7.85-8.14,7.89-15.83,16.29l-3.59,3.92-3.17,4.91c-1.91,2.97-4.04,5.91-5.34,9.18l-6.18,15.53c-1.64,4.16-2.24,8.7-3.3,13.01-1.59,6.49-1.87,12.6-1.83,19.26.05,9.48-.71,18.78,1.21,28.12.63,3.08.8,6.22,1.69,9.27l6.88,23.45,2.8,8.82c.55,1.7,2.42,3.13.95,5.19,1.75,6.55,4.35,12.52,7.36,18.59l7.34,14.77c3.21,6.47,6.74,12.04,10.85,18.03l13.11,19.13,9.6,13.06c.87,1.18,2.71,1.66,3.49,3.32,2.28,4.8,8.77,9.93,11.17,14.13.16.29.59.4.74.39.15-.01.38-.19.66-.55,2.05,1.02,2.58,3.34,4.05,5.15l11.23,13.75c.95-.1,2.01-.56,2.56-.43.94.22.96,1.18,1.54,1.86l5.34,6.28c2.34,2.74,5.72,4.7,7.82,7.63,1.54,2.16,3.35,3.03,5.29,4.65,2.2,1.85,3.26,5.45,6.41,6.68,1.68.66,3.13,1.59,3.9,3.03.3.55,1.46.78,1.17,1.77.41-.1.59.17.77.42.03.04.06.09.1.13s.06.09.1.12l.02.02s.08.04.1.06c3.12,1.84,5.39,4.96,8,7.43,1.7,1.6,3.84,2.82,5.34,5.03-.83.8-1.4-.18-2.52-.45.14,1.37,1.26,1.82,2.75,2.78.27-.55.2-1.2.69-1.82l3.28,2.97c-.48.63-1.12.7-1.6,1.12l6.97,5.58c3.46,2.77,6.85,5.29,10.36,7.98l13.32,10.2c1.97,1.5,4.44,1.84,6.08,4.16.65.9,2.69.25,3.29,1.27-.82.61-.81.89-.6,1.13.58.69,1.41.5,1.78.83.05-.28.12-.55.01-.81-.08-.17.18-.73.53-.48l9.22,6.59c.38.27,1.09.98,1.03,1.39-.04.34-.85.56-1.06.91.54.19.95.61,1.19,1.12.2.23.39.45.56.7.25.31.71.4.98.56.12-.3.31-.63.6-.77,1.58-.77,2.89,2.1,5.65,2.36-.14-1.27-.33-2.61-1.19-3.48-.25-.14-.78.12-1.05.03-.47-.14-.32-.82-.3-1.37,0-.24.3-.44.84-.35.45.08.31.86.53,1.1,3.46,1.58,1.91,2.69,6.41,2.07-1.68,1.83-3.07,3.9-5.07,5.64,2.86,2.71,16.95-2.54,18.31-3.97,1.09-1.14,10.38-5.48,12.52-7.65l-7.63,3.26c.54-.41,17.63-13.37,21.13-16.69l-7.25-7.15c-1.47-1.92-4.15-3.81-6.74-3.95.33-.79,1.41-1.54,1.02-2.32-.02-.05-.05-.11-.08-.16-1.64-3.34-3.28-6.41-5.19-9.87-2.01,1.08-10.08,8.44-15.77,13.74-3.33,3.1-5.85,5.48-5.85,5.48-3.68-3.82-6.98-7.02-10.6-9.94-.72-.59-2.38-.32-2.45-1.9-.58-.48-2.39-.71-1.99-1.98.75-.02,1.3.67,1.23,0-.29-2.56-.78.62-3.5-2.85-2.35-2.99-5.06-5.67-7.88-8.26l-14.06-12.96-10.33-8.64c-2.4-2-4.64-3.78-6.7-6.16-2.24-2.59-5.33-4.2-7.11-7.33-.16-.3-.87-.54-1.11-.58-.29-.05-.55.29-1.05.45-3.48-3.83-6.9-7.49-10.74-10.58-.16.13-.29.22-.39.27-.05.03-.09.05-.12.05-.04.02-.08.03-.09.02h-.01s-.01-.01,0-.03h.01c.06-.1.29-.27.59-.31-.73-1.37-1.64-2.25-3.38-3.21-2.88-1.62-5.12-4.68-7.71-6.98-7.73-6.87-16.14-16.11-22.4-24.4l-5.17-6.83c-.33.16-.69.41-1.05.53-.73.23-.84-.57-.76-1.11-.24-.13-.34-.48-.58-.58-1.45-.6-1.72-2.76-2.97-3.53-1.95-.83-4.92-7.49-7.66-9.95-2.27-2.04-3.67-4.07-5.32-6.47-1.7-2.47-3.92-4.47-5.53-7.17-4.31-7.28-8.89-14.14-12.73-21.73l-9.13-18.06-6.51-15.43c-1.56-3.72-2.59-7.41-3.81-11.32-3.91-12.7-7.48-25.34-8.47-38.53-.59-7.87.29-15.08.85-22.74.34-4.63,1.09-8.49,2.16-13.03,3.81-15.99,12.38-29.75,25.38-40.01,1.85-1.46,2.87-3.65,5.38-4.5,3.07-1.04,5.34-3.54,8.22-4.99,19.52-9.88,30.93-13.91,53.37-8.06,9.75,2.55,28.36,10.91,35.5,17.81l10.81,10.46c7.72,7.46,13.41,16.15,18.51,25.39,3.3,5.98,5.1,8.73,9.85,13.74,2.03,2.15,5.61,1.76,8.16,2.69.72.27,1.2.82,1.86.9.75.11.85-1.19,1.41-1.81,4.15,3.93,14.2-6.31,16.09-9.31l5.77-9.12c1.26-1.98,1.66-4.68,3.49-6.33,2.63-2.37,4.15-5.42,6.5-8.02,4.82-5.33,9.85-10.5,15.68-14.7,2.29-1.63,3.74-4.29,6.01-5.61l16.78-9.8c8.11-4.74,17.12-6.86,26.04-9.33,5.49-1.53,16.52-1.94,22.53-1.04,2.47.37,5.58-.63,7.76.87,3.79,2.64,13.82,2.34,24.42,12.01,13.46,12.27,22.8,26.54,27.12,44.31,2.02,8.28,3.92,25.15,3.39,33.38l-.75,11.51h0c-.16.47-2.52,12.65-2.8,13.12-1.38,2.21-2.47,4.27-1.97,6.97.33,1.78-1.17,2.98-1.61,4.38-1.65,5.32-5.68,15.9-8.76,21.68-.32.6-.64,1.18-.97,1.76-.99,1.81-1.92,3.6-2.48,5.78,3.24.67,15.58,6.16,17.77,7.73.02.01.04.03.06.04,2.71,2.02,5.03,5.25,8.15,6.16.14.01.23.03.27.06.01.01.02.01.02.02-.03.01-.06.01-.12-.01-.05-.01-.11-.04-.17-.08.37.49.91,1.1,1.64,1.06.25-.75.4-1.55,1.41-2.3.54.31.52.91.84,1.26-.01,1.66,5-4.14,5-3.97,3.5-5.39,13.13-27.68,13.92-31.23.39-1.73,1.16-2.96,1.66-4.63,1.96-6.64,2.6-13.47,3.85-20.3,1.24-6.82.55-13.29.65-20.37,2.09.65.38,2.56,1.67,3.62.49-9.88.61-17.28-1.75-26.99ZM482.3,692.14c-1.9.46-3.15-1.78-4.01-3.43,1.35.89,3.07.92,4.01,3.43ZM475.11,684.42c-1.46-.44-2.52-.82-3.4-2.07,1.43-.32,2.64.73,3.4,2.07ZM467.74,678.57c-2.67-.72-4.62-2.98-6.66-5.15,2.47,1.13,5.11,2.28,6.66,5.15ZM406.34,599.3c-.89.17-1.35-.71-1.81-1.67.87.25,1.12.78,1.81,1.67ZM392.94,585.83c.16,0,.29.13.29.29,0,.15-.13.29-.29.29-.15,0-.28-.14-.28-.29,0-.16.13-.29.28-.29ZM391.04,584.4c.23-.56.64.19.81.31.29.19.1.52-.09.56-.44.11-1.08,0-.72-.87ZM389.67,582.2c.25.05.29.45.29.88.01.81-1.03-.43-.97-.99.02-.18.54.06.68.11ZM388.04,580.57c.2,0,.37.16.37.37s-.16.37-.37.37c-.19,0-.37-.16-.37-.37s.17-.37.37-.37ZM386.59,578.92c.24,0,.42.39.31.84-.06.28-.58.43-.84.31-.2-.11-.6-.25-.63-1-.01-.34.94-.15,1.16-.15ZM384.3,577.76c.15,0,.28.13.28.29,0,.15-.13.28-.28.28-.16,0-.29-.13-.29-.28,0-.16.13-.29.29-.29ZM382.7,575.41c.16.66.17.88.61,1.69-.39.13-.61-.39-.78-.51-.37-.27-.53-.94.17-1.18ZM381.4,574.3c.16,0,.29.13.29.29s-.13.29-.29.29c-.15,0-.28-.13-.28-.29s.13-.29.28-.29ZM380.25,573.15c.16,0,.29.13.29.28,0,.16-.13.29-.29.29s-.29-.13-.29-.29c0-.15.13-.28.29-.28ZM376.58,567.94s.09.05.13.1c.21.18.53.58.88,1.08.09.11.17.23.26.35.1.13.19.27.29.42.08.1.14.2.21.31.3.43.6.86.86,1.21.06.09.13.18.19.26.26.33.46.56.56.57.02-.03.02-.06.03-.11.02-.13.01-.27-.02-.41.06.26.09.42.05.48-.02.02-.03.03-.05.03h-.01c-.02.08-.05.14-.11.19-.02.03-.04.05-.08.08-.02.02-.06.04-.11.06-.6.26-.96-.31-1.09-.92-.31-1.46-2.28-1.56-2.11-3.16-.1-.47-.05-.61.1-.55ZM355.85,540.71c1.26,1.68,2.83,2.95,3.99,4.76.25.38-.75.85-.94.6-.18-.25-.37-.56-.45-1.02-.34-2.01-3.23-1.81-2.6-4.34ZM354.31,539.38c-1.21-.72-1.38-1.58-1.42-2.59,1.15-.14,1.95,1.24,1.42,2.59ZM341.61,518.42c.17-.13.44.46.63.55.19.09.3.45.27.71.95.58,1.86.95-.37.3.23.06.33-.09.37-.3-.67-.41-1.34-.92-.9-1.26ZM337.39,510.07c1.53,2.5,3.21,4.74,3.87,7.7-1.75-2.25-2.86-4.68-4.15-7.26-1.31-2.62-3.48-4.68-4.26-7.65,2.46,1.74,3.03,4.72,4.54,7.21ZM330.54,498.14c.4.51,1.02,1.03.73,2.34-.26-.66-1.11-1.27-.73-2.34ZM329.5,496.07c.2,0,.37.17.37.37,0,.2-.16.37-.37.37s-.37-.16-.37-.37c0-.19.16-.37.37-.37ZM327.59,491.77c.95.74,1.82,1.47,1.46,3.52-1.06-.73-1.77-1.88-1.46-3.52ZM327.22,491.24c-.25-.64-1.11-1.26-.73-2.34.41.52,1.02,1.04.73,2.34ZM316.19,458.59c.96,2.19.9,5.15,2.2,7.02,2.13,3.03,2.98,5.7,3.62,9.26.38,2,4.02,10.22,3.73,11.77.27.31,1.11,1.41.4,1.58-.88.2-.77-1.12-.97-1.58-.89-2.11-2.5-6.28-3.11-8.72-1.55-6.14-6.61-12.63-8.63-24.23l-1.97-11.34c-1.17-6.76-1.87-13.44-1.87-20.3v-5.77c.52-1.89.44-3.36.77-5.27,1.1,1.83.16,3.69-.19,5.27-.18,1.8-.14,3.97,0,5.77.56,7.12.59,13.79,2.3,20.3,1.38,5.27,1.43,10.98,3.71,16.24ZM317.14,380.71c-.68,3.47-2,6.44-3.1,9.57-.81,2.29-.73,4.38-1.11,6.47-.57,3.13-1.47,6.22-1.53,9.76-.03,1.52-.16,2.92-1.02,4.06-.92-2.71.53-4.92.57-7.53.03-2.38-.08-4.4,1.03-6.25.31-7.49,2.3-9.91,4.56-16.15.37-1.92,1.47-3.12,2.76-4.17-.7,1.65-1.26,2.98-2.17,4.22ZM320.06,374.55c.61-.7.51-1.67,1.58-2.11-.4.78-.41,1.75-1.58,2.11ZM322.87,370.99c-.09.16-.43.69-.95.52.23,0,.39-1.43.66-1.34.44.15.39.66.29.83ZM384.52,330.67c1.25-.55,2.57-.55,4.65.02-1.44.35-2.86.43-4.65-.02ZM389.71,330.68c1.04-.57,2.18-.55,4.07.01-1.25.37-2.48.42-4.07-.01ZM394.02,330.9c1.33-.87,2.48-.94,4.16-.01-1.23,1.02-2.9.98-4.16.01ZM564.81,306.12c-.16,0-.29-.13-.29-.28,0-.16.13-.29.29-.29s.29.13.29.29c0,.15-.13.28-.29.28ZM565.27,305.09c1.6-1,3.15-1.52,4.65-.86-1.64,1.04-3.11,1.46-4.65.86ZM603.66,308.03c2.16-.3,3.75-.3,5.76,0-2.09,1.08-3.99,1.11-5.76,0ZM647.85,318.23c-.15,0-.28-.13-.28-.29s.13-.29.28-.29c.16,0,.29.13.29.29s-.13.29-.29.29ZM649.3,319.31c-.27,0-.49-.23-.49-.49s.23-.5.49-.5.51.23.51.5-.23.49-.51.49ZM659.98,325.74c-.16-.1-.68-.47-.53-.93,0,.02.02.04.05.06.06.03.15.06.26.11.04.01.08.02.12.03.08.02.16.05.25.08.09.02.17.05.25.08.26.09.46.17.43.28-.15.44-.67.4-.83.3ZM678.67,341.97c.83.12,1.42.53,1.6,2.09l-1.6-2.09ZM692.82,366.24c.95-.23,1.14,1.1,1.29,1.61,1.04,3.49,2.28,4.46,1.9,6.94-.25,1.67-3.71-6.27-2.71-6.92-.47-.41-1.1-1.49-.48-1.63ZM691.69,364.37c.15,0,.29.13.29.29s-.14.29-.29.29c-.16,0-.29-.13-.29-.29s.13-.29.29-.29ZM691.34,363.31c-1.46-.83-1.11-2.33-2.07-3.97,1.19.75,2.12,2.02,2.07,3.97ZM688.43,493.64c.16,0,.29.13.29.29,0,.15-.13.29-.29.29s-.29-.14-.29-.29c0-.16.13-.29.29-.29ZM682.86,347.21c.72,1.39,2.39,2.06,2.6,4.48-1.48-.58-2.11-2.42-2.6-4.48ZM685.25,500.05c-.35,0-.65-.29-.65-.65s.29-.63.65-.63.63.28.63.63-.28.65-.63.65ZM686.19,497.91c.3-1.11.72-2.15,1.67-3-.05,1.33-.97,1.98-1.67,3ZM687.64,499.54c-.2-1.63,1.3-2.05,2.13-3.02-.71,1.04-.34,2.59-2.13,3.02ZM689.94,469.9c-.58-.57-.46-1.56.61-2.28.58.57.46,1.57-.61,2.28ZM702.66,417.27c-.9,3.59-.65,6.42-.67,9.98-.01,1.77-.77,3.12-.32,5.32.45,2.21-.4,5.35-1.06,7.59l-6.2,20.85c-.55,1.85-2.07,3.38-2.97,4.78-.45.4-.61.41-.57.32.03-.1.26-.29.57-.32,1.96-5.06,7.4-23.53,7.87-27.68l1.03-9.07c1-8.76,1.32-17.2.68-25.98-.44-5.99-1.82-11.76-2.57-17.8-.31-2.47-2.13-4.32-1.71-7.07,2.56,1.33,5.43,19.26,5.32,20.59-.18,2.25-.2,2.97.61,5.11.43,1.11.59,11.06-.01,13.39Z"></path>
  </g>
  <path class="cls-1" d="M413.78,641.84c-1.28-.19-2.49-1.04-2.71-2.37.39-.06.81.08,1.19-.01.02.34.67.49.97.67l.02.02s.08.04.1.06c.04.55.28,1.1.43,1.62Z"></path>
  <path class="cls-1" d="M378.33,561.55l-1.25.06c-.03-.46-.27-.84-.58-1.16-.99-1-1.62-2.38-2.97-2.95.09-.5-.74-.92-.13-1.87,1.91,1.99,3.75,3.71,4.92,5.91Z"></path>
  <path class="cls-1" d="M482.63,663.12c-.31-.3-.51-.42-.58-.58.32.29.52.42.58.58Z"></path>
  <path class="cls-3" d="M683.14,635.89c-.19-.37-.8-.67-1.27-.19-.37.38-.38,1.68.18,1.9-.05-.08,1.52-.85,1.09-1.71Z"></path>
  <path class="cls-4" d="M658.98,636.89l-.1.27-.18.22c-1.08,1.31-2.76,2.11-4.39,2.88-.88.42-1.71.81-2.39,1.26l-1.23.8-4.57-5.96c-.53.29-1.05.39-1.47.41-2.64.12-4.99-2.81-7.07-5.39-.74-.93-1.45-1.8-1.94-2.23-7.35-6.45-17.21-8.92-27.04-6.8l-6.26,1.35c-.41.09-.81.17-1.2.26-3.27.69-5.63,1.19-8.31,2.86-.36.23-.72.44-1.08.67-3.31,2.03-6.43,3.95-8.04,7.46l-1.45,3.17-1.44-3.17c-.19-.42-.3-.81-.36-1.18-.29.39-.57.78-.84,1.17-1.43,2.01-2.91,4.1-5.37,5.61l-2.51,1.55.09-2.94c.01-.37.03-.74.05-1.1.07-1.28.1-2.18-.12-2.9l-2.77,2.99-1.15-1.41c-1.44-1.75-.74-3.5-.31-4.55.14-.36.28-.69.33-.97l.98-5.45c.58-3.22,2.96-5.44,5.05-7.39.78-.72,1.51-1.41,2.14-2.12,3.72-4.19,8.16-6.81,12.39-9.14,6.7-3.69,9.76-4.94,17.2-6.17,21.59-3.57,36.95,1.37,48.34,15.54,3.95,4.91,8.08,11.67,5.01,20.42Z"></path>
  <path class="cls-4" d="M661.91,568.74c.34.58.77,1.3.84,2.24.1,1.42-.73,2.35-1.34,3.03-.28.31-.54.6-.67.87-.66,1.4-1.44,2.45-2.27,3.33-.83.87-1.72,1.57-2.59,2.26-.56.44-1.09.85-1.61,1.32-2.81,2.51-5,4.17-9.36,4.17-.11,0-.22,0-.33,0-5.85-.11-11.84-.89-15.99-5.83-3.57-4.25-5.39-6.69-6.05-9.08-.7-2.5-.09-4.58.92-8.04.41-1.4.87-2.99,1.36-4.98l.27-1.11,1.13-.1c3.33-.28,4.53-1.04,5.11-1.4.41-.26,1.02-.64,1.83-.45.66.16,1.04.55,1.47,1.22.58-.32,1.45-.61,2.39-.04l.27.17c1.25.75,2.53,1.53,3.05,3.34,1,3.49,4.75,4.26,7.66,3.86,1.31-.18,2.36.42,3.14.86.21.12.42.24.61.33,1.57-1.55,3.25-2.06,5.21-1.61,3.14.74,3.95,2.1,4.56,4.87.04.18.21.48.38.76Z"></path>
  <path class="cls-4" d="M598.52,570.4c-.14.56-.27,1.08-.35,1.56-.8,4.45-2.86,8.19-5.95,10.83-3.01,2.57-6.81,3.92-11.02,3.92-.25,0-.49,0-.74-.01-6.06-.23-11.05-2.03-15.23-5.51-5.11-4.25-6.56-7.64-6.56-10.11,0-.84.17-1.57.42-2.2.05-.14.21-.51.46-.9-.11-.19-.23-.37-.36-.55-.49-.71-1.23-1.78-.67-3.24.22-.58.65-1,1.21-1.21,1.06-.38,2.1.18,3.02.69.09-.53.23-1.08.59-1.55l.64-.82,1.01.26c.48.12,1.15.17,1.85.23,1.51.12,3.22.25,4.7,1.12,1.96,1.17,6.81,3.6,9.39,1.08.25-.25.49-.49.72-.72,1.36-1.37,2.53-2.56,5.05-3.35.18-.06.48-.24.77-.41,1.07-.65,3.29-1.99,5.5.44.22.24,1.02.48,1.55.64.74.22,1.5.45,2.12.9,3.46,2.49,2.55,6.2,1.89,8.91Z"></path>
  <path class="cls-3" d="M598.52,297.12c-1.56,1.19-3.65.56-5.68,1.04-.41.1-.81.19-1.2.3-.65.16-1.27.33-1.89.5-.09.02-.16.04-.24.06-.37.1-.73.19-1.09.29-.57.15-1.13.29-1.69.41-.3.08-.61.13-.91.19-.06.01-.12.02-.18.03-.28.04-.55.1-.83.13-.02.01-.04.01-.06.01.52-.15-4.56.06-4.65-.08-1.06-1.53,3.34-1.34,8.49-3.11,2.39-.83,4.83-.56,7.07-.67.24,1.09,1.57.37,2.86.87Z"></path>
  <path class="cls-3" d="M703.3,359.8c-.7-1.59-1.32-2.61-2.19-3.53-3.67-3.86-2.96-8.42-6.24-9.99l.68-.88c2.69,1.04,2.89,4.16,4.3,6.62,1.43,2.49,3.92,4.69,3.45,7.77Z"></path>
  <path class="cls-3" d="M421.35,647.65c-.35.4-.87.57-1.32.57-.74-.02-.86-.68-.96-1.14-.46-1.96-2.41-4.04-4.46-4.17-.2-.39-.69-.58-.83-1.06-.15-.53-.39-1.08-.43-1.62,3.12,1.84,5.39,4.96,8,7.43Z"></path>
  <path class="cls-3" d="M412.27,639.47c-.39.09-.81-.05-1.19.01l.02-1.78c.3.55,1.46.78,1.17,1.77Z"></path>
  <path class="cls-3" d="M413.23,640.13c-.3-.17-.95-.32-.97-.67.41-.1.59.17.77.42.03.04.06.09.1.13s.06.09.1.12Z"></path>
  <path class="cls-3" d="M706.51,366.9c-.08.16-.57-.38-.74-.17-1.4-1.38-1.69-3.2-2.11-5.04,2.53-.04,3.15,4.56,2.85,5.21Z"></path>
  <path class="cls-3" d="M290.26,465.44c-1.26-3.45-2.39-6.45-2.42-10.07,1.18,3.24,2.83,6.29,2.42,10.07Z"></path>
  <path class="cls-3" d="M639.41,301.27c-.13.52-3.26-.66-3.38-.72-.63-.33-.72-1.15-.6-1.87,1.38.01,2.98.14,3.64,1.48-.2.32.41.84.33,1.11Z"></path>
  <path class="cls-3" d="M687.88,502.89c-.24.69-.96.69-1.54.29-.25-.17-.41-.73-.61-.97.25-.75.4-1.55,1.41-2.3.54.31.52.91.84,1.26-.01.61.05,1.25-.1,1.72Z"></path>
  <path class="cls-3" d="M485.05,700.46c-1.09.29-5.47-3.25-5.47-3.48.01-.35.48-.65.66-.96.54.19.95.61,1.19,1.12l.56.7c.25.31.71.4.98.56l2.09,2.06Z"></path>
  <path class="cls-1" d="M419.07,647.08c-1.72-.96-3.51-2.4-4.46-4.17,2.05.13,4,2.21,4.46,4.17Z"></path>
  <path class="cls-1" d="M294.61,479.14h.58c.27,1.02,1.9,1.82.64,3.19-1.13-.98-1.12-2.2-1.22-3.19Z"></path>
  <path class="cls-3" d="M633.44,299.77c-.66.21-1.59.02-1.9-.88l1.61-.87c.23.05.38.37.58.47.01.41.16,1.13-.29,1.28Z"></path>
  <path class="cls-3" d="M710.16,378.75c-.25-1.4-1.33-2.45-.4-3.78,1.22,1.19.74,2.43.4,3.78Z"></path>
  <path class="cls-3" d="M470.5,688.42c.73.23,1.6.54,1.61,1.63-1.1-.08-1.08-1.18-1.61-1.63Z"></path>
  <path class="cls-3" d="M473.85,691.29c.03-.21.43-.05.62-.04s.23.36.15.69c-.07.27-.84-.23-.77-.65Z"></path>
  <path class="cls-3" d="M488.03,695.91v.59c-.26-.14-.8.12-1.06.03-.47-.14-.32-.82-.3-1.37,0-.24.3-.44.84-.35.45.08.31.86.53,1.1Z"></path>
  <path class="cls-3" d="M377.08,561.61c-.24-.13-.34-.48-.58-.58v-.58c.31.32.55.7.58,1.16Z"></path>
  <path class="cls-3" d="M378.9,562.19c-.33.16-.69.41-1.05.53-.73.23-.84-.57-.76-1.11l1.25-.06c.13.25.4.42.57.64Z"></path>
  <path class="cls-3" d="M295.19,479.14h-.58c.07-1.24-.85-1.78-.43-2.95.91.84.77,2.02,1.01,2.95Z"></path>
  <path class="cls-3" d="M293.77,475.1c-.25-.65-1.1-1.26-.73-2.34.4.51,1.02,1.04.73,2.34Z"></path>
  <path class="cls-3" d="M312.49,442.34h-1.01c-1.17-6.76-1.87-13.44-1.87-20.3h.58c.56,7.12.59,13.79,2.3,20.3Z"></path>
  <path class="cls-3" d="M341.26,517.77c-1.75-2.25-2.86-4.68-4.15-7.26-1.31-2.62-3.48-4.68-4.26-7.65,2.46,1.74,3.03,4.72,4.54,7.21,1.53,2.5,3.21,4.74,3.87,7.7Z"></path>
  <path class="cls-3" d="M312.94,396.75c-.57,3.13-1.47,6.22-1.53,9.76-.03,1.52-.16,2.92-1.02,4.06-.92-2.71.53-4.92.57-7.53.03-2.38-.08-4.4,1.03-6.25l.95-.05Z"></path>
  <path class="cls-3" d="M574.32,302.37c.03.61-3.24,2.34-4.26,1.18,1.23-.99,2.33-.96,2.4-2.02,1.34.02,1.83.33,1.86.84Z"></path>
  <path class="cls-3" d="M687.86,494.91c-.05,1.33-.97,1.98-1.67,3,.3-1.11.72-2.15,1.67-3Z"></path>
  <path class="cls-3" d="M609.42,308.03c-2.09,1.08-3.99,1.11-5.76,0,2.16-.3,3.75-.3,5.76,0Z"></path>
  <path class="cls-3" d="M691.34,363.31c-1.46-.83-1.11-2.33-2.07-3.97,1.19.75,2.12,2.02,2.07,3.97Z"></path>
  <path class="cls-3" d="M310.19,416.27h-.58c.52-1.89.44-3.36.77-5.27,1.1,1.83.16,3.69-.19,5.27Z"></path>
  <path class="cls-3" d="M569.93,304.23c-1.64,1.04-3.11,1.46-4.65.86,1.6-1,3.15-1.52,4.65-.86Z"></path>
  <path class="cls-3" d="M398.18,330.89c-1.23,1.02-2.9.98-4.16.01,1.33-.87,2.48-.94,4.16-.01Z"></path>
  <path class="cls-3" d="M329.05,495.29c-1.06-.73-1.77-1.88-1.46-3.52.95.74,1.82,1.47,1.46,3.52Z"></path>
  <path class="cls-3" d="M475.11,684.42c-1.46-.44-2.52-.82-3.4-2.07,1.43-.32,2.64.73,3.4,2.07Z"></path>
  <path class="cls-3" d="M406.34,599.3c-.89.17-1.35-.71-1.81-1.67.87.25,1.12.78,1.81,1.67Z"></path>
  <path class="cls-3" d="M694.11,367.86c-.27.03-.54.03-.81.02-.47-.41-1.1-1.49-.48-1.63.95-.23,1.14,1.1,1.29,1.61Z"></path>
  <path class="cls-3" d="M354.31,539.38c-1.21-.72-1.38-1.58-1.42-2.59,1.15-.14,1.95,1.24,1.42,2.59Z"></path>
  <path class="cls-3" d="M319.31,376.49c-.7,1.65-1.26,2.98-2.17,4.22l-.59-.05c.37-1.92,1.47-3.12,2.76-4.17Z"></path>
  <path class="cls-3" d="M389.18,330.69c-1.44.35-2.86.43-4.65-.02,1.25-.55,2.57-.55,4.65.02Z"></path>
  <path class="cls-3" d="M389.96,583.08c.01.81-1.03-.43-.97-.99.02-.18.54.06.68.11.25.05.29.45.29.88Z"></path>
  <path class="cls-3" d="M393.79,330.69c-1.25.37-2.48.42-4.07-.01,1.04-.57,2.18-.55,4.07.01Z"></path>
  <path class="cls-3" d="M689.94,469.9c-.58-.57-.46-1.56.61-2.28.58.57.46,1.57-.61,2.28Z"></path>
  <path class="cls-3" d="M386.9,579.76c-.06.28-.58.43-.84.31-.2-.11-.6-.25-.63-1-.01-.34.94-.15,1.16-.15s.42.39.31.84Z"></path>
  <path class="cls-3" d="M685.46,351.69c-1.48-.58-2.11-2.42-2.6-4.48.72,1.39,2.39,2.06,2.6,4.48Z"></path>
  <path class="cls-3" d="M358.9,546.07c-.18-.25-.37-.56-.45-1.02-.34-2.01-3.23-1.81-2.6-4.34,1.26,1.68,2.83,2.95,3.99,4.76.25.38-.75.85-.94.6Z"></path>
  <path class="cls-3" d="M326.15,488.21c-.88.2-.77-1.12-.97-1.58h.57c.27.31,1.11,1.41.4,1.58Z"></path>
  <g>
    <path class="cls-3" d="M379.96,572.24c-.02.08-.05.14-.11.19-.02.03-.04.05-.08.08-.03.03-.08.05-.11.06-.6.26-.96-.31-1.09-.92-.31-1.46-2.28-1.56-2.11-3.16-.1-.47-.05-.61.1-.55.03.02.09.05.13.1.21.18.53.58.88,1.08.09.11.17.23.26.35.1.13.19.27.29.42.08.1.14.2.21.31.3.43.6.86.86,1.21.06.09.13.18.19.26.26.33.46.56.56.57Z"></path>
    <path class="cls-3" d="M380.03,572.2s-.03.03-.05.03h-.01s.02-.06.03-.11c.02-.13.01-.27-.02-.41.06.26.09.42.05.48Z"></path>
  </g>
  <path class="cls-3" d="M685.89,499.4c0,.35-.28.65-.63.65s-.65-.29-.65-.65.29-.63.65-.63.63.28.63.63Z"></path>
  <path class="cls-3" d="M689.77,496.52c-.71,1.04-.34,2.59-2.13,3.02-.2-1.63,1.3-2.05,2.13-3.02Z"></path>
  <path class="cls-3" d="M391.76,585.28c-.44.11-1.08,0-.72-.87.23-.56.64.19.81.31.29.19.1.52-.09.56Z"></path>
  <path class="cls-3" d="M680.28,344.06l-1.6-2.09c.83.12,1.42.53,1.6,2.09Z"></path>
  <path class="cls-3" d="M322.87,370.99c-.09.16-.43.69-.95.52.23,0,.39-1.43.66-1.34.44.15.39.66.29.83Z"></path>
  <g>
    <path class="cls-3" d="M342.51,519.68c-.67-.41-1.34-.92-.9-1.26.17-.13.44.46.63.55.19.09.3.45.27.71Z"></path>
    <path class="cls-3" d="M342.15,519.98c.23.06.33-.09.37-.3.95.58,1.86.95-.37.3Z"></path>
  </g>
  <path class="cls-3" d="M331.27,500.48c-.26-.66-1.11-1.27-.73-2.34.4.51,1.02,1.03.73,2.34Z"></path>
  <path class="cls-3" d="M329.87,496.44c0,.2-.16.37-.37.37s-.37-.16-.37-.37c0-.19.16-.37.37-.37s.37.17.37.37Z"></path>
  <path class="cls-3" d="M327.22,491.24c-.25-.64-1.11-1.26-.73-2.34.41.52,1.02,1.04.73,2.34Z"></path>
  <path class="cls-3" d="M658.53,489.22c-.11.15-.47.68-.92.53.17,0,.38-1.44.62-1.35.45.14.41.67.3.83Z"></path>
  <path class="cls-3" d="M691.44,465.8c-.45.4-.61.41-.57.32.03-.1.26-.29.57-.32Z"></path>
  <path class="cls-3" d="M660.81,325.44c-.15.44-.67.4-.83.3-.16-.1-.68-.47-.53-.93,0,.02.02.04.05.06.06.03.15.06.26.11.04.01.08.02.12.03.08.02.16.05.25.08.09.02.17.05.25.08.26.09.46.17.43.28Z"></path>
  <path class="cls-3" d="M417.56,603.61c-.16.13-.29.22-.39.27-.05.03-.09.05-.12.05-.04.02-.08.03-.09.02h-.01s-.01-.01,0-.03h.01c.06-.1.29-.27.59-.31Z"></path>
  <path class="cls-3" d="M383.32,577.09c-.39.13-.61-.39-.78-.51-.37-.27-.53-.94.17-1.18.16.66.17.88.61,1.69Z"></path>
  <path class="cls-3" d="M388.4,580.93c0,.2-.16.37-.37.37-.19,0-.37-.16-.37-.37s.17-.37.37-.37c.2,0,.37.16.37.37Z"></path>
  <path class="cls-3" d="M321.64,372.45c-.4.78-.41,1.75-1.58,2.11.61-.7.51-1.67,1.58-2.11Z"></path>
  <path class="cls-3" d="M393.23,586.12c0,.15-.13.29-.29.29-.15,0-.28-.14-.28-.29,0-.16.13-.29.28-.29.16,0,.29.13.29.29Z"></path>
  <path class="cls-3" d="M384.58,578.05c0,.15-.13.28-.28.28-.16,0-.29-.13-.29-.28,0-.16.13-.29.29-.29.15,0,.28.13.28.29Z"></path>
  <path class="cls-3" d="M381.69,574.59c0,.16-.13.29-.29.29-.15,0-.28-.13-.28-.29s.13-.29.28-.29c.16,0,.29.13.29.29Z"></path>
  <path class="cls-3" d="M380.54,573.43c0,.16-.13.29-.29.29s-.29-.13-.29-.29c0-.15.13-.28.29-.28s.29.13.29.28Z"></path>
  <path class="cls-3" d="M649.8,318.81c0,.27-.23.49-.51.49s-.49-.23-.49-.49.23-.5.49-.5.51.23.51.5Z"></path>
  <path class="cls-3" d="M648.14,317.94c0,.16-.13.29-.29.29-.15,0-.28-.13-.28-.29s.13-.29.28-.29c.16,0,.29.13.29.29Z"></path>
  <path class="cls-3" d="M684.37,501.23s-.06.01-.12-.01c-.05-.01-.11-.04-.17-.08.14.01.23.03.27.06.01.01.02.01.02.02Z"></path>
  <path class="cls-3" d="M565.1,305.84c0,.15-.13.28-.29.28s-.29-.13-.29-.28c0-.16.13-.29.29-.29s.29.13.29.29Z"></path>
  <path class="cls-3" d="M688.72,493.93c0,.15-.13.29-.29.29s-.29-.14-.29-.29c0-.16.13-.29.29-.29s.29.13.29.29Z"></path>
  <path class="cls-3" d="M691.98,364.66c0,.16-.14.29-.29.29-.16,0-.29-.13-.29-.29s.13-.29.29-.29c.15,0,.29.13.29.29Z"></path>
  <path class="cls-3" d="M382.43,532.46c1.38,2.93,3.5,7.22,5.88,11.89l-3.88-5.14-1.3.63c-1.38-1.99-3.01-4.06-5.02-5.87-.61-.55-1.14-1.28-2.49-3.25-1.26-1.84-2.53-3.32-3.54-4.52-.49-.58-1.16-1.38-1.32-1.61-1.38-2.32-2.77-4.6-4.17-6.87-1.46-2.39-2.88-4.7-4.24-7l.05-.31-.37-.22c-1.21-2.09-2.37-4.16-3.43-6.27l-8.84-17.5-6.26-14.8c-.92-2.2-1.68-4.65-2.54-7.49-.23-.72-.44-1.45-.66-2.15-3.43-11.12-6.85-22.94-7.72-34.51-.37-4.95.03-9.86.51-15.54.12-1.48.24-2.99.34-4.47.27-3.54.86-6.51,1.72-10.15,2.9-12.22,9.28-22.28,18.94-29.92,1.26-.99,2.27-1.99,3.04-2.81,2.79-1.32,4.93-2.87,6.48-3.99.38-.27.87-.63,1.12-.79,10.67-5.41,17.36-8.34,25-8.7-3.61,3.76-8.72,9.68-10.86,15.09-3.49,8.84-5.75,17.61-5.72,22.87.03,5.27-13.3,16.22-13.3,16.22,0,0-.18,12.28,0,14.91.17,2.63.17,2.47,2.36,11.98,2.19,9.51,0,27.62,3.07,33.25,3.06,5.63,11.66,11.79,10.43,15.29,0,0-.85,6.25-2.57,7.5-1.73,1.26,2.57,9.9,2.57,9.9,0,0,1.39,24.68,3.15,28.19,1.76,3.5-1.47-4.58,3.53,6.14Z"></path>
  <path class="cls-4" d="M699.72,562.04s.02.04.02.05c.95,3.04,2.03,6.49,4.43,10.2l1.84,2.85,1.01-3.24c2.38-7.63.54-12.15-.95-15.77-.52-1.28-1.01-2.48-1.25-3.68-1.09-5.43-4.53-10.9-7.56-15.73-1.78-2.84-3.46-5.53-4.51-7.9-.02-.08-.02-.33-.02-.49,0-.87-.01-2.66-2.26-3.64-1.16-.5-1.9-1.68-2.69-2.93-.3-.47-.6-.96-.95-1.42-2.68-3.67-6.13-6.25-9.45-8.75-1.47-1.11-3-2.26-4.41-3.46-.61-.53-1.23-1.03-1.84-1.52-5.6-4.43-11.21-7.15-17.49-8.48-.09-.03-.19-.08-.3-.11-.2-.08-.51-.16-.87-.28-.71-.22-1.71-.51-2.81-.84-2.57-.76-7.34-2.18-8-2.49.42.2.95.9.72,1.74-.01.06-.03.12-.05.18-.44-.15-.81-.28-1.06-.38l.03-.18.24-1.58-21.54-3.3c-7.12-1.09-8.46-.8-10.57-.09-1.33.45-3.14,1.06-8.95,1.27-4.57.15-8.46,1.09-12.59,2.07-.62.15-1.26.3-1.89.45-10.15,2.39-19.65,6.43-29.91,12.72-2.4,1.47-4.6,3.11-6.74,4.7-1.21.9-2.46,1.84-3.73,2.72-5.99,4.18-10.15,9.12-14.23,14.23-9.22,11.55-15.17,21.8-18.74,32.28-3.28,9.65-6.93,21.66-5.98,28.83.31,2.38.28,4.49.24,6.74-.02,1.21-.04,2.46,0,3.75.37,12.06,3.41,24.23,9.89,39.47.62,1.46,1.01,2.41,1.27,3.03.54,1.31.62,1.51,1.11,1.99.23.23.82.82,2.78,3.76l5.17,7.72,2.14,3.19c1.4,2.11,2.86,4.28,4.76,6.05l7.35,6.84c.33.32.69.66,1.05,1.01,1.49,1.44,3.18,3.06,4.99,4.01l11.71,6.11c5.21,2.72,11.45,5.76,18.29,7.71l7.75,2.21c6.74,1.92,18.33,4.11,25.79,4.11,1.26,0,2.41-.06,3.39-.19l7.04-.99c6.97-.97,15.21-2.89,22.63-5.29,6.06-1.95,14.63-5.19,20.95-9.54,3.61-2.47,7.76-5.4,11.38-8.76l8.59-8,7.13-8.52c.77-.92.85-2.1.91-3.13.02-.38.06-.99.16-1.2,1.5-1.21,2.38-2.71,3.15-4.03.4-.68.76-1.31,1.19-1.87,2.62-3.41,3.44-6.76,4.31-10.32.14-.59.28-1.18.44-1.8.18-.73.47-1.42.77-2.15.62-1.51,1.33-3.21,1.23-5.54-.04-.9.42-1.98.91-3.12.86-2.02,1.95-4.55.43-7.27l-1.71-3.06-1.17,3.31c-1.55,4.36-3.31,9-5.45,13.68.26-1.28.35-2.63.19-4.09l-.02-.21c.44-.11.92-.31,1.3-.78.41-.51.57-1.15.46-1.92.01-.09.06-.3.11-.44.17-.59.45-1.58-.19-2.46-.28-.39-.68-.67-1.18-.83.17-.56.37-1.13.57-1.73,1.15-3.32,2.44-7.08.17-11.9l-1.56-3.28-6.37,15.92-.29-2.33-2.15,1.47c-2.11,1.44-2.82,3.48-3.45,5.29-.3.84-.57,1.62-.97,2.38-3.19,5.94-5.9,10.55-8.78,14.89-1,1.53-2.19,2.92-3.34,4.28-.85,1.01-1.74,2.05-2.54,3.14-2.82,3.81-6.03,6.19-9.93,8.92-6.2,4.33-12.76,8.65-18.65,10.86-20.47,7.63-43.09,6-65.42-4.73-.91-.44-1.81-.87-2.7-1.29-3.95-1.86-7.65-3.62-11.46-5.99-.86-.54-1.76-.74-2.55-.92-1.16-.26-1.78-.43-2.33-1.18-1.42-2-3.21-3.67-4.97-5.28-1.26-1.16-2.44-2.27-3.48-3.46-.52-.59-.95-1.31-1.41-2.07-.71-1.19-1.45-2.43-2.62-3.44-1.55-1.32-2.35-3.11-3.19-5.01-.37-.82-.75-1.68-1.2-2.52-3.79-7-6.16-16.23-6.82-26.71-.61-9.65.29-19.61,2.56-27.99.37-1.39-.44-2.43-.87-2.99-.03-.03-.06-.09-.1-.13.65-4.98,2.57-9.79,6.05-15.13,1.03-1.59,2.04-3.24,3.02-4.83,2.86-4.67,5.82-9.48,9.75-13.29,11.62-11.25,27.22-19.06,47.7-23.86,3.03-.71,5.88-.83,8.9-.96,2.14-.09,4.34-.17,6.63-.49,7.18-.99,13.66.24,21.69,4.1l8.29,3.99c17.98,8.65,30.98,21.96,38.6,39.56l2.81-.97c2.44,5.75,4.7,11.8,4.89,13.08.01,1.39.58,2.73,1.57,3.7,1.03.99,2.41,1.51,3.87,1.43l.63-.02.44-.45c2.54-2.63,1.21-7.78-.06-12.76-.26-1.02-.53-2.05-.72-2.98.24-.04.48-.13.72-.28.49-.31.76-.73.87-1.26ZM681.87,635.69c.47-.47,1.08-.17,1.27.19.43.86-1.14,1.63-1.09,1.71-.56-.23-.55-1.53-.18-1.9Z"></path>
</svg>