<?xml version="1.0" encoding="UTF-8"?>
<svg id="Layer_1" data-name="Layer 1" xmlns="http://www.w3.org/2000/svg" viewBox="0 0 1000 1000">
  <defs>
    
  </defs>
  <path class="cls-1" d="M705.5,176.55c.28,2.73-2.32,2.3-.84,4.87.19.33.43.71,1.05.26.31-.22.87-.9.98-1.28.21-.18.32-.44.51-.52,1.11-.5,2.72,3.24,2.37,6.33-.27,2.4,2.09-1.9,1.8-1.52.78-1.05.58,2.14,1.4,1.27,2.59-2.76,2.21-5.26,6.63-5.13.99,4.36-3.53,2.23,2.88,10.1.57.09,2.14-2.34,2.48-1.65.59,1.19-.05,5.97-.45,8.25-3.85,21.73-4.68,48.94-9.25,68.08-5.47,22.9-12.23,43.05-24.94,63.09-13.16,20.76-16.01,23.85-34.62,39.48-7.61,6.39-16.14,10.71-24.93,15.37-11.05,5.85-22.05,10.16-34.07,13.72-11.19,3.32-21.87,6.82-33.55,8.58-13.81,2.09-19.83,4.48-34.78,1.21-10.05,21.45-15.41,56.95-15.86,80.48-.16,8.59-1.6,16.73-.6,25.21,1.86,15.87,2.71,31.06.85,46.94-.76,6.48-.62,12.62-2.52,18.89-3.51,11.6-7.13,22.86-12.53,33.7-1.97,3.96-4.45,7.23-5.49,12,11.21-2.99,3.9-3.68,14.6-4.72,2.45-.24,4.28-.06,6.23,1.14,1.78,1.1,1.55,3.42,2.77,5.25,1.01,1.52,4.55,1.08,6.16.93,2.41-.23,3.17,1.32,4.19,3.06l4.76,8.2c5.04,8.68,4.26,41.77,2.23,51.99-3.43,17.27-11.08,32.67-20.79,47.22-6.61,9.9-13.57,18.79-21.96,27.1-8.92,8.84-20.74,19.49-31.06,26.53-9.94,6.78-19.67,13.27-30.58,18.51-6.76,3.25-13.4,5.37-20.34,7.99-22.12,8.34-42,9.36-64.9,4-7.47-1.75-13.98-4.89-20.71-8.47-10-5.32-19.04-13.29-26.61-21.66-7.57-8.36-12.56-17.86-16.47-28.48-5.4-14.66-5.52-30.23-2.7-45.61,1.33-7.27,3.53-13.53,6.07-20.36,5.07-13.63,12.06-25.38,20.37-37.25,9.47-13.54,20.74-24.69,33.33-35.51,22.38-19.23,49.16-32.46,77.94-37.84.75-.14,1.63-.03,2.14-.73h1.03c.57,1.11,1.59-.09,2.26-.03,2.89.26,5.53-1.12,8.44-.65,1.12.18,2.44-.61,3.8-.31,2.52.55,6.01.56,8.12.34.51-.05,1.6-.3,2.05-.05-.89-.51,8.59,2.44,8.51,1.38,4.15,2.54,9.06,3.22,13.96,4.84,3.57,1.18,7.1,4.66,5.99,8.3-.63,2.04-1.33,4.08-1.22,6.79,1.66-1.37,1.86-3.28,2.59-4.87,2.62-3.85,7.04-10.54,8.49-15.41,4.18-14.09,4.92-28.41,5.19-43.11.62-33.68-8.94-72.9-18.42-105.32-2.5-.32-4.2.85-6.37,1.18-15.05,2.33-30.04,2.1-44.95-1.1-7.59-1.63-14.81-3.17-22.03-5.98-22.57-8.76-44.33-24.68-55.8-46.53-7.79-14.83-13.96-30.12-19.34-45.99-1.82-5.38-3.12-10.34-7.51-14.14-3.47-3.01-5.39-7.71-8.79-10.91l-9.95-9.4c-3.38-3.19-6.58-8.42-4.8-13.14.98-2.61,3.66-4.27,3.32-7.5,6.18-.08,11.12-1.72,16.71-2.55,5.3-.79,10.43-1.31,15.72-1.79,3.28-.3,7.25,1.22,10.25-.43,1.32-.73,1.68-.97,3.23-1l14.67-.22c3.32-.05,6.41,1.16,9.74,1.26,10.18.3,19.74,1.37,29.64,3.96,11.93,3.13,23.35,6.37,34.43,12.22,18.96,10,36.35,28.72,45.02,48.42,9.67,21.97,11.78,41.76,12.32,65.44,2.36,5.83,6.86,11.23,8.89,17.3.97,2.92,1.24,5.68,2.76,8.37,1.72-4.79.88-8.97,1.78-13.5,2.55-12.82,5.1-25.44,10.03-37.44,1.09-2.64,1.57-3.79.94-6.73l-4.69-22.06c-.4-1.87-1.75-3.18-1.52-5.36.2-1.88-.08-3.71-.43-5.3-.6-5.92.87-12.07,1.24-18l.07-1.07c.82-.35.48-1.52.47-2.23,2.06-11.86,5.85-23.08,10.84-34.44,8.28-18.82,21.78-34.19,38.95-45.41,6.81-4.46,13.24-8.4,20.97-10.99l22.46-7.53c6.22-2.09,12.31-3.25,18.6-5.01l14.86-4.14c21.43-5.97,37.35-8.38,54.92-24.87l14.55-13.66c2.46,2.47,2.72-2.32,4.96-1.96.77.12,1.25.9,1.86,1.32ZM720.34,192.77c-1.28.2-3.5,6.69-2.63,6.96,1.26-.49,4.41-7.23,2.63-6.96ZM635.85,242.66c-19.39,3.77-38.13,8.5-56.83,16.66-13.58,5.93-26.33,13.58-35.41,25.52-8.78,11.55-16.27,23.47-21.23,37.11-1.77,4.88-4.24,9.85-4.47,14.77-1.17,1.13-1.54,2.86-1.86,4.7l-2.76,15.75c-.68,3.89.28,8.23-1.91,10.55-.74.79-.8,2.28-.77,3.36.06,2.12-.68,4.01-.46,6.13.15,1.47-1.94,2.85-.89,4.94,1.76-1.11,1.89-3.27,1.96-4.99.01-.27.06-.55.06-.81.39-.1.72-.33,1.04-.66.48-.5-.01-.99-.38-1.33v-2.65c.36-.74.56-.33.65-.09.25.72.07,1.29.53,1.86,1.11-1.53,2.66-3.78,2.69-5.79,1.86-1.65,3.09-4.14,3.69-6.6,1.13-.03,1.48-1.17,2.1-2.18,2.89-4.68,5.85-9.09,9.06-13.48,1.79-2.45,3.99-4.5,5.41-7.22,1.93-3.71,5.43-6.1,8.33-8.96l5.27-5.2c12.88-12.71,26.19-24.37,42.44-32.49l19.37-9.68,11.73-5.48c2.62-1.23,5.72-2.79,8.8-3.17,2.24-.28,2.68,4.02,1.52,5.65l-3.22,4.52-27.64,22.71-10.93,8.9c-4.29,3.49-8.17,7.19-12.13,11.07l-7.34,7.19c-11.17,10.94-23.67,29.86-30.41,44.46,6.22-.79,11.87-2.01,17.81-3.5l14.79-3.7c4.54-1.13,8.66-2.77,13.1-4.31,14.78-5.12,28.68-11.39,41.67-20.29,24.75-16.95,44.34-46.02,52.47-74.88,4.52-16.05,7.72-32.25,6.49-49.04-7.99,5.37-46.31,19.46-52.32,20.62ZM359.26,290.23c-1.76-1.2-2.94-.58-4.41-.45.87,1.48,2.85,1.81,4.41.45ZM389.78,296.25c-1.58-4.16-10.84-8.35-13.09-5.2,3.92,2.72,8.18,4.84,13.09,5.2ZM450.58,318.29l-8.75-9.69c-2.93-1.36-5.01-3.67-7.05-6.15l-2.94-.83c3.22.91-19.77-11.04-20.59-10.28-.03,2.13,2.28.73,2.6,2.19-2.19.11-3.29-2.08-5.39-.9,3.71,3.17,8.57,4.03,12.92,6.23,7.39,3.73,16.48,11.13,22.77,16.75,1.79,1.6,3.93,3.92,6.42,2.68ZM333.54,308.21c-.13,1.27,1.19,2.26,1.74,3.47,1.28,2.83,2.64,5.34,4.08,8.07,7.02,13.26,11.66,28.09,18.77,42.38,8.42,16.93,26.31,36.15,44.36,42.16,17.07,5.69,35.46,8.87,53.3,6.17-1.71-5.42-5.06-8.85-8.22-12.84-4.55-5.74-9.25-10.82-14.95-15.53l-22.16-18.28c-7.25-5.98-15.04-10.76-22.07-17.05-2.25-2.01-4-4.14-6.54-6.1,1-1.43,1.52-3.29,2.69-4.31,7.16-2.5,17.56,3.47,24.42,7.32,19.49,10.94,37.74,23.16,54.14,38.36,1.69,1.57,2.79,3.42,5.11,3.01.34,1.61,1.04,3.21,2.38,4.46.54-2.71-1.1-4.49-1.87-6.58l-3.83-10.42c-3.79-10.3-8.88-20.22-14.59-29.9-4.89-8.29-10.91-14.89-18.46-20.52-11.67-8.71-13.41-8.39-25.56-14.47-9.43-4.71-18.85-8.09-29.44-9.42-3.91-.49-8.05-.85-11.92-1.57-6.3-1.16-11.68.8-17.74.86l-24.25.23c5.31,3.53,6.59,6.94,10.61,10.5ZM320.82,297.18c-1.1-.31-2.14-.2-2.07.15.33.94.9,1.05,1.3,1.09.6.06,1.73-.97.76-1.25ZM479.57,406.01l-.77-10.38c-1.91-4.4-2.71-8.98-5.13-12.95-.55-.9-1.84-1.18-2.02-2.58-.16-1.27-1.05-2.34-2.02-3.01.72,1.25,1.86,2.67.62,3.85s-.15,4.01,1.66,4.41c.65,5.37,2.13,3.1-.04,7.29,1.99,4.66,3.87,9.27,7.69,13.36ZM467.69,390.38c-.57.64.1,1.08.48,1.53.35.41.68.27.68-.06.01-.71.1-1.07,0-1.29-.13-.29-.76-.63-1.16-.18ZM560.93,401.83c-2.91-.37-4.56-.08-6.55.61,2.48,1.21,5.1.76,6.55-.61ZM449.66,600.86c.16,1.2-1.52.57-2.69,1.62,1.95.57,3.99.8,6,.92,1.37.08,2.99-.02,4.1,1.2l-10.43,1.31c1.42,1.72,3.17.06,4.37,1.21l-7.18.51c2.08-.15-28.07,5.26-28.28,5.31-9.93,2.64-18.93,6.51-27.92,11.09-2.62,1.33-5.25,2.24-7.75,3.9-8.3,5.52-16.58,10.9-23.92,17.68-6.89,6.37-13.08,12.96-18.74,20.31l-8.38,10.88-5.37,9.27c-1.89,3.26-3,6.96-4.94,10.27-3.17,5.41-4.5,11.15-6.23,17.06-3.46,11.81-4.22,23.64-.39,35.53,1.41,4.37,2.07,9.78,5.62,12.89,2.27,1.99,13.1,1.99,19.02,3.6,4.93,1.34,9.79,3.02,15.04,2.79,6.91-.3,13.57.65,20.38-.09,10.85-1.18,25.56-7.9,35.67-12.45l7.1-3.2c1.35-.61,2.83-1.94,4.3-2.76,4.52-2.53,7.87-6.46,11.43-9.77.53-.11,1.02-.36,1.39-.77l-.02-.52c.42.14.82.3,1.2.52-5.25,7.19-.3,2.66-2.43,7.4,1.1-.6,1.5-1.54,2.51-1.46,1.22,1.37-1.4,1.69-.75,5.15-5.13,5.51-11.05,10.43-17.48,15.03-6.95,4.98-14.34,8.71-21.9,12.73-8.97,4.76-22.8,8.92-33.4,9.35,1.34,1.44,19.93.64,21.04.42,3.28-.63,5.99-1.1,9.26-1.36,3.31-.27,6.58-2.17,9.8-3.07,24.55-6.79,53.28-29.57,70.03-48.62,6.82-7.76,13.49-15.22,18.93-24.13,12.14-19.87,17.02-44.07,13.89-67.14l-11.19,7.6c-5.18,3.52-10.01,6.98-14.75,11.12-6.28,5.47-13.62,9.03-20.32,14.06l-27.62,20.73c-4.55,3.42-9.26,6.01-14.13,1.97.13-1.3,3.88-9.68.09-6.87-.76-1.09-2.48-.52-3.05-2.45-.67.65-1.26,1.15-2.12,1.32l-.69-.18c.48-2.09,1.39-6.19,2.77-8.25,4.67-6.99,9.64-13.08,15.72-18.68,2.54-2.34,4.11-5.07,6.43-7.6,12.6-13.78,23.58-28.42,32.45-44.86.57-1.06,1.94-1.56,1.29-2.74-.43-.78-1.1-1.15-2.11-1.81,1.25-1,1.92-1.7,1.66-3.02-.14-.71-.88-1.55-1.15-2.43-.73-2.43-1.87-3.95-4.28-4.75-10.21-3.41-20.68-3.38-31.19-1.15-8.05,1.71-16.53,2.03-24.46,6.99,4.21,1.19,8.25-.8,12.25-1.57,7.96-1.54,24.5-2.64,31.51-.04ZM487.83,630.23c.16-2.34.55-3.74,2.26-4.94.05-.74-.54-1.51-1.2-.89l-6.25,9.12c-.46.67.2,1.57.66,1.65,1.11.21,4.47-3.95,4.54-4.93Z"></path>
  <path class="cls-3" d="M408.76,690.77c-.05.23-.37.48-.21,1,.08.26.34.56.69.06.16-.22.1-.71.2-.88.86-.17,1.45-.67,2.12-1.32.58,1.93,2.3,1.36,3.05,2.45.79,2.04-.59,3.32-2.63,5.23,1.71-.14,1.87,1.08,2.54,1.64,4.87,4.04,9.58,1.45,14.13-1.97l27.62-20.73c6.7-5.03,14.04-8.59,20.32-14.06,4.75-4.14,9.57-7.61,14.75-11.12l11.19-7.6c3.14,23.07-1.74,47.27-13.89,67.14-5.44,8.9-12.11,16.37-18.93,24.13-16.75,19.05-45.49,41.83-70.03,48.62-3.22.89-6.49,2.8-9.8,3.07-3.27.27-5.98.73-9.26,1.36-1.1.21-19.69,1.02-21.04-.42,10.6-.43,24.44-4.59,33.4-9.35,7.56-4.02,14.95-7.75,21.9-12.73,6.42-4.6,12.35-9.52,17.48-15.03l8.28-8.89c3.54-3.8,7.3-7.08,10.6-11.33,5.9-7.6,11.31-15.87,15.83-24.64-.14-.76-2.35-1.11-2.71-.58l-3.43,5.07c-1.44,2.13-2.79,3.87-4.18,5.94-4.01,5.96-7.48,12.41-12.97,16.73-.02-1.05-.35-1.78-1.14-.69-.37.53-1.05.78-.93,1,.23.43.73.44,1.36.43-.17.89-.75,1.61-1.48,2.42l-8.47,9.37c-1.01-.08-1.41.86-2.51,1.46,2.13-4.75-2.82-.21,2.43-7.4,11.2-8.71,23.18-26.63,30.79-39.31,2.28-3.8,4.35-7.84,8.84-9.41.8,1.32-.5,1.87-.21,2.93,1.23-.98,1.74-2.27,2.35-3.82-1.07-.11-1.18,1.61-2.06,1.35-1.03-1.59.92-1.73,1.57-2.69-1.37-.92-1.74.44-2.58.27.61-1.53.23-1.9-.83-1.01-5.4,6.79-14.19,18.55-18.23,25.59-1.33,2.31-3.59,4.03-5.1,6.23-4.82,7.02-10.1,13.32-15.75,19.37l.02.52c-.76-.26-.98.4-1.39.77-3.56,3.31-6.92,7.24-11.43,9.77-1.47.82-2.95,2.15-4.3,2.76l-7.1,3.2c-10.12,4.56-24.82,11.27-35.67,12.45-6.82.74-13.47-.22-20.38.09-5.24.23-10.11-1.45-15.04-2.79-5.92-1.61-16.75-1.61-19.02-3.6-3.55-3.11-4.21-8.51-5.62-12.89-3.83-11.89-3.07-23.72.39-35.53,1.73-5.91,3.06-11.65,6.23-17.06,1.94-3.3,3.05-7,4.94-10.27l5.37-9.27,8.38-10.88c5.66-7.35,11.85-13.94,18.74-20.31,7.34-6.78,15.62-12.16,23.92-17.68,2.5-1.66,5.13-2.57,7.75-3.9,9-4.58,17.99-8.45,27.92-11.09.21-.06,30.36-5.46,28.28-5.31l7.18-.51c-1.21-1.15-2.96.5-4.37-1.21l10.43-1.31c-1.1-1.22-2.73-1.12-4.1-1.2-.1-1.83-1.91-2.02-3.31-2.54-7.01-2.6-23.55-1.5-31.51.04-4,.77-8.04,2.75-12.25,1.57,7.93-4.96,16.41-5.28,24.46-6.99,10.51-2.23,20.98-2.26,31.19,1.15,2.42.81,3.55,2.32,4.28,4.75.26.88,1.01,1.72,1.15,2.43.26,1.32-.41,2.02-1.66,3.02,1,.66,1.68,1.03,2.11,1.81.65,1.18-.72,1.69-1.29,2.74-8.87,16.43-19.85,31.08-32.45,44.86-2.32,2.54-3.89,5.26-6.43,7.6-6.08,5.6-11.05,11.69-15.72,18.68-1.38,2.06-2.29,6.16-2.77,8.25ZM460.39,604.88c-.65.85.28,1.38.82,1.21.27-.08.77.19,1.02-.36.21-.48-.09-1.01-.37-.98-.4.05-1.21-.21-1.47.13ZM455.61,612.83c-.8-.92-1.7-1.48-.81-1.18l4.08-.15c-.83-2.35-11.13-1.65-10.33.83.97,1.47,3.14-.72,3.85-.75,1.11.74,2,2.23,3.22,1.26ZM468.67,698.64c-.71,1.8-1.56,3.4-1.67,5.52.21-.45,5.19-6.01,1.67-5.52Z"></path>
  <path class="cls-3" d="M443.09,733.31c.06-.3.49-.57.72-.74,0,.89-.27.73-.72.74Z"></path>
  <path class="cls-2" d="M519.49,361.1c.32-1.29.15-2.49,1.06-3.9,1.76-2.74.5-6.32,1.28-9.33l2.69-10.37c1.64,4.65,1.53-1.64,4.11-7.4,1.54-3.43,1.32-7.51,3.18-10.75,2.85-4.96,5.23-10,8.56-14.54,5.28-7.2,11.38-15.65,18.28-20.8,1.03-.77,4.03-.94,4.77-2.17.19-.32,1.82.69,2.12.09.16-.32-1-.77-.13-1.57.79.6,1.04,1.61,1.79,1.48,2.26-.39,4.1-4.57,5.88-6.55,3.72-.41,6.62-2.31,9.62-4.21,4.73-3.02,10.23-4.37,15.1-7.07,2.21-1.23,4.39-1.28,6.57-2.15,12.64-5.06,6.26-.11,16.49-6.99,2.48-1.67,4.13-3.35,7.12-4.09-3.01-.07-5.45,1.05-7.96,2.02l-8.08,3.12c-3.1,1.2-5.73,2.84-9.15,3.25s-5.83,3.12-9.47,2.37c2.13-.54,4-1.46,6.08-2.34l15.31-6.48,10.04-3.3,11.44-3.99c.8-.28-.16-2.25-.36-2.77,6.01-1.17,44.32-15.26,52.32-20.62,1.23,16.79-1.97,33-6.49,49.04-8.13,28.86-27.72,57.93-52.47,74.88-13,8.9-26.9,15.17-41.67,20.29-4.44,1.54-8.56,3.18-13.1,4.31l-14.79,3.7c-5.94,1.48-11.58,2.71-17.81,3.5,6.74-14.6,19.24-33.52,30.41-44.46l7.34-7.19c3.96-3.88,7.84-7.57,12.13-11.07l10.93-8.9,27.64-22.71,3.22-4.52c1.16-1.62.72-5.93-1.52-5.65-3.08.39-6.18,1.95-8.8,3.17l-11.73,5.48-19.37,9.68c-16.25,8.12-29.56,19.78-42.44,32.49l-5.27,5.2c-2.9,2.86-6.4,5.26-8.33,8.96-1.42,2.71-3.62,4.76-5.41,7.22-3.2,4.38-6.17,8.8-9.06,13.48-.62,1.01-.98,2.14-2.1,2.18ZM565.76,283.27c.48.14-5.58.43-5.46,3.34.18,1.1,6.96-2.91,5.46-3.34ZM559.01,288.7c1.25-1.11.53-2.31-.82-1.43-.89,1-.71,1.84.82,1.43ZM622.08,343.37c1.58-1.45,3.41-2.29,4.31-3.88-4.49-.72-4.99,3.68-8.98,5.3-.68.28-.94.61-1.09.92-.32.67.09.98.36,1.18.45.33,1.23.3,1.68-.11l3.72-3.42ZM525.19,340.26c0-.18-.15-.33-.33-.33s-.33.15-.33.33.15.33.33.33.33-.15.33-.33Z"></path>
  <path class="cls-2" d="M464.88,372.49l3.83,10.42c-.46.52-.65,1.43-.5,2.12-2.32.42-3.42-1.44-5.11-3.01-16.4-15.2-34.65-27.42-54.14-38.36-6.86-3.85-17.25-9.82-24.42-7.32-1.17,1.02-1.69,2.87-2.69,4.31,2.55,1.96,4.29,4.08,6.54,6.1,7.03,6.29,14.82,11.06,22.07,17.05l22.16,18.28c5.7,4.7,10.4,9.79,14.95,15.53,3.16,3.99,6.51,7.42,8.22,12.84-17.84,2.7-36.23-.48-53.3-6.17-18.05-6.01-35.94-25.23-44.36-42.16-7.1-14.29-11.75-29.12-18.77-42.38-1.44-2.73-2.8-5.24-4.08-8.07-.55-1.2-1.87-2.2-1.74-3.47.17-.2.35-.48.63-.58.32-.12,1,.02,1.36.36,1.76,1.64,3.67.08,5.48.33,2.56.34,4.8-.07,7.3-.05,7.99.09,15.54,2.2,23.11,4.64l13.07,4.22,11.86,5.33,11.78,5.41c4.6,2.11,9.35,3.95,13.15,7.28,3.74,3.28,7.52,6.08,11.46,9.14.55.43.19,2.03.54,2.44.58.7,2.05.2,3.01.73,1.41.79-.17,1.68-1.54,2.59,11.19,11.87,12.54,9.59,22.5,23.34.97,1.34,4.75,6.64,5.83,6.25,2.62-.94-.36-3.43,1.77-7.15ZM368.12,324.65c-.97-1.12-4.78-1.35-4.4.72.23,1.27,3.67.45,4.4-.72Z"></path>
  <path class="cls-3" d="M464.88,372.49c-2.13,3.73.84,6.21-1.77,7.15-1.09.39-4.86-4.91-5.83-6.25-9.97-13.75-11.32-11.47-22.5-23.34,1.36-.9,2.95-1.8,1.54-2.59-.96-.54-2.43-.04-3.01-.73-.35-.41.02-2.01-.54-2.44-3.94-3.06-7.72-5.85-11.46-9.14-3.79-3.33-8.55-5.17-13.15-7.28l-11.78-5.41-11.86-5.33-13.07-4.22c-7.56-2.44-15.11-4.55-23.11-4.64-2.51-.03-4.74.39-7.3.05-1.81-.24-3.72,1.31-5.48-.33-.36-.34-1.04-.48-1.36-.36-.28.11-.46.39-.63.58-4.02-3.56-5.3-6.97-10.61-10.5l24.25-.23c6.05-.06,11.44-2.02,17.74-.86,3.87.72,8.01,1.08,11.92,1.57,10.59,1.33,20.01,4.71,29.44,9.42,12.15,6.07,13.89,5.76,25.56,14.47,7.55,5.63,13.57,12.23,18.46,20.52,5.71,9.68,10.8,19.6,14.59,29.9ZM366.75,301.35c-2.58-1.69-5.6-2.54-8.83-1.35,2.89,1.4,5.37.92,8.83,1.35ZM337.81,300.34c-.61.81.2,1.4.82,1.2.27-.08.77.2,1.01-.36.21-.48-.09-1.01-.37-.98-.46.05-1.2-.23-1.47.14ZM344.37,301.53c0-.41-.33-.74-.74-.74s-.74.33-.74.74.33.74.74.74.74-.33.74-.74ZM416.08,316.23c-1.3-1.16-2.03-1.96-3.11-.99.81,1.14,2.33,2.03,3.11.99ZM419.81,317.77c-.82-1.23-1.96-1.37-2.62-.7.82,1.23,1.96,1.37,2.62.7ZM446.9,340.59c0-.31-.26-.57-.57-.57s-.57.26-.57.57.26.57.57.57.57-.26.57-.57ZM448.89,343.24c0-.31-.26-.57-.57-.57s-.57.26-.57.57.26.57.57.57.57-.26.57-.57ZM450.66,347.18c-.35-1.38-.51-2.23-1.62-2.6.55,1.11.83,1.98,1.62,2.6ZM452.65,350.49c-.35-1.38-.51-2.23-1.62-2.6.55,1.11.83,1.98,1.62,2.6ZM453.9,353.05c.57.16.58-.94.09-1.17-.22-.1-.51-.76-.71-.62-1.26.9,5.05,3.06.62,1.79ZM456.12,357.11c.61-1.65-.41-2.54-.96-2.48-.65.98-.03,2.23.96,2.48ZM459.68,363.76c0-.23-.19-.42-.42-.42s-.42.19-.42.42.19.42.42.42.42-.19.42-.42ZM462.45,371.35c-.61,1.3-.16,1.87.74,1.69.38-.08.56-.92.1-1.28-.2-.16-.61-.91-.85-.41Z"></path>
  <path class="cls-3" d="M635.85,242.66c.2.51,1.16,2.49.36,2.77l-11.44,3.99-10.04,3.3-15.31,6.48c-2.08.88-3.95,1.8-6.08,2.34,3.64.75,6.18-1.97,9.47-2.37s6.05-2.05,9.15-3.25l8.08-3.12c2.51-.97,4.95-2.09,7.96-2.02-2.99.75-4.64,2.42-7.12,4.09-10.23,6.88-3.85,1.94-16.49,6.99-2.18.87-4.36.92-6.57,2.15-4.87,2.7-10.36,4.05-15.1,7.07-2.99,1.91-5.9,3.8-9.62,4.21-1.78,1.99-3.61,6.16-5.88,6.55-.75.13-1-.88-1.79-1.48-.87.8.29,1.25.13,1.57-.3.6-1.93-.41-2.12-.09-.74,1.22-3.73,1.39-4.77,2.17-6.91,5.16-13.01,13.61-18.28,20.8-3.33,4.54-5.71,9.58-8.56,14.54-1.86,3.24-1.64,7.32-3.18,10.75-2.58,5.76-2.47,12.04-4.11,7.4l-2.69,10.37c-.78,3.01.48,6.59-1.28,9.33-.91,1.41-.75,2.61-1.06,3.9-.6,2.45-1.83,4.94-3.69,6.6-1.4-4.29-.83-9.1.11-13.84,1.17-5.96,1.74-11.55,2-17.13.23-4.92,2.7-9.9,4.47-14.77,4.96-13.64,12.45-25.56,21.23-37.11,9.08-11.95,21.83-19.6,35.41-25.52,18.7-8.16,37.43-12.89,56.83-16.66ZM519.34,356.29l.7-9.54c.26-3.58,3.01-6.69,1.73-10.45-1.46,3.45-2.36,6.9-2.83,10.52l-1.36,10.44c-.09.71.93.52,1.02.24s.71-.59.76-1.21Z"></path>
  <path class="cls-3" d="M479.57,406.01c-3.82-4.08-5.7-8.7-7.69-13.36,2.17-4.19.68-1.93.04-7.29-1.81-.4-2.93-3.2-1.66-4.41s.1-2.6-.62-3.85c.96.67,1.85,1.73,2.02,3.01.18,1.4,1.47,1.68,2.02,2.58,2.42,3.97,3.22,8.54,5.13,12.95l.77,10.38ZM473.88,389.58c.52-1.43.44-1.92-.25-2-.26.97-.28,1.69.25,2ZM474.51,390.47l.43,3.78c.78-.39,1.38-.92,1.16-1.59-.15-.46-.74-.67-1.58-2.19Z"></path>
  <path class="cls-3" d="M468.21,385.03c-.15-.69.05-1.6.5-2.12.77,2.09,2.41,3.87,1.87,6.58-1.34-1.25-2.04-2.85-2.38-4.46Z"></path>
  <path class="cls-3" d="M511.93,371.7v2.65c-.82.29-.67,1.27-.66,1.99,0,.27-.05.55-.06.81-.36.04-.71.06-1.07.05-.21-2.12.52-4.02.46-6.13l1.33.63Z"></path>
  <path class="cls-3" d="M622.08,343.37l-3.72,3.42c-.45.41-1.23.43-1.68.11-.27-.2-.69-.51-.36-1.18.15-.31.41-.64,1.09-.92,3.99-1.62,4.49-6.02,8.98-5.3-.9,1.59-2.73,2.43-4.31,3.88Z"></path>
  <path class="cls-3" d="M565.76,283.27c1.5.43-5.28,4.44-5.46,3.34-.12-2.92,5.94-3.2,5.46-3.34Z"></path>
  <path class="cls-3" d="M559.01,288.7c-1.54.41-1.72-.43-.82-1.43,1.35-.88,2.07.32.82,1.43Z"></path>
  <circle class="cls-3" cx="524.85" cy="340.26" r=".33"></circle>
  <path class="cls-3" d="M368.12,324.65c-.73,1.17-4.16,1.99-4.4.72-.38-2.07,3.43-1.84,4.4-.72Z"></path>
  <path class="cls-3" d="M449.55,730.39c-.45.39-.76-.46-.56-.83.12-.22.46-.46,1-1.01.61.38.5,1.01-.44,1.83Z"></path>
  <path class="cls-1" d="M421.2,297.36c-1.28-.3-1.9-1.22-3.41-1.41.96-.76,2.98-.52,3.41,1.41Z"></path>
</svg>