<?xml version="1.0" encoding="UTF-8"?>
<svg id="Layer_1" data-name="Layer 1" xmlns="http://www.w3.org/2000/svg" viewBox="0 0 1000 1000">
  <defs>
    
  </defs>
  <path class="cls-2" d="M948.88,607.54c-8.05,12.69-18.72,22.22-29.33,32.63-14.73,14.46-29.26,27.9-45.89,40.18-6.77,5-12.74,10.57-18.76,16.39l-23.53,22.74-9.4,8.43-15.38,12.57c-1.77,1.45-4.61,1.8-6.24,2.66-2.86-2.59-5.9-2.04-8.95-3.99-5.83,3.74-18.26,4.43-25.27,4.68l-23.91.83-9.18,1.93-77.93.38-68.08-.63-25.11-.82c-16.9-.56-33.21-.32-50.1-1.16-10.83-.54-28.78,1.87-35.04.63-3.51-.7-6.31,1.98-9,2.04l-18.1.39-55.58.22-27.59-.06c-18.06-.04-35.59-.48-53.68-.69l-42.63-.51c-13.9-.17-27.11.31-40.98.69l-39.12,1.05-60.93,4.58c-7.4.55-38.24,1.6-42.85.37-2.47-.66-4.38-2.89-7.15-3.13-1.49-.13-2.48-1.59-2.42-2.84.03-.7,1.34-1.53,1.64-2.32l-4.31-3.78c1.25-.57,2.08-.51,2.78-1.1-2.13-.92-3.1-2.05-2.77-3.75.27-1.37,1.22-2.53,3.31-4.05-5.32-4.77-6.41-10.67-7.05-17.2-.98-10.18-2.02-20.08-.48-30.41l-17.06-3.41c-1.08-.21-1.42-3.56-2.81-4.27,1.72-.61,2.53-3.73,4.24-4.64,5.73-3.03,12.71-2.6,18.69-4.43,4.96-1.53,3.61-7.68,5.69-10.63,6.56-9.28,15.23-16.15,24.17-22.83l34.95-26.12c13.63-10.19,27.69-18.26,41.94-27.18,8.5-5.31,15.24-12.11,23.09-17.93l23.73-17.59,9.44-5.41c1.31-.74,3-1.04,4.15-.53.7.32,1.09,2.58,2.08,2.95,30.25-5.41,60.3-4.98,91.69-3.54,3.6-8.14,3.03-16.6,4.67-24.9l4.52-23c5.92-30.08,11.88-59.55,15.25-90.06,1.09-9.84,1.7-18.73,4.51-28.13,3.28-10.94,4.4-43.35,6.97-53.03,1.58-5.98,1.74-23.94,4.89-26.8,1.46-1.32,3.26-4.5,4.73-5.39,5.74-3.48,13.62-5.59,19.96-7.35,1.13-2.77,4.7-1.77,7.13-2.56,3.8-1.24,8.34-.89,12.02-3.32,2.44-1.61,2.13-5.26,2.35-7.59.06-.65-.42-1.46.26-2.2.29-.31.76-.61,1.26-.21.46-3.58,5.57-16.84,12.12-16.63l9.01.28c7.27.23,10.73,13.1,19.49,7.89,5.98-3.54,12.01-7.77,19-9.57,10.41,5.14,10.64-1.37,21.32,6.84,3.19,2.46,6.93,6.22,11.34,5.23,6.91-1.54,12.54-6.83,19.29-7.92,4.29-.68,9.5,1.23,13.79,1.12.96-.03,2.28,2.04,3.61,1.36.25.46-.31,1.74-.24,2.12.15.7,1.26-.29,1.96-.37,1.51,1.06,2.94,2.64,3.86,4.08,1.82.95,4.4,1.3,5.06,3.45,2.85.27,5.2-.18,8.29-1.29,36.22-13.06,30.71.15,37.78.52l16.5.86c2.88.15,5.09,2.24,8.53,1.03-.16,1.39-1.25,1.17-1.62,1.77-.45.75,1.17.89,1.47,1.41l5.47,9.62c1.69,2.97,1.6,6.48,2.99,9.76,2.09,4.9,1.63,10.42,2.88,15.7,3.81,16.08,7.29,31.61,9.49,48.02,1.44,10.71,3.38,20.89,5.67,31.34,1.75,8.02,4.52,15.42,5.44,23.7.32,2.94,1.98,5.39,3.91,7.47-.21,1.12-.74,1.66-1.92,2.9,4.6,2.2,2.95,6.23,3.74,9.84l2.19,10.05,8.35,50.7c3.67,22.33,9.15,40.3,15.08,62.88,16.11-3.26,31.81-3.52,48.08-4.32,13.95-.68,27.16-1.14,41.09-.97l39.18.5,87.05-.33c3.17-.01,5.9-.3,8.26-1.28,1.09-1.49,2.38-3.77,4.13-3.5,2.38.38,4.52,1.05,4.58,3.41.74-.55,2.35.24,3.13-.1.39-.62,1.16-1.26,1.56-.81.94,1.03.48,2.32.64,3.08,5.6-1.98,6.66,5.65,10.85,7.65l2.62,20.5c.97,7.62-.75,15.17-1.13,22.74.91,1.04,2.83,1.12,3.48,2.27.14,2.93.82,7.49-.87,10.15Z"></path>
  <path class="cls-1" d="M949.75,597.39c-.65-1.15-2.57-1.23-3.48-2.27.38-7.57,2.1-15.12,1.13-22.74l-2.62-20.5c-4.19-2-5.25-9.63-10.85-7.65-.51.18-.92,1.83-1.76.86-.89-1.01-.35-2.27-.44-3.13-.78.34-2.39-.45-3.13.1-2.59,1.95-6.01,1.21-8.71.09-2.36.98-5.09,1.27-8.26,1.28l-87.05.33-39.18-.5c-13.93-.17-27.14.29-41.09.97-16.27.8-31.97,1.06-48.08,4.32-5.93-22.58-11.41-40.55-15.08-62.88l-8.35-50.7-2.19-10.05c-.79-3.61.86-7.64-3.74-9.84,1.18-1.24,1.71-1.78,1.92-2.9-1.93-2.08-3.59-4.53-3.91-7.47-.92-8.28-3.69-15.68-5.44-23.7-2.29-10.45-4.23-20.63-5.67-31.34-2.2-16.41-5.68-31.94-9.49-48.02-1.25-5.28-.79-10.8-2.88-15.7-1.39-3.28-1.3-6.79-2.99-9.76l-5.47-9.62c-.3-.52-1.92-.66-1.47-1.41.37-.6,1.46-.38,1.62-1.77-3.44,1.21-5.65-.88-8.53-1.03l-16.5-.86c-7.07-.37-1.56-13.58-37.78-.52-3.09,1.11-5.44,1.56-8.29,1.29-1.18-.12-2.2,1.51-3.7.35-1.39-1.08-.67-2.72-1.36-3.8-.92-1.44-2.35-3.02-3.86-4.08-.7.08-1.81,1.07-1.96.37-.07-.38.49-1.66.24-2.12-1.33.68-2.65-1.39-3.61-1.36-4.29.11-9.5-1.8-13.79-1.12-6.75,1.09-12.38,6.38-19.29,7.92-4.41.99-8.15-2.77-11.34-5.23-10.68-8.21-10.91-1.7-21.32-6.84-6.99,1.8-13.02,6.03-19,9.57-8.76,5.21-12.22-7.66-19.49-7.89l-9.01-.28c-6.55-.21-11.66,13.05-12.12,16.63-.08.63.3,1.42-.33,2.16-.26.33-.66.72-1.19.25-.22,2.33.09,5.98-2.35,7.59-3.68,2.43-8.22,2.08-12.02,3.32.79,1.11,2.5-.04,3.32,2.02l-24.62,8.32c1.1-2.55,12.88-4.61,14.17-7.78-6.34,1.76-14.22,3.87-19.96,7.35-1.47.89-3.27,4.07-4.73,5.39-3.15,2.86-3.31,20.82-4.89,26.8-2.57,9.68-3.69,42.09-6.97,53.03-2.81,9.4-3.42,18.29-4.51,28.13-3.37,30.51-9.33,59.98-15.25,90.06l-4.52,23c-1.64,8.3-1.07,16.76-4.67,24.9-31.39-1.44-61.44-1.87-91.69,3.54-.99-.37-1.38-2.63-2.08-2.95-1.15-.51-2.84-.21-4.15.53l-9.44,5.41-23.73,17.59c-7.85,5.82-14.59,12.62-23.09,17.93-14.25,8.92-28.31,16.99-41.94,27.18l-34.95,26.12c-8.94,6.68-17.61,13.55-24.17,22.83-2.08,2.95-.73,9.1-5.69,10.63-5.98,1.83-12.96,1.4-18.69,4.43-1.71.91-2.52,4.03-4.24,4.64,1.39.71,1.73,4.06,2.81,4.27l17.06,3.41c-1.54,10.33-.5,20.23.48,30.41.64,6.53,1.73,12.43,7.05,17.2-2.09,1.52-3.04,2.68-3.31,4.05-.33,1.7.64,2.83,2.77,3.75-.7.59-1.53.53-2.78,1.1l4.31,3.78c-.3.79-1.61,1.62-1.64,2.32-.06,1.25.93,2.71,2.42,2.84,2.77.24,4.68,2.47,7.15,3.13,4.61,1.23,35.45.18,42.85-.37l60.93-4.58,39.12-1.05c13.87-.38,27.08-.86,40.98-.69l42.63.51c18.09.21,35.62.65,53.68.69l27.59.06,55.58-.22,18.1-.39c2.69-.06,5.49-2.74,9-2.04,6.26,1.24,24.21-1.17,35.04-.63,16.89.84,33.2.6,50.1,1.16l25.11.82,68.08.63,77.93-.38,9.18-1.93,23.91-.83c7.01-.25,19.44-.94,25.27-4.68,3.05,1.95,6.09,1.4,8.95,3.99,1.63-.86,4.47-1.21,6.24-2.66l15.38-12.57,9.4-8.43,23.53-22.74c6.02-5.82,11.99-11.39,18.76-16.39,16.63-12.28,31.16-25.72,45.89-40.18,10.61-10.41,21.28-19.94,29.33-32.63,1.69-2.66,1.01-7.22.87-10.15ZM836.5,557.1l44.13.05,11.01-.45c3.19-.13,5.81.17,9.58-.16-1.18,2-3.3,2.46-5.43,2.14-5.39-.79-10.32.47-15.16.47h-46.04c.07-.9.96-2.05,1.91-2.05ZM640.35,318.6c1.16.57,1.08,1.7.18,4.07-.79-1.05-.6-2.28-.18-4.07ZM610.04,298.73c3.6-2.15,7.23-3.72,11.87-5.37.19,6.29,2.42,11.5,2.95,17.35.67,7.32,2.6,13.86,3.78,21.01l1.67,10.2c1.66,10.18,2.75,20.01,3.65,29.78.99,10.66,3.19,21.07,5.35,32.2l13.62,70.18c3.47,17.92,5.32,35.18,10.36,52.76,2.26,7.86,3.8,15.61,5.51,23.2l-29.73-16.44c.42.38-12.31-5.21-12.93-4.99-.6.22-1.02,1.58-2.39,1.36-3.61-18.84,1.08-30.8-.56-48.95-.77-8.57-1.42-16.66-3.08-25.14-1.32-6.75-1.85-27.11-1.39-34.95.73-12.55.05-24.56.11-37.11.08-18.02-1.42-35.34-4.71-53.11-.93-5.01.15-9.61-3.42-14.11-.4-.5-.04-2-.7-2.42-6.8-4.3-3.07,31.39-2.75,35.58.97,12.52,1.99,28.71,1.82,41.04l-.57,40.12-.02,7.07.62,13.04c.05,1.14.89,21.4,3.56,12.97.93,5.43,2.48,9.63-.15,14.54,4.99,9.2.12,8.51.84,9.86l1.45,2.71.78,22.94,1.93-8.16c2.12,3.19-.1,7.2,1.47,10.55,1.44,3.04,1.15,5.64.75,8.89-.28,2.3,1.22,5.35.09,7.44-4.73-1.1-2.16,2.82-6.28,2.6-1.06-.06-1.03-1.74-2.16-2.56-4.86-3.53-21.62,27.35-22.51,29.28l-6.02,13.11c-1.66,3.61-2.19,7.72-5.75,10.15-1.13-6.87,3.53-52.25,3.09-53.17-.18-.39-.06-1.3.55-1.08-.01-1.02.2-2.02.35-3.03l4.54-30.65,3.77-35.47c1.55-14.57,3.18-28.41,3.84-43.08.28-6.29,1.43-12.7,2.45-18.83,2.27-13.59,3.73-26.45,3.83-40.2.1-13.46,1.79-26.45-.39-39.69,6.36-3.54-.84-11.84,4.32-20.12,1.37-2.2,5.11-.42,6.59-1.3ZM658.72,569.08c-18.11,11.02-35.44,20.02-53.69,28.95-6.06,2.97-11.6,5.82-16.96,10.61-.75.67-2.04.61-2.44.49-.36-.12-.38-.78-.62-1.37.88,2.13,11.65-19.87,12.32-21.04,3.03-5.32,5.02-10.45,7.49-16.02l7.35-16.59c2.49-5.61,4.43-10.37,6.38-17.31,2.23,6.01,7.19,8.5,11.94,12.19,9.07,7.04,17.77,13.72,28.23,20.09ZM611.45,460.95c-.61-1.31-.87-2.86-.07-5.07,1.12,1.04.94,2.42.07,5.07ZM442.24,267.98c15.24,15.82,25.78,8.1,39.37-.34,6.96-4.32,8.95,3.44,20.05,7.84-1.07-3.62,7.91-.39,9.27.04.47-.02,1.33-.05,1.79-.12,2.01-1.36,4.82-.71,7.19-.86.28-.02.85-.08,1.07.07,4.69-3.13,10.24-5.24,15.52-8.06,3.65-1.95,6.31.3,8.47,3.08,2.24,2.87,5.91,4.46,6.75,7.81,7.89,1.8,3.64,4.85,23.86.83,5.31-1.06,11.46-5.49,16.97-3.86,4.04,1.19,6.79,6.46,12.53,5.23-3.41,2.72-7.35,2.35-10.86,3.33-1.36,2.97-5.52,4.52-7.51,7.26-3.49,4.82-1.59,11.91-3.61,16.95-1.55,2.69-5.72.03-6.86-1.59-2.04-2.91-8.51-3.58-11.44-4.6-5.98-2.09-5.87-2.53-14.81,5.9-1.16.57-3.29.42-4.92.57-6.05-7.66-15.85-12.7-25.62-10.21-6.84,1.74-12.26,6.18-18.14,9.74-5.46,3.3-10.62-7.09-17.16-8.7-9.07-2.24-17.59,1.35-24.64,7-2.85,2.29-5.74,4.59-9.55,4.39-.63-.52.36-.93.95-1.2.56-.25.37-.59.07-.76-7.17-3.83-2.55-2.12-10.54-8.93,5.77-9.89.21-21.27,1.8-30.81ZM438.9,266.5c1.16.57,1.07,1.7.18,4.07-.79-1.06-.6-2.28-.18-4.07ZM420.26,291.57c4.97-1.59,8.87-3.98,12.4-8.51,1.04,4.16.37,7.44.36,11.66-4.99-.37-9.5.6-13.83,3.26l-14.01,8.6c-2.93-2.54-5.48-4.6-7.1-7.91l22.18-7.1ZM380.54,306.01c2,1.19,2.65,2.23,3.86,3.48-3.63,1.95-2.81,5.57-3.31,9.8l-2.99,25.47c-.25,2.09,1.35,4.49-1.83,4.99l4.27-43.74ZM358.21,560.14c2.53-31.72,9.03-61.79,14.19-93.12,4.35-26.43,9.15-51.57,10.79-78.13l1.5-24.28c.1-1.72-1.93-4.02-1.65-6.91l2.71-27.79c.07-.69,1.28-1.27,1.25-1.73-.03-.4-1.43-1.17-1.34-1.59,1.99-9.59-1.51-14.32.39-15.46,1.33-.81,5.75,7.41,9.5,9.44,7.33,3.97,15.84,2.2,22.71-2.27,3.31-2.17,6.39-4.96,10.46-5.75l10.1,11.15c4.63,5.11,14.25,5.62,20.94,2.97,5.99-2.37,9.9-8.04,16.16-10.05,6.9-2.23,6.29,14.55,24.89,13.07,4.88-.39,8.95-1.06,12.71-4.45,2.23-2,5.32-3.36,7.9-5.11,5.21-3.54,6.1,9.92,21.98,11.68,7.24.81,13.08-3.19,18.66-7.22,3.42,2.23,7.65,5.64,12.43,4.28,1.64,3.07.37,5.47-.06,8.27-1.55,10.22-.96,20.3-1.76,30.66l-.93,11.99-3.4,29.62c-.78,6.76-3.58,21.86-1.55,27.03-1.57.99-2.89,1.91-2.94,3-.04.8,2,2.7.73,19.8l-2.58,34.98-.06,2.81c-.12,5.55-1.59,10.3-1.99,15.09-1.32,16.02-3.09,31.98-4.17,48.08l-1.88,27.94c.08-1.29,1.05,32.11-1.62,33.46-1.18-3.59-5.37-3.12-8-4.7-17.9-10.77-23.32-6.06-44.96-11.29-12.87-3.1-25.63-4.74-37.81-8.38-2.85.25-5.29.41-7.9-.12-10.51-2.16-20.78-3.43-31.41-4.23-7.63-.58-14.55-2.09-22.14-3.24l-46.31-7c2.16-8.01,3.85-14.81,4.46-22.5ZM571.06,496.57c-1.87-1.68-1.74-4.36-.07-6.1,1.48,1.89,1.58,3.58.07,6.1ZM568.77,499.4c.09-1.58,1.47-2.13,2.32-.46.17,2.71-2.14,2.99-2.32.46ZM566.52,526.97c.68,2.67.71,4.61-.07,8.11-1.9-2.41-1.1-5.27.07-8.11ZM565.34,542.1c-.71-1.43-.71-3.02-.03-5.06,1.05,1.07.93,2.43.03,5.06ZM712.15,745.08c2.54-.93,5.09-.96,9.07.05-2.81.61-5.61.75-9.07-.05ZM722.17,745.05c3.39-.25,6.51-2.81,10.77-.56-3.54,2.05-6.95,1.02-10.77.56ZM784.16,682.54c-1.05,13.84-.98,27.11-.09,42.01-8.7-3.16-17.85.42-26.51-.33-17.64-1.52-33.88,1.2-51.25.71l-81.21-2.29-28.46,1.11c-7.77.31-15.11.4-22.96.22l-46.62-1.04-20.77-2.07c-12.36-1.23-24.51-1.25-37.1-.85l-64.04,2.03c-24.18.76-47.43-.53-71.72-1.24-17.38-.51-33.77-.81-51.11-.71l-49.19.29c-31.77.19-62.46,2.99-94.07,4.54l-41.95,2.06c.28-6.94.96-12.38-.15-18.5,4.45-.49,8.1,1.36,12.26,1.41l28.79.32c15.05.16,29.81-1.23,44.81-.16l23.33,1.66c88.95,6.32,139.98-1.92,217.65-2.86l19.89-.24,18.99-.05,13.25.37c.08-2.28,8.47-3.16,9.72-2.01.36.33-.78,1.16-.71,1.73l1.74.06c-.24-1.28.28-2.4,1.65-2.21.79.11,1.62.05,2.39.21,4.35.93,8.86-1.34,13.04.43.28.12.72-.16,1.03-.09l16.41.42c9.9.26,19.29,1.09,29.01,2.01,18.05,1.71,35.42,1.8,53.28,1.47,4.37-.08,8.15.6,12.75-.18,5.37-.9,11.49,1.46,16.77-.83-3.28-.57-6.2-.9-9.15-.98l-30.06-.84c30.18-1.98,64.8.47,96.33-1.73l25.13-1.76,23.02-.41c.27-.57.58-1.12.93-1.64-10.01-.95-20.19-.97-30.76-.56l-27.07,1.05c-3.57.14-6.75.16-10.24.11-3.5-.06-7.21,1-11.02,1h-9.81c-4.72,0-23.1.3-26.33-.64-3.39-1-7.03.86-10.33.61-10.95-.85-21.57-.75-32.68-.33-6.2.24-45.88-2.77-51.55-4.6-5.9-1.91-12.76-.1-18.91-.56-13.56-.99-26.65-1.62-40.26-1.59l-20.54.05c-10.69.03-20.35.33-31.23,1.12-43.54,3.18-86.36,4.42-130,4.34-9.13-.02-17.33.83-26.21.62l-16.07-.37-24.72-.93c-39.94-1.49-82.4-7.04-124.63,3.43l-2.12-19.44,58.31-.83c29.41-.42,57.76,1.47,87.1,2.52l57.24,2.05,104.17-.03,113.25-.03,90.01-.42,80.32-.63c-.31-1,.26-2.2,1.51-2.03,1.01.14,1.81-1.61,2.96-.31-.97,1.44-1.96,1.51-2.32,2.35h7.93c-.58-1.42-2.47-.46-4.08-1.9,6.67-1.89,13.74-1.08,21.17-1.24,2.14-.04,11.17-2.03,9.97,2.2l1.01.11c-.09-.68-.07-2.57,1.23-2.62l15.77-.61c1.35-.06,2.71-.75,4.13-.52.92.15,2.07-.1,3.01-.16,5.82-.36,11.64-1.02,18.07-1.05,1.23,0,2.25-1.75,3.04-1.6.61.11,2.16,1.79,2.85,1.36,3.02-1.88,7-2.7,10.02-2.06.64-.04,1.72-.85,2.56-.38.83.47.26,1.76.2,2.48ZM492.6,704.04c1.04-1.2,1.89-.67,2.17-.09.26.57.03,1.2-.52,1.49-.58.32-1.53.21-1.65-1.4ZM579.86,707.97c3.88-.89,7.79-.84,12.22-.05-3.88.9-7.8.84-12.22.05ZM664.08,665.99c1.08-1.04,2.42-.95,5.06-.05-1.44.72-3.02.7-5.06.05ZM774.34,673.44c-1.13,0-1.98.57-2.7.63-1.66.11-2.46.3-3.26.31l-22.86.18c-2.26.02-4.85,2.38-6.86-.49,3.66-1.74,7.12-.02,10.75-.68,6.56-1.19,12.76-1.14,18.97-1.01,1.53.03,2.32-.09,3.08-.01,1.19-.31,1.94-.64,2.72-.71,4.52-.37,8.1-.65,12.35.09-4.01,1.72-8.07,1.71-12.19,1.69ZM796.6,661.65l-2.43,3.94c-24.76-2.87-46.51,1.67-72.41-.75-3.09-.29-5.37-.86-8.98-.77l-25.89.72c-2.31.06-4.31,3.51-7.76.28-1.49-1.4-4.9-.27-6.79-.55-.11.15-.07.73-.3,1.33-.13.33-.55.53-.77.02-.22-.55-.31-.97-.32-1.32-2.9-1.08-6.65.9-9.36.76-16.35-.89-33.41-1.51-50.85-.27-2.73.19-5.87-.84-8.16.12-2.18.91-3.68.32-5.87.43-6.91.35-52.78-.21-49.99-.65l-10.83,1.12-9.78-.32c-4.04-.13-7.45.11-11.26-.07l-15.36-.74c-6.16-.29-11.69-.22-18.11-.19l-147.87.63c-12.26.05-23.15.43-35.23.02l-67.13-2.23c-23.05-.77-45.05-2.52-68.13-1.67l-53.23,1.95c4.53-4.2,8.44-7.81,12.97-11.32l10.22-7.91c18.32-14.2,36.19-27.78,55.55-40.61,11.49-7.61,20.72-17.08,31.06-26.13,7.35-6.43,12.84-14.21,19.95-21.18,4.82.95,9.58,2.21,14.87,2.52,25.58,1.52,50.9,1.13,76.54,1.32l-2.84,18.3c-.59,3.86,2.67,8.13,1.94,12.65,1.92,1.24,4.04.5,5.25,1.9-.15.95-1.02,2.1-.63,2.45.74.66,1.95.06,2.89,1.26l-4.73,1.44c8.53,17.7,25.92,12.55,41.97,16.7,30.73,7.95,56.21,6.6,86.96,12.32l26.41,4.91c11.53,2.14,22.51,3.52,33.69,4.46,9.19.78,18.49,2.45,28.29.82,3.19-.53,5.19-3.98,8.81-4.22,1.42,1.21.9,3.17,2.37,4.83,2.49-2.88,4.72-.2,6.4-.88l8.2-3.33-5.18,9.01c2.24-1.84,4.69-1.31,6.51-1.96,8.5-3.02,15.6-9.09,23.52-13.75,4.14-2.43,8.33-4.2,12.28-6.03.52-3.21,3.82-3.46,5.97-3.47,4.8-1.59,10.57-3.5,14.94-6.19,10.07-6.22,20.83-11.69,32.53-15.77,13.95-4.88,14.49-11.25,22.57-11.54.14-1.19.67-2.69,2-2.93-.07-1.2.26-3.05-.8-3.79-1.01-.72-2.54.13-3.89-.68,1.75-2.43,4.87-1.53,6.78-3.32,4.23-7.27-.35-15.47,5.12-14.42,15.35,2.93,30.34,3.3,45.78,3.61l44.48.91c35.1.71,69.37,2.6,104.29.55-1.82,4.18-5.41,5.07-7.67,7.78-4.48,5.35-21.32,17.52-26.9,22.32l-23.06,19.87c-6.55,5.65-12.91,11.05-19.1,17.16l-16.49,16.29c-8.82,8.72-4.29,5.81-8.13,13.64,5.23-.28,10.88-7.32,16.11-12.33,3.36-3.21,6.27-7.6,11.06-9.12-2.56,4.9-8.01,6.02-10.48,9.65-3.01,4.65-8.56,7.55-11.57,12.42ZM819.59,638.9c1.36-1.5,2.64-2.75,3.62-4.66.59,2.5-1.46,3.69-3.62,4.66ZM800.45,674.92c-.18-.72.39-1.37,1.33-2.08l12.56-8.42c-1.81,2.12-12.31,16.85-13.89,10.5ZM843.61,645.36l47.37-39.78c8.15-6.84,16.03-13.12,22.9-21.23,4.25-5.02,9.08-8.94,14.01-13.63.17,2.48,1.81,6.92-.08,9.84-2.48,3.83-8.15,5.06-10.92,8.7-1.82,2.38-3.35,3.92-5.93,5.37-5.02,2.83-8.2,7.75-12.31,11.53-.75.68-16.55,15.17-13.71,12.16-21.93,23.23-44.66,44.31-69.03,64.31-3.36,2.76-5.4,5.81-8.9,9.04l-1.59-11.29,38.19-35.02ZM911.7,599.73c0,.28-.23.51-.5.51s-.51-.23-.51-.51.23-.5.51-.5.5.23.5.5ZM906.26,605.17c-.31.21-1.11-.59-1.13-1.54-.03-.95,1.31-.38,1.56.08.19.34.13,1.07-.43,1.46ZM902.61,627.27l-38.87,35.25c-13.33,12.09-25.81,23.88-37.88,37.27-6.39,7.09-11.88,14.24-18.97,21.18-.5-4.45-2.44-11.3-.01-16.2,7.18-7.32,15.16-14.09,23.17-20.66l14.44-11.86c9.87-8.11,18.7-17.15,27.89-26.09,4.31-4.2,7.96-8.84,12.51-12.67,3.39-2.86,5.12-6.89,8-9.66,2.43-2.34,3.53-3.48,5.15-6.79,1.03-2.11,4.85-4.29,6.67-6.69,1.92-2.53,6.29-2.99,7.35-6.61.61-2.12,2.19-3.22,3.57-4.46-.32-.33-.57-.76-.93-1.05-3.42-2.8,10.88-11.97,13.83-13.35l2.04,14.43-27.96,27.96Z"></path>
  <path class="cls-1" d="M656.66,352.86l-3.49-22.11c1.26-5.54,5.34,24.29,3.49,22.11Z"></path>
  <path class="cls-1" d="M659.61,369.76c-.63-2.26-2.81-4.95.06-7.1.8,1.83.78,3.66-.06,7.1Z"></path>
  <path class="cls-1" d="M661.16,377.89c-1.06.02-1.28-1.1-1.04-1.56.18-.34,1.17-.54,1.05-2.09,1.15-.92,1,.63.98,1.16-.03.99.37,2.46-.99,2.49Z"></path>
  <path class="cls-3" d="M668.8,550.04c-1.71-7.59-3.25-15.34-5.51-23.2-5.04-17.58-6.89-34.84-10.36-52.76l-13.62-70.18c-2.16-11.13-4.36-21.54-5.35-32.2-2.6-1.63-3.88-4.98-4.23-8.97l-5.04,1.48c.75-1.07.23-2.74.93-3.07.58-.29,2.86,1.05,3.22.45,1.45-8.94-2.57-18.17-5.9-26.42-1.76-4.37-1.61-8.82-4.41-12.87-.85-1.23.36-4.11-.77-5.2-2.38-2.33-2.35-4.9-3.35-7.73-1.33-3.81-3.61-7.01-4.37-10.64-1.48.88-5.22-.9-6.59,1.3-5.16,8.28,2.04,16.58-4.32,20.12,2.18,13.24.49,26.23.39,39.69-.1,13.75-1.56,26.61-3.83,40.2-1.02,6.13-2.17,12.54-2.45,18.83-.66,14.67-2.29,28.51-3.84,43.08l-3.77,35.47-4.54,30.65c4.09,7.4-1.68,23.23,7.78,34.02.89-1.93,17.65-32.81,22.51-29.28,1.13.82,1.1,2.5,2.16,2.56,4.12.22,1.55-3.7,6.28-2.6,1.13-2.09-.37-5.14-.09-7.44.4-3.25.69-5.85-.75-8.89-1.57-3.35.65-7.36-1.47-10.55l-1.93,8.16-.78-22.94-1.45-2.71c-.72-1.35,4.15-.66-.84-9.86,2.63-4.91,1.08-9.11.15-14.54-2.67,8.43-3.51-11.83-3.56-12.97l-.62-13.04.02-7.07.57-40.12c.17-12.33-.85-28.52-1.82-41.04-.32-4.19-4.05-39.88,2.75-35.58.66.42.3,1.92.7,2.42,3.57,4.5,2.49,9.1,3.42,14.11,3.29,17.77,4.79,35.09,4.71,53.11-.06,12.55.62,24.56-.11,37.11-.46,7.84.07,28.2,1.39,34.95,1.66,8.48,2.31,16.57,3.08,25.14,1.64,18.15-3.05,30.11.56,48.95,1.37.22,1.79-1.14,2.39-1.36.62-.22,13.35,5.37,12.93,4.99l29.73,16.44ZM641.31,461.56c3.21,1.53,2.72,6.28,1.22,8.7-.52.84-1.56,1.44-2.05,1.31-2.95-.79,2.68-3.53.83-10.01ZM636.79,423.62c-.33,1.44-7.25,2.61-8.18,1.25-.59-.85-.76-1.87.07-2.91.51-.64,1.31-.87,3.43-.18,1.31.42,1.39-1.89.94-2.25l-1.99-1.6c-1.48-1.18.33-4.71-1.2-7.05,1.1-1.25,2.3-1.39,3.62-2.5,2.55,4.14,4.58,9.71,3.31,15.24Z"></path>
  <path class="cls-3" d="M558.74,489.94c-.36,2.43-2.08,21.65-1.89,22.05,3.47,1.79-2.33,14.19-1,20.86-.74.91-1.92,1.62-1.97.69-.05-1.22-.2-1.89-.32-2.56-1.04.52-2.36,1.69-2.68,3.14-.63,2.89-2.93,3.72-4.43,5.64l-10.87,13.87c-2.63,3.36-5.26,5.99-8.53,8.91-1.55,1.38-3.29,5.5-5.67,4.03-1.28-.79-1.37-3.66-3.57-4.38,5.7-4.47,18.29-19.62,21.82-25.39,1.05-1.73,9.97-15.67,4.76-15.84-1.2-.04-2.02,3.8-3.76,3.05-3.14-1.35,3.67-8.02-.26-8.51-3.81,10.3-9.06,18.62-16.13,25.97l-9.28,9.63c-2.82,2.93-5.41,5.33-8.33,8.16l-7.46,7.24c-1.42-2.49,1.06-2.52,2.73-3.8-3-1.67-4.24,1.91-6.45,3.06-6.62,3.41-13.34,7.03-20.33,9.48-9.15,3.2-5.49,7.39-17.21,15.42,4.67,4.5,8.33-1.59,9.78,2.43-3.14.27-5.84.1-8.13,1.56,1.16,1.33,1.87,1.75,1.95,2.58,12.18,3.64,24.94,5.28,37.81,8.38,21.64,5.23,27.06.52,44.96,11.29,2.63,1.58,6.82,1.11,8,4.7,2.67-1.35,1.7-34.75,1.62-33.46-5.26,1.34-28.41,6.69-33.39,4.26,11.86-9.11,23.4-17.08,32.65-28.13,1.06-1.26-.04-4.79,2.62-4.07,1.08-16.1,2.85-32.06,4.17-48.08-2.92-1.51.49-7.19-.03-14.14-.08-1.13,1.54-1.15,2.02-.95l.06-2.81c-2.32,1.66.1-4.77-3.26-4.28ZM539.8,529.96c1.08.64,1.1,1.39-.04,2.72-.92,1.07-2.36,3.28-3.56,2.2-1.89-1.71,2.31-5.69,3.6-4.92ZM554.19,543.93c-.97,3.35.54,6.19-.87,9.31-.99-5.46-.61-10.92,1.05-16.22,1.22,2.32.4,4.43-.18,6.91Z"></path>
  <path class="cls-3" d="M588.07,608.64c-.75.67-2.04.61-2.44.49-.36-.11-.38-.78-.63-1.36.88,2.13,11.65-19.87,12.32-21.04,3.03-5.32,5.02-10.45,7.49-16.02l7.35-16.59c2.49-5.62,4.44-10.37,6.38-17.31,2.23,6.01,7.19,8.5,11.94,12.19,9.07,7.04,17.77,13.71,28.23,20.09-18.11,11.02-35.45,20.01-53.69,28.95-6.07,2.97-11.6,5.82-16.96,10.61Z"></path>
  <path class="cls-3" d="M521.85,636.52c2.55,2.54-14.84,2.63-17.6,3.29-3.65.88-6.12,1.49-9.98,1.01-8.16-1.01-18.03,4.39-25-2.53-4.35.39-9.05-2.63-10.19-6.44,1.2-1.44,3.31-2.88,2.67-4.71l26.41,4.91c11.52,2.14,22.51,3.52,33.68,4.46Z"></path>
  <path class="cls-3" d="M689.07,584.04c.66.68,2.92,2.46,1.75,3.7-1.8,1.93-2.87,4.14-3.47,6.94-14.42,6.25-29.86,11.46-45.22,15.32-3.04.76-5.45,1.74-8.16,1.35,10.07-6.22,20.83-11.69,32.53-15.77,13.95-4.87,14.49-11.25,22.57-11.53Z"></path>
  <path class="cls-3" d="M594.22,282.97c-1.36,2.96-5.52,4.51-7.51,7.26-3.49,4.82-1.59,11.91-3.61,16.95-1.54,2.69-5.72.03-6.86-1.59,2.87-.28-3.66-13.92,3.68-16.88,2.76-1.12,5.67-1.02,5.23-5.25-.2-1.95,2.28-4.04,4.19-3.19s3.41,1.86,4.88,2.71Z"></path>
  <path class="cls-3" d="M691.07,581.11c-.07-1.2.26-3.05-.79-3.79s-2.55.14-3.9-.67c1.75-2.43,4.87-1.53,6.78-3.32.73-.13,1.87-.43,2,.67,0,.04-1.32,5.78-1.47,6.12-.42.95-1.63.82-2.62,1Z"></path>
  <path class="cls-1" d="M497.77,455.95h-2c.24-.79.91-1.51.8-3.18.73.29,1.28-.28,2.39-.66.35,1.14-.18,2.48-1.18,3.85Z"></path>
  <path class="cls-1" d="M527.45,355.09c-8-3.49-20.91,2.05-20.96,11.56-.04,6.18.3,11.09-.47,17.25-2.21,17.98-5.27,35.58-15.07,51.05-6.19,9.79-13.53,18.44-23.93,23.27-6.05,2.81-11.97,3.3-17.32.64-3.11-1.54-6.33-2.73-8.72-6.48-2.84-4.46-6.25-9.4-7.66-14.98-4.62-18.31-5.12-37.7-.97-55.59.04-4.89.39-9.94,3.91-13.77,1.4,1.58,2.35,2.97,4.64,3.84,3.24-3.97,4.71-8.8,3.61-14.46-1.43-7.33-10.57-9.76-17.21-7.22-5.1,1.95-7.57,5.94-9.22,9.64-2.45,5.47,2.31,9.89,3.55,13.88-1.68,13.28-6.35,25.74-6.41,39.11-.06,14.43,1.55,28.61,8.07,41.52,1.29,2.55,2.7,5.73,4.26,7.61,9.09,10.98,21.44,16.53,36.29,13.46,4.4-.91,8.59-2.81,12.87-3.4-.67-.39-1.87-2.94-.56-3.49,5.27-2.2,9.21-5.39,13.44-8.39,1.28-3.03,4.2-5.75,6.97-7.37.21-.39.01-1.55.8-1.69.65-.12,1.23.61,1.59,1.03,11.82-9.61,17.92-25.14,21.66-40.43,1.89-7.73,7.22-27.34,2.79-32.57l2.34,1.88c.92-2.62.29-4.6,1.81-6.6,1.76,1.23,2.66,2.43,4.09,2.38.56-2.24,1.16-4.78,2.78-6.57-.52-.48-1.12-.73-1.3-.97-.24-.32.03-1.26.44-1.35.3-.07.99.42,2.07.24.34-4.89-2.65-10.63-8.18-13.03ZM508.2,384.85c-.52-3.29-1.42-6.51,1.1-9.25,1.29,3.15.17,6.29-1.1,9.25Z"></path>
  <path class="cls-3" d="M531.64,376.77c.22,1.07-.21,2.05.57,4.05.68-.56.36-1.58,1.6-2.11,3.05,13.78-2.75,13.47-1.37,23.64,3.42-1.66,3.77-4.74,6.82-6.67,2.38,4.02,2.45,9.25-.18,13.22-1.46,2.2-.5,4-.26,6.18.83,7.55-7.12,28.21-7,26.89-.51,5.27-2.43,12.65-6.03,15.59-.73,1.58.75,4.65-1.64,6.33-1.64,1.15-3.3,2.45-6.15,2.16,1.17,4.1-1.86,6.03-3.12,8.6-1.69,3.46-2.82,5.58-6.87,6.91-2.37.77-3.98,5.43-6.48,5.89-3.87.71-4.67,2.98-7.37,5.12-7.22,5.73-18.29,7.12-26.95,6.05-.87-1.69-.44-4.1-2.89-3.9-1.86.16-3.77-.35-3.11,2.76-6.85.57-30.46-13.87-29.9-23.48.87-.44,1.65-.85,1.32-1.45-.74-1.33-2.77-.13-3.7-1.05,1.46,1.44-2.29-9.22-1.38-9.55,9.08,10.98,21.43,16.53,36.29,13.46,4.4-.91,8.59-2.81,12.88-3.4,7.52-1.03,14.37-6.45,17.98-12.73-2,.13-2.19,1.9-3.46,1.91-.57,0-1.23-.5-1.64-1.06,1.28-3.03,4.2-5.75,6.97-7.37.11,1.67-.56,2.39-.8,3.18-.3.98-.02,1.65.48,2.01.4.28,1.16-.05,1.49-.44.27-.32-.29-1.13.03-1.57,1-1.36,1.53-2.7,1.18-3.85,11.82-9.61,17.92-25.13,21.66-40.42,1.89-7.73,7.22-27.34,2.78-32.57l2.34,1.88c.92-2.61.29-4.6,1.81-6.6,1.76,1.23,2.66,2.44,4.1,2.38Z"></path>
  <path class="cls-3" d="M449.7,458.86c-3.11-1.54-6.33-2.73-8.72-6.48-2.84-4.46-6.26-9.4-7.66-14.98-4.62-18.32-5.12-37.7-.97-55.6,3.25-1.48,1.57-8.64,6.58-7.69,4.67.89,2.4,16.5,1.55,20.68-1.29,6.36-.41,12.84-1.31,18.98-.95,6.51.13,11.46,1.71,17.68,2.43,9.57,4.84,18.73,8.82,27.41Z"></path>
  <path class="cls-1" d="M553.56,530.98l2.34-13.91c1.51-.65.98-2.65,1-4.01,0-.32.09-.79-.05-1.08,3.46,1.79-2.33,14.19-1,20.86-.75.91-1.93,1.63-1.97.69-.06-1.22-.21-1.89-.33-2.56Z"></path>
  <path class="cls-3" d="M560.03,485.55c-1.87-1.68-1.74-4.36-.07-6.1,1.48,1.89,1.58,3.57.07,6.1Z"></path>
  <path class="cls-1" d="M720.27,687.41l-4.07.03c.67-.21,1.37-1.47,2.51-1.13.58.18,1.2.45,1.57,1.1Z"></path>
  <path class="cls-1" d="M554.19,543.92c-.98,3.35.54,6.19-.87,9.32-.99-5.46-.61-10.92,1.05-16.22,1.22,2.32.4,4.42-.18,6.9Z"></path>
</svg>