<?xml version="1.0" encoding="UTF-8"?>
<svg id="Layer_1" data-name="Layer 1" xmlns="http://www.w3.org/2000/svg" viewBox="0 0 1000 1000">
  <defs>
    
  </defs>
  <path class="cls-2" d="M295.51,370.03c.4-1.04,1.8-2.51,2.59-2.18.38,1.1-1.39,2.14-2.59,2.18Z"></path>
  <path class="cls-2" d="M409.2,656.2l-4.71-.04c1.25-.5,2.58-.48,4.71.04Z"></path>
  <path class="cls-2" d="M437.77,654.57l-4.07-.1c1.6-.84,3.16-1.81,4.07.1Z"></path>
  <path class="cls-2" d="M442.91,652.95l5.85-.04c-2.01.93-4.1,2.09-5.85.04Z"></path>
  <path class="cls-2" d="M450.59,652.5l3.73-.7c-1.14,1.57-2.45,1.25-3.73.7Z"></path>
  <path class="cls-2" d="M749.88,515.83c-1.03,48.29-33.19,70.81-61.45,81.29,1.06.2,1.04.45-.38.91-.87.16-1.96,1.31-1.83,2.33l.29,2.17c-.06.22-.13.5-.17.68l2.62.69c1.66.43-3.74,3.65-3.95,3.76-1.41.74-4.12.52-5.59,1.01-6.85,2.24-2.61-.52-9.75,1.75-4.49,1.43-8.9,2.8-13.25,4.51l-6.7,2.63c-2.44.96-7.09,4.67-9.29,6.87-4.26,4.27-6.61,9.65-8.67,15.21-1.67,4.5-3.3,8.75-4.56,13.34-1.43,5.21-2.97,10.13-4.7,15.22l-5.58,16.47c-3.76,11.09-2.85,11.29-8.27,22.31-2.77,5.63-5.89,10.32-10.38,14.81l-5.52,5.52c-.29.3-1.82-.31-2.06-.57l-5.44,3.74c.14.31.3.69.39.88-7.2,4.39-14.49,3.57-22.01,1.84-1.7-.4-2.16-.99-3.58-2l-6.13-4.33c-6.65-4.7.06,3.89-9.2-7.12-1.83-2.17-3.18-4.23-4.33-6.82-.64-1.45-1.88-3.3-2.23-4.47l-1.04-3.43c-1.01.53-1.22.79-1.36.56-1.64-2.53-8.13-15.84-9.41-19.38l-3.26-9.03-2.18-4.87c-4.36-9.74-3.88-8.85-10.05-15.52-1.24-1.35-3.38-2.52-5-3.55-6.99-4.43-15.1-5.63-22.97-3.92-1.24-3.16-5.73-1.51-5.7-1.3l.15,1.3c-1.34.09-3.21.11-4.59.02l2.53-1.12c-2.19-.21-3.74,0-5.36.63,1.27.99,1.69,1.2-.44,1.08.11-3.19-8.88.4-11.12.43l1.71,1.11-4.89.72,2.81-1.48c-.13-.08-.42-.26-.73-.47l-5.82,1.11c-1.66.31-3.71.62-5.4.73l-11.16.7-5.44.34-17.44,1.35c-5.29.42-10.64.19-15.93-.15l-9.82-.64c-6.21-.41-11.85-1.93-15.36-2.29-6.01-.63-18.05-3.84-23.96-6.03l-.58-1c1.08,1.84-12.98-4.38-13.58-4.72l-17.63-10.04-3.14-1.85c-5.05-2.97-8.34-7.12-12.42-11.02l-5.35-5.12c-2.92-2.8-5.42-5.49-7.61-8.78l-1.45-2.17-5.82-8.89-6.13-10.07c-2.61-4.28-4.53-9.12-6.7-13.82-1.69-3.64-2.65-7.36-3.85-11.18l-2.42-7.6c-.29-.89-.48-1.71-.73-2.74l-2.52-10.37c-1.27-5.19-2.18-10.21-3.05-15.49-.54-3.29-1.83-6.72-1.98-10.32l-.36-8.31-1.18.91.57-3.67c-1.14-.02-1.43-.27-.05-.95l-.21-16.41c-.03-2.28.16-4.65.32-6.83l.48-6.27c.34-4.52,1.09-8.85,1.93-13.3l1.04-5.46,1.16-8.42c1.71-12.38,10.91-33.29,18.04-43.78l4.2-6.19c4.28-6.31,7.47-11.31,13.5-15.87,5.99-4.52,8.86-8.25,13.69-12.46l6.55-5.7,5.62-4.36c.52.16,1.41.48,1.31.28-.09-.19-.02-1.2.16-1.33l6.58-4.72c1.83-1.3,3.29-2.03,5.04-2.27-.24-.21-.91-.73-.73-.81.76-.32-.48-.36,1.49-.17l2.48-3.18c-.68,5.03,3.03-.84,7.96-3.69l5.19-2.98,4.21-2.34,12.35-6.95c8.25-4.65,10.05-4.3,16.44-7.32l14.71-6.95c12.36-5.85,24.96-10.1,37.92-14.51l24.04-8.17c7.46-2.54,14.82-4.19,22.41-6.06l6.72-1.64,4.22-.71c-2.41,2.21-5.35,1.71-8.05,2.49l-14.71,4.27c5.26-1.02,10.14-2.13,15.19-3.48,6.47-1.73,7.95-1.55,13.62-3.21l-5.23-.23,5.13-1.51c.19.84.16,1.8.46,1.62l1.5-.85c.15-.08.54-.74.54-.74,0,0,.5.51.9.92l1.13-1.62c.3-.43,2.09.15,2.61.04,4.04-.77,8.99-2,13.13-2.76l18.47-3.37,21.71-2.46c4.36-.49,10.88-1.83,14.78-.98,8.81-1.98,25.97-2.43,35.5-2.25,3.34.06,6.57.59,9.88.94,6.98.74,13.81.98,20.65,2.3,5.01.96,10.12,1.55,14.8,3.2l12.07,4.24c13.09,4.62,28.72,14.28,38.41,25.23-2.96-.66-4.43-3.39-6.98-4.55l9.53,9.66c1.28,1.31,2.95,2.55,4.23,4.06,3.06,3.6,5.7,7.17,7.98,11.27l3.75,6.75c5.45,9.8,10,19.5,12.01,30.58,1.22,6.76,2.76,13.36,2.76,20.15,9.91,36.56,15.36,89.59,14.37,136.54Z"></path>
  <path class="cls-2" d="M735.51,379.29c0,.69-.02,1.37-.05,2.06-.24,5.1-.46,10.29-1.36,15.28l-2.33,12.96c-.86,4.77-2.55,9.09-4.4,13.51l-.35-4.73c-2.27,1.27-1.3,4.7-.47,6.4.16.33-.85,1.04-.59.51.1-.21-1.49-1.07-1.66-.64-6.92,16.73-17.26,28.35-30.88,40.8.45.69,1.34,2.01.91,2.43l-2.24,2.18c-.2-.33-.71-1.38-.42-1.78l1.35-1.83c-.18-.05-.44-.11-.55-.14-6.45,6.04-13.78,8.92-19.55,14.3-.22.21-.6,1.33-.78,1.14l-.74-.82c-.42.37-.81.78-1.25,1.1-.22.16-.47.29-.73.38h0c-.31.13-.66.18-1.08.15-.07,0-.14,0-.2,0-.17-.02-.36-.06-.55-.11-.13.21-.26.43-.42.62-.11.14-.21.27-.33.4,0,.02-.03.05-.06.07-.13.14-.25.27-.39.4-.12.12-.23.22-.36.33-.71.61-1.51,1.12-2.23,1.47l-13.68,6.38,1.92.7-4.24,1.31c-.13-.25-.97-1-1.21-.92l-9.68,3.09.29,1.56c.05.28-12.87,3.08-14.18,2.54-2.48-.79-4.71-1.05-7.32-.8l-4.42.44c-2.03.2-4.81.62-6.5.5l-9.34-.63c-1.18-.08-2.37-.61-3.45-.92l-6.29-1.77-3.28-.79c-1.1-.25-15.02-7.44-17.23-9.33l-1.61-.16c-.39-.03-.52-1.71-.81-1.96l-6.11-5.4-3.68-1.19c-.5-.16-1.35-.59-1.51-.29l-.55.99c-11.49,4.34-5.16,4.67-9.75,6.93l-7.1,3.5-8.39,3.6c.17-.07-9.5,2.31-10.78.67-3.66,4.17-18.93-.4-23.24-2.33.1-.91.37-1.82-.02-1.95l-1.51-.53c-13.34-4.76-9.95-8.51-14.5-7.15l-3.71-3.7c-2.3,2.72-4.7,4.42-8.16,5.21-2.19.5-3.18,2.94-4.71,4.15-2.75,2.19-6.28,4.29-9.6,5.46-11.32,4-18.77,4.88-30.58,2.05-2.54-.61-4.67-2.8-6.32-4.58l2.68-1.37-2.49-2.42c-.41-.41.49-2.3,1.06-2.23l2.33.28,3.12.37c8.54-3.9,9.65,2.31,22.03-5.53l9.72-6.16c4.84-3.06,6.47-1.84,12.36-9.83-1.99-3.29-3.14-19.57-2.63-22.18l.7-3.7.75-10.65c.31-4.55,4.83-6.93,5.06-8.85.74-6.07,3.38-4.52,6.96-8.11l-.5-1.06c-.07-.14.55-.57.7-.66l4.75-2.84c2.21-1.32,6.2-2.24,8.66-2.28l7.01,2.46c3.24,1.14,10.24,6.62,8.5,10.11,4.99,8.8,1.46,22.7-3.33,31.39-3.56,6.47-7.28,12.53-12.02,18.17,2.46,3.21,5.66,4.55,9.25,4.91,3.73.37,7.68,2.12,11.55,1.28,3.52-.77,8.02.46,12.25-1.52l7.98-3.73c3.69-1.73,5.98-6.33,9.52-8.35l1.17-.56c.28-.13.34-1.32.26-1.63l-1.67-7.01c1.61,1.75,1.91,3.63,2.84,5.89-.34-5.24-1.85-5.16-2.76-9.97-.61,1.01-.9,1.35-.57.1.29-2.31.48-4.33.37-6.5l-.4-8.06c-1.93,3.52,1.51,6.47-1.19,9.54l-.51-9.71c-.02-.29.31-1.45.57-1.45h1.28s.94-6.65.94-6.65l1.27-6.37c-.17-.89.8-2.57-.83-.85l.89-3.92c.57,1.61.77,2.12.86.93.31-1.6-.13-2.59-.11-3.6.08-2.91,3.33-9.99,4.86-12.92,4.77-9.11,6.35-10.44,14.52-17,.52-.02,1.38.18,1.58-.13l1-1.52c1.22,2.24,4.19-1.57,6.87-1.64,8.78-.24,12.83,1.5,17.29,9.43.59-.32,1.11-.86,1.39-.65.27.21.99,1.15,1.16,1.51,2.8,6.17,3.24,13.51,2.47,20.34-.56,4.9-.17,9.75-1.11,14.4-1.22,6.11-6.49,19.18-9.53,24.2l-9.26,15.35c-.15.77,5.87,4.36,6.42,4.66l7.88,4.47c.68-.38,1.66-1.35,2.16-1.17l2.1.78-2.27.87c4.53,3.09,5.21.56,12.96,2.13,5.51,1.11,10.76,1.03,16.16-.06l11.12-2.21,4.65-1.02c.79-.17,2.08-1.4,2.85-1.73,2.79-1.2,6.9-2.74,10.16-3.76,2.18-.68,3.05-1.51,4.7-2.99,2.09-1.89,5.42-3.19,7.84-4.91,1.74-1.23,3.2-2.06,5.26-2.99l2.5-4.26c.4-.17.77-.35,1.11-.52,34.83.64,34.36-35.24,40.68-55.91,2.11-6.88-9.92-35.89-16.78-40.98l-6.45-11.57s.04,0,.06.02l-6.44-8.23c-1.27-1.62-3.52-3.49-5.38-4.88l-6.68-5.01,1.7-.34c.15-.03.16-.46.04-.53l-6.73-4.49c-.18.48-.05,1.65-.41,1.53l-1.84-.59c-.27-.1-1.26-.88-1.1-1.12l.79-1.07c-1.45-1.6-1.32-.86-.82.97l-15.8-6.32-6.89-2.34c-2.73-.93-12.15-2.48-15.62-2.81-.82-.08-2.63-.81-3.51-.83l-17.25-.59-4.81-.05-32.46.51c-7.89.13-15.33.16-22.61,1.89,3.86-.31,7.39-.75,11.33-.55-5.97,1.62-12.31,1.7-18.33,2.73-.7-.94-1.96-1.33-3.66-.87l2.62,1.06-10.7,1.6c-4.45.67-8.76,1.97-13.2,2.88-7.66,1.59-14.97,3.32-22.54,5.38l-12.8,3.49c-.98-.53-1.93-.94-2.94-1.21l1.78,1.57-10.53,3.25c-6.64,2.05-13.08,3.65-19.76,6.06l-18.05,6.51c-.28-.15-.19-1.61-.54-1.51l-2.36.68,2.38.64-28.71,12.53-11.56,5.59-8.71,3.82c1.94-1.98,4.16-2.95,6.81-4.58l-4.66,2c-3.31,1.41-8.3,4.18-10.73,6.16-.14.11.18,1.27.1,1.42-.11.16-.4.39-.52.24l-.88-1.06c-.23-.41-.35,1.8-.73,2.04l-14.73,9.29c-3.16,1.99-5.62,4.07-8.72,5.5-1.86.85-2.81,1.34-4.2,2.73-2.31,2.31-5.41,3.98-7.91,6.17-5.17,4.51-9.75,9.44-14.55,14.47-3.12,3.26-14.55,21.15-16.64,26.7-.08,0-.55-.52-.58-.8l-.17-1.51-4.19,10.29c-.65,1.59-.66,3.23-.04,4.63l-.86.37c-.2.09-.36.83-.14.84l1.24.04-1.92,7.92c-2.9,11.97-5.99,35.92-4.36,47.84l.98,7.19c1.24,9.11,3.3,17.73,5.53,26.66,4.11,16.37,7.69,25.37,15.56,39.85.42.76.5,2.52,1.16,3.39l3.9,5.14c.82,1.06,2.33,2.4,3.28,3.53l3.96,4.68c4.97,5.88,10.72,10.98,17.43,14.57,9.8,5.23,3.54,4.11,16.86,9.24l6.87,2.66c3.75,1.45,8,2.67,11.89,3.26l19.31,2.94c6.32.97,12.82,1.53,19.28,1.03l41.01-3.2c3.52-.28,10.78-1.57,10.83.1l1.37-1.92c.88-1.23,4.21,1.21,8.44-.35,2.83-1.04,5.48-.75,8.51-.52,1.33.1,3.61-.35,5.42-.31,6.57.13,13.08.19,19.43,1.79l5.74,1.45c4.46,1.12,8.94,3.25,12.89,5.59l6.66,3.97c3.54,2.11,4.85,3.55,7.41,7.04l8.21,11.15c3.65,4.96,5.78,11.01,8.55,16.58l8.16,16.36c2.01,4.04,4.49,7.8,7.47,11.21.3.35,1,1.48,1.35,1.28l1.38-.77c-.29-.68,3.51-7.57,4.21-6.97l3.44-7.04c1.6-3.34,3.18-6.44,3.97-10.05.89-4.06,2.31-7.75,3.59-11.68l1.36-4.15,5.81-17.1,2.09-.15c-1.84-2.69.41-8.83,3.17-9.4l2.58-4.94c.16-.3.15-1.32-.16-1.33l-1.05-.02c-.16-2.26,4.07-1.55,3.66-3.98-.16-.9-.48-2.35,0-2.66,1.44-.96,4.8-2.33,5.83-5.12.45-1.19,2.72-7.38,4.89-4.97l10.88-8.04c1.68-1.24,4.11-2.11,6.18-3.19.66-.35,1.3-.68,1.92-.99.94-.48,1.84-.9,2.71-1.3.29-.13.58-.26.87-.38.28-.13.57-.24.85-.36.57-.24,1.15-.46,1.71-.65.16-.07.34-.13.51-.18.23-.08.46-.16.69-.22.16-.06.33-.11.5-.16.24-.07.49-.14.72-.2.05-.02.1-.03.15-.04.72-.19,1.44-.37,2.18-.51.2-.04.41-.08.61-.12.27-.05.54-.09.83-.14.34-.06.69-.11,1.05-.16.05,0,.11-.02.16-.02.37-.05.76-.1,1.15-.14.04,0,.08,0,.12,0,.33-.04.67-.07,1.02-.09.08,0,.16-.02.24-.02.18-.02.37-.03.55-.04.29-.02.59-.04.89-.05l5.32-.24c2.44-.11,10.42-.31,11.11,2.32l-6.99,2.06c4.92,2.56,9.5,1.21,14.27.6l7.61,2.56c.76.26,2.04,1.22,2.8,1.91-.44.88-1.34,1.12-3.38.84l1.18.49,3,1.22s.03,0,.04,0c28.26-10.49,60.42-33.01,61.45-81.29.99-46.95-4.46-99.98-14.37-136.54ZM625.54,467.26l1.07-.42c.2-.08.38.69.17.79l-.95.45-1.85.88-.08-1.34c-.02-.38,1.27-.22,1.63-.36ZM538.06,416.58l.32-1.19c.07-.23,1.06.1.97.33l-.48,1.33-.72,3.51c-.64-1.47-.45-2.66-.1-3.98ZM538.17,421.06l-.91,3.18-.38-1.67c-.12-.52.37-1.12,1.29-1.51ZM496.69,599.76l-.75-.02c-1.34-.03-2.62.11-3.75.21-.44.05-1.08.11-1.35.12l-.54-.04c-3.24-.24-6.91-.52-11.12,1.04-.33.12-.85.04-1.88-.16-1.36-.26-4.92-.93-7.96,1.1-1.91,0-4,.25-6.28.51-.89.1-1.73.19-2.42.25l-41.01,3.2c-5.05.4-10.6.09-17.51-.96l-19.32-2.94c-3.11-.48-6.75-1.49-10.24-2.84l-6.87-2.65c-6.7-2.59-7.42-3.18-8.33-3.92-1.57-1.28-3.34-2.62-7.66-4.93-5.31-2.84-10.41-7.12-15.16-12.73l-3.95-4.68c-.63-.74-1.31-1.44-1.92-2.05-.38-.38-.94-.96-1.12-1.18l-3.28-4.31c-.19-.86-.48-2.01-1.14-3.22-7.65-14.09-10.98-22.62-14.84-38.03-2.15-8.56-4.18-16.98-5.38-25.83l-.98-7.18c-.32-2.37-.44-5.33-.37-8.63,3.17,5.6,9.99,17.53,11.37,18.91,1.82,1.82,26.38,23.69,26.38,23.69,0,0,8.55,15.59,18.12,23.22,5.75,4.57,16.8,12.14,16.8,12.14l17.57,6.25s24.45,11.8,24.95,10.83c.49-.98,31.07,3.47,31.07,3.47,0,0,28.87,5.77,38.27,13.86,2.52,2.18,10.68,5.16,18.86,7.77-2.79-.16-5.53-.21-8.24-.27ZM619.94,598.61c1.33-1.74,2.65-3.25,5.13-3.34-1.5,1.29-3.36,2.54-5.13,3.34ZM664.51,486.95c-.54.54-1.08,1.11-1.18.86-.11-.23-.61-.89-.37-.97l1.23-.4c1.13-.56,1.32-.48.32.5ZM722.87,432.37c-.62-.71-.16-1.84,1.3-2.51l-1.3,2.51Z"></path>
  <path class="cls-1" d="M732.76,359.14c-2.01-11.08-6.56-20.78-12.01-30.58l-3.75-6.75c-2.28-4.11-4.92-7.67-7.98-11.27-1.28-1.51-2.95-2.75-4.23-4.06l-9.53-9.66c2.55,1.17,4.02,3.89,6.98,4.55-9.69-10.94-25.32-20.61-38.41-25.23l-12.07-4.24c-4.68-1.65-9.79-2.24-14.8-3.2-6.85-1.32-13.67-1.56-20.65-2.3-3.31-.35-6.54-.88-9.88-.94-9.54-.17-26.69.27-35.5,2.25-3.9-.84-10.42.5-14.78.98l-21.71,2.46-18.47,3.37c-4.14.76-9.09,1.99-13.13,2.76-.52.11-2.31-.47-2.61-.04l-1.13,1.62c-.4-.41-.9-.91-.9-.92,0,0-.4.66-.54.74l-1.5.85c-.3.17-.26-.78-.46-1.62l-5.13,1.51,5.23.23c-5.67,1.66-7.16,1.49-13.62,3.21-5.05,1.35-9.92,2.46-15.19,3.48l14.71-4.27c2.7-.78,5.64-.27,8.05-2.49l-4.22.71-6.72,1.64c-7.59,1.86-14.95,3.52-22.41,6.06l-24.04,8.17c-12.96,4.41-25.56,8.66-37.92,14.51l-14.71,6.95c-6.39,3.02-8.19,2.67-16.44,7.32l-12.35,6.95-4.21,2.34-5.19,2.98c-4.93,2.85-8.64,8.72-7.96,3.69l-2.48,3.18c-1.96-.18-.73-.15-1.49.17-.18.08.49.59.73.81-1.75.24-3.21.97-5.04,2.27l-6.58,4.72c-.17.13-.24,1.14-.16,1.33.1.19-.79-.13-1.31-.28l-5.62,4.36-6.55,5.7c-4.84,4.2-7.7,7.93-13.69,12.46-6.03,4.55-9.21,9.55-13.5,15.87l-4.2,6.19c-7.13,10.5-16.33,31.4-18.04,43.78l-1.16,8.42-1.04,5.46c-.84,4.46-1.59,8.79-1.93,13.3l-.48,6.27c-.16,2.18-.35,4.54-.32,6.83l.21,16.41c-1.38.68-1.09.93.05.95l-.57,3.67,1.18-.91.36,8.31c.16,3.6,1.44,7.03,1.98,10.32.86,5.28,1.78,10.3,3.05,15.49l2.52,10.37c.25,1.03.44,1.84.73,2.74l2.42,7.6c1.2,3.82,2.17,7.54,3.85,11.18,2.17,4.7,4.09,9.54,6.7,13.82l6.13,10.07,5.82,8.89,1.45,2.17c2.19,3.29,4.69,5.98,7.61,8.78l5.35,5.12c4.08,3.9,7.37,8.05,12.42,11.02l3.14,1.85,17.63,10.04c.6.34,14.66,6.55,13.58,4.72l.58,1c5.91,2.19,17.95,5.4,23.96,6.03,3.52.36,9.15,1.88,15.36,2.29l9.82.64c5.29.34,10.64.56,15.93.15l17.44-1.35,5.44-.34,11.16-.7c1.69-.11,3.74-.42,5.4-.73l5.82-1.11c.31.2.6.39.73.47l-2.81,1.48,4.89-.72-1.71-1.11c2.24-.03,11.23-3.62,11.12-.43,2.13.13,1.71-.09.44-1.08,1.62-.62,3.17-.84,5.36-.63l-2.53,1.12c1.38.09,3.25.07,4.59-.02l-.15-1.3c-.03-.21,4.46-1.85,5.7,1.3,7.87-1.71,15.98-.5,22.97,3.92,1.62,1.03,3.76,2.2,5,3.55,6.17,6.67,5.69,5.78,10.05,15.52l2.18,4.87,3.26,9.03c1.28,3.54,7.77,16.85,9.41,19.38.14.22.35-.03,1.36-.56l1.04,3.43c.35,1.17,1.59,3.02,2.23,4.47,1.15,2.58,2.51,4.65,4.33,6.82,9.25,11.01,2.54,2.42,9.2,7.12l6.13,4.33c1.43,1.01,1.88,1.6,3.58,2,7.53,1.74,14.81,2.55,22.01-1.84-.09-.19-.25-.57-.39-.88l5.44-3.74c.24.26,1.77.87,2.06.57l5.52-5.52c4.49-4.49,7.61-9.18,10.38-14.81,5.43-11.02,4.52-11.23,8.27-22.31l5.58-16.47c1.73-5.09,3.27-10,4.7-15.22,1.26-4.59,2.89-8.85,4.56-13.34,2.06-5.55,4.41-10.93,8.67-15.21,2.2-2.2,6.86-5.91,9.29-6.87l6.7-2.63c4.35-1.71,8.77-3.08,13.25-4.51,7.14-2.27,2.9.5,9.75-1.75,1.48-.49,4.19-.27,5.59-1.01.21-.11,5.61-3.33,3.95-3.76l-2.62-.69c.05-.18.12-.46.17-.68l-.29-2.17c-.14-1.02.95-2.17,1.83-2.33,1.42-.47,1.44-.71.38-.91,0,0-.03,0-.04,0l-3-1.22-1.18-.49c2.04.27,2.94.04,3.38-.84-.76-.69-2.04-1.65-2.8-1.91l-7.61-2.56c-4.78.61-9.35,1.96-14.27-.6l6.99-2.06c-.69-2.63-8.67-2.43-11.11-2.32l-5.32.24c-.3,0-.6.03-.89.05-.18,0-.37.02-.55.04-.08,0-.16,0-.24.02-.35.02-.69.05-1.02.09-.04,0-.08,0-.12,0-.39.04-.78.09-1.15.14-.06,0-.12,0-.16.02-.36.05-.71.1-1.05.16-.28.05-.55.09-.83.14-.2.04-.41.08-.61.12-.75.15-1.47.32-2.18.51-.05,0-.1.02-.15.04-.23.07-.48.14-.72.2-.17.05-.33.1-.5.16-.23.07-.46.15-.69.22-.17.06-.35.12-.51.18-.56.19-1.14.41-1.71.65-.28.12-.57.23-.85.36-.29.12-.58.25-.87.38-.87.4-1.77.83-2.71,1.3-.62.31-1.26.64-1.92.99-2.07,1.09-4.5,1.95-6.18,3.19l-10.88,8.04c-2.18-2.41-4.45,3.78-4.89,4.97-1.03,2.79-4.39,4.16-5.83,5.12-.47.31-.15,1.76,0,2.66.41,2.43-3.83,1.72-3.66,3.98l1.05.02c.3,0,.31,1.03.16,1.33l-2.58,4.94c-2.76.57-5,6.71-3.17,9.4l-2.09.15-5.81,17.1-1.36,4.15c-1.28,3.93-2.7,7.62-3.59,11.68-.8,3.61-2.37,6.71-3.97,10.05l-3.44,7.04c.08-.1,1.29.09,1.13.4-.34.6-1.44,1.96-1.7,2.52l-1.57,3.49c-.09.18-.66.86-.8.99-.21.19-.62-.08-1.27-.43l-1.38.77c-.35.19-1.05-.93-1.35-1.28-2.98-3.41-5.46-7.17-7.47-11.21l-8.16-16.36c-2.77-5.56-4.89-11.61-8.55-16.58l-8.21-11.15c-2.56-3.49-3.86-4.93-7.41-7.04l-6.66-3.97c-3.94-2.34-8.43-4.48-12.89-5.59l-5.74-1.45c-6.35-1.59-12.86-1.66-19.43-1.79-1.81-.04-4.09.41-5.42.31-3.03-.22-5.68-.51-8.51.52-4.22,1.56-7.55-.88-8.44.35l-1.37,1.92c-.05-1.67-7.3-.38-10.83-.1l-41.01,3.2c-6.47.5-12.96-.06-19.28-1.03l-19.31-2.94c-3.88-.59-8.14-1.82-11.89-3.26l-6.87-2.66c-13.31-5.14-7.06-4.01-16.86-9.24-6.71-3.58-12.46-8.68-17.43-14.57l-3.96-4.68c-.95-1.14-2.47-2.48-3.28-3.53l-3.9-5.14c-.66-.87-.74-2.63-1.16-3.39-7.87-14.48-11.45-23.48-15.56-39.85-2.23-8.93-4.29-17.56-5.53-26.66l-.98-7.19c-1.63-11.92,1.46-35.87,4.36-47.84l1.92-7.92-1.24-.04c-.22,0-.07-.75.14-.84l.86-.37c-.62-1.4-.61-3.04.04-4.63l4.19-10.29.17,1.51c.03.27.5.8.58.8,2.1-5.55,13.53-23.44,16.64-26.7,4.8-5.03,9.38-9.96,14.55-14.47,2.51-2.18,5.6-3.85,7.91-6.17,1.4-1.39,2.34-1.87,4.2-2.73,3.1-1.43,5.56-3.51,8.72-5.5l14.73-9.29c.38-.24.5-2.45.73-2.04l.88,1.06c.13.15.42-.09.52-.24.09-.15-.23-1.31-.1-1.42,2.43-1.98,7.42-4.75,10.73-6.16l4.66-2c-2.65,1.63-4.87,2.6-6.81,4.58l8.71-3.82,11.56-5.59,28.71-12.53-2.38-.64,2.36-.68c.35-.11.26,1.36.54,1.51l18.05-6.51c6.68-2.41,13.12-4.01,19.76-6.06l10.53-3.25-1.78-1.57c1.01.27,1.96.68,2.94,1.21l12.8-3.49c7.56-2.06,14.88-3.79,22.54-5.38,4.44-.91,8.75-2.21,13.2-2.88l10.7-1.6-2.62-1.06c1.7-.46,2.96-.07,3.66.87,6.02-1.03,12.36-1.11,18.33-2.73-3.94-.19-7.48.24-11.33.55,7.27-1.74,14.71-1.77,22.61-1.89l32.46-.51,4.81.05,17.25.59c.87.03,2.69.76,3.51.83,3.48.33,12.9,1.87,15.62,2.81l6.89,2.34,15.8,6.32c-.5-1.84-.63-2.57.82-.97l-.79,1.07c-.16.23.83,1.02,1.1,1.12l1.84.59c.36.12.22-1.06.41-1.53l6.73,4.49c.12.08.11.5-.04.53l-1.7.34,6.68,5.01c1.86,1.4,4.11,3.26,5.38,4.88l6.44,8.23s-.04,0-.06-.02l6.45,11.57.18.33c3.18,5.7,5.22,12.24,6.16,18.68l1.67,11.63c.28,1.95-.3,9.16-.6,10.67l-2.68,13.54c-.16,1.27.31.36.74-.57.19-.13.78-.54.8-.54,0,0,.25.37.44.63-1.42,5.65-3.7,10.55-6.38,15.65-6.86,13.05-10.78,14.63-21.36,24.84-.87.84-1.75,1.46-2.85,2.03-.34.17-.71.35-1.11.52l-2.5,4.26c-2.06.93-3.52,1.76-5.26,2.99-2.42,1.72-5.75,3.02-7.84,4.91-1.65,1.49-2.52,2.31-4.7,2.99-3.25,1.02-7.37,2.55-10.16,3.76-.77.33-2.06,1.55-2.85,1.73l-4.65,1.02-11.12,2.21c-5.4,1.09-10.65,1.17-16.16.06-7.75-1.56-8.43.96-12.96-2.13l2.27-.87-2.1-.78c-.5-.18-1.48.79-2.16,1.17l-7.88-4.47c-.54-.3-6.56-3.89-6.42-4.66l9.26-15.35c3.04-5.02,8.3-18.09,9.53-24.2.93-4.65.54-9.5,1.11-14.4.78-6.84.33-14.18-2.47-20.34-.16-.37-.88-1.3-1.16-1.51-.28-.21-.8.33-1.39.65-4.47-7.93-8.52-9.67-17.29-9.43-2.69.07-5.65,3.88-6.87,1.64l-1,1.52c-.2.31-1.06.11-1.58.13-8.17,6.56-9.75,7.89-14.52,17-1.53,2.93-4.79,10.01-4.86,12.92-.02,1.01.42,2,.11,3.6-.1,1.18-.29.68-.86-.93l-.89,3.92c1.62-1.72.65-.04.83.85l-1.27,6.37-.94,6.64h-1.28c-.26,0-.59,1.17-.57,1.46l.51,9.71c2.71-3.07-.74-6.02,1.19-9.54l.4,8.06c.11,2.17-.08,4.19-.37,6.5-.33,1.25-.04.91.57-.1.9,4.82,2.42,4.73,2.76,9.97-.92-2.26-1.22-4.15-2.84-5.89l1.67,7.01c.08.31.02,1.51-.26,1.63l-1.17.56c-3.53,2.02-5.83,6.62-9.52,8.35l-7.98,3.73c-4.23,1.98-8.73.76-12.25,1.52-3.86.84-7.82-.91-11.55-1.28-3.59-.36-6.8-1.7-9.25-4.91,4.74-5.64,8.46-11.7,12.02-18.17,4.79-8.69,8.32-22.6,3.33-31.39,1.75-3.49-5.25-8.97-8.5-10.11l-7.01-2.46c-2.47.04-6.45.96-8.66,2.28l-4.75,2.84c-.15.09-.77.52-.7.66l.5,1.06c-3.58,3.58-6.22,2.04-6.96,8.11-.23,1.91-4.75,4.29-5.06,8.85l-.75,10.65-.7,3.7c-.5,2.61.64,18.89,2.63,22.18-5.89,7.99-7.53,6.77-12.36,9.83l-9.72,6.16c-12.38,7.84-13.5,1.62-22.03,5.53l-3.12-.37-2.33-.28c-.56-.07-1.47,1.83-1.06,2.23l2.49,2.42-2.68,1.37c1.65,1.79,3.78,3.97,6.32,4.58,11.81,2.84,19.26,1.95,30.58-2.05,3.32-1.17,6.86-3.26,9.6-5.46,1.52-1.2,2.51-3.64,4.71-4.15,3.46-.8,5.86-2.5,8.16-5.21l3.71,3.7c4.54-1.36,1.16,2.39,14.5,7.15l1.51.53c.39.14.12,1.04.02,1.95,4.31,1.93,19.58,6.5,23.24,2.33,1.28,1.64,10.94-.74,10.78-.67l8.39-3.6,7.1-3.5c4.59-2.26-1.74-2.59,9.75-6.93l.55-.99c.16-.3,1.01.14,1.51.29l3.68,1.19,6.11,5.4c.28.25.42,1.93.81,1.96l1.61.16c2.2,1.89,16.13,9.08,17.23,9.33l3.28.79,6.29,1.77c1.08.31,2.26.84,3.45.92l9.34.63c1.69.12,4.47-.3,6.5-.5l4.42-.44c2.61-.25,4.85,0,7.32.8,1.31.53,14.23-2.26,14.18-2.54l-.29-1.56,9.68-3.09c.24-.08,1.09.67,1.21.92l4.24-1.31-1.92-.7,13.68-6.38c.73-.35,1.52-.85,2.23-1.47.13-.11.24-.21.36-.33.14-.13.26-.26.39-.4.03-.02.05-.05.06-.07.12-.13.22-.26.33-.4.16-.19.29-.41.42-.62.19.05.38.09.55.11.07,0,.14.02.2,0,.41.03.76-.02,1.08-.14h0c.26-.1.5-.23.73-.39.45-.32.84-.73,1.25-1.1l.74.82c.17.19.55-.92.78-1.14,5.77-5.38,13.1-8.26,19.55-14.3.12.03.37.09.55.14l-1.35,1.83c-.29.4.21,1.45.42,1.78l2.24-2.18c.43-.42-.47-1.74-.91-2.43,13.61-12.45,23.96-24.07,30.88-40.8.17-.43,1.76.43,1.66.64-.26.52.75-.18.59-.51-.84-1.7-1.81-5.13.47-6.4l.35,4.73c1.84-4.42,3.53-8.74,4.4-13.51l2.33-12.96c.9-4.99,1.12-10.19,1.36-15.28.03-.69.05-1.37.05-2.06,0-6.79-1.53-13.39-2.76-20.15ZM258.41,438.81c-.46-1.84-.12-3.39.82-4.81-.2,1.84-.47,3.28-.82,4.81ZM260.93,538.31c-.49-1.56-.81-2.98-1.04-4.52,1.34,1.03,1.6,2.45,1.04,4.52ZM264.68,553.11l-1.18-5c1.79,1.47,1.87,3.18,1.18,5ZM267.25,560.03c-.93-1.51-1.51-3.16-1.47-5.23,1,1.48,1.6,2.82,1.47,5.23ZM278.97,585.81l-7.88-15.41c-.98-1.91-1.64-4.12-1.78-6.28l6.93,15.25c.93,2.03,3.79,3.5,2.72,6.45ZM660.17,590.08c-2.94,1.1-5.83,1.36-8.91,1.32,2.94-.88,5.88-1.48,8.91-1.32ZM506.67,619.75c-.46.5-.85.93-.85.96,0,0-.9-.43-1.16-.5l-6.25-1.64c3.03.11,5.58.64,8.26,1.18ZM457.69,646.66c-.04,1.21-2.08,1.16-3.06.6l3.06-.6ZM447.58,648.21c-.27.85-2.17,1.75-2.93.37.27-.08,1.17-.18,2.93-.37ZM431.49,649.45l12.6-.68c-1.75,1.84-17.56,2.43-19.78,1.47,2.54-.35,4.89-.66,7.18-.79ZM423.25,650.56l-4.96,1.02c.92-2.31,2.61-2.1,4.96-1.02ZM416.41,650.69c.17-.16,1.09-.16,1.32-.17.35-.03.07,1.29-.29,1.24-.64-.07-2-.2-1.84-.33l.82-.74ZM412.75,650.76l1.36-.29c.23-.05.56.85.35.94l-.91.34c-.33.13-1.14-.92-.8-.99ZM409.75,650.11l2.25,1.69-8.77-.37,6.52-1.32ZM397.62,650.33l3.52.66c-2.99,1.48-5.24.8-8.59-.32,1.37-.45,3.34-.66,5.08-.34ZM375.35,645.61c-1.08.39-2.39.05-3.51-.89,1.06.19,1.82.39,3.51.89ZM301.49,613.03c8.12,6.15,6.16,2.5,10.63,6.89l-1.55-.39c-.34-.09-.69.12-1.68.53,7.93,7.54,29.22,17.7,39.98,20.74l18.31,5.17c8.51,2.4,16.64,3.02,24.61,4.69l-4.89.31c-3.52.21-7.14-.59-10.65-1.16-8.83-1.42-14.72-2.73-23.07-5.64-11.53-4.02-22.45-8.91-33.05-14.84-5.57-3.11-10.06-6.67-14.58-10.94-3.49-3.29-6.82-6.36-9.61-10.36,2.46,1.09,3.55,3.48,5.56,4.99ZM288.64,598.22l3.16,3.7-.72.77c-.13.14-.44-1.04-.64-1.23-3.69-3.63-8.38-9.22-10.74-14.28.06-.1,1.41.55,1.6.86,1.79,2.85,4.95,7.38,7.34,10.19ZM367.78,325.03l-.86.47c-.17.1-.58-.13-.83-.17-.3-.06.86-.84,1.14-.99l.86-.46c.17-.11.61.16.83.17.3.02-.86.83-1.14.98ZM408.6,306.1c1.74-.93,3.36-1.7,5.04-2.24-1.42,1.77-3.01,2.51-5.04,2.24ZM414.41,337.04c1.51-.76,2.94-1.28,4.56-1.56-1.46,1.21-2.83,1.74-4.56,1.56ZM417.32,302.46l4.05-1.55c-.71,1.87-2.53,2.23-4.05,1.55ZM464.02,320.57l-1.86,1.56-.35-1.17,1.37-.55c.17-.07.99.05.84.16ZM580.11,299.61c4.97-.44,9.93-.44,15.25,0-4.97.44-9.93.43-15.25,0ZM598.27,299.97c.17-.46.35-1.08.55-1.06l1.39.14,6.77.66-8.71.26ZM605.41,267.64c1.8-.3,3.18,0,5.62.5-1.7.36-3.66.59-5.62-.5ZM614.24,268.95l-2.49-.9,3.47-.31c-.35.58-.68,1.33-.98,1.21ZM615.69,268.69c1.66-.33,3.38-.33,5.36-.02-1.66.32-3.39.33-5.36.02ZM685.53,338.35l-.77-3.01,3.49,4.59c-1.26-.68-1.15-1.12-2.72-1.58ZM588.05,424.04c.46,2.61-.52,4.68-2.18,6.55l2.18-6.55ZM475.22,443.22c-2.52-.75,2.37-18.88,4.57-19.24l-4.2,12.97c.17,2.15.22,3.89-.37,6.26ZM481.08,444.59c-1.1,2.03-2.31,3.66-3.84,5.04l.58-1.85c.09-.25-.62-.18-1.16-.23-.21-10.02.42-16.42,5.96-25.32,1.01-1.62,2.66-2.96,4.52-2.77,1.41,3.01,1.54,6.27.8,9.36-3.03,12.61-1.2,5.29-6.87,15.78ZM535.7,485.68c-7.61,3.54-6,2.84-12.34,4l-8.97,1.65c-4.09.76-8.14,0-12.83-1.11,10.22.54,10.16.5,20.82-1.3,5.17-.87,9.83-3.08,14.55-5.18,5.92-2.64,5.58-3.9,7.97-3.84-3.25,2.28-6.01,4.28-9.2,5.77ZM567.89,398.34l2.07-.95-2.25,3.26c-.25-.65-.26-2.11.18-2.31ZM566.06,483.84c1.14-.3,1.83.27,2.11,1.73l-2.11-1.73ZM568.24,412.76l-4.41,9.51c-1.08,2.31-1.97,4.53-3.18,6.85-.61,1.18.99,3.09-1.29,4.64-.95-7.66,2.46-14.72,4.67-22.42,1.1-3.79,2.41-7.32,5.22-10.82.42,4.24.67,8.61-1.01,12.24ZM569.62,486.09c1.79.17,3.29.95,4.42,2.67-1.73-.1-3.32-1.13-4.42-2.67ZM580.63,492.47c-1.32-.58-2.7-.38-3.62-2.32l4.27,1.8c1.87.79,4.32,1.1,6.08,1.44.32,2.72,3.85,1.94,5.49,1.47l.69,1.96c-4.62-.98-8.69-2.47-12.9-4.34ZM597.99,497.31c1.78-2.22,5.59-2.08,6.68.93l-6.68-.93ZM604.7,496.01l3.91,1.29c-1.03.62-3.34.8-3.91-1.29ZM721.69,410.11c.48,1.2.13,2.53-1.4,3.08l1.4-3.08ZM718.47,419.06c.43,1.81-.16,3.35-1.86,4.39l1.86-4.39ZM697.37,453.2l2.26-2.28c.23,1.24-.53,2.2-2.26,2.28ZM701.23,391.37c-.34,4.12-.89,7.53-1.86,11.27-.07-2.35,0-4.31.08-6.51.07-1.84-.68-3.55,1.79-4.77ZM701.92,410.73c1.02-.84-3.91,12.32-5.11,10.19l5.11-10.19ZM691.03,428.74l3.91-4.53c.02,1.11-1.01,2.43-2.06,3.88l-.77,1.06c-.2.28-1.33-.13-1.09-.42ZM689.11,431.43l1.57-.79-1.56,2.58c-.24-.43-.35-1.62,0-1.8ZM646.05,486.13v1.46c-2.34.47-3.93.67-5.83.56,2.27-1.28,3.05-1.45,5.83-2.02ZM626.28,490.58c3.59-.7,11.24-3.43,11.47-1.63l-7.14,1.59c-2.52.56-4.74.9-7.37,1.26.75-1.09,1.68-.96,3.04-1.22ZM617.96,491.91l.53,1.17-6.31-.28,5.78-.88ZM609.76,497.52l3.81-.77c2.08-.57,3.68-1.01,5.13.91-3.28.19-5.76.22-8.93-.15ZM619.54,492.23c.16-.13.55-.44,1.08-.83l1.26-.17c.24-.03.2.76.27.99.07.24-.52.06-2.17-.31-.21.16-.36.26-.45.32ZM621.53,496.8c1.04-.23,2.23-.23,3.59-.02-1.05.22-2.23.22-3.59.02ZM632.03,497.36l3.88-.84c-1.14,1.23-2.48,1.4-3.88.84ZM714.52,437.67c-.28.49.33,1.19.5,1.01l.99-1.04-1.93,4.06-.63-1.67-3.02,4.27-5.06,6.12c-6.14,7.42-13.54,13.46-20.94,19.61l-5.16,4.29c-.48.4-9.81,5.74-12.08,7.99.05.02.11.04.16.05-14.35,7.19-24.46,11.91-40.55,14.27-1.14-.47-1.39-.62-.33-.65l3.43-.69c2.61-.53,27.79-7.62,25.99-9.47-.34-.35-.83-.75-1.2-.44-1.94,1.61-5.93,2.75-8.43,3.66l-5.61,2.08c-1.14-.08-1.15-.17-.09-.47l11.86-5.38-3.94-.05,5.5-2.63c.16-.09,1.01.2,1.19.23,2.3.44-4.11,1.05-2.75,1.93,3.44-.46,6.03-2.75,9.09-4.05,4.54-1.95,7.15-3.01,11.17-5.96,2.22-1.63,4.83-3.16,6.83-4.89,1.33-1.16,1.99-2.6,4.1-1.99.76.19,1.48-2.08,2.12-2.53l2.61-1.85c4.26-3.03,12.24-9.27,14.78-14.47-.18-.17-.73-.78-.84-.67-.39.4-.66.73-.89,1-.41.49.03-.32.46-1.17l.78-.81c.19-.21.54.25,1.29.8,1.77-1.76,3.65-3.79,5.06-6.06l7.13-11.46c1.82-2.92,3.02-5.66,4.27-8.96l1.75-4.58c.65-1.73.34-4.55,2.66-5.12-1.28,8.29-6.25,18.81-10.24,25.68ZM724.28,411.3l1.51-6.42c.3,2.02.92,4.87-1.51,6.42ZM726.59,402.31l.58-5.46c.03-.24.72-.95.89-1.11,1.16-.96-.04,6.75-1.48,6.56ZM730.54,359.61c.8,1.42,1.03,2.76.84,4.25-.79-1.42-1.02-2.77-.84-4.25ZM730.69,406.8c-.43-3.73.1-6.95,1.49-10.29.13,3.55-.51,6.87-1.49,10.29ZM731.84,394.92l.82-4.07c.57,1.55.89,3.22-.82,4.07ZM733.04,390.82c-.9-2.55-.75-4.21-.28-6.66.6.65.91,1.51.84,2.08l-.56,4.58ZM732.99,384.43c-.84-3.44-.44-6.53-.73-9.82-.13-1.44-.32-2.76-.03-4.32,1.37,4.48,2.01,9.11.76,14.14ZM703.12,448.99s0,.02-.02.03c.05.05.07.06.02-.03Z"></path>
  <path class="cls-1" d="M577.24,687.86l-3.64,4.05c-.29-.68,3.5-7.58,4.21-6.98l-.57,2.93Z"></path>
  <path class="cls-1" d="M448.76,652.91c-2.01.93-4.1,2.09-5.85.04l5.85-.04Z"></path>
  <path class="cls-1" d="M625.07,595.26c-1.49,1.3-3.35,2.55-5.13,3.34,1.33-1.74,2.65-3.25,5.13-3.34Z"></path>
  <path class="cls-1" d="M538.88,417.04l-.73,3.51c-.64-1.46-.45-2.66-.09-3.98l.32-1.19c.06-.24,1.05.09.97.33l-.47,1.33Z"></path>
  <path class="cls-1" d="M295.51,370.03c.4-1.04,1.8-2.51,2.59-2.18.38,1.1-1.39,2.14-2.59,2.18Z"></path>
  <path class="cls-1" d="M437.77,654.57l-4.07-.1c1.6-.84,3.16-1.81,4.07.1Z"></path>
  <path class="cls-1" d="M625.83,468.07l-1.84.88-.07-1.34c-.02-.38,1.27-.23,1.63-.37l1.06-.41c.21-.08.38.68.18.78l-.95.45Z"></path>
  <path class="cls-1" d="M454.31,651.8c-1.14,1.57-2.45,1.25-3.73.7l3.73-.7Z"></path>
  <path class="cls-1" d="M409.2,656.2l-4.71-.04c1.25-.5,2.58-.48,4.71.04Z"></path>
  <path class="cls-1" d="M664.51,486.95c-.55.54-1.08,1.11-1.18.87s-.62-.9-.37-.98l1.23-.4c1.13-.56,1.33-.47.32.51Z"></path>
  <path class="cls-1" d="M537.26,424.25l-.38-1.66c-.12-.52.36-1.13,1.29-1.52l-.91,3.18Z"></path>
  <path class="cls-1" d="M722.87,432.36c-.63-.7-.16-1.84,1.3-2.5l-1.3,2.5Z"></path>
  <path class="cls-3" d="M504.94,600.04c-2.79-.16-5.53-.21-8.24-.27l-.75-.02c-1.34-.03-2.62.11-3.75.21-.44.05-1.08.11-1.35.12l-.54-.04c-3.24-.24-6.91-.52-11.12,1.04-.33.12-.85.04-1.88-.16-1.36-.26-4.92-.93-7.96,1.1-1.91,0-4,.25-6.28.51-.89.1-1.73.19-2.42.25l-41.01,3.2c-5.05.4-10.6.09-17.51-.96l-19.32-2.94c-3.11-.48-6.75-1.49-10.24-2.84l-6.87-2.65c-6.7-2.59-7.42-3.18-8.33-3.92-1.57-1.28-3.34-2.62-7.66-4.93-5.31-2.84-10.41-7.12-15.16-12.73l-3.95-4.68c-.63-.74-1.31-1.44-1.92-2.05-.38-.38-.94-.96-1.12-1.18l-3.28-4.31c-.19-.86-.48-2.01-1.14-3.22-7.65-14.09-10.98-22.62-14.84-38.03-2.15-8.56-4.18-16.98-5.38-25.83l-.98-7.18c-.32-2.37-.44-5.33-.37-8.63,3.17,5.6,9.99,17.53,11.37,18.91,1.82,1.82,26.38,23.69,26.38,23.69,0,0,8.54,15.58,18.12,23.21,5.74,4.58,16.8,12.14,16.8,12.14l17.56,6.26s24.45,11.79,24.95,10.82c.49-.98,31.07,3.47,31.07,3.47,0,0,28.87,5.77,38.27,13.86,2.52,2.18,10.68,5.16,18.86,7.77Z"></path>
</svg>