<?xml version="1.0" encoding="UTF-8"?>
<svg id="Layer_1" data-name="Layer 1" xmlns="http://www.w3.org/2000/svg" viewBox="0 0 1000 1000">
  <defs>
    
  </defs>
  <path class="cls-2" d="M690.66,473.97l-1.17-7.3c-.22-1.36-.93-2.61-.94-3.99,0-1.75-1.28-2.51-2.15-3.64-.17-.22-.38-.7-.63-1.29-.95-2.29-2.33-6.38-3.15-4.34-.1.26.21,3.49.52,6.78.27,2.91.54,5.86.51,6.85-4.93,1.56.15,7.53-2.39,9.39-.1-2.3-1.57-3.76-2.07-5.46-.56-1.91,1.16-4.2.02-6.27-.1-.17-.22-.34-.37-.5-.69-.73-1.79-1.35-1.97-2.31-.54-2.78-1.78-5.35-2.14-8-.36-2.63-1.12-4.92-2.49-7.25.12-.68-.39-.73-.52-.12l2.89,12.68c.16.72.38,2.56-.74,2.3-.96-.22-2.24-1.9-2.39-2.87-.8-5.09-2.61-9.36-5.27-13.68-1.62-2.62-2.22-6.25-4.21-8.59-2.66-3.12-4.28-6.5-6.52-9.86l-10.84-16.25c-13.81-20.71-23.48-32.3-43.49-47.31-13.45-10.09-29.64-18.04-45.75-22.76-16.19-4.74-25.74-6.92-42.68-7.95-6.19-.38-11.84.35-18.12.86-15.3,1.26-29.86,4.58-44.34,9.8-19.18,6.9-36.48,17.47-51.7,30.9-10.83,9.56-23.9,23.4-30.44,36.14-1.05,2.04-3.13,3.48-3.71,5.98-.32,1.39-1.71,2.46-2.37,3.68l-6.13,11.31c-1.2,2.21-1.65,4.48-2.61,6.69-1.25,2.89-2.69,5.55-3.73,8.56-1.94,5.63-3.82,11.01-5.05,16.86l-1.33,6.35c-.9,4.3-1.65,8.37-2.14,12.7l-.95,8.35-.35,6.2c-.27,4.74-.37,9.08-.05,13.78l.56,8.18c.33,4.8,1.11,9.24,2.08,13.91,2.26,10.87,4.2,21.58,8.43,31.9,2.26,5.51,4.29,10.78,7.04,15.98l4.78,9.08,2.1,3.49c4.42,7.35,20.26,27.49,26.41,32.33,1.97,1.55,3.49,3.27,5.35,4.91,10.59,9.36,23.88,18.49,36.74,24.56,9.49,4.47,27.15,11,37.13,12.92l12.99,2.5c3.51.68,6.8.64,10.3,1.02,9.47,1.03,16.93-1.18,23.43-1.11,4.77.05,15.78-2.13,20.73-3.37l6.89-1.72c4.92-1.23,9.4-2.47,14.13-4.31l9.97-3.87c3.49-1.35,6.65-2.99,9.95-4.8l13.29-7.29c4.14-2.27,7.83-4.89,11.61-7.86l10.3-8.09c6.72-5.28,14.87-14.16,20.66-20.68,2.7-3.05,11.11-14.53,12.94-17.8,1.01-1.79,1.74-3.61,2.89-5.31l4.08-6.04c0-.07,3.65-7.12,5.72-11.14.79-1.54,1.35-2.64,1.39-2.74l4.34-11.53c.77-2.03,3.03-2.97,3.35-5.51.31-2.52,2.49-8.74,2.9-6.43.44,2.52-1.28,4.29-1.65,6.29-.94,5.02-3.44,11.4-5.41,16.1l-3.01,7.19c-.2.49-.41.98-.6,1.47-1.18,2.94-2.17,5.87-2.98,8.73,1.53-1.77.58-2.79,2.91-4.37.37-.53.61-.28.36.17,0,2.67-2.72,4.25-1.82,7.37l3.3-6.21,2.33-4.39,4.74-12.27,2.47-6.66,1.65-7.13c1.07-4.65,5.41-13.75,5.74-18.71,3.93.58,2.91-7.4,3.38-9.92l1.98-1.15c.5,5.43-.56,10.42-1.11,15.85-.2,1.95-1.43,3.53-.86,5.67.84-.34.12-1.27,1.01-1.79.94.97.37,1.96.16,3.01-.42.85-.15,1.65.63.8.04-.06.07-.12.1-.19,5.08-32.19,5.75-53.89,5.18-67.46ZM539.02,379.88c-1.43.31-2.86.38-4.62-.03,1.3-.47,2.59-.49,4.62.03ZM533.43,379.86c.2,0,.35.16.35.35s-.16.35-.35.35-.35-.16-.35-.35.16-.35.35-.35ZM579.11,466.48c-.36.02-.65-.12-.86-.12h-2.34c-.21.21-.42.43-.59.66.04.53.06,1.08.44,1.48.7-.25,1-.94,2.16-1.01-.88,1.32-.05,2.33-.36,3.78-1.06-.61-.68-2.03-1.76-1.72.04.89-.99,1.64-.08,2.76,8.42-4.33-1.65,9.32-1.89,12.23,1.26-.18,1.49-1.65,2.69-2.22.49,1.57-.38,2.61-1.06,3.65l-12.11,18.6-8.22,12.22-6.56,8.87-16.4,23.96c-4.59,6.71-9.05,12.97-13.42,19.76-3.96,6.15-8.34,11.63-12.59,17.54l-12.19,16.93-10.52,15.01c-1.32,1.89-1.83,3.98-3.79,5.54-.62.49-.42,2.15-1.41,2.44-2.03.6-3.01,1.95-3.45,3.98-1.98,1.81-5.12-2.48-7.44,1.16l-2.71,4.24c-.34-1.18-.84-1.84-1.3-2.56l-.84.02c-.41.61-.43,1.81-1.33,2.2-1.23.52-1.56,1.26-2.33,2.67-1.71-3.29,2.36-4.81,2.28-8.04-.02-.7-1.44-.42-1.68-.71-.97-1.16-1.04-3.22-.27-4.62.62-1.14.28-2.46.68-3.44.54-1.32,2.22-2.4,1.74-4.34-.76.34-.36,1.34-1.06,1.95-1.12-2.85-.13-5.4-.01-8.05.76-.03,1.09.07,1.22-.24.21-.5.44-1.42-.09-1.99-.59.41.31,1.59-1,1.52l4.12-17.25,6.87-26.22,3.49-12.34c1.02-3.61,1.86-7.1,3.23-10.6,1.43-3.66,1.52-7.57,2.52-11.36.38-1.44,3.19-8.34,2.59-8.87-.41-.36-1.39-.75-2.17-.65-8.92,1.12-17.53,1.2-26.51,1.45l-17.9.49c-.91.03-2.71-.85-2.08-1.71,1.06-1.46,3.31.5,5.02-.94-1.98-1.21-8.72.68-9.42-1.73-.33-1.14,4.82-.94,4.46-2.45-1.33-.35-3.09-1.61-2.81-2.59,1.9-1.77,2.51-3.91,3.28-6.24,1.84-5.55,3.53-10.94,4.13-16.55h-.51c-1.31,4.19-2.07,8.63-4.48,12.32-.15.56.14,1.47-.16,2.24-.22.56-.68,1-1.54.75-.22.47-.29,1.07-.94,1.35-.33-1.51.03-2.98.96-3.87,0-.15-.06-.31-.03-.45.82-3.65,1.83-7.36,2.97-11.17l4.59-15.36,3.33-11.94,9.93-33.04,6.81-20.76c1.34-4.09,3.25-7.91,4.97-11.83l3.9-8.93c.76-1.73,2.81-2.97,3.06-5.39l1.71,2.55c2.43-1.33.76-3.27,3.55-3.98.6-.15,1.46,1.17,2.21,1.21,1.62-1.32,4.11-1.65,6.07-2.05.7-.51,1.52-.84,2.6-.99l4.51-.63c.04-.32.1-.74.42-.88.22-.1.47.02.59.22.1.18.15.41.2.65,3.18.06,6.34-.72,9.71-1.04l13.67-1.3c3.25-.31,6.46-.2,9.67-.71,2.14-.34,3.84.15,5.71.72,1.44.44,5.92.64,6.52.33-.06-.13-.12-.24-.24-.28.32.12.38.21.24.28.08.21.14.48.32.66-1.75.94-3.77-.04-6.02,1.59,2.15.39,4.17-.14,6.35-.37,2.23-.23,4.45.16,6.52.28.4.02,1.1-.03,1.08.61,0,.25-.27.41-.42.71.84.34,2.86,1.06,2.91,2.17,0,2.08-.58,4.44-1.08,6.18.38-.04,1.08-.14,1.17.3.08.41-4.86,13.62-6.11,13.98-.55.73.37,2.04.11,2.91-1.61,5.45-4.13,10.3-6.51,15.42-1.02,2.18-1.44,4.48-2.68,6.56-2.09,6.82-4.78,13.12-7.97,19.48l-7.13,14.22,27.69-2.64c1.41-.14,2.67.26,4.14-.18,2.74-.81,5.58-.66,8.38-.9l8.38-.72c.45-1.13,6.28.02,5.22,1.06.27.08.59-.02.86.04.27-.39.77-.74,1.27-.51.32.14.39.6.41.94.14.01.28.08.43.08.83.02,1.44.54,1.58,1.39l.16.96c.35.07.79.19.85.47.06.29-.1.73-.29.74ZM665.84,566.7c.45-4.67,2.58-8.37,4.29-12.85.04,4.49-1.53,8.73-4.29,12.85ZM675.08,531.92c-.56-1.84-.27-3.34.63-4.7.49,1.83-.03,3.26-.63,4.7Z"></path>
  <path class="cls-1" d="M689.91,549.27c1.52,2.1-1.17,3.81-1.39,5.75-.26,2.21.62,4.4-.87,6.54-1.75,2.51-3.11,5.31-4.34,8.08,2.14,1.67-2.16,6.02-3.48,10.47-.53,1.78-1.24,3.12-2.13,4.68l-3.91,6.95c-2.07,3.68-2.6,8.44-5.56,11.65-2.16,2.34-3.73,4.7-5.46,7.34-3.97,6.07-17.57,21.74-22.92,27.06l-8.01,7.95c-.83.82-7.54,6.08-4.91,7.24,2.34-1.51,4.87-3.23,6.74-5.34,1.67-1.89,3.02-4.4,5.33-5.48,2.22-1.04,3.38-2.58,4.93-4.31,1.76-1.97,3.53-3.6,4.66-6.14.4-.9,2.19-1,2.68-1.84,1.64-2.79,4.12-4.75,5.95-7.32l6.97-9.78,3.8-5.86c1.63-2.51,2.11-5.46,4.44-7.49,5.25-4.57,7.06-13.65,10.22-19.93.51-.78.53-1.4,1.18-.18l4.72-10.77c1.55-3.53,1.97-7.38,3.99-10.67.31,1.45-.78,2.57-.11,4.15,1.33-1.11,3.46-12.19,4.38-10.32.48.97-2.03,6.76-1.75,8.57.23,1.5,1.46,3.17.19,4.84-1.77,2.32-1.84,5.28-2.86,7.92-1.39,3.57-2.78,6.84-3.78,10.58-1.61,6.03-5.47,11.1-8.09,16.71-2.08,4.45-5.82,11.2-8.48,15.1l-3.31,4.87-4.01,5.66c-4.38,6.18-25.77,27.49-31.65,31.75l-11.28,8.18c-1.81,1.32-3.84,2.04-5.18,4.27,4.78-1.39,10.28-7.43,15.23-9.5.14,1.78-7.39,6.3-8.48,7.18-3.83,3.09-7.64,5.64-11.88,8.12l-8.98,5.26c-3,1.76-5.79,3.13-8.95,4.43l-9.05,3.74c-7.48,3.09-14.46,6.39-22.3,8.46-3.74.98-10.83,3.64-14.79,2.98-4.27-.72-8.81,1.78-13.11,2.48-2.2.36-4.22.11-6.04,1.07l2.64.62c-10.93,2.55-21.35,2.23-33.2,2.25.17-1.05,1.2-.74,1.51-1.42-9.04-2.09-15.85-.91-24.33-2.79l-10.98-2.43c1.28.28-21.97-7.28-23.03-7.64-2.98-1-5.93-2.44-8.9-3.03-1.27.52-2.87,1.65-4.3-.09-.89-1.08-2.74-1-3.88-1.66l-2.5-1.44c.51.29-8.26-2.64-16.87-8.26l-15.19-9.93c-2.97-1.94-6.03-3.7-8.48-6.38-1.51-1.65-3.25-2.09-5.05-3.05-3.67-1.96-11.52-10.09-14.65-13.5-.94-1.03-1.53-2.05-2.59-3.02-3.21-2.95-5.75-6.49-8.74-9.76-2.76-3.02-5.29-5.8-7.19-9.55-2.05-4.03-5.47-7.61-7.78-11.62-.73-1.26-1.16-2.4-2.04-3.61-2.18-2.98-3.14-6.58-5.14-9.76-7.76-12.33-3.27-4.89-8.39-17.03-.95-2.25-2.89-4.53-3.09-6.92-.28-3.31-2.26-2.78-3.81-10.45-.38-1.9-.05-3.82-1.95-4.94.25,1.41-.49,1.95-.59.7-.21-1-.85-1.97.35-2.13-1.53-5-2.22-10.83-4.42-16.09.12.28-4.65-4.64-2.21-8.82.86-1.48-.2-8.75-2.44-10.1-.82-5.39-.34-10.78-.74-16.24-.52-7.16-.36-8.39.51-15.86,1.18.94-.13,2.33.97,3.55.89-3.13.24-6.3.62-9.59.45-3.91,2.21-8.12,1.2-11.82-2.98.7,1.73-14.12,1.84-15.15,1.35-13.1,4.42-7.18,3.51-12.58-.44-2.64,1.33-5.57,2.18-8.19.36-1.17.93-.89.93.59.91-1.43,1.15-2.86,1.86-4.56l5.41-12.79c-.37-.99-.86-1.21-1.12-.18-.22.61-.62,1.23-1.19,1.23.78-3.71,3.11-6.74,4.23-10.26s3.04-6.17,4.85-9.25c3.62-6.16,7.06-12.34,11.06-18.4,1.68-2.54,3.48-3.78,5.4-6.07l10.86-12.97c.87-.2,2.45.27,3.14-1.02,1.71-3.18,4.64-5.14,7.1-7.58,2.28-2.27,4.21-4.7,6.69-6.66,2.67-2.11,4.88-4.69,7.69-6.59,4.1-2.77,6.07-5.85,13.35-10.56,2.24-1.45,9.09-4.75,10.98-6.58,1.01-.98,2.47-2.1,3.74-2.69l4.16-1.96c2.9-1.37,5.28-2.75,7.94-4.32,1.49-.88,3.31-1.51,4.85-2.31,4-2.08,8.34-2.74,12.44-4.5,8.62-3.69,17.25-6.47,26.44-8.52,6.74-1.5,12.95-3.44,19.91-4.04l18.73-1.62c2.68-.23,5.39.77,8.16-.4-4.7-.34-8.93.16-13.59-.48.31-1.47,1.65-.52,2.55-.77,3.39-.95,6.47-.35,9.72-.39,3.22-.04,6.36-.63,9.68.3,2.86.8,5.83.22,8.67.62,15.86,2.22,10.11-.78,27.68,4.25l5.61,1.61c1.82.52,3.65,1.35,5.43,1.69,2.37.44,3.75,1.37,5.79,2.44,1.39.73,3.15,1.37,4.68,1.98,7.33,2.95,21.28,8.37,27.16,13.12,1.83,1.48,4.23,2.23,6.29,3.56,7.63,4.93,15.11,9.77,22.03,15.73l6.87,5.91,11.99,11.43c2.03,1.94,4.12,3.66,5.89,5.82,1.37,1.68,2.51,3.56,4.05,5.12,2.57,2.6,4.25,5.59,6.42,8.44,11.67,15.29,13.57,24.13,14.85,26.14l2.55,3.97c1.39,2.17,3.05,4.99,2.94,7.38l-.17,3.58c.07-1.47,10.06,29.55,11.59,37.1,1.43,7.03.8,12.77,2.47,19.5.17.67-.02,1.41-.19,1.98-.12.38-1.24.3-1.48.75l-.64,7.01c-.85-3.08-.03-6.29-2.24-8.96l.83,12.9c-.19-2.98-.15,15.86-.87,13.51-1.59-2.09-.72-4.44-.88-6.8l-.74-10.65c-.35-4.99-2.21-4.44-1.85-3.36l.51,1.5c.27.5-.08.63-.52.51l-2.3-14.38c-.22-1.36-.93-2.61-.94-3.99,0-1.75-1.28-2.51-2.15-3.64-.81-1.05-2.75-8.2-3.78-5.63-.19.49,1.1,11.51,1.03,13.63-4.93,1.56.15,7.53-2.39,9.39-.1-2.3-1.58-3.76-2.07-5.46-.56-1.91,1.16-4.2.01-6.26-.54-.97-2.12-1.65-2.34-2.81-.54-2.78-1.78-5.35-2.14-8s-1.12-4.93-2.5-7.25c.12-.68-.39-.73-.52-.12l2.89,12.68c.16.71.38,2.55-.74,2.3-.96-.22-2.24-1.9-2.39-2.87-.8-5.09-2.61-9.36-5.27-13.68-1.61-2.63-2.22-6.25-4.21-8.59-2.65-3.12-4.28-6.5-6.52-9.86l-10.83-16.24c-13.81-20.71-23.48-32.3-43.5-47.31-13.45-10.09-29.64-18.04-45.75-22.76-16.2-4.74-25.74-6.92-42.68-7.95-6.2-.38-11.84.35-18.12.86-15.3,1.26-29.86,4.58-44.34,9.8-19.18,6.91-36.48,17.47-51.7,30.9-10.83,9.56-23.9,23.4-30.44,36.14-1.05,2.04-3.13,3.48-3.71,5.99-.32,1.39-1.71,2.45-2.37,3.68l-6.13,11.31c-1.2,2.21-1.65,4.48-2.61,6.69-1.25,2.88-2.69,5.54-3.73,8.56-1.94,5.63-3.82,11.01-5.05,16.86l-1.34,6.35c-.9,4.3-1.65,8.37-2.14,12.7l-.94,8.35-.35,6.2c-.27,4.74-.37,9.08-.05,13.78l.56,8.18c.33,4.8,1.11,9.24,2.08,13.91,2.26,10.87,4.2,21.57,8.43,31.9,2.26,5.51,4.29,10.78,7.04,15.99l4.78,9.08,2.1,3.49c4.42,7.35,20.26,27.49,26.41,32.33,1.97,1.55,3.49,3.27,5.35,4.91,10.59,9.36,23.88,18.5,36.74,24.56,9.49,4.47,27.16,11,37.13,12.92l12.99,2.5c3.51.68,6.8.64,10.3,1.02,9.47,1.03,16.93-1.18,23.43-1.11,4.77.05,15.78-2.13,20.73-3.37l6.89-1.72c4.92-1.23,9.4-2.47,14.13-4.31l9.97-3.87c3.49-1.35,6.65-2.99,9.95-4.8l13.29-7.29c4.14-2.27,7.83-4.89,11.61-7.86l10.3-8.09c6.72-5.28,14.87-14.16,20.66-20.68,2.7-3.05,11.11-14.53,12.94-17.8,1-1.79,1.74-3.61,2.89-5.31l4.08-6.05c-.22.33,6.97-13.52,7.1-13.87l4.34-11.53c.76-2.03,3.03-2.97,3.34-5.52.31-2.52,2.49-8.74,2.9-6.43.44,2.52-1.28,4.29-1.65,6.29-.94,5.02-3.44,11.4-5.41,16.1l-3.01,7.19c-1.44,3.44-2.63,6.86-3.58,10.2,1.53-1.77.58-2.78,2.91-4.37.37-.53.61-.28.36.17,0,2.67-2.72,4.25-1.81,7.37l5.62-10.6,4.74-12.27,2.47-6.66,1.65-7.13c1.07-4.65,5.42-13.75,5.74-18.71,3.93.58,2.91-7.39,3.38-9.92l1.98-1.15c.5,5.43-.57,10.42-1.11,15.85-.2,1.95-1.42,3.53-.86,5.67.84-.34.12-1.27,1-1.79.94.97.37,1.96.16,3.01-.42.85-.15,1.65.63.8.83-1.43.7-3.09,1.69-4.32.43-2.86.82,2.95,2.95,4.31l-1.41,7.64.24,1.08c.12.54.19.16,1.07-1.06ZM339.43,387.72c.17-.18,8.26-10.17,5.56-10.3-3.5,5.2-7.11,9.82-9.9,15.65,2.59-.8,2.72-3.66,4.34-5.36ZM335.33,393.63c0-.14-.11-.26-.26-.26s-.26.11-.26.26.11.26.26.26.26-.11.26-.26ZM319.44,428.11c.17-.45,0-1.22-.21-1.42-1.63-1.63-7.45,19.68-7.29,21.92,3.39-6.59,4.4-12.51,7.5-20.49ZM679.41,443.42c1.06-.27.7-2.06.06-2.03-.93.04-.71,2.2-.06,2.03ZM671.87,445c0-.18-.15-.32-.32-.32s-.32.15-.32.32.15.32.32.32.32-.15.32-.32ZM307.32,541.43c.59-1.68.14-3.25-.67-4.33-.16,1.56-.17,2.82.67,4.33ZM688.73,542.14c-.12-.64-.56-.64-.68,0,.07,1.18.61,1.18.68,0ZM692.29,563.06c0-.18-.15-.32-.32-.32s-.32.15-.32.32.15.32.32.32.32-.15.32-.32ZM690.51,567.68c.93-1.5,1.1-2.33.96-3.47-.75,1.61-1.93,2.47-.96,3.47ZM690.25,568.68c0-.18-.15-.32-.32-.32s-.32.15-.32.32.15.32.32.32.32-.15.32-.32ZM658.52,582.22c0-.14-.11-.26-.26-.26s-.26.11-.26.26.11.26.26.26.26-.11.26-.26ZM659.03,584.27c0-.14-.11-.26-.26-.26s-.26.11-.26.26.11.26.26.26.26-.11.26-.26ZM654.95,592.96c0-.14-.11-.26-.26-.26s-.26.11-.26.26.11.26.26.26.26-.11.26-.26ZM619.58,632.7c-1.3.83-2.22,2.11-3.34,2.92-.98.72-.68,2.56-1.08,3.44,2.17,1.81,13.63-11.18,15.49-12.87,3.67-3.34,6.62-6.53,9.49-10.53s13.72-16.74,14.32-21.56c.11-.9-1.43-.14-1.79.41l-4.58,7.17-3.78,4.9c-1.78,2.31-4.27,3.88-5.9,6.28-.22.33.27,1.47-.44,1.68-3.47,1.01-6.71,6.42-6.66,6.17-.07.39.22.77.6,1.72-2.5.06-3.94,1.76-5.64,3.42-.5.49.45.95.29,1.33-1.27,3.02-4.38,3.84-6.99,5.5ZM564.68,669.16c2.81-1.54,5.51-2.27,8.35-3.25,3.37-1.15,6.29-3.22,9.53-4.69,2.24-1.25,4.83-1.8,6.38-4.48-3.07.37-5.43,2.11-7.98,3.51-3.5,1.92-7.04,3.16-10.59,4.74-2.88,1.28-5.74,1.99-8.69,3.12l-3.82,1.47c2.05.97,4.49.84,6.8-.44ZM592.64,675.22c.71-.93,1.67-.1,2.22.2,6.4-1.84,4.96-3.31,9.76-6.32.94-.59,1.39-2.17.9-2.8-3.63.39-5.75,3.31-8.68,4.66-1.88.87-3.66.83-5.32,2.43-2.09,2.01-5.3,2.89-7,5.7,1.5,1.45,2.52-.29,3.61-.99,1.49-.95,3.23-1.2,4.52-2.9ZM616.14,670.64c0-.14-.11-.26-.26-.26s-.26.11-.26.26.11.26.26.26.26-.11.26-.26ZM430.62,689.55c0-.18-.15-.32-.32-.32s-.32.15-.32.32.15.32.32.32.32-.15.32-.32Z"></path>
  <path class="cls-1" d="M556.53,483.92c-.04-.16.15-.32.47-.55-.13.47-.28.57-.47.55Z"></path>
  <path class="cls-1" d="M546.66,383.2c-.69,1.51-.69.31-3.16.9-5.82,1.39,4.01.5,3.82.42.84.34,2.86,1.06,2.91,2.17,0,2.08-.58,4.44-1.08,6.18-1.51,2.15-1.89,4.9-3.14,7.47s-2.14,4.79-2.77,7.49c.28-.32.59-.58.97-.68-.55.73.37,2.04.11,2.91-1.61,5.45-4.13,10.3-6.51,15.42-1.02,2.18-1.44,4.48-2.68,6.56-2.09,6.82-4.78,13.12-7.97,19.48l-7.13,14.22,27.69-2.64c1.41-.13,2.67.26,4.14-.18,2.74-.81,5.58-.66,8.38-.9l8.38-.72c1.52.97,3.51.53,5.22,1.06.27.08.59-.02.86.04.26.62,1.14.38,1.68.43.14.01.28.08.43.08-.13.51-.04,1.05.39,1.16.49.13.84.18,1.19.22l.16.96-.29,1.08h-2.34c-.07-.58-.48-.91-.87-.95-.65-.06-1.75-.02-1.13.92-.51-.77,1.76.66,1.41.69.04.53.06,1.07.45,1.48l.04,1.05c.04.89-1,1.64-.08,2.76,8.41-4.33-1.64,9.32-1.89,12.23,1.26-.18,1.49-1.65,2.69-2.22.49,1.57-.38,2.61-1.06,3.65l-12.11,18.6-8.22,12.22-6.56,8.87-16.4,23.96c-4.59,6.71-9.05,12.97-13.42,19.76-3.96,6.15-8.33,11.63-12.59,17.54l-12.19,16.93-10.52,15.01c-1.32,1.89-1.84,3.98-3.79,5.54-.62.49-.42,2.15-1.41,2.44-2.03.6-3.01,1.95-3.45,3.98-1.98,1.81-5.12-2.48-7.44,1.16l-2.71,4.24c-.34-1.18-.84-1.84-1.3-2.55,2.46-.04,4.32-3.54,4.05-5.81-3.86,3.26-2.2,1.82-4.89,5.83-.41.6-.43,1.81-1.33,2.19-1.23.52-1.56,1.26-2.33,2.67-1.71-3.3,2.36-4.81,2.28-8.05-.02-.69-1.44-.42-1.68-.7-.97-1.16-1.04-3.22-.27-4.62.62-1.14.28-2.46.68-3.44.54-1.32,2.22-2.4,1.74-4.34-.76.34-.36,1.34-1.06,1.95-1.12-2.85-.13-5.4-.01-8.05.76-.03,1.09.07,1.22-.24.21-.5.44-1.42-.09-1.99-.59.41.31,1.59-1,1.52l4.12-17.25,6.87-26.22,3.49-12.34c1.02-3.61,1.86-7.1,3.22-10.6,1.43-3.66,1.52-7.57,2.52-11.36.38-1.44,3.19-8.34,2.6-8.87-.41-.36-1.39-.75-2.17-.65-8.92,1.12-17.53,1.2-26.51,1.45l-17.9.5c-.92.03-2.71-.85-2.08-1.71,1.06-1.46,3.31.5,5.02-.94-1.98-1.21-8.72.68-9.42-1.73-.33-1.14,4.82-.94,4.46-2.45-1.33-.35-3.09-1.61-2.81-2.59,1.9-1.77,2.51-3.91,3.28-6.23,1.84-5.55,3.53-10.94,4.13-16.55.93-2.2,2.81-4.77,2.39-7.77-1.22,2.58-2.09,5.17-2.91,7.77-1.31,4.19-2.07,8.63-4.48,12.32-.15-.53.07-1.13-.41-1.6-.33.61-.26,1.15-.59,1.45-.16.15-.41.25-.7.18.82-3.65,1.84-7.36,2.98-11.17l4.59-15.36,3.34-11.94,9.93-33.04,6.81-20.76c1.34-4.09,3.25-7.91,4.97-11.83l3.91-8.93c.76-1.73,2.81-2.97,3.06-5.39l1.71,2.55c2.42-1.33.76-3.28,3.55-3.98.6-.15,1.46,1.17,2.21,1.21,1.62-1.32,4.11-1.65,6.08-2.05-.45.9,6.17-.02,6.22-.22-1.35-.86-2.89.32-3.62-.77l4.51-.63,1.2-.02c3.19.05,6.34-.72,9.71-1.04l13.67-1.3c3.25-.31,6.46-.2,9.67-.71,2.14-.34,3.84.15,5.71.72,1.76.54,8.04.72,6.27.05.31.12.27.65.56.94-1.75.94-3.76-.04-6.02,1.59,2.15.39,4.17-.15,6.35-.37,2.23-.23,4.45.16,6.52.28ZM534.16,395.21c.1-1.86-9.15.01-9.96,0,3.48.34,6.6.34,9.96,0ZM485,507.43c-1.18,1.62,10.07.93,9.12.57.79.05,1.8-.15,1.98.75-2.91.82-5.83,1.02-9.19,1.33,3.81,1.42,5.98-.27,9.94-.37,1.25.39,3.1,1.47,3.62,2.84,1.03,2.73-.13,5.33-.4,7.93-.55,5.34-1.55,10.23-2.88,15.38-1.53,5.92-2.52,11.67-4.48,17.48-2.17,6.44-3.39,13.01-6.05,18.96l-.42-1.61c-.5.87-.55,1.8-.78,3.1-.57.07-1.13.42-1.32,1.3l-3.63,16.63c2-3.39,1.85-7.1,3.13-10.51.94-2.5,1.39-5.01,1.82-7.41.4-.26.72-.89,1.24-1.02.15,2.66-1.34,5.09-1.82,7.81-.32,1.83-.41,3.71-1.01,5.42-.41,1.18-1.5,2.28-.75,3.64.88-1.33,1.3-2.58,1.3-3.66,3.05-3.18,5.07-7.44,7.6-11.12l9.04-13.15c10.08-14.66,20.76-28.48,30.4-43.49l9.65-15.01,12.72-18.97c1.25-1.86,2.53-3.18,3.3-6-10.91-.06-22.72,2.67-32.26,3.68l-11.72,1.25c-4.22.45-7.47-.92-11.53-1.92l-2.66-.66,1.76-1.77c.37-.37-1.23-1.12-.99-1.81.18-.52.66-.98.97-1.7-.96-.13-2.16-.11-2.72-.54-2.24-1.74,2.26-4.09,2.29-5.36-.41-.15-.92.04-1-.14-.16-.35,6.02-13.3,6.75-15.02l6.18-14.57c1.46-3.45,2.68-6.7,4.5-10.04,1.83-3.35,3.67-6.77,4.55-10.41.64-.04,1.03-.06,1.24-.27.28-.27-.25-1.45.01-1.62,1.32-.87,1.28-3.11,1.94-4.42,2.78-5.49,5.92-10.45,7.67-16.5l-12.95.64c-4.92.24-9.78.58-14.57,1.32-2.87.45-5.41,1.41-8.46,1.47-4.57.1-9.06.18-13.68.81l-4.16,13.3c-1.02,3.25-2.17,6.22-3.2,9.5l-7.32,23.21-2.99,9.36c-3.77,11.79-6.18,23.82-11.2,35.1l-2.38,5.35c-1.02,2.3-.87,4.97-2.16,7.21-.94,1.62-1.95,3.27-2.02,5.27l17-.74,21.01-.78ZM543.13,408.45c0-.14-.11-.26-.26-.26s-.26.11-.26.26.11.26.26.26.26-.11.26-.26ZM542.62,409.47c0-.14-.11-.26-.26-.26s-.26.11-.26.26.11.26.26.26.26-.11.26-.26ZM542.11,410.5c0-.14-.11-.26-.26-.26s-.26.11-.26.26.11.26.26.26.26-.11.26-.26ZM541.6,411.52c0-.14-.11-.26-.26-.26s-.26.11-.26.26.11.26.26.26.26-.11.26-.26ZM557,483.36c-.15-.68.66-1.15.32-2.14-1.08.64-1.04,1.78-1.9,2.92.35.45.42-.42,1.1-.22.24,1.13-.69,1.57-.37,2.61l4.95-7.1c.09-1.26-3.13,4.16-4.11,3.94ZM555.96,487.42c0-.31-.25-.57-.57-.57s-.57.25-.57.57.25.57.57.57.57-.25.57-.57ZM554.82,488.58c-2.33-.7-.95.63-1.89,2.43.93-.54,1.53-1.63,1.89-2.43ZM449.85,493.1c.71-1.07,1.25-2.2.65-3.7-.43,1.13-1.02,2.17-.65,3.7ZM449.7,493.8c0-.14-.11-.26-.26-.26s-.26.11-.26.26.11.26.26.26.26-.11.26-.26ZM445.41,501.83c0,1.78-3.95,10.86-1.2,7.65.76-.88.34-4.21,1.62-1.74.93-3.06,2.2-5.92,2.55-9.08,1.08-1.06.62-2.83.05-4.07-1.65,5.64-3.03,4.16-3.01,7.24ZM484.39,510.72c-2.21-.52-3.65-.49-5.13-.03,1.94.42,3.53.34,5.13.03ZM448.69,522.19c-.36-1.37-1.2-.92-2.14-.65-1.79.52-3.49-.39-5.07.43,2.53.47,4.69.05,7.21.22ZM485.42,521.97c-1.67-.49-2.68-.52-3.61-.01,1.41.38,2.5.34,3.61.01ZM481.28,583.5c0-.24-.2-.44-.44-.44s-.44.2-.44.44.2.44.44.44.44-.2.44-.44ZM480.46,586.08c.2-.75.56-1,.39-1.3s-.48-.38-.77-.26c-.32.13-.31.52-.23,1.03-.2.84.22,1.33.61.53ZM480.4,592.7c0-.18-.15-.32-.32-.32s-.32.15-.32.32.15.32.32.32.32-.15.32-.32ZM462.71,613.14c1-2.18,1.18-4.53,1.73-7.07.46-2.13,1.96-3.9,1.45-6.3-1.41,2.12-1.47,4.59-2.12,7.05-.55,2.08-1.34,3.95-1.06,6.31Z"></path>
  <path class="cls-1" d="M665.84,566.7c.45-4.68,2.58-8.38,4.29-12.85.04,4.49-1.53,8.73-4.29,12.85Z"></path>
  <path class="cls-1" d="M463.37,633.67h-.84c2.69-3.99,1.03-2.55,4.89-5.81.27,2.27-1.59,5.77-4.05,5.81Z"></path>
  <path class="cls-1" d="M439.49,493.04h-.51c.81-2.6,1.68-5.18,2.91-7.77.41,3-1.47,5.57-2.39,7.77Z"></path>
  <path class="cls-1" d="M698.09,552.84c-.52,1.53.15,3.31-1.44,4.18l2.94-12c1.22,2.87-.59,5.14-1.51,7.81Z"></path>
  <path class="cls-1" d="M488.5,383.68c.73,1.09,2.27-.09,3.62.77-.05.2-6.67,1.12-6.22.22.69-.51,1.51-.84,2.6-1Z"></path>
  <path class="cls-1" d="M434.49,505.36c-.15.56.14,1.47-.16,2.24-.22.56-.68,1-1.54.75l.02-2.53c0-.14-.06-.31-.03-.45.29.07.54-.03.7-.18.33-.29.26-.83.59-1.45.48.48.27,1.07.41,1.6Z"></path>
  <path class="cls-1" d="M573.84,462.37c-1.71-.53-3.7-.09-5.22-1.06.45-1.13,6.28.02,5.22,1.06Z"></path>
  <path class="cls-1" d="M547.32,384.53c.19.07-9.64.97-3.82-.42,2.47-.59,2.47.6,3.16-.9.4.02,1.1-.03,1.08.61,0,.25-.27.41-.42.71Z"></path>
  <path class="cls-1" d="M432.79,508.35c-.23.46-.29,1.07-.94,1.35-.33-1.51.03-2.98.96-3.88l-.02,2.53Z"></path>
  <path class="cls-1" d="M575.8,469.55l-.04-1.05c.69-.25,1-.94,2.16-1.01-.88,1.32-.05,2.33-.36,3.78-1.05-.61-.68-2.03-1.76-1.72Z"></path>
  <path class="cls-1" d="M675.08,531.92c-.56-1.84-.27-3.34.63-4.7.49,1.84-.03,3.26-.63,4.7Z"></path>
  <path class="cls-1" d="M537.49,703.81c-1.49.7-3.14,1.22-5.13.56,1.53-.23,2.85-.86,5.13-.56Z"></path>
  <path class="cls-1" d="M494.09,706.47c-1.44.31-2.86.38-4.62-.03,1.3-.47,2.59-.49,4.62.03Z"></path>
  <path class="cls-1" d="M539.02,379.89c-1.44.31-2.86.38-4.62-.03,1.3-.47,2.59-.49,4.62.03Z"></path>
  <path class="cls-1" d="M698.04,488.41c-.31-1.44-.38-2.86.03-4.63.47,1.3.49,2.59-.03,4.63Z"></path>
  <path class="cls-1" d="M575.91,466.37c-.22.2-.42.42-.59.65.35-.03-1.91-1.46-1.41-.69-.62-.95.48-.98,1.13-.92.39.04.8.37.87.96Z"></path>
  <path class="cls-1" d="M578.38,464.31c-.35-.04-.7-.09-1.19-.22-.42-.11-.52-.65-.39-1.16.83.02,1.44.54,1.58,1.39Z"></path>
  <path class="cls-1" d="M576.38,462.84c-.54-.04-1.42.19-1.68-.43.27-.39.77-.74,1.27-.52.32.14.38.6.41.94Z"></path>
  <path class="cls-1" d="M494.22,383.03l-1.2.02c.04-.32.1-.74.42-.88.22-.1.47.02.59.22.1.18.15.41.2.65Z"></path>
  <path class="cls-1" d="M578.25,466.36l.29-1.08c.35.07.79.18.85.46s-.1.73-.29.74c-.36.02-.65-.12-.86-.12Z"></path>
  <circle class="cls-1" cx="689.92" cy="539.04" r=".32"></circle>
  <circle class="cls-1" cx="533.43" cy="380.21" r=".35"></circle>
  <path class="cls-2" d="M619.58,632.7c2.61-1.66,5.72-2.48,6.99-5.5.16-.38-.79-.84-.29-1.33,1.7-1.66,3.14-3.36,5.64-3.42-.38-.95-.68-1.33-.6-1.72-.05.25,3.19-5.17,6.66-6.17.72-.21.22-1.35.44-1.68,1.63-2.41,4.12-3.98,5.9-6.28l3.78-4.9,4.58-7.17c.36-.56,1.9-1.31,1.79-.41-.61,4.82-11.42,17.52-14.32,21.56s-5.83,7.18-9.49,10.53c-1.86,1.7-13.32,14.69-15.49,12.87.4-.88.1-2.72,1.08-3.44,1.11-.82,2.03-2.09,3.34-2.92Z"></path>
  <path class="cls-2" d="M592.64,675.22c-1.29,1.7-3.03,1.95-4.52,2.9-1.09.69-2.11,2.44-3.61.99,1.7-2.81,4.91-3.7,7-5.7,1.66-1.6,3.44-1.56,5.32-2.43,2.94-1.36,5.05-4.28,8.68-4.66.49.63.04,2.2-.9,2.8-4.79,3.01-3.36,4.48-9.76,6.32-.55-.3-1.52-1.13-2.22-.2Z"></path>
  <path class="cls-2" d="M564.68,669.16c-2.32,1.27-4.75,1.4-6.8.44l3.82-1.47c2.95-1.14,5.81-1.84,8.69-3.12,3.55-1.58,7.09-2.82,10.59-4.74,2.55-1.4,4.91-3.14,7.98-3.51-1.55,2.68-4.14,3.23-6.38,4.48-3.24,1.47-6.15,3.53-9.53,4.69-2.84.97-5.55,1.7-8.35,3.25Z"></path>
  <path class="cls-2" d="M319.44,428.11c-3.1,7.99-4.1,13.9-7.5,20.49-.16-2.24,5.65-23.55,7.29-21.92.21.21.38.97.21,1.42Z"></path>
  <path class="cls-2" d="M339.43,387.72c-1.62,1.7-1.75,4.55-4.34,5.36,2.8-5.83,6.41-10.45,9.9-15.65,2.7.12-5.39,10.11-5.56,10.3Z"></path>
  <path class="cls-2" d="M307.32,541.43c-.84-1.51-.83-2.77-.67-4.33.81,1.08,1.25,2.64.67,4.33Z"></path>
  <path class="cls-2" d="M679.41,443.42c-.64.16-.87-1.99.06-2.03.64-.03,1,1.76-.06,2.03Z"></path>
  <path class="cls-2" d="M690.51,567.68c-.96-.99.21-1.86.96-3.47.14,1.14-.03,1.97-.96,3.47Z"></path>
  <path class="cls-2" d="M688.73,542.14c-.07,1.18-.61,1.18-.68,0,.12-.64.56-.64.68,0Z"></path>
  <circle class="cls-2" cx="671.54" cy="445" r=".32"></circle>
  <circle class="cls-2" cx="430.3" cy="689.55" r=".32"></circle>
  <circle class="cls-2" cx="691.96" cy="563.06" r=".32"></circle>
  <circle class="cls-2" cx="689.92" cy="568.68" r=".32"></circle>
  <circle class="cls-2" cx="658.27" cy="582.22" r=".26"></circle>
  <circle class="cls-2" cx="654.69" cy="592.96" r=".26"></circle>
  <circle class="cls-2" cx="335.08" cy="393.63" r=".26"></circle>
  <circle class="cls-2" cx="615.89" cy="670.64" r=".26"></circle>
  <circle class="cls-2" cx="658.78" cy="584.27" r=".26"></circle>
  <path class="cls-3" d="M557.1,478.23c-.77,2.82-2.05,4.14-3.3,6l-12.72,18.98-9.64,15.01c-9.65,15.01-20.32,28.82-30.4,43.49l-9.04,13.14c-2.53,3.68-4.55,7.95-7.6,11.13l-.55.02c.6-1.72.69-3.59,1.01-5.42.48-2.73,1.97-5.15,1.82-7.81l-.04-.48c2.66-5.94,3.88-12.51,6.05-18.95,1.96-5.81,2.95-11.57,4.48-17.48,1.34-5.15,2.34-10.04,2.89-15.38.26-2.61,1.43-5.21.4-7.93-.52-1.37-2.37-2.46-3.62-2.84.06-.45-.69-.65-.75-.96-.17-.91-1.19-.7-1.98-.75-.13-.45-.78-.38-1.01-.65-.8-.92-2.01-.38-3.07-.52-1.71-.23-3.39.54-5.03.6l-21.02.77-17,.74c.08-2,1.09-3.64,2.03-5.27,1.29-2.23,1.13-4.9,2.16-7.2l2.38-5.36c5.02-11.27,7.43-23.3,11.2-35.09l2.98-9.37,1.43-4.52,1.78-.81,4.4-10.18s1.75-6.33,1.75-6.69,2.75-3.21,3.76-4.59c1-1.37,1.28-10.45,1.28-11s.46-1.1.46-1.92,1.37-3.03,1.37-3.03c0,0,4.59.46,5.04,0,.46-.46,3.12-1.92,3.12-1.92l4.13.27s6.92.07,8.66.68c1.35.47,6.73-3.68,9.11-5.6,1.7-.12,3.4-.22,5.11-.3l12.95-.64c-1.75,6.05-4.89,11.01-7.67,16.5-.66,1.31-.63,3.55-1.94,4.42-.26.17.27,1.36-.01,1.63-.22.2-.61.22-1.24.26-.88,3.64-2.72,7.06-4.55,10.41-1.82,3.34-3.04,6.59-4.5,10.04l-6.18,14.57c-.73,1.72-6.91,14.66-6.75,15.02.09.18.59-.01,1,.14-.03,1.27-4.52,3.62-2.28,5.36.56.44,1.76.41,2.71.55-.31.72-.79,1.19-.97,1.7-.23.69,1.36,1.44.99,1.81l-1.76,1.78,2.66.65c4.07,1,7.31,2.37,11.53,1.92l11.73-1.25c9.53-1.02,21.34-3.74,32.25-3.68Z"></path>
  <path class="cls-2" d="M445.41,501.83c2.54-.23,1.09-1.34,2.96-3.17-.34,3.16-1.62,6.02-2.55,9.08-1.28-2.47-.86.86-1.62,1.74-2.75,3.21,1.21-5.87,1.2-7.65Z"></path>
  <path class="cls-1" d="M485.44,573.79c-.43,2.41-.88,4.92-1.82,7.41-1.29,3.41-1.13,7.13-3.13,10.51l3.63-16.63c.19-.88.75-1.23,1.32-1.3Z"></path>
  <path class="cls-1" d="M486.64,572.29l.03.47c-.52.13-.84.77-1.24,1.02.23-1.3.28-2.23.78-3.1l.42,1.61Z"></path>
  <path class="cls-1" d="M462.71,613.14c-.28-2.36.51-4.23,1.06-6.31.66-2.47.72-4.93,2.12-7.05.51,2.4-.99,4.17-1.45,6.3-.55,2.53-.73,4.89-1.73,7.07Z"></path>
  <path class="cls-1" d="M490.03,506.83c.63.99,2.05.39,3.06.52.23.27.88.2,1.02.65.95.36-10.3,1.05-9.12-.57,1.65-.06,3.33-.83,5.04-.6Z"></path>
  <path class="cls-1" d="M448.37,498.66c-1.87,1.83-.42,2.95-2.96,3.17-.02-3.08,1.36-1.6,3.01-7.24.57,1.23,1.04,3.01-.05,4.07Z"></path>
  <path class="cls-1" d="M496.09,508.75c.06.32.81.51.75.96-3.96.1-6.13,1.79-9.94.37,3.36-.31,6.29-.51,9.19-1.33Z"></path>
  <path class="cls-1" d="M534.16,395.21c-3.36.34-6.48.35-9.96,0,.81,0,10.06-1.87,9.96,0Z"></path>
  <path class="cls-1" d="M448.69,522.19c-2.52-.16-4.68.25-7.21-.22,1.57-.82,3.28.09,5.07-.43.95-.28,1.78-.72,2.14.65Z"></path>
  <path class="cls-1" d="M556.53,483.92c.19.02.34-.08.47-.55.98.22,4.2-5.2,4.11-3.94l-4.95,7.1c-.32-1.03.61-1.48.37-2.61Z"></path>
  <path class="cls-1" d="M557,483.36c-.33.24-.51.39-.47.55-.68-.19-.76.68-1.1.22.86-1.14.81-2.28,1.9-2.92.34.99-.47,1.46-.32,2.14Z"></path>
  <path class="cls-1" d="M484.4,585.98c0,1.08-.42,2.33-1.3,3.66-.76-1.36.33-2.46.75-3.64l.55-.02Z"></path>
  <path class="cls-1" d="M484.39,510.72c-1.6.31-3.19.39-5.13-.03,1.48-.46,2.92-.49,5.13.03Z"></path>
  <path class="cls-1" d="M449.85,493.1c-.37-1.52.22-2.56.65-3.7.6,1.49.06,2.63-.65,3.7Z"></path>
  <path class="cls-1" d="M554.82,488.58c-.35.8-.96,1.89-1.89,2.43.94-1.79-.45-3.13,1.89-2.43Z"></path>
  <path class="cls-1" d="M485.42,521.97c-1.1.32-2.2.37-3.61-.01.92-.51,1.93-.48,3.61.01Z"></path>
  <path class="cls-1" d="M480.46,586.08c-.39.81-.81.31-.61-.53-.08-.51-.09-.9.23-1.03.29-.12.6-.02.77.26s-.19.55-.39,1.3Z"></path>
  <circle class="cls-1" cx="555.39" cy="487.42" r=".57"></circle>
  <circle class="cls-1" cx="480.08" cy="592.7" r=".32"></circle>
  <circle class="cls-1" cx="480.84" cy="583.5" r=".44"></circle>
  <circle class="cls-1" cx="542.37" cy="409.47" r=".26"></circle>
  <circle class="cls-1" cx="541.86" cy="410.5" r=".26"></circle>
  <circle class="cls-1" cx="542.88" cy="408.45" r=".26"></circle>
  <path class="cls-1" d="M544.21,407.16c-.38.1-.7.36-.97.68.64-2.71,1.58-5.04,2.77-7.49s1.64-5.32,3.14-7.47c.38-.04,1.08-.14,1.17.3.08.41-4.87,13.62-6.11,13.98Z"></path>
  <circle class="cls-1" cx="541.35" cy="411.52" r=".26"></circle>
  <circle class="cls-1" cx="449.44" cy="493.8" r=".26"></circle>
  <path class="cls-1" d="M493.1,507.35c-1.01-.13-2.43.47-3.06-.52,1.06.14,2.27-.4,3.06.52Z"></path>
  <path class="cls-2" d="M514.02,397.34c-2.38,1.92-7.76,6.07-9.11,5.6-1.74-.61-8.66-.68-8.66-.68l-4.13-.27s-2.66,1.46-3.12,1.92c-.45.46-5.04,0-5.04,0,0,0-1.83,4.4-1.83,4.95s-.28,9.63-1.28,11c-1.01,1.38-3.76,4.22-3.76,4.59s-1.75,6.69-1.75,6.69l-4.4,10.18-1.78.81,5.9-18.68c1.03-3.28,2.18-6.25,3.2-9.5l4.16-13.31c4.62-.63,9.11-.71,13.68-.81,3.05-.06,5.6-1.02,8.46-1.47,3.12-.48,6.28-.8,9.46-1.02Z"></path>
</svg>