<?xml version="1.0" encoding="UTF-8"?>
<svg id="Layer_1" xmlns="http://www.w3.org/2000/svg" version="1.1" viewBox="0 0 679 274">
  <!-- Generator: Adobe Illustrator 30.3.0, SVG Export Plug-In . SVG Version: 2.1.3 Build 182)  -->
  <g id="logo">
    <path d="M642,149.7c0,3.7,1.3,6.9,4,9.4,2.7,2.6,5.8,3.9,9.6,3.9h23.5v28.1h-23.5c-6.3,0-12.2-1.2-17.8-3.5-5.6-2.3-10.4-5.6-14.5-9.7s-7.4-8.9-9.8-14.4c-2.4-5.5-3.6-11.4-3.6-17.7v-36.3h-17.4v-26.9h17.4v-43.8h32.2v110.8h0ZM679,82.7v26.9h-17.9l-15-26.9h32.9Z"/>
    <path d="M548.8,190.1v-16.7c-8.2,13.6-20.6,19.8-37,19.8-23.7,0-40.4-17.7-40.4-43.8v-78.4h31.5v73.6c0,15,6.8,22.3,20.1,22.3s24.4-11.4,24.4-27.1v-68.7h31.2v119.1h-29.8Z"/>
    <path d="M455,106.5c-3.3-7.6-7.8-14.2-13.4-19.8-5.7-5.6-12.3-10.1-19.8-13.4-7.6-3.3-15.7-5-24.4-5s-16.9,1.7-24.4,5c-7.6,3.3-14.2,7.8-19.8,13.4-5.6,5.7-10.1,12.3-13.4,19.8-3.3,7.6-5,15.7-5,24.2s1.6,16.6,5,24.2c3.3,7.6,7.8,14.2,13.4,19.8,5.6,5.6,12.3,10.1,19.8,13.4,7.6,3.3,15.7,5,24.4,5s16.9-1.7,24.4-5c7.6-3.3,14.2-7.8,19.8-13.4,5.6-5.6,10.1-12.3,13.4-19.8,3.3-7.6,5-15.6,5-24.2s-1.7-16.6-5-24.2ZM424.1,143.4c-1.5,4.1-3.6,7.7-6.3,10.9-2.7,3.1-5.7,5.6-9.2,7.4-3.5,1.8-7.2,2.7-11.3,2.7s-7.8-.9-11.4-2.7c-3.6-1.8-6.7-4.2-9.3-7.4-2.7-3.1-4.8-6.8-6.3-10.9-1.5-4.1-2.3-8.6-2.3-13.4s.8-8.8,2.3-12.9c1.5-4.1,3.6-7.7,6.3-10.7,2.7-3,5.8-5.4,9.3-7.1,3.5-1.8,7.3-2.7,11.4-2.7s7.8.9,11.3,2.7c3.5,1.8,6.5,4.1,9.2,7.1,2.7,3,4.8,6.5,6.3,10.7,1.5,4.1,2.3,8.4,2.3,12.9s-.8,9.3-2.3,13.4Z"/>
    <path d="M266.4,190.1v-119.1h21.5l8,14.3c10.4-16,22.5-17.4,35.3-17.4h4.1v32.2c-2.9-.5-5.8-.7-8.7-.7-19.4,0-28.8,9.7-28.8,28.8v62h-31.5Z"/>
    <path d="M203.5,67.9c-14.5,0-25.7,5.6-33.2,17.7l-.2-14.5h-30.3v175.5h31v-71.9c9,12.6,20.6,18.6,35.3,18.6,30.7,0,48.9-25.4,48.9-61.5s-21.5-63.9-51.5-63.9h0ZM225.5,143.4c-1.5,4.1-3.6,7.7-6.3,10.9-2.7,3.1-5.7,5.6-9.2,7.4-3.5,1.8-7.2,2.7-11.3,2.7-12.4,0-23.2-9.6-26-21.5-1.4-5.7-2.2-11.3-1.4-17.2.8-5.9,2.2-12,5.5-17.1,4.7-7.4,13.2-12,21.9-12s7.8.9,11.3,2.7c3.5,1.8,6.5,4.1,9.2,7.1,2.7,3,4.8,6.5,6.3,10.7,1.5,4.1,2.3,8.4,2.3,12.9s-.8,9.3-2.3,13.4Z"/>
    <path d="M64.2,192.2c-12.6,0-23.6-1.9-32.9-5.6-9.4-3.7-16.8-9.1-22.2-16S.7,155.3,0,145.5v-1.8c-.1,0,31.3,0,31.3,0l.2,1.2c.7,4.1,2.6,7.7,5.6,10.6,3,3,6.9,5.3,11.6,7s10.2,2.5,16.2,2.5,11.5-.8,15.9-2.5c4.5-1.7,7.9-4,10.3-7.1,2.4-3.1,3.6-6.6,3.6-10.6h0c0-5.5-2.1-9.7-6.3-12.7-4.2-3.1-11.3-5.6-21.1-7.6l-16.8-3.4c-15.7-3.1-27.5-8.4-35.5-15.9s-12-17.3-12-29.3h0c0-9.8,2.7-18.3,7.9-25.5,5.2-7.2,12.4-12.8,21.5-16.9,9.1-4,19.6-6.1,31.3-6.1s22.9,1.9,31.8,5.8c8.9,3.9,15.9,9.3,20.9,16.2,5,7,7.8,15.1,8.3,24.4v2c.1,0-31.3,0-31.3,0l-.2-1.3c-.5-4.2-2.1-7.8-4.7-10.7-2.6-2.9-6-5.2-10.2-6.8s-9.1-2.4-14.6-2.4-10.6.8-14.7,2.4c-4.1,1.6-7.3,3.9-9.4,6.8-2.2,2.9-3.3,6.2-3.3,10h0c0,5.2,2.1,9.2,6.4,12.3s11,5.5,20.1,7.3l16.9,3.4c11.1,2.2,20.2,5.3,27.4,9.2,7.1,3.9,12.4,8.8,15.8,14.7s5.1,13,5.1,21.4h0c0,10.3-2.6,19.2-7.7,26.6-5.1,7.5-12.5,13.2-22.1,17.3-9.6,4.1-21.1,6.1-34.5,6.1h0Z"/>
  </g>
</svg>