<?xml version="1.0" encoding="UTF-8"?>
<svg id="Layer_1" data-name="Layer 1" xmlns="http://www.w3.org/2000/svg" viewBox="0 0 679 274">
  <defs>
    
  </defs>
  <g id="logo">
    <path class="cls-1" d="M560.35,146.28c0,2.71.97,5.01,2.92,6.89,1.94,1.89,4.27,2.83,6.98,2.83h17.14v20.5h-17.14c-4.59,0-8.92-.85-12.99-2.56-4.06-1.71-7.6-4.06-10.6-7.07s-5.39-6.51-7.16-10.51c-1.77-4-2.65-8.31-2.65-12.9v-26.51h-12.72v-19.61h12.72v-31.98h23.5v80.93ZM587.39,97.33v19.61h-13.08l-10.96-19.61h24.03Z"></path>
    <path class="cls-1" d="M492.33,175.79v-12.19c-6.01,9.9-15.02,14.49-27.04,14.49-17.32,0-29.51-12.9-29.51-31.98v-57.25h22.97v53.72c0,10.96,4.95,16.26,14.67,16.26,11.66,0,17.85-8.31,17.85-19.79v-50.19h22.8v86.94h-21.74Z"></path>
    <path class="cls-1" d="M423.86,114.74c-2.42-5.54-5.69-10.36-9.81-14.49-4.13-4.12-8.96-7.39-14.49-9.81-5.54-2.41-11.49-3.62-17.85-3.62s-12.31,1.21-17.85,3.62c-5.53,2.42-10.36,5.69-14.49,9.81-4.12,4.13-7.39,8.95-9.8,14.49-2.42,5.54-3.62,11.43-3.62,17.67s1.2,12.14,3.62,17.67c2.41,5.54,5.68,10.37,9.8,14.49s8.96,7.4,14.49,9.81c5.54,2.41,11.49,3.62,17.85,3.62s12.31-1.21,17.85-3.62c5.53-2.41,10.36-5.68,14.49-9.81,4.12-4.12,7.39-8.95,9.81-14.49,2.41-5.53,3.62-11.42,3.62-17.67s-1.21-12.13-3.62-17.67ZM401.24,141.69c-1.12,3-2.65,5.65-4.6,7.95-1.94,2.3-4.18,4.09-6.71,5.39-2.54,1.3-5.27,1.94-8.22,1.94s-5.71-.64-8.3-1.94c-2.6-1.3-4.86-3.09-6.81-5.39-1.94-2.3-3.47-4.95-4.59-7.95-1.12-3.01-1.68-6.28-1.68-9.81,0-3.3.56-6.45,1.68-9.45,1.12-3.01,2.65-5.6,4.59-7.78,1.95-2.18,4.21-3.91,6.81-5.21,2.59-1.3,5.36-1.94,8.3-1.94s5.68.64,8.22,1.94c2.53,1.3,4.77,3.03,6.71,5.21,1.95,2.18,3.48,4.77,4.6,7.78,1.12,3,1.68,6.15,1.68,9.45,0,3.53-.56,6.8-1.68,9.81Z"></path>
    <path class="cls-1" d="M286.11,175.79v-86.94h15.73l5.83,10.43c7.6-11.66,16.43-12.72,25.8-12.72h3v23.5c-2.12-.35-4.24-.53-6.36-.53-14.14,0-21.03,7.07-21.03,21.03v45.24h-22.97Z"></path>
    <path class="cls-1" d="M240.17,86.55c-10.6,0-18.73,4.07-24.21,12.9l-.17-10.6h-22.09v128.12h22.62v-52.49c6.54,9.19,15.02,13.61,25.8,13.61,22.44,0,35.69-18.55,35.69-44.88,0-29.34-15.72-46.66-37.64-46.66ZM256.23,141.69c-1.12,3-2.65,5.65-4.6,7.95-1.94,2.3-4.18,4.09-6.71,5.39-2.54,1.3-5.27,1.94-8.22,1.94-9.08,0-16.93-7-19.02-15.7-1-4.15-1.58-8.28-.99-12.55.6-4.33,1.6-8.73,3.99-12.45,3.45-5.38,9.64-8.77,16.02-8.77,2.95,0,5.68.64,8.22,1.94,2.53,1.3,4.77,3.03,6.71,5.21,1.95,2.18,3.48,4.77,4.6,7.78,1.12,3,1.68,6.15,1.68,9.45,0,3.53-.56,6.8-1.68,9.81Z"></path>
    <path class="cls-1" d="M138.49,177.31c-9.18,0-17.2-1.36-24.05-4.07-6.85-2.71-12.25-6.61-16.19-11.68s-6.14-11.18-6.57-18.33l-.08-1.29h22.96l.16.89c.54,3.01,1.89,5.6,4.07,7.77,2.17,2.18,5.01,3.87,8.5,5.08,3.49,1.21,7.44,1.81,11.84,1.81s8.39-.6,11.64-1.81c3.25-1.21,5.76-2.93,7.53-5.16,1.77-2.23,2.66-4.82,2.66-7.77v-.08c0-3.92-1.54-6.99-4.63-9.22-3.09-2.23-8.23-4.07-15.43-5.52l-12.25-2.5c-11.44-2.26-20.07-6.14-25.9-11.64-5.83-5.5-8.74-12.63-8.74-21.39v-.08c.05-7.09,1.99-13.26,5.8-18.53,3.81-5.26,9.05-9.37,15.71-12.33,6.66-2.95,14.29-4.43,22.88-4.43s16.72,1.41,23.24,4.23c6.52,2.82,11.61,6.77,15.27,11.84,3.65,5.08,5.67,11.02,6.04,17.84l.08,1.45h-22.96l-.16-.97c-.38-3.06-1.52-5.67-3.42-7.81-1.91-2.15-4.39-3.81-7.45-4.99-3.06-1.18-6.61-1.77-10.63-1.77s-7.71.59-10.71,1.77c-3.01,1.18-5.3,2.83-6.89,4.95-1.58,2.12-2.38,4.55-2.38,7.29v.08c0,3.71,1.56,6.67,4.67,8.9,3.11,2.23,8,4.02,14.66,5.36l12.33,2.5c8.11,1.61,14.77,3.84,19.98,6.69,5.21,2.85,9.06,6.43,11.56,10.75,2.5,4.32,3.75,9.52,3.75,15.59v.08c0,7.47-1.87,13.92-5.6,19.37-3.73,5.45-9.1,9.67-16.11,12.65-7.01,2.98-15.4,4.47-25.17,4.47Z"></path>
  </g>
</svg>