<?xml version="1.0" encoding="UTF-8"?>
<svg id="Layer_1" data-name="Layer 1" xmlns="http://www.w3.org/2000/svg" viewBox="0 0 1000 1000">
  <path d="M249.57,781.39l2.62-4.69-1.44-2.41c-.86-1.43,9.06-9.23,11.78-10.97,12.61-8.07,21.54-18.98,27.09-32.86,7.39-18.49-.39-30.23,4.15-51.43,2.32-10.82,7.89-20.33,17.08-26.93-2.77-3.14-4.57-5.36-6.74-8.42l2.99,1.22-1.07-2.66c-2.08-5.16-16.75,13.69-19.78,25.15-4.75,17.98,2.72,30.93-8.32,58.17-3.02,7.47-7.59,13.19-13.31,18.62-2.26,2.14-4.64,5.05-7.48,5.54-4.85.83-7.75,4.65-11.77,7.02-4.53,2.67-9.84,4.4-14.53,6.13l1.65-2.56c.35-.55-.14-1.49-.53-2.44l2.67-3.47-5.91,1.95-.97-1.92c-.25-.49-1.43-.2-2.39-.3l-1.81-.18c-.32-.03.44-.83.72-1.16l5.99-3.98c-3.17,0-4.06,1.86-6.4-.3l8.29-4.87,16.46-9.57c3.47-2.01,5.69-5.33,7.56-8.59,5.24-9.11,7.27-18.55,6.33-29.12-1.26-14.18-.2-28.53,5.46-41.65,4.43-10.28,14.22-23.43,25.28-27.86-12.97-21.8-17.27-46.12-6.98-69.12,5.76-12.86,15.15-23.59,24.73-33.84,1.41-1.51,3.97-2.71,5.25-4.04l13.64-14.16c3.25-3.37,6.25-6.58,9.22-9.96l8.86-10.05c2.68-3.04,7.01-5.6,11.27-6.07-3.71,2.28-7.99,2.48-10.3,6.43l5.75-1.37c5.41-1.29,9.84.18,13.88,3.9l11.63,10.74c7.86-4.55,13.22-10.44,19.02-16.84l9.87-10.89c4.87-5.37,11.21-5.87,17.5-5.37,4.27.34,6.75.39,9.19,4.98,1.35,2.54,4.59,5.52,5.87,8.27,1.14,2.46,2.64,7.66,1.29,9.62-2.78,4.06-5.22,9.3-8.51,12.51l-25.63,24.97,3.6,4.68,4.45,5.62,8.94,10.43c3-1.13,4.49-2.5,6.27-4.35l11.83-12.3c3.33-3.46,6.46-7,9.93-10.49s6.14-6.88,10.85-8.31c3.74-1.14,6.99-2.32,10.92-.83l-3.82,1.84c5.24-.35,8.19,2.91,11.61,6.16,3.75,3.56,6.02,6.3,5.24,11.63-.67,4.59-.88,9.62-4.45,13.26l-4.53,4.63-14.26,15.22-11.33,10.9c3.14,3.3,7.42,7.44,10.17,10.67.8.93,1.45,3.49,2.23,4.5,2.98,3.84,3.69,8.2,4,13.41,2.01-3.53.24-7.25-.98-11.09,4.08,3.2,3.65,11.09.71,14.95-.44.58-2.23,1.43-2.81,1.84s.58,2.85.11,3.38l-6.52,7.29c-2.64.04-3.56.48-4.9,2l-6.02,6.77c-1.51,1.69-3.06,4.48-4.78,5.98l-13.13,11.38c-7.63,6.62-18.6,15.56-27.68,19.13l-14.04,5.53c-20.42,8.04-42.6,6.01-62.43-3.72-31.6,22.21,6.05,44.62-30.25,92.13-3.43,4.49-7.45,7.54-11.18,11.22-19.6,19.35-14.56,10.61-32.43,20.08-.2.11-1.39-.26-1.64-.26-.38,0,.64-.94.96-1.15l3.3-2.16-6.09.67-1.06-5.82ZM406.8,626.89c6.7-5.59,13.56-13.91,20.59-19.08.86-.63,1.72-2.8,1.9-3.08,1.7-.27,3.72-1.21,4.74-2.55-2.72-3.22-4.99-7.69-8.25-10.26-13.38-10.54-14.12-13.9-25.49-25.86-3.83-4.03-8.04-7.51-11.56-11.81-10.13-12.36-19.57-19.89-29.14-33.32-7.14,6.35-2.64,1.5-8.86,7.35l-19.48,18.3c-3.89,3.65-7.33,7.05-10.61,11.45-2.51,3.36-6.4,6.54-7.89,10.45-2.77,7.29-5.24,14.33-4.56,22.02,1.18,13.14,7.05,24.7,15.18,34.83,6.25,7.79,13.42,14.75,22.96,18.37,7.35,2.78,15.7,4.02,23.62,2.78,18.3-2.85,21.71-6.95,36.86-19.6ZM356.25,521.88c.71.08-.73-.08-1.43-.16l-1.49,1.93c-.16.21,1.06.53,1.23.32l1.69-2.1ZM486.53,531.63c.92-1.85.72-4.06-.08-6.03-.11,2.1-.09,3.99.08,6.03Z"/>
  <path d="M585.38,478.73l5.25-3.42c-11.18,3.25-19.01-2.63-24.72-12.35l-22.94,25.95c-7.72,8.74-21.37,8.41-29.07,2.16.88-.83,1.16-1.11,1.38-1.26.31-.21-.56-.99-.79-1.47l-4.79-9.89c-.62,3.24.96,6.85,1.87,10.53-2.5.35-5.67-23.87-1.39-19.38l4.15-7.57c3.9-4.76,7.52-9.83,12.04-14.01l12.81-11.83-2.32-4.25-17.64-17.31c-3.74,4.54-6.55,7.62-9.97,11.24-9.89,10.49-9.41,13.41-24,20.53-2.96,1.44-6.45.98-9.52.59-5.77-.72-9.62-3.53-12.47-8.73-4-7.28-5.36-10.99,1.1-21.16,9.17-14.44,19.2-18.01,29.7-30.73-10.43-10.15-5.77-9.42-8.68-13.81-2.78-4.19-5.22-10.62-2.71-15.49l3.69-7.18c2.2-4.28,6.39-7.09,9.75-10.43,9.28-9.25,15.49-7.73,12.37-11.75,16.61-13.77,26.78-25.74,48.51-32.35,13.79-4.2,27.98-6.84,41.83-2.48l20.62,6.48c9.12-5.63,14.41-13.77,17.62-23.48,7.76-23.5,13.54-44.41,37.46-55.75,18.25-8.66,37.71-12.15,57.68-9.29l16.11,2.31,4.15,4.82c-5.07-.46-9.21-.63-14.08.17l3.23,3.75-12.01.48c-14.27.57-27.94,2.97-41.17,8.08-11.18,4.31-20.25,12.28-24.67,23.52-9.37,23.86-8.75,37.6-28.65,56.79l5.89,8.02c.65.88,3.36.75,4.16.04,21.14-18.84,16.1-47.43,35.23-65.1,5.89-5.45,13.6-7.99,20.52-11.43,4.81-2.39,8.52-1.99,13.75-1.55,8.98.74,23.41-3.79,41.03,2.68.38.14,1.53,1.09,1.26,1.31l-1.62,1.35c4.36,1.46,7.37,4.95,6.5,8.98-2.62-.16-4.71-.13-7.49.48l5.38,4.82-5.27,1.17c2.39,1.62,1.64,1.5-.12,1.39l-.97,1.86c-.09.18-.79-.55-.78-.77l.08-1.53-25.88-1.19c-9.49-.44-20.02,1-27.41,7.1-15.08,12.46-10.08,34.58-31.67,58.46-3.44,3.8-6.83,7.19-11.23,10.03,6.08,7.13,9.07,28.25,8.82,38.16-.47,18.96-8.47,36.12-19.54,50.94-2.05,2.75-4.45,4.65-6.58,7.02-7.21,8.02-13.14,16.89-21.28,24.04-12.35,10.85-2.45,4.44-17.42,14.77-4.46,3.07-8.4,7.1-15.1,6.91ZM585.64,442.58l13.62-14.25,11.51-12.76c5.46-6.06,10.39-11.95,15.1-18.92,7.59-11.22,8.9-26.21,5.2-39.16-3.19-11.16-9.35-19.48-17.22-27.52-9.24-9.43-26.85-12.63-40.14-11.52-9.86.82-18.28,4.28-25.6,10.91l-14.5,13.13c-3.88,3.52-6.82,7.76-9.97,11.8l-10.2,13.04,17.13,17.84,34.22,34.24c7.3,7.3,13.75,15.27,20.85,23.15ZM492,390.85c2.5-.12,3.6-1.5,3.27-3.3l-3.27,3.3ZM492.25,426.1l10.06-11.47c2.6-2.96,6.26-5.31,9.21-8.03l-7.91-8.1c-4.67,5.78-28.34,28.94-23.87,35.97,5.97-.67,9.06-4.42,12.52-8.37ZM472.68,443.92l-5.69-3.91c-.89,2.55,2.94,4.49,5.69,3.91ZM545.15,467.51l14.46-11.9c.55-.46,1.01-2.08.76-2.56-.17-.32-1.03-.79-1.31-.58l-1.18.89c-2.65,2.21-4.95,4.2-8.18,6.32l8.55-8.29c-.42-.71-1.6-2.27-2.21-2.85-.61-.59-2.75.58-3.44,1.27l-6.95,6.92c-.44.43-2.4.13-2.75.63s-.77,1.96-1.17,2.42l-7.98,9.09c-2.27,2.59-3.52,5.2-4.11,8.72l2.2-1.01c.31-.14.93.38,1.41.65l11.91-9.72ZM524.04,492.12c-.72-2.11-2.78-2.28-4.26-1.23l4.26,1.23Z"/>
  <path d="M625.7,703.43l1.65-7.07c-2.41.4-4.21,1.54-5.9,3.76l-2.7-6.3-.74,3.36-3.88-2.44-3.33,7.72c-1.25-2.97-2.46-3.19-3.79-4.71-4.31-4.91-4.95-12.42-5.82-18.8-1.98-14.5-2.91-24.87-3.07-39.13l-.41-38.38-.22-9.34c-.11-4.82.06-9.34.24-14.2l1.34-36.67c.24-6.56,1.63-12.28,3.74-19.06l2.92,3.76,2.55-3.84,2.45,4.34c1.85-3.16,2.74-4.47,4.16-6.37.67-.9,1.45-3.13,2.15-3.91.86-.96,3.65,1.44,3.8,2.66l.87,7.12,4.03-6.7,3.52,1.91,1-9.21,4.3,5.77c1.08-1.08,2.91-2.47,3.39-1.87l3.57,12.69c2.04,7.27-1.99,30.18.42,38.73l1.16-8.98c.57-4.41-.46-9.64.46-14.03l1.76-8.34c.31-1.45,1.34-3.69,1.33-4.96-.03-3.43.08-5.39,1.76-8.23l1.81,7.6,2,2.24c.15,7.19-.2,14.27-.39,21.53l-.7,27.65-.81,14.49c-.14,2.45-.15,5.2-.16,7.8-.02,11.88-.75,23.31-2.02,35.17l-2.21,20.74-1.65,14.11c-.91,7.83-1.73,14.68-4.32,23.01l-5.46-5.16c-2.78-2.63-2.51,12.66-8.8,11.52Z"/>
  <path d="M323.18,405.51c-.3-.14-.46-1.8-.26-2.07s.94-.68,1.16-.43l1.19,1.36c3.21-1.72,7.78-4.19,11.85-3.35,6.39,1.33,12.4,3.09,18.21,5.53,4.62,1.94,8.61,3.42,13.87,3.74l-2.35-8.08c2.48.9-2.44-14.35-3.04-14.05v4.75c-.92-1.2-2.4-3.16-2.93-4.46l-4.14-10.06c1.51,1.85,2.46,3.34,4.81,5.38-2.63-7.05-5.67-13.22-8.71-20.12l-6.14-13.91c-2.54-5.75-.97-10.27,3.92-13.79,7.78-5.61,14.91.04,22.43,5.79l19.08,14.59,8.02,6.33c2.81,2.22,5.12,4.63,8.31,6.01l5.16,2.24-1.56-20.21,1.29.73c.27.15.94.24.94.14l-1.23-6.73c-.09-.5-1.14-1.76-1.37-2.22s1.02-1.71,1.02-2.34l.26-23.26c.01-1.22,4.44-1.91,4.89-.79.32,6.71.83,13.36,3.23,19.22l-.47-8.42c-.19-3.34.04-5.86,2.95-8.47,1.36,2.07,2.44,4.45,2.94,7.07l3.66,19.12,1.91,14.95c1.17,9.13,1.35,17.78-3.5,25.69-3.22,5.24-7.6,7.39-14.05,7.02-8.04-.46-15.06-4.53-21.78-9.12l-6.78-4.63-13.03-9.6c1.31,6.27,6.63,11.83,7.93,18.99,5.67,7.81,10.75,17.02,10.05,27.21-.46,1.72-1.71,5.05-2.37,6.68-5.48,13.69-29.13,4.03-38.21,1.3,2.5,3.02,6.23,2.52,8.79,5.06-6.48-1.86-12.47-3.7-18.24-6.4-12.62-5.91-18.32-2.34-19.52-5.58-.34-.93.18-2.7.92-4.05,2.41-4.39,6.43-.15,12.43-1.3l-11.57-5.51Z"/>
  <path d="M735.59,515.72c-4.14-5.85-4.8-12.05-4.86-18.64l-.1-13.07c-12.33,4.41-10.05,14.07-25.82,19.1-5.3,1.69-10.07.71-15.22-1.36-5.04-2.02-8.75-4.97-10.31-10.51l-4.6-16.32c-.48-1.69-1.9-4.72-3.36-4.92l-5.51-.75c-6.62.98-13.25,5.1-18.44,9.73-2.1,1.87-4.06,3.39-6.41,4.56-.02-4.67,2.42-7.49,5.21-9.95l9.58-8.43c-11.37,4.15-10.08,8.31-19.89,14.02-.8-3.88.88-6.78,3-9.51,9.2-11.81,28.38-23.87,43.01-15.14,6.77,4.04,8.65,11.5,10.5,18.54l2.59,9.87c.18.67.74,2.13,1.34,2.12.6,0,1.99-.56,2.47-.92l11.11-8.26c2.2-1.64,3.9-3.85,6.64-5.48,9.92-5.9,24.52-5.77,31.84,4.43,4.68,6.52,2.23,24.62,3.47,28.49,1.34,4.17,6.53,2.65,9.53,3.4l4.97,1.49,6.86,2.25,3.37,4.75-4.27,4.52c-4.12,4.36-11.18,4.36-16.73,4.61s-9.79-1.73-14.16-4.54c-1.7-1.09-4.46-2.18-5.81-4.09Z"/>
  <path d="M636.21,770.39c.05-.23.88,2.58.22,3.05-1.2.84-4.13,2.22-5.43,1.94-9.34-3.29-15.81,4.84-27.51-7.63-1.97-2.1-4.55-3.69-4.91-6.91-9.61-8.84-5.42-18.86-.55-27.83,7-12.89,12.35-11.27,25.34-14.44,11.81,3.76,8.86-2.54,20.71,6.68,3.19,2.48,6.32,4.48,8.08,8.38l-.69,4.1,3.35,10.06-2.99,2.13c4.19,8.62-5.67,20.23-15.63,20.49ZM605.13,733.98c-.47-.03-1.95-.09-2.35.15-1.44.85-3.06,4.44-2.85,5.64.18-1.08,8.6-5.59,5.2-5.78ZM598.06,742.85c-1.24.41-2.25,1.93-2.41,4.06-.24,3.14,1.19,5.72,3.49,6.67-.77-3.7-1.08-6.58-1.08-10.73Z"/>
  <path d="M536.31,597.71c13.01,20,3.45,39.3-4.45,40.09-2.9.29-5.67-.8-8.81,1.64-2.37,1.84-6.58,3.53-8.97,1.53l-4.4-3.67c.91-1.64,1.07-3.54-.36-5.89l7.68-6.9c1.9-1.71,5.65-4.95,5.12-7.88-2.58-14.31-15.99-23-12.02-38.62.81-3.17,4.33-8.65,7.56-9.78,3.9-1.37,7.61-2.08,11.69-2.96-.18.04,16.91-1.06,16.33,1.81l-9.76,3.22c8.8,3.57,16.21-5.21,17.82,0l-6.06,4.72,2.08,1.61c3,2.31-21.09,5.32-23.49,5.69l10.02,15.4Z"/>
  <path d="M428.67,603c-1.96.71-3.81-3-2.08-3.98.94.04,2.57,2.99,2.08,3.98Z"/>
</svg>