<?xml version="1.0" encoding="UTF-8"?>
<svg id="Layer_1" data-name="Layer 1" xmlns="http://www.w3.org/2000/svg" viewBox="0 0 1000 1000">
  <path d="M647.61,302.03l2.11,4c-3.5-.47-6.03-2.33-7.85-5.49,2.47.47,3.98.9,5.74,1.49Z"/>
  <path d="M545.5,727.35c10.15-2.83,11.76-1.83,20.72-4.85,6.71-2.26,13.51-3.05,19.61-7.27,2.02-1.4,4.71-2.13,6.79-2.42l-1.64,1.32c-.3.24.96,1,1.01,1.08l-8.63,4c-8.66,4.02-18.68,7.24-27.96,9.61-3.18.81-6.11,1.53-9.15,2.55l-7.75,2.59c3.49.21,6.02-.63,8.89-1.43,5.69-1.6,10.88-2.68,17.09-3.51l-2.72,2.26,7.42-1.26c.54-.09,1.96.04,2.45-.16l9.17-3.63c1.84-.73,2.95-2.1,4.76-2.85l13.7-5.74.66,1.73c.13.33-1.05,1.27-1.42,1.44l-6.47,2.88c-.39.17-1.38,1.2-1.07,1.44l2.11,1.59c-2.48,2.55-7.97,2.15-10.15,5.48l7.7-3.01c2.84-1.11,5.23-1.91,7.79-3.8l-5.88.75c2.85-1.61,7.33-6.2,7.05-2.14-.03.46,1.62-.36,2.01-.62,1.98-1.33,4.32-1.95,6.06-2.64l9.94-3.95-4.47,3.41,1.04,2.89c-3.81,2.35-7.91,3.55-12.16,4.22,4.61,4.26-5.65-1.97-7.9,2.49-.39.77-.71,2.53-1.57,2.91-6.44,2.87-13.12,6.14-19.61,9.44-1.21.61-3.59.41-3.84,2.04,6.78-2.01,7.08.23,16.37-4.84l-2.36-.93c.75-.07,2,.15,3.63.64l6.7-3.26c6.19,1.21,5.5-3.05,10.34-2.85-.86,3.77-8.58,3.59-9.49,6.4,6.57-1.56,16.23-7.91,21.48-9.31.3-.08.05.88-.03,1.61l-12.8,6.38c4.74.11,7.37-3.87,11.36-4.63,2.37-.45,4.21-1.06,7.06-1.88l-4.69,3.66.79,1.67c-2.59,1.85-10.41,2.72-10.3,3.52l.24,1.66-26.24,12.06c6.41-1.27,17.35-8.25,24.67-9.45-2.54,2.07-4.98,3.94-8.04,5.09-6.9,2.58-13.24,5.5-19.95,8.45l-9.2,4.05c-8.98,3.96-18.57,5.18-28.04,7.08,6.14,1.92,22.93-3.62,29.78-5.69,7.95-2.4,4.63-4.03,11.84-4.99,9.59-1.29,13.01-5.97,19.52-6.47-1.25,3.62-4.95,2.4-7.62,3.77-5.26,2.7-10.71,5.9-15.01,8.47.66,2.21-3.46,2.27-5.66,2.55-6.07,2.06-11.77,3.67-17.93,5.08l-11.34,2.59c-8.7,1.99-17.13,2.83-26.03,3.7-15.97,1.56-31.46.42-47.41-1.19-9.84-1-18.91-2.45-28.49-4.6l-20.18-4.51c-13.03-2.91-25.01-6.86-36.95-12.58-2.27-1.08-3.89-1.97-5.86-3.48-3.15-2.41-7.07-3.99-10.69-5.81l-2.03-1.02c-.38-.19-.34,1.35-.57,1.91-8.09-4.67-15.68-9.37-22.83-14.99-1.3-1.02-1.79-1.77-3.73-.81.47-3.34-2.94-2.84-4.57-4.13l-10-7.91-12.41-10.95c-2.09-1.84-3.98-3.38-6.04-5.56-2.9-3.08-6.59-5.71-9.39-9.18l-15.52-19.21c-2.5-3.1-11.37-16.56-13.58-20.37-8.58-14.79-16.86-28.52-22.28-44.79l-7.85-23.58c-2.24-6.73-6.52-24.46-7.82-31.75-.83-4.67-.98-8.98-2.52-13.29.08,3.08.42,5.42.08,8.54-1.48-6.1-3.13-12.3-3.22-18.85l-.2-14.68c-.2-14.99-2.14-27.5,2.12-41.69,1.38-4.61,1.4-9.72,2.26-14.5.74-4.12,1.56-7.84,2.55-11.92,2.35-9.61.36-7.48,2.06-13.85.12-.46,2.11-1.18,1.88-1.6l-1.04-1.89c-.24-.44.02-1.72.22-2.3.16-.48,1.17.05,2.6.5,1.07-3.18,2.01-6.59,2.84-10.19,1.36-5.89-.42-6.27,2.99-14.03l6.63-15.1,4.66-10.26c.45-.99,1.54-2.39,2.12-.82l2.4-6.54c1.45-3.94,4.05-7.61,6.06-11.28,1,4.26-3.29,5.7-3.22,9.24l5.88-10.19c.24-.41.78-1.85.87-2.29s-.74-.68-1.18-1.05c.94-1.23,1.87-2.34,2.45-3.26l7.07-11.21c.66-1.04,2.04-1.56,3.3-1.65,3.18-3.9,6.68-8.18,9.34-12.45,2.25-3.61,4.59-5.84,7.39-8.78l11.55-12.09c1.61-1.69,2.7-4.14,3.54-6.33,1.86-2.43,3.42-4.71,6.09-4.04.45.11-.12-1.97.21-2.36,1.75-2.12,5.54-5.23,8.49-6.69-1.24,1.53-2.67,3.04-4.15,4.54l-.64.65c-.12.12-.27.67-.12.58.24-.16,1.06-.69,1.34-.92l13.15-10.78,10-8.18c1.37-1.12,2.17-3.58,3.98-3.18l-.88,1.17c-.12.17.2.56.48.81,3.26-4.62,16.98-12.83,22.06-15.5l14.6-7.66c15.93-8.35,61.5-22.76,78.55-24.23,3.79-.33,7.02-.74,11.48-1.41-1.23-1.24-1.36-1.44.3-1.1,2.91,2.92,12.05.1,19.75-.03,6.39-.11,12.62-.53,18.97-.27l6.99.28c15.75.62,31.07,2.61,46.43,5.83l10.73,2.25c2.29.48,4.37,1.05,6.62,1.92l5.92,2.29,9.45,3.24,12.07,4.36c5.61,2.03,10.52,4.6,15.38,7.8,3.39,2.23,7.11,3.15,10.01,5.97l-3.3-.22c-1.05.03-1.11.03-.04,0,.65.93,1.94.98,2.29.89l1.77-.44c.44.39,1.38,1.21.31.27l-1.01,2.86c-2.73-.38-6.15-2.85-8.1-4.98-.83,1-1.69.93-4.26.02l8.05,4.44,14.1,8.3,5.49,3.38c3.71,2.29,7.11,5.42,10.42,8.3l6.69,5.82c1.32-.08.23.42-.64.74-4.4-3.09-8.63-5.78-13.2-8.41-3.1-1.78-5.95-4.81-9.45-5.82l-4.34-1.26-.99.09c-.23.02-1.21-.07-1.08-.26l.83-1.18c.31-.44-.15-1.93-.76-2.13-4.48-1.42-8.77-4.25-13.04-6.18l-16.73-7.57-9.68-3.63c-2.11-.79-4.2-1.44-6.91-1.37,2.22,2.44,12.47,6.66,16.43,8.47l12.88,5.88,9.28,5.88,9.45,4.42c2.62,1.22,5.97,3.85,8.68,5.8l11.03,7.94,7.91,5.86c10.05,7.44,18.22,18.41,28.57,26.29-.31-1.09-.44-1.54-.56-1.89-.2-.58-.47-1.38-.12-1.32l2.19.39c-.44,1.52-.77,3.82.33,4.92l7.3,7.26c2.56,2.54,2.78,5.62,6.73,6.83,1.53,2.02,3.74,5.41,5.19,7.74l3.2,5.14,4.14,6.33,2.76,4.59c1.52,1.64-.76-4.13.81-2.18l1.16,1.45c3.09,3.86,6.49,7.98,8.93,12.52,5.87,10.9,11.29,21.5,16.35,32.76,2.53,5.64,4.15,11.31,5.68,17.31l5.62,22.02c1.19,4.65,3.69,20.19,4.35,25.55l1.7,13.89c.05.41.72,1.67.83,1.98.15.41-.34.86-1.07,1.43l.38,5.55c.02.32,1.01,1.23,1.38,1.57l-1.17,20.64-1.29,22.77c-.83,14.63-3.68,29.1-8,43.06l-4.57,14.77c-6.42,20.73-17.67,43.53-28.42,61.9-.28.48-1.34.05-1.12-.15.26-.23-.95.1-1.17.43-2.44,3.62-6.85,9.06-9.15,13.2-2.93,5.28-6.19,8.7-10.12,12.99l-6.3,6.88-3.86,4.98-13.64,12.25c-2.25,2.02-4.61,3.73-7.67,4.5.87-3.23,6.47-5.03,3.95-7.49l3.56-5.18c.04-.69-.88-.29-1.43.18-4.86,3.01-9.33,8.52-12.3,12.77l-.12-1.16c-.02-.18-.04-.84-.2-.74l-1.29.82c-.5.27-1.27.7-.4.22l-1.28-.88-4.75,3.56.46-3.58c.03-.21.36-1.15.44-1.34s-.48.06-.95.18l-3.32.88c-.33.09-1.35-.18-1.59.04l-2.85,2.63,2.46-5.04c3.43-7.02-5.22,4.39-7.03,4.23l-.29-4.85c-3.26-.76-3.96-4.69-4-7.12-.01-.64-1.2-2.17-.77-2.52.51-.41,1.9-.94,2.13-.9l.64-7.21-1.99,2.61c.3-3.93-.97-7.72-1.54-11.95l-1.48-10.94-5.44-18.14c-.51-1.7-2.19-3.52-3.05-5.2-5.78-11.35-15.45-20.48-26.09-27.32-5.24-3.36-10.58-5.49-16.45-7.81l-16.75-6.63c-3.91-1.55-7.57-2.62-11.25-5.15-.59-.4-1.74-.04-2.94.64-3.13-5.46-10.08-7.31-14.33-11.54-10.6-10.55-11.44-36.78-10.87-36.94-2.56.73-2.08.93-4.27,1.54l-4.54,1.26-4.42,1.56c-3.25,1.15-7.29.95-10.65,1.13l1.38,2.28c-5.64.41-9.71.05-14.75-1.31-1.55-.42-3.84-.1-5.48-.26-9.07-.92-20.79-7.18-19.32-2.56l-.37.97-1.16-3.16c-3.99,12.38.36,6.17-1.21,13.96l2.83,2.29-4.09,11.54c6.18-4.38,5.68-11.57,8.49-11.62l-3.86,7.56,1.12.44c1.7.66-1.51.19-4.26,6.82-1.97,4.74-6.61,7.74-9.79,11.78-.7.89-2.77,1.44-3.51,2.02-5.78,4.56-11.7,8.44-18.63,11.31l-12.13,5.02-12.2,5.15c-14.63,6.18-29.96,14.54-37.24,29.42-5.48,11.2-7.79,23.64-8.23,36.23l-.25,7.22c-.3.29-1.01.99-.94.92l-1.36-5.33c-.07-.26-.15-1.55-.17-1.82-.02-.24-.57.05-.58.29l-.05,1.45c-.14,3.72-1.78,5.45,1.94,7.77l11.17,6.96c7.73,4.82,5.9,2.71,12.2,6.81,1,.51,1.22.62.27.14l-2.32.53c2.91,1.64,5.42,2.92,8.25,4.16l5.63,2.46c.27.12,1.66.33,1.4.26s.38-1.34.62-1.24l10,4.14c8.72,3.61,17.31,5.48,26.34,7.76,3.87.98,7.55,2.32,11.52,3,7.86,1.34,15.5,3.36,23.39,3.26l22.09-.26c5.75-.07,11.1-.29,16.65-1.36l5.15-1,12.45-1.68c4.33-.58,7.81-2.42,12.45-2.25l-3.25,2.38c-.07-.23.08.26.19.64ZM505.39,227.4c-1.62-.25-3.03-.25-4.27.02,1.62.25,3.03.25,4.27-.02ZM436.97,246.17l9.27-2.22,10.4-2.12,9.69-2.08c4.74-1.02,9.16-1.5,14.08-1.98,15.49-1.52,30.84-2.85,46.39-1.09,7.22.81,8.56.28,13.69,1.02l11.36,1.64c3.11.45,6.26.98,9.33,1.69l9.68,2.25,9.65,2.36-4.76-2.62c2.83-.11,5.69.49,8.18,1.18.29,1.3.29,2.71,1.04,2.87l3.36.73-2.7-2.11,6.89.59c-1.31-2.32-3.48-2.25-5.86-2.83-4.91-1.19-9.35-3.19-14.04-3.08l2.41.81c.42.14.4.81.4,2.24l-18.82-4.33-8.14-1.51-11.98-2.19c-6.24-1.14-12.45-.34-18.61-.89-13.27-1.18-25.54-.1-39.08,1.09l3.47-1.94c-1.82.07-3.92.8-5.86.93l-6.27.44-7.78,1.23c-24.58,3.89-43.13,11.18-65.72,20.78-14.57,6.2-31.46,15.86-43.65,25.84-4.46,3.66-9.73,6-13.19,10.93l9-6.89c3.75-2.87,7.72-5.25,11.68-7.67l12.12-7.41,5.14-3.23c3.3-2.07,7.05-3.6,10.2-5.18-.07.87-.14,1.65-.14,1.62-.03.63,13.98-7.21,16.07-8.18,6.23-2.89,12.8-3.91,18.56-7.37,4.96-2.98,17.24-7.31,22.86-8.52l11.26-2.43c.65-.14,13.62-3.68,14.48-1.4l-11.62,2.16c-2.45.46-4.87,1.18-7.29,1.82l-13.26,3.46c-3.43.89-6.73,1.43-9.71,3.23,2.98-.55,5.15-.99,7.82-1.64ZM565.77,238.71c-2.43-1.09-4.91-1.77-7.8-1.78,2.46,1.08,4.85,1.74,7.8,1.78ZM607.24,243.35l20.13,9.1c3.22-1.03-21.31-10.23-20.13-9.1ZM649.72,306.03c3.97,1.55,7.31,4.78,10.63,8.13l3.26-1.08,7.83,6.61,9.95,8.85c1.36,1.21,3.44,2.97,4.54,4.32l7.21,8.82c3.43,4.2,6.29,8.34,9.94,12.35-4.3-7.02-14.24-20.17-19.78-26.09l-13.41-14.33c-3.26-3.48-7-6.28-10.97-9.59l.62,3.05c-5.02-3.71-7.16-7.98-13.02-11.84-.56,1.25-.77,1.44-.53,1.63l1.39,1.09c.22.18-1.14.89-.96,1.12l.92,1.16c.38.48.97,1.98.27,1.81-3.53-3.35-7.3-5.61-11.29-8.25-.58.12-1.64.35-.99.21-.49,1.43-.62,1.71-.85,1.41-.34-.45-.76-.89-.56-1.11l1.15-1.33-4.08-.21c-.15.13.88-.8,1.12-1.02.13-.12-.06-.25-.39-.48-5.61-2.95-9.13-6.23-13.19-8.29l-8.19-4.15c-2.57-1.3-4.99-2.55-7.87-3.32-1.84-.49-3.45-2.47-5.14-3.23-20.96-9.38-43.56-15.11-66.56-15.66-6.17-.15-11.67-.06-17.76-.53-2.1-.16-5.57-.58-6.49.94-.1.17.14,1.1.21,1.12.71.2,1.32.29,1.3.54s-.2.92-.45.89l-1.48-.15c-8.43-.88-8,2.1-10.76-1.34,4.88-2.22,9.14,1.92,10.59-1.31l-10.24-.63c-1.55.11-4.57,1.05-6.22,1.29l-11.7,1.68c-.22-.11.63.32,1.08.55l12.91-1.18c-1.94,2.52-4.1,1.49-6.59,2.4,10.05.63,20.08-.65,30.56.45-.32,2.28-.34,2.93.48,4.39-9.01.72-14.82-.01-25.53.91-19.75,1.71-38.73,5.97-57.42,12.55-11.37,4-22.41,7.66-32.55,14.13l-12.7,8.11c-21.43,13.69-42.58,33.46-57.35,54.13-4.2,5.87-8.48,11.43-12.07,17.68l-4.84,8.42c-4.07,7.08-1.44-.81-8.07,11.96-1.14,2.2-3.23,4.74-4.05,6.84l-3.97,10.12c-1.86,4.75-3.41,9.63-4.84,14.52-.9,3.1-2.52,5.52-3.64,8.16-3.92,9.21-6.11,19.18-8.36,29.17-2.94,13.07-4.99,25.91-4.65,39.29l.18,7.03c.06,2.19-.08,4.7.1,6.78l.77,8.51c.51,5.68.19,11.5,2.04,16.82.62,1.79.74,2.35.59,4.33-.19,2.56,3.17,12.99,4.33,16.29l4.74,13.47c.21.61.46,1.47.21,1.82l-.83,1.13c1.86.11,3.03.97,3.47,2.69,1.42,5.61,5.99,13.46,7.83,19.96,1.04,3.69.23,6.88,3.92,9.67,1.15.87,2.12,3.62,2.98,5.2l6.07,11.23,3.29,3.5c2.03,2.15,3.32,4.62,4.9,6.99l5.3,8c-.4.57-1.02,2.14-.6,2.59,7.56,8.05,3.98,5.58,13.21,13.85.88.79.62,3.46,2.83,3.85l-.1-6.11,2.58-8.86,2.3-7.69c.1-.33-.34-1.56-.08-1.72l1.15-.7c-.64-2.12.23-4.4,1.41-6.32l6.21-10.18.91,2.18c1.6-4.2,3.65-7.28,6.55-10.45,1.46-1.59,3.28-2.57,5.01-3.92l12.41-9.76c8.63-6.79,18.92-11.57,29.52-14.86l19.6-6.08c9.73-3.02,18.66-7.33,25.19-15.16,3.06-3.67,2.85-8.89,4.1-13.28l2.07-7.23c.48-1.67,2-3.43.2-4.82-1.29-1-2.39-2.57-3.46-3.6l-11.37-10.9c-6.17-5.92-9.93-13.7-13.93-21.27-1.71-3.24-4.2-6.18-5.55-9.52-2.72-6.68-4.66-13.21-6.89-20.01-2.38-7.23-4.21-14.28-5.22-21.91-.84-6.26-1.87-12.27-1.79-18.71l.14-10.43c.08-5.91.69-11.51,2.3-17.09,2.19-7.56,3.74-15.09,6.58-22.49,6.27-16.3,13.46-25.14,25.76-37.47,3.95-3.96,9.53-5.96,14.23-8.68,2.73-1.58,5.3-3.08,8.03-3.21l.92-1.55c.22-.36,1.52-.08,1.99-.05l3.29.24-1.66-.66c-.27-.11-.37-.31-.31-.56.69-2.93,4.81,2.29,10.95-2.41,1.82-.15,4.48-.35,6.6-.76l7.43-1.45-10.63.17c3.27-.78,6.68-1.69,10-1.79l13-.4c9.61-.3,25.3,3.35,32.09,9-8.69-2.69-13.77-7.09-23.13-6.8l9.74,2.47c6.4,1.62,18.27,8.83,18.35,7.93l.11-1.17c8.62,7.09,7.01,3.13,15.13,11.5,5.68,5.86,10.77,11.67,14.52,18.98,3.54,6.92,8.59,13.63,8.95,21.45l.42,8.95c.3,6.41,1.35,12.47,2.05,19l.96,8.94c.31,2.85-.26,5.49-1.88,7.44l-1.52-1.98-.77,5.12-2.6-4.25c.35-12.72-1.41-25.15-6.12-37.35-.77-1.99-1.1-4.45-.62-6.42l1.93,5.33c.08-4.01-.81-6.66-3.55-8.39l1,2.97-1.24,6.06-7.33-12.58c-1.98-3.39-2.6-7.83-6.27-10.1,6.71,11.69,12.45,22.84,11.98,37.03-1.2-1.72-1.8-3.3-2.35-5.39-1.49-5.63-3.96-10.99-7.39-15.52-5.19-6.85-5.16-11.64-10.54-16.44-2.14-1.91-4.65-3.15-7.01-4.75-12.09-8.22-15.84-10.12-30.91-14.08l2.28,2.62-11.45.11.17-1.32c.03-.25-.95-.55-1-.31l-.37,1.84c-7.84.7-15.44,3.76-22.8,7.15-12.22,5.64-26.49,19.8-29.77,32.68-1.65,6.47-2.82,12.6-3.9,19.05-3.31,19.83-.79,30.78,2.77,50.05,3.02,16.36,14.53,33.88,25.17,46.05-.24.36-1.15,1.16-.89,1.48l1.08,1.3c1.74,2.11,4.29,2.54,6.28,3.66,9.29,5.22,18.94,8.02,29.63,8.94,2.39.2,3.77.03,5.73-.43,4.06-.96,8.06-1.1,11.94-3.11,20.26-10.54,36.49-33.54,42.79-54.74,2.23-7.49,2.33-14.93,3.94-23.06l.56,7.7,3.15-11.03c1.03,3.12,1.31,5.39,1.91,9.04l1.5-8.55c.34,5.25-.68,9.62-1.04,14.73l2.01-2,.7,4.9,1.25-3.14.66,6.68,1.91-5.11c.18,7.58-.8,14.76-1.84,23.01,2.58-5.67,2.55-11.5,3.87-17.48l-.92,12.53c-.32,4.38-2.3,8.31-2.44,12.14-.18,4.82-2.15,9.28-3.66,13.89-1.59,4.88-4.06,8.91-7.17,12.89l-7.93,10.17c-1.8,2.31-3.5,4.77-5.77,6.64-2.15,1.77-2.8,3.83-2.43,6.74,1.27,9.87-1.83,7.5,3.49,18.82,3.34,7.13,12.39,11.41,20.02,12.37,2.8.35,5.28.42,8.2,1.42,9.55,3.27,18.98,6.11,27.22,11.54l-2.05.5c3.7-.03,18.01,9.08,20.65,11.11l13.33,10.25c3.96,3.05,7.17,7.69,10.49,11.6,4.23,5,7.07,10.87,10.68,16.34,2.96,4.48,4.71,9.13,6.09,14.2l1.26,4.65c.23.86.25,2.62.33,3.71.23.87.99,2.88,1.31,3.7l3.76-3.81c2.82-2.85,5.61-6,8.05-9.15,1.8-2.33,2.81-5.08,6-5.78l4.4-6.95c2.03-3.2,3.3-6.78,5.14-10.05,5.47-9.74,10.37-19.21,15.1-29.33,2.51-5.37,5.03-10.37,6.93-16.02,1.87-5.57,4-10.97,5.14-16.81l4.43-22.69c3.75-19.19,6.29-39.06,2.1-57.99l-1.8-8.13c-.35-1.56-6.85-39.65-6.22-37.93l-3.93-10.76.67,5.41-7.84-18.73-3.32-5.47-8.16-15.53c-3.41-6.49-6.39-12.52-10.92-18.39l-.09,2.81-9.08-13.65c.52-.96,1.21-2.35.68-2.84-3.85-3.55-3.06,1.75-6.22-6.56-4.24-1.9.45-.35-5.17-4.91-1.42-1.15-2.95-3.02-4.27-4.55l-9.93-11.59-8.07-9.47c1.41.18-2.91-5.65-2.11-4.83l-6.05-6.23c-.75-.77-1.27-2.01-1.34-2.84ZM641.39,294.92c-1.08-1.63-1.79-2-2.95-1.72.84.65,2.18,1.42,2.95,1.72ZM313.85,318.51l12.29-12.67c3.1-3.19,7.67-4.67,9.84-8.95l-7.9,6.16c-5.05,3.94-9.84,8.12-13.95,13.06l-3.76,4.52c-1.34,1.61-2.59,2.76-4.03,4.82.93.64,4.79-4.13,7.51-6.93ZM287.71,348.98l5.04-6.14,11.39-14.46c-3.43,1.39-4.56,4.23-6.47,6.72l-4.12,5.39c-2.22,2.91-5.58,5.07-5.83,8.5ZM546.25,357.33c-1.4-1.29-2.6-2.1-4.12-2.75.88,1.74,2.26,2.7,4.12,2.75ZM707.58,361.68c.43-1.19-.4-2.68-1.8-3.49.31,1.25.87,2.31,1.8,3.49ZM278.59,362.88c1.31-.72,2-1.05,2.11-1.41l.39-1.37c-1.36.46-2.73,1.87-2.5,2.78ZM560.91,371.17c-1.61-2.73-3.49-4.56-5.7-5.84,1.61,2.73,3.49,4.56,5.7,5.84ZM717.83,379.47c-1.05-4.34-2.75-8.53-6.47-11.14l6.47,11.14ZM573.99,378.89c-.75-2.29-1.44-3.55-2.54-4.91-.05,2.27.8,4.02,2.54,4.91ZM575.86,383.87c.16-2.35-.47-3.41-1.81-4.21,0,1.8.66,3.27,1.81,4.21ZM295.49,393.41l1.97-3.84c-.89.17-2.49.8-2.37,1.48s.45,2.62.4,2.35ZM271.31,546.54l-2.28-8.84c-1.62-6.28-1.6-12.69-1.85-19.27l-.44-11.79c-.07-1.89.43-3.98,1.04-5.65-.57-26.67,5.52-58.52,15.23-83.3l7.91-20.19c-7.41,12.02-11.42,25.15-15.79,38.42-1.12,3.41-1.61,6.78-2.42,10.31-2.84,12.45-5.93,24.55-7.11,37.22-.33,3.54-.1,6.9-.17,10.26l-.21,9.49c-.07,3.28-.05,6.4.15,9.72l.76,12.52c.61,9.98,2.39,19.94,5.2,29.42l3.88,13.09c.44-1.95-.38-3.36-.72-5.12l-3.18-16.28ZM416.05,455.86c.2-3.39-.31-6.17-1.32-8.99-.32,3.11-.08,5.97,1.32,8.99ZM572.87,475.39c2.65-7.21,4.96-14.2,4.03-22.1-1.4,5.16-1.89,9.87-2.6,14.82-.72,2.48-1.48,4.78-1.43,7.28ZM251.5,606c-1.89-4.92-4.33-9.52-5.71-14.22l-1.7-5.76-4.2-15.9c-1.75-6.65-4.02-16.86-4.89-23.53-.7-5.42-1.67-10.49-2.7-15.71-.95,3.99,1.1,17,1.92,20.84l3.27,15.39c3.17,14.93,7.81,29.12,13.86,43.13.35.8,1.95,2.49,2.21,3.33.98,3.09,1.91,6.74,4.2,8.77l-6.27-16.34ZM470.73,550.59c.47-.51.81-3.02.19-3.57s-1.78-1.19-3.05-1.81c.18,2.86.96,4.57,2.86,5.39ZM510.26,554.14c-2.83-.37-5.29-.37-7.71,0,2.93.47,5.35.45,7.71,0ZM595.57,573.94c-1.29-1.2-2.98-1.66-4.26-.99l4.26.99ZM606.5,577.95c-2.01-1.2-4.18-2.16-6.88-2.59,2,1.28,3.89,2.17,6.88,2.59ZM418.48,614.4c-4.76.61-8.62,2.63-11.47,5.31l11.47-5.31ZM372.53,666.02c.84-1.79,1.17-3.24.63-3.77-.85,1.79-1.18,3.26-.63,3.77ZM532.44,730.52c3.39-.78,5.49-1.23,8.25-1.59l1.67-.22c.34-.04-.02-1.31-.2-1.63l-6.56,1.59c-1.32.32-2.9,1.2-3.17,1.85ZM524.55,730.8c-3.25.11-7.29.59-9.76,1.03-4.41,1.7,12.41.15,9.76-1.03ZM556.7,732.6c-2.06-.78-3.26-.47-3.33.97l3.33-.97ZM502.62,739.4c-1.62-.25-3.03-.25-4.27.02,1.62.25,3.03.25,4.27-.02ZM591.31,744.04l-4.21.91c1.74.48,3.09.06,4.21-.91ZM597.56,745.51l-1.13-1.18-8.01,4.45c3.45-.76,4.96-1.5,9.14-3.27ZM533.94,771.46c1.32.35,1.36.07-.05-1.37l-1.97,1c-.4.21-.01.26,2.02.37Z"/>
  <path d="M690.88,293.89c.79,3.24-10.67-7.67-9.92-7.99-1.82-1.45-3.73-2.76-4.92-4.99,5.52,3.69,10.05,7.86,14.84,12.99Z"/>
  <path d="M510.5,219.62c-4.4.21-8.45,1.24-12.4-.16,8.01-1.19,15.36-.87,23.26-.37l-10.86.53Z"/>
  <path d="M686.25,301.12c-2.89.8-4.65-2.37-5.89-4.29-1.09-1.69-4.05-2.92-3.68-3.51l1.02-1.61c.96-1.51,5.67,7.27,8.55,9.41Z"/>
  <path d="M231.17,569.84l-2.78-11.03c-.74-2.94-1.14-6.07-.98-9.24,1.73,6.78,3.28,13.35,3.76,20.26Z"/>
  <path d="M506.72,781.1c-4.33.31-8.34.4-12.54-.02l11.88-.94c3.89-.31,7.79-.18,11.82.16l-11.16.8Z"/>
  <path d="M232.12,572.53c1.77,2.64,4.61,15.18,4.47,18.15-1.8-6.11-3.45-11.97-4.47-18.15Z"/>
  <path d="M648.58,264.55c-1.62-.67-3.8-1.85-5.55-2.93l5.38-.66c1.56.26,2.18,1.02-.52,1.76-.1-.27.09.23.69,1.83Z"/>
  <path d="M694.5,309.63l2.85,4.01-5.68-4.92c.27-.63,2.07-1.99,2.77-1.78s1.32.92,2.82,2.21c.52-.16-.48.45-.79.46l-1.96.02Z"/>
  <path d="M551.02,775.35c-3.19,1.09-6.58,1.9-10.41,1.66,3.19-1.01,6.22-1.59,10.41-1.66Z"/>
  <path d="M570.35,718.94c-2.44,1.75-4.72,2.5-7.5,1.79,2.49-.96,4.85-1.65,7.5-1.79Z"/>
  <path d="M559.99,721.81c-2.52,1.41-4.79,2.13-7.53,1.79,2.47-1.1,4.84-1.85,7.53-1.79Z"/>
  <path d="M469.88,778.89c-3.7.71-6.32.2-9.02-.93l9.02.93Z"/>
  <path d="M656.17,268.18l2.43,2.82-5.26-2.75c.91-.86,1.3-1.34,1.53-1.18.35.23,1.02.77,1.3,1.11Z"/>
  <path d="M659.78,280.66l-6.22-4.15c2.71.24,4.83,1.53,6.22,4.15Z"/>
  <path d="M528.26,219.78c-2.31.56-4.54.78-6.41-.73,2.12-.49,4.36-.09,6.41.73Z"/>
  <path d="M703.69,307.4c-2.19-.47-4.9-1.79-3.32-4.5l3.32,4.5Z"/>
  <path d="M623.19,728.17l-5.31,2.61c.71-2,3.05-2.87,5.31-2.61Z"/>
  <path d="M624.13,730.75l-1.11.72c-.31.2-1.33-.81-1.01-1l1.44-.85c.19-.11,1.15-.18,1.43-.19.21-.01.34.63.16.74l-.91.58Z"/>
  <path d="M433.98,772.69c-2.3.49-4.59.18-6.37-1.64l6.37,1.64Z"/>
  <path d="M454.08,777.1c-2.66-.09-4.82-.42-7.1-.95,2.62-.49,4.92-.07,7.1.95Z"/>
  <path d="M378.22,752.53c-1.25.78-3.1-.09-3.95-1.68,1.14.1,1.85.44,3.95,1.68Z"/>
  <path d="M372.1,749.19c-1.46.74-3.34.17-4.06-1.96l4.06,1.96Z"/>
  <path d="M571.19,727.38c-1.3,1.18-2.88,1.6-4.89.9,1.36-.41,2.58-.66,4.89-.9Z"/>
  <path d="M689.41,290.42l-3.18-2.85c1.8-.09,2.81.9,3.18,2.85Z"/>
  <path d="M225.89,466.34c.01-1.47.38-3.19,1-4.82.36,1.71.03,2.75-1,4.82Z"/>
  <path d="M520.77,555.18l-1.34,1.48c-.36.39-1.59-.49-2.38-1.21l3.72-.27Z"/>
  <path d="M635.05,265.06l-2.37.14c-.57.03-.93-1.19-1.15-2.1l3.53,1.96Z"/>
  <path d="M548.32,222.03l-5.59-.05c1.49-.58,3.07-.56,5.59.05Z"/>
  <path d="M729.21,353.31l-2.11-3.21c1.52-.05,2.67,1.66,2.11,3.21Z"/>
  <path d="M300.63,310.85l2.7-2.72c.27,1.48-.64,2.62-2.7,2.72Z"/>
  <path d="M689.71,306.08l-2.29-1.94c.53-.42,1.36-1.11,1.44-.84l.86,2.79Z"/>
  <path d="M698.72,303.52l-2.36-2.59,1.77.23c.5.07.64,1.23.59,2.36Z"/>
  <path d="M497.07,219.77c-1.49.32-3.11.33-4.97.02,1.49-.32,3.11-.33,4.97-.02Z"/>
  <path d="M668.06,275.06l-2.82-1.44c1.16-1.55,2.34-.4,2.82,1.44Z"/>
  <path d="M343.33,734.39l-2.5-2.06c1.35-.36,2.17.33,2.5,2.06Z"/>
  <path d="M479.59,558.71c-.82-.72-1.65-1.42-1.38-1.67l1.37-1.23v2.9Z"/>
  <path d="M657.57,267.49l-2.5-2.06c1.35-.36,2.17.33,2.5,2.06Z"/>
  <path d="M329.54,284.29l-1.39,1.73c-.14.17-1.15-.09-1.01-.27l1.23-1.59c.58.06,1.76.19,1.18.13Z"/>
  <path d="M536.61,778.25c-1.24.27-2.65.27-4.27.02,1.24-.27,2.65-.27,4.27-.02Z"/>
  <path d="M490.82,780.33c-1.24.27-2.65.27-4.27.02,1.24-.27,2.65-.27,4.27-.02Z"/>
  <path d="M607.34,288.48c-8.12-3.58-15.65-6.82-23.86-9.16l-22.15-6.29c-3.42-.97-6.6-1.71-10.04-2.45l-10.23-2.22c-4.49-.97-8.93-1.83-13.54-2.56-2.98-.47-6.73.57-9.23-.4l.13-1.95c.03-.46-.95-.91-1.96-1.67,8.59-.98,17.22.66,26.05,1.73,3.59.44,7.25.61,10.79,1.34,22,4.54,42.83,12.89,62.94,23.07,2.46,1.24,4.4,2.86,5.86,4.82l-3.5-1.47c-1.3.97-2.74.95-4.2.3l-7.04-3.1Z"/>
  <path d="M579.95,267.84l1.09.99c.25.23.39,1.32.06,1.25-.38-.08-1.46-.31-1.87-.45l-8.51-2.79c-7.02-2.3-9.19-1.38-17.75-3.76,1.09-3.16,3.66-.7,5.39-.45,4.14.59,7.76,1.49,11.7,2.96,2.95,1.1,7.17-.22,9.89,2.24Z"/>
  <path d="M546.44,259.19c1.15,1.5-1.58,3.89-2.77,3.29l-3.87-1.95,6.63-1.34Z"/>
  <polygon points="593.98 274.34 585 271.91 587.38 271.03 593.98 274.34"/>
  <path d="M599.12,275.99c-1.14.19-2.39.32-2.9.1s-.61-1.37-.54-1.86l3.43,1.76Z"/>
  <path d="M515.8,257.28l-4.27,1.04c1.13-1.25,2.57-1.74,4.27-1.04Z"/>
  <path d="M618.39,285.02c-.62.48-1.77.2-2.74-.74.62-.48,1.77-.2,2.74.74Z"/>
</svg>