<?xml version="1.0" encoding="UTF-8"?>
<svg id="Layer_1" data-name="Layer 1" xmlns="http://www.w3.org/2000/svg" viewBox="0 0 1000 1000">
  <path d="M570.61,728.75l-6.73,1.64c-1.89.46-3.56.89-5.52,1.51l-.76.15c-.23.04-.74.69-.5.72,6.13.62,28.85-9.15,35.73-12.34,4.04-1.87,7.41-3.25,11.93-4.25-13.83,9.57-29.54,14.7-45.49,19.72-11.71,3.69-23.47,4.91-35.52,7.37l-8.8,1.79c7.69-.36,14.51-1.71,22.23-2.85,11.2-1.65,24.11-4.05,34.56-7.96.93-.35,1.4,1.99.71,1.93-2.54-.24-6.18-.18-7.56,2.58,7-1.14,13.63-3.33,19.59-6.2l5.45-2.62,13.71-7.02c-.51,2.43-2.56,2.84-5,4.2l7.26-1.81c-2.79,2.55-6.15,3.82-9.29,5.84l-8.07,5.2c.76.22,1.93-.44,3.17-1.1,4.3-2.31,9.9-4.44,14.4-5.35,2.97-.6,6.22-2.01,9.17-3.08l8.29-3.01c.36,1.9-.74,3.21-2.56,3.78-2.49.78-4.27,2.18-6.49,3.62-11.49,7.48-13.1,4.2-16.86,8.08-3.12,3.23-7.97,4.62-12.14,6.4l-13.17,5.62c2.09,1.03,3.01,1.26,4.05.84-1.25-1.3-1.48-1.62-.37-.82,3.47-.49,4.79-.94,7.18-2.38,2.35-1.41,5.41-2.28,7.92-3.47,2.89-1.37,5.47-2.09,8.35-2.83l9.67-2.47-11.78,7.16c1.93.9,3.04-1.51,4.43-2.12,3.59-1.57,7.3-2.85,10.78-4.59,4.13-2.06,7.7-4.29,12.36-5.34-6.34,5.33-12.92,5.13-19.91,10.53,5.15-1.35,9.6-3.36,14.34-5.56l16.2-7.53c-.79,1.85-3.73,3.41-4.85,4.36-.62.52-.47,3.13-1.2,3.14s-2.1-.26-3.56-.55l-5.95,3.27c-.32.17.53,1.37.35,1.69-.95,1.62-11.2,2.98-15.45,6.79l6.46-.51c-9.4,7.48-18.52,8.15-29.33,15.1l4.99.72c4.33-2.05,8.81-4.02,13.39-5.67,2.2-.79,3.77-2.01,6.39-1.56-4.34,3.61-11.38,4.24-15.99,7.42l2.52.19c.33.02-.17,1.06-.44,1.25-1.96.92-4.32,1.64-5.9,1.58-2.26,4.14-21.01,9.09-26.53,10.59l-4.42,1.21c-11.8,3.22-23.75,4.47-35.89,5.83-3.86.43-7.7,1.39-11.56,1.19l-34.98-1.79c-12.81-.66-24.71-3.74-37.17-6.34-11.6-2.42-22.64-4.9-33.79-8.75-7.84-2.71-15.94-4.94-22.76-9.44-2.12-1.4-3.61-2.36-5.97-3.52l-12.66-6.18c-1.08-.53-3.67-.13-4.78-.85l-14.07-9.06c-8.74-5.63-17.29-11.62-25.04-18.52l-12.61-11.22c-19.79-17.62-33.38-37.6-47.11-59.99-.84-1.37-.53-2.3-2.32-3.49-1.62-1.07-2.5-4.44-3.49-6.34l-3.15-6.06c-7.25-13.96-13.47-28.11-17.13-43.49l-1.61-.6c-.32-.12-.07-.94.1-1.91.24-1.38-1.32-3.07-1.75-4.25-2.6-7.1-3.96-14.42-5.44-21.86l-4.26-21.4c-3.38-16.99-1.02-20.64-1.88-36.45-.29-5.3-1.25-10.32-.75-15.77.52-5.71,1.12-11.19,1.98-16.8l1.67-10.84c1.19-7.73,4.13-15.26,4.91-22.99.52-5.22,1.86-9.06,3.49-13.91,8.38-24.89,8.39-30.68,22.08-55.15l13.9-24.86c3.59-6.42,9.72-13.08,10.67-15.29.13-.31,1.08.9,1.45,1.11,7.56-6.3,5.99-10.32,9.24-13.64l7.43-7.57c3.22-3.29,6.29-6.49,9.34-9.96,1.66-1.89,3.15-5.05,4.91-6.77l9.69-9.5,3.38-1.66c1.43-.7,3.8-1.99,4.8-2.92,9.88-9.22,22.64-18.13,34.13-25.25l11.96-7.41c15.77-9.77,77.24-31.55,88.36-30.86,4.07.25,7.95.26,11.73-1.23,8.89-3.5,6.52.79,8.14.52.64-.1,2.03-.71,2.68-.76l13.15-1.15,14.24-.49c2.26-.08,4.3-.2,6.54-.03l20.01,1.46c10.8.79,21.32,2.09,31.73,4.8,3.74.98,7.16,1.73,11.05,2.01,9.31.67,17.77,4.11,26.48,6.97,3.39,1.11,6.28,2.09,8.97,4.09,3.52,2.62,8.45,3.58,12.52,5.77,5.6,3.03,8.06,2.56,15.93,6.98l-.73,1.31,7.36,4.11-1.12.77c-11.37-6.46-22.82-11.52-35.03-15.66,13.64,6.46,29.32,12.99,42.01,22,8.11,5.76,7.14.79,10.01,8.6l-14.4-9.07c-8.58-5.4-12.85-7.66-22.6-11.84-1.07-.85-.66-.03-.27.59l18.06,9.97c3.39,1.87,6.75,3.74,9.84,6.02l16.09,11.9c1.65,1.22,2.97,3.1,3.65,5.27l-5.04-3.75-5.72-4.26-1.5.37c1.16-.29-13.66-9.5-14.63-10.12-7.99-5.14-13.97-7.99-22.4-11.8l-10.12-4.58c-3.55-1.61-7.23-1.89-10.61-3.91-1.91-1.14-4.32-2.04-6.33-.34,12.38,4.57,23.44,9.87,34.72,16.13.87.48,3.03.56,3.31,1.58.23.88.82,2.29,1.42,2.89.92.91,2.8-.49,3.75-.67,3.4.56,6.58,4.12,9.26,6.08l12.3,9,1.15-.34c.35-.1,1.13.64,1.4,1.06,2.02,3.13,5.55,4.7,8.37,6.68,3.88,2.72,7.14,7.02,11.79,8.84,1.64.64,3.39,3.29,5.33,5.15.72.51-.85.32-1.19.09l-2.96-1.98c5.3,3.4,12.19,14.61,14.68,12.89-.33-2.08-.34-3.26.01-5.17l-6.79-5.24c4.53.35,6.86,4.26,9.47,6.71l-2.04,1.93c-.19.18.96,1.13.85,1.36l-.54,1.14c5.63,4.79,7.71,9.52,13.78,15.19,6.34,5.92,10.16,13.26,15.04,20.31l9.21,13.3c-1.2-4.55-4.49-7.48-5.48-12.5,3.03,3.52,4.66,7.31,7.26,11.01,6.09,8.68,10.29,18.26,15.15,27.71.97,1.88,2.51,3.95,3.36,5.9l5.63,12.88c10.59,24.25,18.79,81.85,16.67,112.15-.86,12.26-1.13,24.05-3.46,36.07l-3.83,19.7c-1.71,8.82-4.44,17.06-7.16,25.58-3.01,9.44-6.55,18.07-10.97,26.89-3.66,7.32-6.4,14.72-10.45,21.84-8.25,14.5-17.64,27.57-28.68,40l-12.41,13.97c-3.51,3.96-7.52,6.68-11.6,10.14l-7.47,6.33c-.22.18-.99.61-1.16.71-.15.09-.08-.91,0-1.09l4.21-5.45c-1.77-.17-2.55-.24-2.16-.2l3.47-5.27c-5.68,1.63-8.35,9.49-17.28,12.1-1.74-.64-3.61-2.43-5.05-4.19l-5.16,4.04c-.54.42-.92.89-1.15.66l-1.13-1.16c-.97-1,4.46-1.89,3.5-6.01l-8.54,6.81c.28-1.86.69-2.19,1.67-3.57-1.19-1.81-2.48-3.64-3.83-5.28-4.29-5.17,1.88-10.87,1.28-14.93l-2.22,3.15c-.15-2.72-.03-5.47-.49-7.76l-3.93-19.67-2.37-10.36c-.72-3.15-3.91-6.13-4.87-9.25-.8-2.59-1.6-4.82-3.09-6.9-7.33-10.27-21.57-22.6-33.29-27.3-8.63-3.46-17.33-5.97-25.53-10.29l-6.12-3.23c-2.75-1.45-5.55-2.28-8.41-2.47-1.37-1.38-3.17-3.54-5.11-4.65l-6.86-3.93c-9.59-5.49-13.91-28.94-13.68-40.08-6.98,2.52-13.83,5.3-21.02,7.42-7.97,2.35-25.15-.78-33.22-3.77-2.76-1.02-5.24-1.91-8.09-2.78l-1.68,15.71c-.55,5.19-3.5,9.84-4.91,15,3.92-5.2,5.62-11.25,8.38-17.44.21,17.58-13.94,32.76-28.28,40.45-10.63,5.71-21.24,9.83-32.61,13.28-8.9,2.7-16.19,7.28-23.49,12.91-3.85,2.97-8.3,5.36-11.38,9.21-9.09,11.37-13.36,24.93-14.3,39.41-.32,4.96-.99,9.67-1.55,14.42l-.94,1.03-.59-4.92-1.46,6.09c15.42,10.48,31.11,20.74,48.62,26.49,10.87,3.57,21.41,6.7,32.51,9.56,5.76,1.49,11.55,2.19,17.43,3.35,9.93,1.96,22.54,3.29,32.55,2.53,15.68-1.19,31.13-1.78,46.35-5.88,6.87-1.85,8.95.21,23.12-4.69l7.18-2.48c-.07,1.32-1.33,2.78-2.55,3.08ZM508.59,220.84c-1.5-2.69-3.71-1.48-5.74-.14l5.74.14ZM544.27,221.89l-6.49-1.03c2.02,1.66,4.3,1.8,6.49,1.03ZM480.61,222.51c-7.99.11-14.98.79-22.35,2.96,7.78-.15,15.18-1.36,22.35-2.96ZM572.24,226.31c-2.35-.89-4.51-1.48-7.81-1.8,2.24,1.33,4.83,2.24,7.81,1.8ZM363.61,266.98c-5.58,3.77-10.47,6.94-14.84,10.83,3.8-1.4,6.17-3.82,9.31-5.38,3.29-1.64,6.45-3.34,9.76-5.34,3.13-1.89,7.85-5.4,11.54-6.57,1.71-.55,2.74-3.52,2.57-.23,12.62-6.88,25.75-12.75,40-17.53,6.85-2.29,13.88-3.63,20.93-5.31,32.65-7.78,77.35-11.04,110.16-4.57l17.33,3.41,13.33,3.1c-2.56-1.52-5.1-2.12-8.05-2.88l-6.96-1.79c-10.07-2.59-14.55-1.44-19.63-5.67-.43.48-2.32,1.38-3.17,1.16l-5.74-1.47c-1.63-.42-2.14-.4-3.91-.49l-16.58-.84-13.35-.21c-5.34-.08-10.75.34-16.26.78-11.24.9-17.1-.66-27.66,2.14l7.18.49c-10.77,1.99-20.27,3.87-30.41,6.43l-12.96,3.27c5.72-3.24,11.35-4.32,16.98-5.63l17.02-3.95c-2.26-1.23-4.65-.31-7.01.26l-12.89,3.1c-10.71,2.57-20.92,5.92-30.99,10.35l-14.97,6.59c-5.93,2.61-11.6,5.03-17.58,8.2-1.18.63-2.09.59-3.32-.28l-3.4,2.28,3.03-.11-2.26,1.69c-.41.3-1.56-.21-2.56-.41.36,1.02-.5,2.49-1.76,3.04-.81.36-1.52.05-2.43-.74l-2.58,1.52,2.15.78ZM578.64,227.39l-3.47.13c1.59,1.17,3.19,2.16,3.47-.13ZM563.81,231.25c-1.74-1.41-3.2-1.7-5-1.08,1.75.5,3.45.85,5,1.08ZM591.49,238.99l6.42.99c-2.86-1.98-19.16-8.1-22.59-6.13l7.56,2.82c1.3.49,2.51.39,4.13.9l4.48,1.41ZM671.8,417.97l1.41-.03c.24,0,.13,1.89-.1,1.96l-14.94,4.57c-3.48,1.07-6.09,2.96-10.03,3.19l-27.42,1.59-17.24.27c-3.15.05-8.09-.03-10.43,1.09-.4.19-.64,2.6-.98,2.32-2.14-1.72-2.61,2.88-3.64,1.3-.3-.46-.95-1.51-1.19-2l-.89-1.81c-.19-.39-1.45-.15-2.03-.1l-5.3.46c-4.85.42-9.62.5-14.72.54-5.93.05-13.21,1.54-17.2-.26l4.4-1.72c1.86-.73,4.63.45,6.36.16,2.74-.47,6.16-1.09,9.72-1.71-4.68-.87-9.41-.33-14-.35-3.32-.01-5.61-.54-8.67,1.1-2.27,1.21-21.27-.18-28.45,1.17l-13.72,2.57c-9.27,1.73-18.34,2.42-27.71,3.98l-15.7,2.62c-4.43.74-8.67,2.03-12.99,3.3.39,16.73,6,38.55,15.63,51.8l11.35,15.62c5.87,8.08,14.28,12.35,23.44,15.26,12.74,4.04,26.8,4.56,38.33-2.53,9.66-5.94,17.07-13.45,23.82-22.59,4.67-6.32,7.71-13.38,11.63-20.32l2.86-5.07c4.53-8.02,5.31-25.51,8.93-33.89l1.75,9.26c3.79-4.09-.44-12.43,1.9-14.64.19-.18,1.07.77,1.08,1.14l.62,21.03c.13,4.4-1.17,8.67-1.87,12.84-.35,2.11-1.97,4.06-.59,6.18,3.66-9.02,3.89-17.88,5.93-26.91.1,3.37.09,6.29,0,9.3l-.15,5.17c2.06-8.28,1.48-18.73,1.33-27.63,2.42,2.48,2.02,4.81,1.44,7.49-.39,1.78.47,3.46.85,5.28,1.17,5.74-.56,11.64-.71,17.74l3.27-11.87c.83,15.57-2.18,24.3-6.21,38.34-1.31,4.55-3.76,8.5-5.78,12.81-3.03,6.47-7.14,12.83-11.77,18.23l-6.87,8,2.11-.34c.19-.03.88.2,1.08.23.19.02-.25.4-.52.7l-2.02,2.19-1.4-2.09c-7.37,6.11-.38,8.12-2.03,12.89-1.21,3.51-1.41,6.94,1.36,9.77,1.37,1.4,2.61,4.65,3.5,6.46,3.43,7.01,10.32,8.32,16.95,10.1,8.28,2.22,25.9,8.7,33.66,12.53l13.86,6.83c6.65,3.28,11.77,8.77,17.99,12.59,5.16,3.18,8.99,7.5,13.03,11.99,4.31,4.79,7.57,9.89,10.86,15.47,3.99,6.76,7.72,13.22,9.74,20.87l3.35,12.69,11.59-14.56c6.47-8.13,12.23-15.41,17.18-24.37,4.99-9.03,9.61-17.73,13.61-27.19,2.78-6.58,6.04-12.66,8.26-19.49,2.47-7.62,4.88-14.95,6.52-22.76,6.22-29.55,9.15-58.14,3.41-87.94l-5.18-26.91c-1.08-5.59-1.24-11.15-3.65-16.12l-.44,4.07c-2.17-5.34-3.43-9.84-4.92-14.92-1.08-3.66-3.5-6.38-5.19-9.51l-8.85-16.4c-3.48-6.46-2.19-7.12-4.14-9.09-.11-.11-.28.34-.28.51v1.49s-.22-.3-.22-.3l-10.24-14.82-13.69-20.57c-2.28-3.43-6.12-5.99-8.69-9.18l-13.08-16.25c-1.63-2.02-4.62-3.96-5.75-6.22-1.29-2.59-2.47-4.86-4.62-6.86l-13.03-12.14c6.48.6,5.2,2.25,11.73,7.54l8.17,6.63.58-4.53c.61.38,2.55,1.91,2.91,2.34l-1.62.2,4.42,3.87,10.4,8.88c9.82,8.38,15.57,18.83,23.91,27.38-5.53-10.49-13.27-18.07-20.36-26.73-15.1-18.43-26.49-22.21-29.23-24.86s-5.06-4.69-8.63-5.59l7.98,7.29c-4.17-.89-6.78-2.76-9.83-4.73l-18.71-12.09c-5.13-3.32-10.25-6.05-15.93-8.27-4.18-1.63-7.95-3.96-11.83-6.03-17.68-9.46-40.92-15-61.73-16.04l-16.77-.83-14.28-.24-12.6.17-5.21,1.02c-2.52.49-4.53.25-6.59,1.2,12.44.7,12.06-2.26,25.1-.92.53.05,11.62-.51,7.27,1.48-.27.13-1.36.56-1.82.54l-15.64-.5c-3.15-.1-5.62-.13-8.49.7,2.59,1.25,4.64.46,7.02.57l11.68.5,14.99.95c3.42.22,6.91.31,10.29.63,11.92,1.16,31.91,4.56,43.11,8.43l17.04,5.89c10.63,3.67,20.33,8.42,29.94,14.13-2.93.87-4.59-.25-6.83-.5,2.9,1.66,5.5,2.55,6.44,5.71l-19.62-9.38c-5.58-2.67-11.59-4.75-17.6-6.44l-22.99-6.48c-3.68-1.04-7.14-2.14-10.9-2.75l-11.72-1.9,3.3-1.43-8.26-.78-12.65-1.07c-3.56-.3-6.27-.2-9.99.03l-30.46,1.85c-16.28.99-31.77,6-47.46,10.32l-8,2.2c-1.88.52-33.02,11.87-30.74,15.33-9.85,5.18-21.42,13.31-30.58,20.37l-6.87,5.29c-11.72,9.03-25.6,27.09-34.39,39.35l-7.35,10.25c-1.84,2.57-3.02,4.81-4.92,7.33-4.31,5.73-8.31,11.89-11.89,18.15l-3.8,6.65c-.55-.24.93.4,1.32.56l-6.85,15.03c-1.29,2.83-2.32,5.62-3.4,8.59l-8.37,23.1-3.89,12.86-3.49,13.75-1.56,9.42c-1.46,8.83-1.67,17.54-1.51,26.44.07,4.13.07,8.27.49,12.34l1.35,12.86c.59,5.63,1.03,10.97,2.26,16.37,5.28,23.32,9.55,28.1,17.46,48.76,2.7,7.06,5.43,13.7,8.94,20.37l6.51,12.39,8.27,11.48c6.92,9.61,10.92,18.35,22.63,30.03.52-8.91,2.56-17.32,6.29-25.53,1.78-3.92,3.31-8.15,5.54-11.77,3.61-5.87,7.73-11.71,12.79-16.36-1.05.96,17.22-12.85,17.51-13.05,12.14-8.48,25.25-13.58,39.36-17.38,6.18-1.66,11.94-3.94,17.87-6.37,7.47-3.06,14.89-7.24,18.57-14.67,1.87-3.77,2.31-8.6,3.36-12.68l2.45-9.54.61,5.92.74-5.73c-5.23-4.21-8.78-8.74-13.36-12.89-3.47-3.15-6.48-6.23-9.12-10.25-6.04-9.19-11.79-18.45-16.16-28.64s-6.39-19.95-9.3-30.38c-.29-1.04.2-3.31.13-4.31l-.73-10.09c-1.9,2.8-.4,4.95-.92,8.06-.49-2.06-.62-4.13-.74-6.69-.45-9.61-7.45-13.04-4.26-45.63,1.15-11.7,4.58-22.7,10.32-33.09,2.96-5.35,6.7-10.22,10.27-15.29,2.23-3.17,4.65-5.66,7.42-8.36,7.09-6.91,14.34-13.63,23.75-17.52,6.04-2.5,11.67-5.87,17.93-7.79,9.17-2.82,18.4-5.15,27.93-6.74,11.06-1.84,22.12,1.23,32.79,3.66,16.37,3.74,32.84,13.47,42.68,26.93l6.62,9.05c1.34,1.84,2.56,4.11,3.56,6.05l-4.39-3.92c-2.68-2.39-4.73-5.77-7.15-8.59-2.24-2.6-5.03-4.96-7.53-7.43-2.99-2.95-6.06-5.44-9.73-7.39-3-1.59-5.53-3.61-9.28-3.67,9.48,5.43,17.21,11.82,24.57,19.68l5.26,5.61c1.33,1.42,1.78,2.31,2.63,4,3.46,6.84,8.31,13.09,10.35,20.66l2.02,7.49c.97,3.61,1.55,7.41,2.27,11.1,8.95.59,17.29.52,25.95,1.6,1.79.22,4.29,1.41,6.38,1.51l16.55.81c2.64.13,5.34,1.67,8.68,2.32l-1.38-2.15c.76.09,2.49,1.09,2.72,1.58l-4.57,1.95c5.87.07,10.01-1.2,15.84,1.43l-4.91,2.87,5.62.1c-3.24,6.61-10.03,2.4-12.21,5.43l9.77.66c.81,1.16,2.39,2.49,3.61,2.46ZM488.38,254.6c-.03-.23-.21-1.55-.21-1.54l-4.16,1.75,4.37-.21ZM416.93,272.27c.35-.13,1.97-1,1.62-1.1l-1.07-.31c-.24-.07-1,.2-1.22.32l-1.24.69c-.24.13.02,1.11.28,1.02l1.63-.62ZM626.35,275.09c-1.48-1.74-2.99-2.49-5.07-2.7,1.43,1.34,3.15,2.26,5.07,2.7ZM408.42,274.86l-4.26,2.1c2.05.54,3.76-.04,4.26-2.1ZM402.83,278.31c-2.84-.18-4.54.75-5.67,2.74l5.67-2.74ZM347.65,279.97c1.95-.6.75-1.14-.48-.99-4.66,3.63-8.94,6.78-12.72,10.37,4.94-2.82,8.64-5.99,13.2-9.38ZM380.23,294.92c2.76-1.03,3.78-1.8,4.83-3.46-2.15.81-3.78,2-4.83,3.46ZM325.15,296.99c2.27-.35,3.76-1.82,4.34-3.68-1.64,1.25-2.95,2.34-4.34,3.68ZM318.87,303.25l4.46-3.39c-2.26-.13-4.07,1.37-4.46,3.39ZM372.06,300.71s-.32-.22-1.37-.97l-4.24,3.92,5.61-2.96ZM306.36,315.24l10.59-9.63c1.82-3.28-13.51,10.25-10.59,9.63ZM359.72,309.05c.61.07-.61-.07-1.21-.13l-1.26,1.63c-.14.18.9.46,1.04.28l1.44-1.78ZM499.32,316.77c-1.97.09-2.79.39-3.64,1.03,1.41.08,2.6-.33,3.64-1.03ZM302.2,320.8l2.11-3.55c-1.72.08-2.98,1.94-2.11,3.55ZM534.97,322.61c-2.91-.91-16.37-3.73-18.33-2.42l11.99,2.04c2.03.35,4.19.45,6.35.38ZM535.68,323.19c5.44,2.16,10.14,3.87,15.92,4.84-1.61-1.47-14.68-5.97-15.92-4.84ZM282.74,344.29c4.36-4.98,7.58-9.67,10.99-14.68,1.4-2.06,4.47-2.51,4.68-5.9-3.35,3.21-7.09,6.38-9.92,10.5l-4.39,6.38c-.91,1.32-1.77,2.36-1.36,3.71ZM541.2,399.65c.1-.03-.47-1.31-.29-1.37,1.36-.47,4.15-.53,5.66-.06l-5.32.99,6.16.31c.19-1.2.06-1.53.42-1.63s1.73-.31,2.21-.32l28.23-.74c.2-1.23-.14-3.02-.59-4.36-4.54-13.52-.89-1.95-6.11-12.05-1.63-3.15-3.31-6.64-5.23-9.62-8.23-12.82-21.51-20.69-35.95-24.51-5.72-1.51-10.94-2.16-16.77-2.75-9.37-.95-12.28,1.47-21.44,4.4-6.1,10.48-9.08,21.5-11.9,32.65-3.08,12.21,1.54,10.8.39,23.92l-2-3.72c-.02,2.51.15,4.42.58,6.16,12.6-2.27,24.31-4.15,36.71-5.08,5.55-.41,10.74-.81,16.83-1.77l-8.66-.26c3.04-.8,6.12-1.14,9.28-1.13,1.09,1.43,3.05,1.97,4.45,1.11l-3.13-.9c7.28-1.6,3.76,1.65,6.46.74ZM588.17,396.9l-1.72-4.97c-.62.53-.96.79-1.11.97s-.83-.53-.92-1.08c-1.87-12.18-11.25-31.45-21.56-39.53l-5.49-4.3c3.52,4.7,23.55,21.93,18.65,29.27l2.37,6.45,2.67,13.19h7.1ZM311.98,354.02c1.78-.34,2.49-1.19,2.12-2.58l-2.12,2.58ZM469.86,362.89c1.21-2.89,2.6-5.64,2.79-8.6-1.19.62-3.86,7.94-3.8,7.98l1.01.63ZM713.63,356.95l-2.03-2.67c-.18,1.54,1.03,2.94,2.03,2.67ZM309.12,357.6c1.78-.34,2.49-1.19,2.12-2.58l-2.12,2.58ZM305.82,363.05c1.17-.9,1.85-2.1,1.99-3.69-1.16.9-1.84,2.1-1.99,3.69ZM462.03,400.91l-1.91,5.76c-2.95-2.45-.21-5.51-2.92-11.5l2.13-18.71,1.22,2.28c.81-6.89,2.32-12.7,4.92-19.46-9.34,5.25-21.38,22.4-23.61,32.42l-3.17,14.24c-.78,3.51.38,7.45.2,11.65l6.11-1.84,17.88-5.53-.85-9.32ZM725.64,377.69c-3.27-6.04-5.82-12.02-10.01-16.72,2.68,6.66,6.21,11.96,9.68,17.81,1.43,1,1.13.05.33-1.09ZM301.26,369.78c2.52-.78,3.77-2.5,3.58-5.23l-3.58,5.23ZM299.42,373.62l-2.16-1.38-3.02,8.1,5.18-6.72ZM260.15,512.91c.9-.23,1.73-.23,1.61-.56l-.63-1.85-.66-1.92c-.1-.3,1.14-.56.85-.5-.9-1.13-1.66-1.99-1.78-2.61-.1-.5.65-1.66.72-1.73l1.25,3.08.05-11.06.55-11.33c.11-2.32-.08-4.33.22-6.55l1.37-10.32,2.55-14.06c.79-4.33,4.73-19.53,6.23-23.22,6.55-16.17,6.49-21.03,15.48-37.86,1.73-3.23,3.65-6.07,5.18-9.41-3.34,1.96-3.61,6.05-5.78,8.69-4.66,5.66-7.09,11.66-9.71,18.41-3.41,8.78-6.81,17.25-9.14,26.46-1.66,6.55-3.91,12.86-5.14,19.53-1.64,8.92-2.6,17.6-3.73,26.52-.46,3.65-.28,7.33-.5,11.09-.8,13.45-.8,26.33,1.39,39.6l1.17,7.12,1.6,9.16c.06.37,3.97,16.68,5.24,17.16l-4.71-24.17c-.26-1.32-1.39-3.42-1.91-4.57.17-3.43-.32-8-.63-11.68l-1.12-13.41ZM544.94,404.26c.33.05,2.37.16,2.12-.12l-1.09-1.24c-.17-.2-.58.29-1.39,1.09-1.32-.03-1.1.05.36.27ZM569.6,403.97l9.78-.74-27.52-.14c-1.03,2.21,16.36.99,17.74.88ZM588.55,403.52c-2.59-.63-4.22-.66-5.76-.05l5.76.05ZM539.17,403.83l-8.1.55c3.16,1.34,5.73.34,8.1-.55ZM526.59,404.58c-5.23.19-11.22.47-15.94,1.65.61,1,15.56-.17,15.94-1.65ZM509.39,406.31c-2.17-.44-3.84-.24-5.89.02-2.51.37-4.83.37-6.55,2.43,4.56-.67,8.03-1.32,12.44-2.45ZM578.79,428.52c-2.44-2.04-5.24-1-7.43.09l7.43-.09ZM582.79,427.39l-3.79.21c1.28,2.06,3.23,1.37,3.79-.21ZM418.96,450.91c.31-1.92.31-3.59-.02-5.12-.31,1.92-.31,3.59.02,5.12ZM584.33,454.47c.81-.67.78-2.91,0-2.95-1.03.21-.96,2.85,0,2.95ZM591.1,485.21l1.03-5.15c-1.3,1.43-1.71,3.14-1.03,5.15ZM235.92,582.83c-2.21-9.14-5.01-17.86-6.49-27.09l-2.76-17.14c-.3-1.87-.5-3.6-1.73-5.04.91,8.84,1.86,17.01,3.69,25.33l4.19,19.01c2.04,9.23,9.63,34.92,15.77,42.45-4.13-13.07-9.49-24.37-12.67-37.54ZM222.4,547.23c.88-3.19.48-5.19-.94-7.19l.94,7.19ZM469.52,554.48c.62-2.43,1.5-5.55-.97-7.34l.97,7.34ZM223.93,555.21c.69-2.06.29-3.7-1.01-5.13.25,1.95.58,3.52,1.01,5.13ZM475.7,552.59l-.64.42-1.26,11.49c1.73-1.22,3.84-13.18,1.9-11.91ZM227.86,571.39l-3.29-14.25c-.11,6.41,1.36,12.05,3.42,18.26.64-1.02.23-2.45-.12-4ZM237.78,607.85c1.3-4.45-1.6-7.25-2.64-10.72l-6.22-19.32c-.22,4.07,1.17,7.51,2.41,11.13l2.11,6.18,4.34,12.73ZM241.04,615.85c.32-2.8-.07-4.55-2.39-6.01l2.39,6.01ZM693.11,703.66c2.44-1.62,3.44-2.96,4.02-5.05-1.87,1.49-3.23,3.24-4.02,5.05ZM552.91,734.74c1.51-.68,2.06-1.59.29-1.9-1.01.42-1.6.69-1.82.97s-.73,1.27-.37,1.21l1.9-.29ZM603.43,734.08c-2.96-.08-3.97.18-5.59.99l-8.62,4.28c1.7.77,14.16-4.99,14.21-5.27ZM546.92,735.36c-3.2-.35-5.46.44-7.64,1.67,3.1.67,5.79.16,7.64-1.67ZM527.14,739.02c-1.48-.72-3.35-.76-4.84.11,1.33,1.03,2.94.76,4.84-.11ZM521.53,739.86c-2.39-1.12-4.51-.7-6.6.09,2.45.11,4.56.09,6.6-.09ZM597.68,749.39l-5.42,2.66c2.74,0,4.5-.9,5.42-2.66ZM603.73,751.97c-6.47,1.97-11.91,4.33-17.41,7.22-.69,1.87,19.56-6.98,17.41-7.22ZM559.46,776.32l6.86-2.13,12.44-4.47c.57-.2,1.41-1.77,1.55-2.32-3.36.09-5.27,2.57-7.59,3.33l-8.58,2.83c-4.91,1.62-9.79,2.04-14.57,3.89,3.43.21,6.79-.17,9.89-1.13ZM549.26,777.37l-5.46.15c2,2.38,3.89,1.05,5.46-.15ZM558.4,778.74c-1.07-.53-2.49-.2-4.16.34,1.06.43,2.73.47,4.16-.34ZM535.44,780.38c.49-.38,1.35-1.13,1.1-1.26s-.89-.57-1.11-.41l-1.43,1.05c-.96.52-.62.68,1.44.61Z"/>
  <path d="M690.02,283.8l-5.27-4.15c-3.01-2.37-5.43-4.92-7.41-7.95l7.65,5.58c5.37,3.91,10.48,8.17,14.73,13.96-4.12-1.38-6.51-4.93-9.7-7.44Z"/>
  <path d="M524.13,212.52c-5.99-.73-14.78.86-22.77-.58,7.86-1.16,15.51-.68,23.1-.33.24.01,1.5,1.14,1.27,1.11l-1.6-.2Z"/>
  <path d="M714.29,307.29l-12.99-13.58c5.99,2.92,9.71,8.01,12.99,13.58Z"/>
  <path d="M689.88,292.33c-1.68-1.31-3.3-2.55-4.68-3.81l-5.2-4.72c-.68-2.41,11.73,7.37,9.89,8.53Z"/>
  <path d="M663.72,260.57l4.97,3.84c-3.59-.63-6.75-1.86-8.78-5.34,1.06.22,2.99.86,3.81,1.5Z"/>
  <path d="M562.91,217.08c-3.2-.22-6.43-.76-9.87-1.34l-6.66-1.14c5.67-.22,11.01.58,16.53,2.48Z"/>
  <path d="M675.45,270.97c-2.04-.46-4.15-1.07-5.48-1.6,2.37-2.79,4.35-.7,5.48,1.6Z"/>
  <path d="M656.04,255.72c-3.2,1.38-4.37-.79-5.07-2.97l5.07,2.97Z"/>
  <path d="M680.11,717.03l4.06-4.22c-.18,2.2-1.25,3.27-4.06,4.22Z"/>
  <path d="M708.91,309.97l-2.22-.63c-.5-.14-.09-1.97.09-2.13l2.14,2.77Z"/>
  <path d="M570.07,259.06c-2.19.02-4.58.19-6.18-.1l-21.4-3.91c2.5-2.82,5.46.02,7.58.15,4.45.27,16.38.7,20.01,3.87Z"/>
  <path d="M579.25,263.05l-6.21-1.82,1.87-1.81c3.6.98,7.38,2.24,11.5,4.19-2.68,1.36-4.79.14-7.16-.56Z"/>
  <path d="M597.65,269.37c-4.04-.67-7.06-1.91-9.8-3.92,4.1-.66,7.11,1.77,9.8,3.92Z"/>
  <path d="M271.85,527.23c-.67-2.67-1.7-5.19-.41-8.38,1.04,2.57.87,5.02.41,8.38Z"/>
  <path d="M274.28,547.48l-1.48-6.72c2.15,1.61,2.92,3.97,1.48,6.72Z"/>
  <path d="M662.96,402.44l-2,1.24c-.41.25-1.36-.79-1.78-1.33l3.78.09Z"/>
  <path d="M662.46,302.47l-2.58-2.12c1.39-.37,2.23.34,2.58,2.12Z"/>
  <path d="M615.63,276.71l-3.23-1.66c1.44-.63,2.78.2,3.23,1.66Z"/>
</svg>