<?xml version="1.0" encoding="UTF-8"?>
<svg id="Layer_1" data-name="Layer 1" xmlns="http://www.w3.org/2000/svg" viewBox="0 0 1000 1000">
  <path d="M452.41,598.75l-29.16,3.99,1.61,11.7c.81,5.88,1.76,11.44,2.87,17.3,1.02,5.38,2.13,11.32.35,16.67-2.09,6.28-7.21,10.92-12.43,14.39l-10.08,6.71,2.27,5.63,2.41,6.6c7.98,6.95,15.66,12.83,24.38,18.39,1.21.77,2.95,2.89,2.37,4.26-.8.46-3.35.77-4.24.82l.43,3.21c-4.48-.84-7.84-1.21-11.67-1.39.76,1.3,1.35,1.95.92,2.22s-1.9.8-2.42.89l-2.24.4c-.73.13,6.79,5.98,4.62,4.69l13.48,8.02c-13.53-1.63-26.25-7.63-36.62-16-4.55-3.67-7.65-8.6-11.37-13.15-1.31-1.6-1.17-4.72-2.02-6.57l-4.72-10.23c-6.54-14.18-7.02-31.03-9.72-45.86-.86-4.73-1.21-8.98-1.86-14.19l-43.11,14.65c6.45-5.07,14.37-5.8,21.25-9.75l-16.96,5.95c-6.64,2.33-12.56,4.99-18.52,8.36,1.64,1.62,3.06,2.4,4.71,2.93,7.4,7.95,12.71,17.06,18.55,26.2l.07-3.45c2.42,4.25,5.29,8.3,7.3,12.95l12.53,29.02c2.65,6.15,5.2,12.28,8.61,17.94,2.25,3.75,4.74,7.05,6.26,11.1,2.59,6.88,6.99,12.36,12.76,17,4.26-.56,8.29-.91,11.98-2.2,13.55-4.72,25.49-10.57,38.08-17.96-.35,2.14-1.27,3.18-2.55,4.82l10.49-5.07-.69,6.19c3.26,1.95,5.69,5.43,5.44,9.83-.49,8.49-6.51,16.27-14.33,19.95l-16.58,7.79c-5.15,2.42-10.83,3.38-16.47,4.68-12.42,2.85-24.86.64-34.74-8.07-7.9-6.96-15.62-14.98-20.78-24.8-9.92-18.86-17.69-38.75-24.52-58.96-1.18-3.48.54-9.13-5.12-10.44,1.34-1.67,1.4-3.01.57-4.55l-13.03-24.21c-1-1.85-1.96-3.81-2.83-5.7-14.88,6.15-30.66-4.87-43.89-13.27l5.69,5.98c-4.82-1.8-7.93-4.78-11.95-8.49-1.2,1.01-2.62,2.69-3.54,4.1-6.28,1.67-12.85-.16-19.88-1.08,4.61,2.03,9.2,2.79,14.46,3.81-2.44,1.12-5.28,1.51-7.93,1.58l-3.28,1.29c-6.46-.49-11.38-3.92-17.29-6.93l5.53,4.91c-4.08-1.74-7.71-4.57-10.75-7.12l.83-1.46c.14-.24-.5-.69-.89-1.05-5.99-5.66-9.7-12.63-13.2-20.1-9.13-19.52-22.37-47.9-14.41-69.25,1.61-4.32,4.72-8.48,7.22-12.26.63-.95,3.19-1.38,4.06-1.87,7.89-4.48,5.31-6.74,21.86-8.19,1-12.3,7.2-33.76,19.37-39.23,10.9-4.9,3.47.42,19.73-7.55,5.91-2.89,11.77-5.43,17.71-7.78l1.07.92c.25.21,1.34.43,1.32.11l-.09-1.67c1.72.56,4.02.8,5.55-.01l6.66-3.52c8.18-2.31,5.72-2.94,16.18-6.12,5.85-1.78,11.05-3.58,17.49-4.92l-2.2,2.68,5.55-2.77c2.08,1.61,3.94,2.89,6.64,2.26-3.36,7.61-22.51,8.75-30.67,14.44,8.97-1.1,16.39-5.12,24.91-8.83,1.23,2.62-.95,4.49-3.3,5.95,1.35,1.32,1.54,1.65-.13,1.05-5.76,2.52-10.35,4.45-15.72,5.75l9.51-4.49c-5.53-.03-9.92,2.36-14.55,4.42l-22.89,10.2-18.18,8.41c-.35.16-1.58,1.2-1.51,1.19.07,0,.77.78,1.13,1.16-3.65,1.98-13.7,10.82-15.35,15.24-6.75,18.16-7.56,17.88-2.86,36.04,1.1,4.26.87,8.5,3.33,12.82,1.4,2.46,1.76,6.21,2.86,8.91l6.62,16.19c1.5,3.67,2.25,7.97,4.24,11.32l9.28,15.61-3.21-10.5c2.34,5.14,4.7,9.91,7.89,14.77,5.54,8.42,4.69,8.62,14.77,14.8,4.61-.85,10.48-.59,14.39-2.02,13.09-4.79,38.5-18.26,45.91-20.47l31.45-9.36c-3.57-5.74-8.54-10.19-11.39-15.71-7.97-15.45-12.53-17.36-18.87-34.86-4.6-12.69-8.61-25.03-12.27-38-2.75-9.75-5.18-26.35-2.95-36.54l1.6,2.71c1.69-11.98,1.63-18.44,8.75-28.11,2.76-1.37,4.18-3.03,6.68-4.5l8.43-4.96,11.98-8.47c7.78-5.5,14.59-11.98,22.17-17.83l17.27-13.36c10.29-7.96,19.93-16.39,28.88-25.87l19.22-20.34,2.18-.76c3.77-3.68,8.04-7.71,11.14-11.97,2.14-2.94,4.22-4.66,6.81-7,4.4-3.96,8.57-8.55,12.47-13.21,7.48-8.95,10.16-16.98,16.95-25.35,2.29-1.77,4.46-3.49,5.63-6.11l3.61-8.08c3.82-8.55,5.38-20.34,17.28-24.73l10.03-3.7c6.44-2.37,13.85-1.05,20.37.21l.6-1.05c.18-.32,1.15,1.4,1.84,1.63,15.56,5.12,29.99,20.45,40.3,34.2l7.09,9.46c6.8,9.08,12.17,18.75,17.43,28.94-.25.84-.48,1.64-.31,1.04l-3.53-3.72,3.31,6.92c3.41.87,5.26,3.42,5.46,6.92-1.13-1.66-1.94-2.82-3.38-4.36,3.95,11.08,5.93,11.33,10.62,23.91,2.06,5.53,1.18-4.28,7.79,15.18,1.25,3.68,3.59,6.5,3.79,10.58l-3.27-2.92,2.06,4.14c.58-.01,2.44.41,2.67,1.07l4.04,11.36c-.3.77-.66,1.66-.49,1.24l-4.15-8.3,4.38,13.42.92,7.17c-2.15-3.66-3.55-6.89-5.04-10.93-.48-1.31-1.56-2.66-2.2-4.05l-6.82-14.86-4.69-8.82c4.05,10.96,8.28,21.18,10.93,32.69-2.88-4.38-4.36-9.01-6.47-13.79l-7.37-16.69c-4.56-10.33-8.56-20.4-13.4-30.6-1.57-3.3-3.63-6.23-5.41-9.46-3.63-6.58-7.12-13.03-11.4-19.33-1.56-2.3-2.83-4.75-5.18-6.27l12.94,21.59c.97,1.62,1.85,3.32,2.66,5.1l12.78,27.94,7.8,16.59c-.2,1.59-.21,1.82-1.59.03-.28,5.48,6.92,16.72,7.07,24.3l-3.57-5.99c-4.12-6.92-4.55-15.5-10.42-22.14,1.11,8.2,7.86,15.16,8.85,25.16-3.72-4.96-4.67-10.85-7.13-16.36l-17.43-39.06c-2.29-5.13-4.71-9.55-7.55-14.5-.66-1.16-1.09-3.72-1.32-5.11-3.11-3.69-7.07-7.47-8.9-11.97-.84-2.07-1.09-3.41-3.49-4.83l-.79-4.92c-8.62-11.09-26.99-27.63-40.72-30.73-11.52,2.56-14.37,24.43-14.43,34l-.21,37.03c-2.44-8.91-2.03-26.43-1.61-36.29.15-.35-1.31,1.47-1.31,1.9l.18,18.66.87,15.67c.44,7.96,6.41,38.48,8.35,48.75,6.17-1.41,8.17.57,15.62-.55,10.28-1.54,10.61,2.14,21.35,4.19.58-.5,1.95-1.68,1.5-1.29,1.75,1.37,2.77,1.88,4.45,2.57l6.34,2.58c8.34,3.4,21.8,17.64,17.55,17.77-.39.01,1.43.03,2.01.04,4.66,8.64,8.31,18.16,10.12,28.09,1.2,6.61.27,13.49-1.05,20.09-2.02,10.16-5.86,19.81-12.91,27.22-6.8,7.16-13.18,14.04-20.78,20.25-.78.63-2.17,1.05-2.22,1.72s.6,2.58,1.2,3.09c2.17,1.86,2.11,6.83,3.2,9.09,5.74,11.92,14,26.59,21.73,37.04l20.02,27.07c4.94,6.67,12.5,11.12,20.44,13.55,2.24.68,5.08-3.03,6.32-4.42.87-.57,1.2-.79.58-.38l-1.37,3.55,6-5.05,2.03-10.59c2.05-10.68,1.83-21.06,2.44-31.84.27-4.74,1.61-9.26,1.35-14.15l-1.45-26.77c-.38-7.02,1.64-3.75-.6-16.52.41-1.68.62-1.62,1.04-.1l2.37,15.41c1.75,11.41,3.2,47.95,2.03,58.45l-1.15,10.34c1.15-3.31,2.7-7.42,2.71-11.24l.1-35.83c0-3.11-1.83-7.15-1.35-10.1.88-5.41.34-9.47-1.21-14.6-.16-.52-2.41-13.34-2.77-15.39l-6.59-37.39c-.07-.41-.11-1.08-.1-1.33s1.03-.12.98-.36l-1.04-4.31-2.6-12.51,5.65,13.4-1.77-14.23,3.48,8.99-2.73-14.44,4.27,10.34,1-2.6,1.84,5.46c2.01,5.97,4.35,14.4,5.69,20.1.13.58,1.07,2.09,1.3,2.46s-1.45.23-1.85.38l1.32,6.95c-.19.55.2-.6.43-1.26l.68-2.7,1.07,6.76,2.87,18.07c.06.38-.91,1.12-1.54,1.41.3,6.58,1.04,13.48,2.34,20.45l.78-2.84c.53,0,.85,2.75.4,3.66-.09.19-1.25.65-1.45.69-.31.06-.05,1.04.27,1.04l1.76-.02,1.02,11.44c.85,9.46-.18,6.03.61,14.39.18,1.63.31,1.6.62-.02.04-5.4.23-10.63-.25-15.66l-2.59-26.86c-.77-8.01-2.98-15.42-2.42-23.75,3.04,9.99,2.81,17.44,4.49,27,1.51,8.56,2.22,16.68,3.07,25.1.54-10.21-1.6-19.75-1.93-30.06,1.37,2.15,1.03,5.83,2.03,8.08,1.31,2.94,1.84,4.8,2.15,7.89l1.25,12.37,1.15,33.11c.22,6.4-.36,12.89-1.85,19.09-2.01,8.41-4.09,16.49-7.34,24.48-2.38,5.87-6.21,10.48-10.26,15.03-7.24,8.14-17.23,11.96-27.85,9.92-18.13-3.5-22.11-5.73-38.74-10.24,2.35-1.04.69-.8-.54-1.21-5.28-2.33-11.1-.95-16.55-1.88l-35.48-6.06c-20.67-3.53-40.85-4.94-61.78-4.32l-19.12.56c-6.53.19-12.97-.17-20.03.8ZM403.5,581.85c6.12.01,11.77-1.79,17.94-2.93l13.49-2.49,8.65-1.5-4.26-1.09c3.05-.55,5.41-1.06,7.89-1.32l7.71-.81,8.87-.59,9.15-.89c14.49-1.41,28.88-2.67,43.47-1.67l31.39,2.16c12.56.86,24.2,3.67,36.59,6.02l-4.97-7.53-1.49.85c-1.54.88-20.98-37.41-22.66-40.92-1.25-2.6-1.95-5.23-3.23-7.75l-3.98-7.89c-11.12-22.04-34.4-103.49-37.92-130.85-1.57-10.24-3.32-19.75-3.89-29.99l-1.96-35.01c-11.03,14.5-22.09,28.75-34.21,42.45-5.44,6.15-10.95,11.39-16.67,17.14-7.58,7.62-15.55,14.09-23.74,21.07-12.56,10.7-25.08,20.54-39.39,29.22-3.37,2.04-6.41,5.01-10.57,5.6-.96.99-2.58,2.5-3.8,3.16-7.75,4.2-14.6,8.46-21.85,13.39-1.37.93-3.63,2.85-3.65,4.75-.07,7.78.76,14.93,2.01,22.71.38,2.39.4,5.5.89,7.26l7.5,26.88c1.91,6.84,15.29,38.7,18.09,43.02l10.92,16.87c-8.31-5.77-6.92-5.39-11.72-11.24.91,2.1,1.23,4.74,1.32,6.43,3.67,5.62,8.76,10.35,13.84,15.19l10.65-2.01c.27-.05.76.81.62.98l-1.04,1.33ZM514.04,379.86c-1.15-12.94-2.63-17-3.54-30.38l-.61-8.87-1-11.87c-.46,4.8-.5,9.73-.1,14.76l.71,8.9.93,12.96c.38,5.29.61,10.06,3.59,14.49ZM625.42,351.58l-4.49-10.47c-.13-.3-.59-1.17-.57-1.29s-.82.78-1.08,1.04l3.84,7.54c.68,1.33.41,3.4,2.3,3.18ZM633.66,347.62c.23-2.98-.16-5.19-2.8-6.46.82,2.27,1.79,4.39,2.8,6.46ZM512.86,349.29c.42-2.66.41-4.97-.02-7.21-.42,2.66-.41,4.97.02,7.21ZM528.41,425.9l-9.07-40.28-1.74-8.88-4.39-26.44c.38,8.74,1.44,16.73,2.9,25.55,5.15,31.14,13.23,61.3,22.57,91.31,0-6.58-3.31-11.94-4.26-18.25l-6.01-23ZM636.96,357.09c-.1-2.17-.43-3.07-1.13-4-.09,1.55.36,2.86,1.13,4ZM516.97,397.52c-.17-5.93-1.14-9.19-2.62-13.13l.12,3.48c.33,3.61.97,6.96,2.49,9.65ZM594.78,437.44c-.25-6.95-3.04-13.14-5.66-18.87-6.44-14.05-23.49-19.23-37.56-21.5-2.35-.38-4.29-.67-6.81-.43,7.93,30.69,15.05,56.9,29.05,86.36,4.93-3.33,9.72-6.25,12.8-11.13,6.35-10.04,8.63-21.95,8.18-34.43ZM520.54,412.73c1-1.25.74-3.81-.76-4.68-.42,1.6-.24,3.59.76,4.68ZM525.17,440.2c.23-2.85.3-5.39-.35-7.96-2.07,2.7-.64,5.36.35,7.96ZM666.01,454.27c-.19-3.7-.87-6.07-1.81-8.65-.58,3.34-.23,6.62,1.81,8.65ZM541.54,487.95l-9.63-28.09-4.58-13.31c-.79,5.26,1.99,9.26,3.48,13.76l8.97,27.09c.21.63,2.22,1.89,1.76.55ZM302.19,449.71c.37-.2,1.93-1.27,1.53-1.32-.29-.04-.86-.37-1.11-.24l-1.16.63c-.36.2-1.93,1.28-1.52,1.32.29.03.87.36,1.11.23l1.15-.62ZM267.54,459.96l-1.19-1.12c-4.32,2.39-7.97,3.57-11.12,6.53l12.3-5.41ZM272.43,467.13c-2.17.1-3.07.43-4,1.13,1.55.09,2.86-.36,4-1.13ZM242.82,471.74c2.01.74,3.82-.56,3.59-2.58l-3.59,2.58ZM546.02,488.08c-1.55-6.45-3.45-12.14-5.76-18.22-.44,2.62.45,4.76,1.43,7.01,1.62,3.73,1.9,7.64,4.33,11.21ZM252.05,475.12c-3.02-.3-4.37.99-5.52,2.93,2.16-.86,4.04-1.85,5.52-2.93ZM245.51,477.66l-4.72,3.08c2.38.2,4.06-.93,4.72-3.08ZM549.96,498.92c-.8-4.23-1.86-7.17-3.63-10.18.34,3.97,1.67,7.32,3.63,10.18ZM215.52,500.79l2.8-11.21c-2.23,3.36-3.72,6.94-2.8,11.21ZM544.99,499.36l.43-3.03c.09-.62-1.4-1.01-2.44-1.25l2.01,4.28ZM210.72,513.87c-3.53-.82-6.27.08-8.76,1.32,3.54.05,6.07.08,8.76-1.32ZM238.14,614.97l5.33.08c-1.6-3.29-2.94-5.86-5.52-8.71l1.64,7.73c-3.61-4.63-5.17-9.39-7.6-14.25l-6.25-12.54c-2.6-5.21-4.5-10.35-6.05-16.08-3.01-11.13-6.66-22.01-7.52-33.64-.36-4.81.06-9.17-1.12-13.47-5.26,3.14-8.87,5.67-12.9,9.26-.96,13.05.69,25.45,5.5,37.54,6.52,16.4,5.75,16.83,15.62,31.53,2.93,4.37,7.02,7.43,12.07,10.88l-3.44-10.09c2.58,2.52,4.05,6.54,5.55,9.73,1.05.39,3.61,2,4.69,2.01ZM357.62,533.67c.54-2.04-.4-4.29-2.18-4.56l2.18,4.56ZM364.95,546.67l-4.37-7.77c.54,4.64,2.57,8.51,5.83,12.03-.03-1.59-.62-2.75-1.47-4.26ZM686.84,575.27c1.25-2.58,1.91-5.24,1.87-7.97-1.25,2.66-1.83,5.12-1.87,7.97ZM401.02,582.13l1.72-.26c.35-.05-.61-1.05-.7-1l-8.46,2.08c2.98,1.87,4.8-.65,7.45-.82ZM254.83,604.59c-.31-3.34-2.08-5.29-3.92-8.32-.07-.13-.5,1.58-.32,1.86l4.24,6.46ZM565.28,602.18c-2.25-1.73-4.67-1.35-6.56-.66l6.56.66ZM591.77,607.06c-7.73-2.21-14.77-3.6-22.38-4.76,4.18,1.81,18.76,5.06,22.38,4.76ZM401.64,605.15c-3.61-.18-6.91.57-10.29,2.97,3.62.59,6.88-.97,10.29-2.97ZM399.56,646.94c3.49-2.69,8.13-7.78,7.84-12.82l-1.63-27.69-14.55,3.4,3.56,17.09,4.79,20.02ZM277.92,624.66l-13.04-8.41c2.71,4.3,7.82,7.3,13.04,8.41ZM292.12,631.86c1.97-1.08,3.46-2.2,5.16-3.65,2.95-2.49,7.03-3.38,10.83-5.47l-10.59,2.3,1.29-2.55-6.36,2.58c.49.76.31,2.26-.4,2.49l-3.24,1.05c-1.66.39-1.9.49-.18.24l2.77.81c.36.1.24.72.72,2.2ZM271.6,626.77c-1.59-1.46-2.94-2.37-4.66-3.1,1,1.96,2.56,3.05,4.66,3.1ZM282.65,631.33l-6.42-2.02c1.42,2.26,4.27,2.78,6.42,2.02ZM304.29,643.41c.82-2.44-1.61-6.1-3.85-5.23l-2.15.83c-.24.09.56,1.02.82.96l1.29-.26c.69-.14,2.22.34,2.52.96l1.37,2.75ZM308.78,641.16l2.84,3.94c-.27-3.08-1.82-5.59-3.59-7.9l-2.82,1.66,2.9,4.62.67-2.33ZM337.1,715.59c.38-2.85-.18-4.51-2.06-5.51l2.06,5.51Z"/>
  <path d="M690.06,639.86l-8.98-3.61,1.54-2.07-1.66-.2c-.4-.05-1.15-.63-1.1-.71l5.07-1.31c.34-.09,1.05-.25,1.09-.28s.04-1.11.05-1.42l12.88,1.65c4.79.61,9.29,1.41,14.08,2.53,2.12.5,5.3.24,7.46.88,6.35,1.89,12.08,2.42,18.54,2.97,12.28,1.04,23.76,4.92,35.68,7.81,18.77,4.54,15.28,23.7,12.42,39.57l-6.51,36.11-4.73,24.12c-1.8,9.19-3.73,17.95-7.03,26.71l-5.54,6.88c-1.85,2.29-2.68,4.5-5.47,4.88,1.34-3.04,3.02-4.85,2.05-7.17-5.6,12.23-7.9,8.54-17.89,10.62,3.7,1.53,7.21,2.22,10.77,1.87l1.55-.15c.36-.04.06.37-.41,1.73l-12.56.9,6.31,1.58c1.65.41,3.29,1.04,5.06,1.72-8.84,3.9-38.34-3.86-48.38-6.41l-28.24-7.18-58.76-13.32-38.05-7.51-25.45-4.42c-15.58-2.7-27.91-3.78-36.46-18.01l-31.1-51.78c-.21-.35-.49-1.65-.54-1.99s.8-.29,1.69-.47c-2-4.87-4.75-9.09-8.24-13.23-4.6-5.45-4.09-13.48,1.17-18.24,5.98-5.42,12.64-9.34,19.41-13.78,10.61-6.95,20.59-14.39,31.85-20.27,2.68,1.24,14.96-8.1,19.35-9.32,1.56,1.05,2.47,1.41,4.6,2.12l-1.96,1.47,4.46-.92c-8.14,10.35-21.22,18.63-32,26.19-9.32,6.53-18.12,13.28-27.84,19.13-2.54,1.53-4.55,2.73-6.79,4.85l6.52,11.59c.09.15.15,1.65.15,1.87,0,.23-.19.08-.51-.06l-1.38-.58c.88,2.37,2.43,5.45,4.45,7.41,5.35,5.19,1.6,5.06,7.72,12.79l-2.6-7.61,29.36,45.97c4.54,2.43,9.71,3.76,14.81,4.59l39.81,6.51,40.74,7.89,76.25,17.83c13.03,3.05,25.09,5.67,38.63,8.39-5.12,1.71-9.54-.34-14.09-.19,5.98,1.58,11.28,2.59,17.69,3.46,1.91.24,1.02.82-1.1,1.44,7.48,1.42,12.96-12.67,12.97-19.58-.89-1.08-6.46,19.57-6.98,13.81l-.17-1.87-.53,1.19c-.11.25-.71.17-1.48.11,2.4-4.8,4.22-9.43,5.25-14.79l4.03-20.88-4.51,13.33c.58-8.36,3.13-15.65,4.62-23.63l3.22-17.33,8.36-48.58c.54-3.16-1.95-4.2-4.16-4.82l-9.9-2.76c2.56-.88,4.93.02,8.71-.06l-37.84-8.48c-8.56-1.92-16.85-1.72-26.91-4.86l-6.31-1.97c-2.1-.66-4.08-1.78-6.22-2.65ZM698.26,633.54c-3.5-.87-6.44-1.4-9.36-.75,4.55,1.01,8.12,1.73,12.8,2.02l-3.44-1.26ZM711.74,636.01l-9.8-1.82c2.9,2.25,6.65,2.24,9.8,1.82ZM547.83,739.74l-15.36-5.64c4.32,4.25,10.12,6.19,15.36,5.64Z"/>
  <path d="M590.12,708.33c-12.81,7.86-18.72,8.41-33.11,5.31-.24-2.38-1.25-3.32-2.37-4.71-2.36-2.93.49-7.2,1.07-10.41l5.1-28.48c.8-4.46,1.69-8.49,2.77-13,.77-3.19.86-8.48,3.26-10.83,3.67-3.58,9.8-2.46,14.32-1.06,11.69,3.64,20.29,12.87,24.75,24.39-.63,3.28-1.29,6.89-.29,10.15l.69-8.21c2.38,15.65-1.74,27.98-16.21,36.85ZM586.8,666.24l-3.86-4.7c2.1.22,2.92,1.48,4.04,2.92-.12-5.43-9.38-6.65-10.89-9.23l-.91,7.06-5.01,37.63c9.64-.39,16.31-6.23,20.86-13.92s.56-21.96-4.23-19.77ZM604.31,687.45c1.25-1.89,1.71-4,1.1-6.46-.48,2.05-.82,3.98-1.1,6.46Z"/>
  <path d="M683.81,717.23l-17.37-2.41c-3.01,7.19-6.4,13.91-11.27,19.43-.49-.23-1.56-.84-1.47-1.25l.68-3.05-4.64,2.9-3.34-3.39c1.76-6.56,4.18-12.38,7.11-18.52,3.24-6.78,5.53.13,7.05-10.15-.77,1.43-1.12,2.73-2.79,2.8,5.35-11.91,11.65-22.69,18.26-33.9,1.93-3.27,5.54-6.27,9.68-4.91,3.58,1.18,5.9,5.53,6.56,9.21,1.42,7.94,3.04,15.47,3.84,23.5l3.2,32.16c.29,2.87-.33,5.62-1.41,8.32l-1.55-5.2-1.49,5.98-4.6-2.33c-.45-.23-1.63-1.14-2-1.39s-.9.47-1.71.99c-.84-2.58-1.51-5.29-1.75-7.85l-1.01-10.95ZM683.16,705.25l-1.85-16.73c-.12-1.1-.46-2.26-.98-3.74-1.34,1.94-.96,4.37-1.73,6.06l-5.68,12.36,10.24,2.05Z"/>
  <path d="M640.45,714.15c1.4.21,3.82,2.11,5.18,2.7-.62,2.62-4.9,3.15-3.74,4.57l1.56,1.92-4.06,1.1.66,2.33c-9.95.03-20.89-.17-29.67-4.33-.83-1.15-2.76-3.38-3.4-3.76.5-2.8,1.08-6.73,1.06-9.38l-1.74,8.94c-1.13-4.36.23-8.63,1.38-13.15l7.14-28.03c1.92-7.54,1.38-19.46,10.13-20.48,7.55-.89,27.15-.46,30.87,6.71l-1.62,3.41c-.42.88-3.04.36-4.46.4l1.07.85c.3.24,1.47.93,1.1,1.05s-2.03.88-2.53.83l-20.17-1.73-1.76,15.65c4.6.16,10.31-.38,14.81.85l5.09,1.4-2.85,4.18,1.55.12c.26.02.58.9.34,1-3.54,1.56-.96,4.26-4,4.41l-17.72.9-3.68,14.64,19.46,2.89ZM611.62,698.31c.86-2.5,1.14-3.77,1.12-5.53-1.28,1.78-1.68,3.74-1.12,5.53Z"/>
  <path d="M739.33,747.21l-24.96-2.6c-3.76-.39-6.49-2.21-7.85-5.93l-1.2.96c-.31.25-1.37-.18-1.3-.57l.45-2.44,1.26-8.6,1.21,1.72c-1.32-4.78-.18-8.71.7-13.31,1.41-7.3,2.44-14.35,4.53-21.4.89,4.65-1.5,8-.88,12.82l1.83-8.86,3.78-18.09c.23-1.11,4.4-5.83,6.09-6.57,1.45-.63,4.18,1.53,4.26,2.99.77,14.8-2.56,23.08-3.94,36.37-.59,5.69-1.43,10.81-2.38,16.93l18.49,2.59c-6.18,1.82-11.79-1.89-18.28-.79l9.01,1.35,10.42,1.58c.98.15,2.79,1.77,3.22,2.77.49,1.14.37,2.31-.42,3.54-.91,1.41-1.9,5.76-3.99,5.54ZM708.94,723.51l1.85-12.73c-1.97,3.98-2.55,8.53-1.85,12.73Z"/>
  <path d="M531.16,683.02l-3.92.88,5.01.42c-3.18,2.43-5.69.43-8.6-.99-8.61-4.22-8.18-2.44-10.64-6.74-2.82-4.92-.41-7.79,1.49-11.82,2.67-5.65,6.03-9.31,12.85-9.09,4.25.14,7.19,1.01,9.95,4.76,4.04,5.48,5.92,14.19.63,19.42-.78.77-2.66,2.05-3.35,2.67-.24-.16-1.92-1.28-2.49-1.2l-6.31.94,5.37.74ZM522.57,674.12c.36,1.03,2.37,2.91,3.54,2.65,2.75-.61,4.52-1.86,5.25-3.81.62-1.65.12-5.32-1.23-5.59l-6.42,1.25c-1.49,1.06.07,4.65,1.58,6.79l-2.72-1.29Z"/>
  <path d="M303.44,465.07c-1.7-1.12,19-8.02,17.53-6.04l-17.53,6.04Z"/>
  <path d="M265.96,477.86c-2.87,2.21-5.3,4.08-9.01,4.65,2.78-1.94,5.72-3.94,9.01-4.65Z"/>
  <path d="M326.43,440.7l-2.84,1.8c-.63.4-2.25-.69-2.75-1.25l5.08-2.16.51,1.62Z"/>
  <path d="M753.27,655.61c-2.1.73-4.37.45-6.35-1.16,2.09.09,3.53.39,6.35,1.16Z"/>
  <path d="M736.91,652.62c-2.72.15-4.97-.25-7.23-1.08,2.69-.31,5,.14,7.23,1.08Z"/>
  <path d="M230.91,638.66c-2.48-.3-4.4-.64-6.46-1.1,2.46-.63,4.57-.17,6.46,1.1Z"/>
  <path d="M745.38,655.04l-5.51-.95c1.67-.76,4.24-1.08,5.51.95Z"/>
  <path d="M321.85,634.25c-1.14.78-2.45,1.22-4,1.13.93-.71,1.84-1.04,4-1.13Z"/>
  <path d="M425.83,576.75l-2.44.36c-.49.07-1.14.56-2.52,1.26-.28-.42.37-2.35,1.15-2.41,1-.08,2.86.28,3.81.8Z"/>
  <path d="M228.83,602.81l-2.74-4.16c2.37.49,3.04,1.62,2.74,4.16Z"/>
  <g>
    <path d="M750.16,377.57c-27.44,7.64-19.43,3.71-42.81,8.33-3.9.77-8.21,2.11-11.8,0-2.25-1.34-3.15-7.42-3.01-7.56l2.77-2.56c2.24-2.06,4.4-3.27,6.93-4.79l12.64-7.65c9.76-5.91,20.45-9.49,31.12-13.66l33.39-13.07c1.2-.47,4.31-.4,5.5-.53,2.79-2.95,9.55-7.1,13.4-3.56l9.92-4.12c.51-.21.99-2.39,1.5-2.4l3.03-.03c1.68-.01,5.39.76,7.13,1.17.75.18,1.72,2.75,1.21,3.36l-2.71,3.23,6.23-.06c.98,2.44,0,4.66-2.1,6.35l1.43,2.54c-2.46,1.18-4.65,2.4-5.99,3.56l5.03,1.76c-.89,1.06-1.98,2.3-2.76,2.67l-20,9.56c-6.4,3.06-12.68,6.09-19.37,8.18l-21.58,6.74-9.13,2.54Z"/>
    <path d="M687.47,281.85c-6.47,5.23-8.22,8.26-15.78,13.6l-1.19-3.71c-2.78,2.42-5.43,4.51-8.52,6.43l-4.09-5.93c2.79-4.1,2.98-7.45,4.1-11.65,6.51-11.92,14.1-24.58,22.76-35.13,3.83-4.67,7.86-9,10.78-14.17,5.82-10.3,14.49-17.16,16.5-21.06,2.04-3.96,4.38-6.65,9.06-6.66l.51,4.16c1.65-2.39,2.25-3.8,3.85-4.23,1.49-.4,3.44,1.69,4.41,2.59.44.4,2.04,1.01,2.54,1.31.63.37.47,1.79.43,2.95l2.91.32c.86.1.7,2.79.7,3.69l2.14,6.06c-2.04,5.84-6.84,9.44-10.26,14.31l-3.84,5.47-6.82,8.26-8.09,9.57-3.59-1.11-.78,5.1c-5.47,6.93-10.8,14.26-17.71,19.85Z"/>
    <path d="M823.14,498.97l-5.31.54,4.08,3.8-12.39,6.9c1.9,1.74,3.39,1.81,2.99,4-19.62-3.31-37.89-7.59-56.44-12.91-9.37-2.69-18.51-4.7-27.05-9.3-1.13-.61-2.87-2.48-4.07-2.82-3.26-.92-5.1-2.82-6.09-6.02l-5.94-2.53c-1.53-3.54,1.43-5.36,3.74-7.43,1.55-1.39,2.85-2.96,5.18-2.5,12.65,2.51,7.04-1.49,20.17,1.15l11.93,2.4,3.77.91c9.55,2.32,18.88,4.27,28.73,5.43,4.34.51,7.94,2.35,11.81,3.55l8.1,2.52c6.74,2.1,14.73.1,16.79,12.31Z"/>
  </g>
</svg>