<?xml version="1.0" encoding="UTF-8"?>
<svg id="Layer_1" data-name="Layer 1" xmlns="http://www.w3.org/2000/svg" viewBox="0 0 1000 1000">
  <path d="M592.83,720.38c.75.39,1.21.71,1.46.49.16-.15.82-.92.92-1.13l1.81-4c.3-.65,1.56-2.21,1.95-2.9.2-.36-1.2-.57-1.29-.46l3.95-8.08c1.84-3.83,3.65-7.39,4.56-11.54,1.02-4.66,2.66-8.9,4.13-13.41l1.56-4.76,6.67-19.64,2.4-.17c-2.11-3.09.46-10.13,3.63-10.79l2.97-5.67c.18-.35.17-1.52-.18-1.53l-1.2-.03c-.19-2.6,4.67-1.78,4.2-4.57-.17-1.03-.55-2.69,0-3.05,1.65-1.11,5.51-2.68,6.69-5.87.51-1.38,3.13-8.47,5.62-5.71l12.48-9.23c1.93-1.43,4.72-2.43,7.09-3.67,7.99-4.2,13.23-6.2,22.33-6.62l6.11-.28c2.79-.13,11.96-.35,12.75,2.66l-8.03,2.36c5.65,2.94,10.91,1.4,16.38.69l8.74,2.95c.87.29,2.35,1.4,3.22,2.19-.51,1.01-1.54,1.28-3.88.96l1.36.56,3.44,1.41c1.26.23,1.26.51-.39,1.06-1,.19-2.25,1.51-2.1,2.68l.33,2.48c-.14.56-.36,1.41-.2.78l3.01.79c1.91.5-4.29,4.2-4.54,4.32-1.62.84-4.73.6-6.42,1.16-7.87,2.58-3-.6-11.2,2.01-5.15,1.64-10.22,3.21-15.22,5.17l-7.7,3.03c-2.8,1.1-8.14,5.36-10.67,7.89-4.9,4.91-7.59,11.09-9.96,17.45-1.92,5.17-3.79,10.05-5.24,15.33-1.64,5.99-3.41,11.63-5.39,17.47l-6.41,18.91c-4.32,12.73-3.27,12.97-9.5,25.63-3.18,6.46-6.77,11.85-11.92,17.01l-6.33,6.34c-.34.34-2.08-.36-2.37-.67l-6.24,4.3c.27.62.66,1.53.44,1.02-8.27,5.04-16.63,4.1-25.27,2.1-1.95-.45-2.48-1.13-4.12-2.29l-7.03-4.97c-7.64-5.4.07,4.46-10.56-8.18-2.09-2.48-3.66-4.86-4.97-7.82-.74-1.66-2.16-3.8-2.56-5.13l-1.2-3.94c-1.16.61-1.4.9-1.56.65-1.88-2.92-9.33-18.2-10.8-22.26l-3.74-10.37-2.51-5.6c-5.01-11.18-4.46-10.15-11.54-17.82-1.43-1.55-3.89-2.9-5.75-4.08-8.02-5.09-17.33-6.47-26.38-4.5-1.43-3.62-6.57-1.74-6.55-1.49l.17,1.5c-1.54.1-3.69.12-5.28.02l2.92-1.28c-2.52-.25-4.29,0-6.16.72,1.46,1.13,1.94,1.38-.5,1.24.12-3.67-10.2.45-12.77.48l1.96,1.27-5.62.82,3.23-1.69c.29.18-.23-.15-.84-.53l-6.68,1.26c-1.9.36-4.26.72-6.2.84l-12.81.8-6.25.38-20.02,1.56c-6.08.47-12.22.22-18.3-.18l-11.27-.74c-7.14-.47-13.61-2.21-17.64-2.63-6.9-.72-20.73-4.4-27.52-6.92l-.67-1.14c1.24,2.11-14.91-5.03-15.59-5.42l-20.26-11.54-3.61-2.12c-5.79-3.41-9.57-8.18-14.25-12.66l-6.14-5.87c-3.36-3.21-6.23-6.3-8.75-10.09l-1.66-2.49-6.67-10.2-7.04-11.57c-2.99-4.91-5.2-10.46-7.69-15.86-1.93-4.19-3.04-8.45-4.43-12.83l-2.78-8.74c-.33-1.02-.55-1.96-.83-3.14l-2.9-11.91c-1.45-5.96-2.5-11.71-3.5-17.78-.62-3.79-2.09-7.72-2.27-11.86l-.41-9.55-1.36,1.05.66-4.21c-1.31-.02-1.65-.32-.06-1.1l-.25-18.84c-.03-2.62.18-5.34.37-7.84l.54-7.21c.39-5.19,1.25-10.16,2.22-15.28l1.19-6.26,1.33-9.66c1.96-14.22,12.53-38.23,20.72-50.29l4.82-7.1c4.92-7.24,8.57-12.99,15.5-18.22,6.88-5.19,10.16-9.47,15.72-14.31l7.52-6.55,6.46-5.01c.61.18,1.62.55,1.51.32s-.02-1.38.18-1.53l7.56-5.42c2.09-1.5,3.77-2.33,5.79-2.61-.28-.24-1.05-.83-.84-.92.87-.38-.55-.41,1.71-.21l2.84-3.65c-.77,5.78,3.48-.97,9.14-4.23l5.95-3.43,4.84-2.69,14.19-7.99c9.48-5.34,11.54-4.93,18.88-8.4l16.89-7.99c14.19-6.71,28.66-11.6,43.55-16.66l27.6-9.38c8.56-2.91,17.02-4.81,25.74-6.95l7.72-1.89,4.86-.82c-2.77,2.55-6.15,1.96-9.25,2.86l-16.9,4.9c6.05-1.17,11.64-2.44,17.44-3.99,7.42-1.99,9.13-1.78,15.65-3.69l-6.01-.27,5.89-1.73c.22.96.18,2.06.52,1.87l1.73-.98c.16-.09.62-.85.62-.85s.59.6,1.04,1.06l1.29-1.86c.34-.49,2.39.17,3,.05,4.64-.88,10.33-2.3,15.07-3.17l21.22-3.88,24.93-2.81c5.01-.56,12.49-2.1,16.97-1.13,10.11-2.27,29.82-2.79,40.77-2.59,3.84.07,7.55.68,11.36,1.08,8.01.85,15.85,1.13,23.72,2.65,5.76,1.11,11.62,1.78,16.99,3.67l13.86,4.88c15.04,5.3,32.99,16.4,44.12,28.97-3.4-.76-5.09-3.89-8.02-5.24l10.94,11.1c1.48,1.5,3.39,2.92,4.87,4.66,3.51,4.14,6.54,8.23,9.16,12.94l4.31,7.75c6.25,11.25,11.49,22.39,13.79,35.11,1.55,8.54,3.52,16.86,3.11,25.5-.28,5.85-.53,11.82-1.56,17.55l-2.68,14.89c-.98,5.47-2.93,10.44-5.05,15.51l-.39-5.43c-2.61,1.46-1.5,5.4-.54,7.35.18.38-.98,1.2-.68.59.12-.24-1.7-1.22-1.9-.73-7.96,19.22-19.83,32.56-35.47,46.85.52.79,1.55,2.32,1.05,2.8l-2.58,2.49c-.23-.38-.81-1.58-.47-2.04l1.55-2.1c.67.16-.35-.08-.64-.15-7.4,6.93-15.82,10.24-22.44,16.42-.26.24-.69,1.53-.9,1.3l-.85-.93c-1.26,1.09-2.23,2.5-4.85,1.58,2.61-2.59,13.32-8.72,13.87-9.18l5.92-4.92c8.51-7.07,17-14.01,24.05-22.53l5.8-7.02,3.47-4.91.73,1.92,2.22-4.67-1.14,1.2c-.2.21-.9-.61-.58-1.16,4.58-7.89,10.29-19.97,11.76-29.5-2.66.66-2.3,3.89-3.06,5.88l-2,5.26c-1.44,3.79-2.82,6.94-4.9,10.29l-8.18,13.16c-1.62,2.6-3.78,4.93-5.81,6.96-.87-.63-1.26-1.16-1.49-.92l-.89.93c-.49.99-.99,1.91-.52,1.35.26-.31.57-.69,1.02-1.15.16-.17,1.21,1.13.99.75-2.92,5.97-12.09,13.15-17,16.64l-3,2.14c-.73.52-1.56,3.14-2.43,2.91-2.42-.71-3.18.96-4.71,2.29-2.29,1.99-5.28,3.75-7.83,5.62-4.63,3.39-7.61,4.61-12.83,6.85-3.5,1.5-6.49,4.13-10.43,4.65-1.57-1.02,5.79-1.71,3.15-2.22-.22-.04-1.18-.37-1.38-.27l-6.31,3.03,4.53.05-13.62,6.17c-1.21.34-1.2.44.11.54l6.44-2.38c2.87-1.06,7.45-2.36,9.68-4.21.43-.35.99.1,1.38.51,2.07,2.12-26.86,10.25-29.85,10.86l-3.93.8c-1.21.03-.93.21.37.74,18.64-2.73,30.3-8.24,47.02-16.63-.87,1.77-2.84,3.31-4.52,4.09l-15.71,7.33,2.21.81-4.88,1.5c-.14-.29-1.12-1.14-1.4-1.05l-11.11,3.54.33,1.79c.06.33-14.77,3.54-16.28,2.92-2.85-.9-5.41-1.21-8.41-.91l-5.07.5c-2.32.23-5.52.71-7.46.58l-10.72-.73c-1.36-.09-2.73-.71-3.96-1.05l-7.22-2.04-3.77-.89c-1.26-.3-17.25-8.55-19.78-10.72l-1.86-.19c-.44-.04-.6-1.97-.93-2.26l-7.01-6.2-4.23-1.36c-.58-.19-1.55-.68-1.73-.34l-.63,1.14c-13.19,4.99-5.92,5.37-11.19,7.96l-8.15,4.01-9.63,4.14c.19-.08-10.91,2.65-12.39.77-4.2,4.78-21.73-.46-26.68-2.68.11-1.05.42-2.09-.02-2.24l-1.74-.62c-15.32-5.46-11.44-9.76-16.66-8.2l-4.26-4.25c-2.64,3.12-5.4,5.07-9.36,5.99-2.52.58-3.66,3.37-5.4,4.76-3.16,2.51-7.21,4.92-11.03,6.27-13.01,4.59-21.56,5.61-35.11,2.35-2.93-.7-5.37-3.21-7.26-5.26l3.07-1.57-2.85-2.78c-.47-.46.56-2.64,1.21-2.56l2.68.32,3.58.43c9.8-4.49,11.08,2.66,25.3-6.35l11.16-7.07c5.54-3.51,7.42-2.11,14.19-11.29-2.28-3.78-3.59-22.47-3.02-25.47l.81-4.24.85-12.23c.36-5.23,5.54-7.97,5.81-10.16.86-6.97,3.88-5.19,8-9.32l-.58-1.21c-.08-.16.64-.67.81-.77l5.45-3.25c2.54-1.52,7.11-2.57,9.94-2.62l8.05,2.82c3.73,1.3,11.76,7.6,9.76,11.61,5.73,10.1,1.67,26.08-3.82,36.05-4.09,7.42-8.37,14.38-13.8,20.86,2.81,3.68,6.5,5.23,10.62,5.64s8.82,2.43,13.26,1.47c4.05-.88,9.21.53,14.08-1.75l9.16-4.28c4.24-1.98,6.86-7.26,10.93-9.59l1.34-.64c.32-.15.39-1.52.3-1.88l-1.92-8.05c1.85,2,2.21,4.17,3.26,6.77-.39-6.02-2.13-5.91-3.17-11.45-.7,1.16-1.04,1.55-.65.11.33-2.65.54-4.97.42-7.46l-.46-9.25c-2.22,4.03,1.73,7.43-1.37,10.95l-.59-11.16c-.02-.33.35-1.66.66-1.66h1.47s1.08-7.64,1.08-7.64l1.47-7.31c-.2-1.03.91-2.95-.95-.98l1.02-4.51c.66,1.85.88,2.43,1,1.07.35-1.84-.15-2.98-.12-4.13.08-3.35,3.82-11.47,5.58-14.85,5.47-10.46,7.29-11.99,16.67-19.52.6-.02,1.58.22,1.81-.14l1.15-1.75c1.4,2.57,4.8-1.8,7.89-1.89,10.08-.27,14.74,1.72,19.87,10.83.68-.36,1.27-.99,1.59-.75s1.14,1.31,1.34,1.75c3.2,7.08,3.72,15.51,2.83,23.36-.64,5.63-.2,11.19-1.27,16.53-1.4,7.02-7.45,22.02-10.93,27.79l-10.65,17.63c-.16.88,6.75,5.01,7.37,5.36l9.04,5.12c.79-.44,1.91-1.54,2.48-1.33l2.41.89-2.6,1c5.21,3.55,5.98.65,14.89,2.44,6.32,1.28,12.35,1.18,18.55-.06l12.77-2.55,5.34-1.17c.91-.2,2.39-1.61,3.27-1.99,3.2-1.37,7.92-3.14,11.66-4.31,2.5-.78,3.5-1.73,5.39-3.44,2.4-2.18,6.23-3.67,9-5.64,2-1.42,3.68-2.37,6.05-3.43l2.86-4.9c1.9-.84,3.23-1.66,4.55-2.93,12.15-11.71,16.66-13.54,24.53-28.52,3.08-5.86,5.7-11.49,7.33-17.97-.21-.31-.49-.72-.51-.73,0,0-.69.48-.9.63-.5,1.07-1.04,2.12-.85.66l3.08-15.54c.35-1.74,1.01-10.02.69-12.26l-1.92-13.36c-1.07-7.4-3.42-14.91-7.07-21.45l-7.62-13.66c2.18.56,1.94,1.09,3.48,1.91l-4-5.27,1,3.89-7.8-9.97c-1.45-1.86-4.03-4-6.17-5.61l-7.67-5.76,1.95-.39c.17-.03.18-.52.05-.61l-7.73-5.15c-.21.55-.06,1.9-.47,1.76l-2.12-.69c-.31-.1-1.44-1.01-1.25-1.28l.9-1.22c-1.66-1.84-1.52-.99-.93,1.11l-18.15-7.26-7.91-2.69c-3.14-1.07-13.95-2.84-17.94-3.22-.94-.09-3.03-.92-4.02-.96l-19.8-.68-5.53-.06-37.27.6c-9.07.15-17.61.18-25.97,2.17,4.44-.35,8.49-.86,13.02-.64-6.85,1.87-14.13,1.96-21.05,3.14-.8-1.08-2.25-1.53-4.21-1.01l3.01,1.22-12.29,1.84c-5.12.77-10.06,2.26-15.16,3.32-8.8,1.83-17.19,3.81-25.88,6.17l-14.69,4c-1.13-.61-2.23-1.08-3.39-1.4l2.05,1.81-12.1,3.74c-7.63,2.36-15.02,4.19-22.68,6.95l-20.73,7.48c-.32-.17-.22-1.85-.62-1.74l-2.71.79,2.73.73-32.98,14.38-13.27,6.43-10,4.38c2.23-2.27,4.78-3.39,7.81-5.25l-5.35,2.29c-3.8,1.63-9.53,4.79-12.31,7.07-.16.13.21,1.46.1,1.63-.11.18-.46.45-.59.28l-1.02-1.21c-.27-.47-.39,2.06-.84,2.34l-16.91,10.67c-3.63,2.29-6.47,4.68-10.02,6.31-2.14.99-3.22,1.54-4.82,3.14-2.66,2.65-6.21,4.57-9.1,7.08-5.93,5.17-11.19,10.84-16.71,16.61-3.58,3.75-16.7,24.28-19.1,30.67-.06.02-.64-.6-.68-.92l-.18-1.72-4.82,11.82c-.75,1.83-.75,3.71-.05,5.32l-.99.42c-.24.1-.41.95-.15.96l1.42.05-2.21,9.1c-3.34,13.75-6.87,41.24-5,54.94l1.12,8.24c1.43,10.46,3.79,20.36,6.36,30.62,4.71,18.8,8.83,29.14,17.86,45.76.48.88.56,2.9,1.33,3.9l4.48,5.89c.93,1.22,2.67,2.76,3.77,4.05l4.55,5.38c5.71,6.75,12.31,12.62,20.01,16.73,11.25,6.01,4.07,4.71,19.35,10.61l7.89,3.05c4.3,1.66,9.18,3.07,13.64,3.75l22.18,3.38c7.26,1.11,14.72,1.76,22.15,1.18l47.09-3.69c4.04-.32,12.38-1.8,12.43.12l1.57-2.21c1.01-1.42,4.83,1.4,9.69-.4,3.25-1.2,6.29-.86,9.77-.61,1.52.11,4.14-.4,6.21-.36,7.56.15,15.02.23,22.31,2.06l6.59,1.65c5.12,1.28,10.27,3.73,14.79,6.43l7.65,4.56c4.08,2.43,5.57,4.09,8.51,8.08l9.43,12.8c4.2,5.7,6.63,12.65,9.82,19.04l9.36,18.79c2.31,4.64,5.15,8.95,8.57,12.87.35.4,1.16,1.69,1.55,1.47l1.59-.88ZM635.81,233.75c-2.79-.57-4.39-.93-6.45-.58,2.25,1.27,4.51.99,6.45.58ZM640.64,233.29l-3.98.35,2.85,1.04c.34.12.72-.73,1.13-1.39ZM647.32,234.35c-2.27-.36-4.25-.35-6.15.02,2.27.36,4.25.35,6.15-.02ZM631.17,269.99l-7.77-.75-1.59-.15c-.23-.02-.44.69-.64,1.21l10-.3ZM617.83,269.86c-6.11-.49-11.81-.49-17.52.01,6.11.49,11.81.49,17.52-.01ZM418.02,271.38l-4.65,1.78c1.74.79,3.83.38,4.65-1.78ZM409.14,274.76c-1.94.62-3.8,1.51-5.79,2.59,2.34.3,4.16-.55,5.79-2.59ZM464.86,295.75l2.15-1.79c.16-.13-.77-.28-.98-.19l-1.57.63.4,1.36ZM356.48,299.07c.31-.17,1.65-1.1,1.3-1.13-.24-.02-.74-.31-.95-.19l-.99.53c-.31.17-1.65,1.07-1.31,1.13.28.05.74.3.95.19l.99-.53ZM415.27,311.08c-1.86.32-3.5.92-5.25,1.79,2,.2,3.57-.4,5.25-1.79ZM774.04,343.66c.2-1.71-.06-3.26-.97-4.89-.2,1.71.06,3.26.97,4.89ZM775.87,367.29c1.43-5.77.7-11.09-.87-16.23-.34,1.79-.11,3.31.04,4.95.33,3.77-.14,7.33.83,11.28ZM776.58,369.35c.08-.64-.29-1.63-.97-2.38-.54,2.8-.72,4.71.33,7.65l.65-5.27ZM774.56,379.34c1.96-.97,1.59-2.9.93-4.67l-.93,4.67ZM737.25,388.2c1.12-4.3,1.76-8.21,2.14-12.94-2.82,1.39-1.97,3.36-2.05,5.48-.09,2.52-.17,4.77-.09,7.46ZM770.22,380.29c-.21.18-1,.99-1.03,1.27l-.67,6.27c1.65.2,3.02-8.65,1.71-7.54ZM773.23,392.97c1.11-3.92,1.85-7.73,1.71-11.82-1.59,3.84-2.2,7.54-1.71,11.82ZM586.07,385.91l2.59-3.74-2.37,1.09c-.51.23-.5,1.91-.21,2.65ZM576.48,423.93c2.63-1.78.78-3.97,1.49-5.33,1.39-2.67,2.41-5.21,3.65-7.87l5.07-10.91c1.93-4.16,1.64-9.19,1.16-14.06-3.24,4.01-4.74,8.07-6,12.42-2.55,8.84-6.46,16.95-5.37,25.75ZM765.87,398.13c2.8-1.77,2.09-5.05,1.74-7.37l-1.74,7.37ZM761.29,400.31c1.75-.62,2.16-2.14,1.6-3.54l-1.6,3.54ZM740.19,397.49l-5.86,11.7c1.37,2.45,7.03-12.66,5.86-11.7ZM482.18,442.16c1.75-1.58,3.15-3.46,4.41-5.79,6.52-12.04,4.41-3.63,7.9-18.12.85-3.54.7-7.3-.92-10.74-2.14-.23-4.03,1.31-5.2,3.18-6.36,10.22-7.08,17.57-6.84,29.08.61.05,1.42-.03,1.33.27l-.68,2.13ZM757.06,412.1c1.95-1.2,2.63-2.97,2.14-5.05l-2.14,5.05ZM479.86,434.8c.69-2.72.63-4.73.43-7.2l4.82-14.9c-2.53.42-8.15,21.23-5.25,22.1ZM606.93,420.29c1.9-2.15,3.03-4.52,2.5-7.53l-2.5,7.53ZM729.82,417.43c1.21-1.67,2.39-3.19,2.37-4.45l-4.49,5.19c-.29.33,1.01.8,1.24.48l.88-1.22ZM725.49,423.33l1.79-2.97-1.81.91c-.38.19-.26,1.57.01,2.06ZM230.89,429.74c.4-1.76.7-3.42.94-5.52-1.08,1.63-1.46,3.41-.94,5.52ZM734.97,446.25c1.99-.09,2.87-1.19,2.61-2.63l-2.61,2.63ZM510.1,488.77c5.39,1.27,10.04,2.14,14.74,1.27l10.3-1.9c7.28-1.34,5.42-.53,14.16-4.6,3.66-1.7,6.83-4,10.56-6.62-2.75-.08-2.35,1.37-9.16,4.4-5.41,2.41-10.77,4.94-16.7,5.95-12.24,2.07-12.17,2.11-23.91,1.49ZM586.6,483.43c-.32-1.67-1.11-2.34-2.42-1.99l2.42,1.99ZM593.34,487.1c-1.29-1.97-3.02-2.88-5.07-3.06,1.25,1.77,3.08,2.95,5.07,3.06ZM676.04,485.75v-1.68c-3.19.66-4.09.85-6.7,2.32,2.18.12,4.01-.12,6.7-.65ZM658.31,489.14l8.2-1.84c-.26-2.06-9.04,1.08-13.18,1.88-1.56.3-2.63.15-3.49,1.4,3.02-.41,5.58-.79,8.47-1.44ZM614.93,494.09c-1.88.54-5.93,1.43-6.3-1.68-2.02-.39-4.83-.75-6.98-1.66l-4.9-2.07c1.06,2.24,2.64,2,4.16,2.67,4.84,2.15,9.51,3.86,14.82,4.98l-.79-2.24ZM646.11,490.72c1.88.42,2.56.63,2.48.36s-.03-1.18-.31-1.14l-1.45.19c-1.28.97-1.89,1.45-.72.59ZM644.39,492.05l-.62-1.34-6.63,1.01,7.25.32ZM628.51,497.99c-1.25-3.46-5.63-3.63-7.67-1.07l7.67,1.07ZM633.04,496.9l-4.49-1.48c.66,2.4,3.31,2.19,4.49,1.48ZM644.62,497.32c-1.66-2.2-3.51-1.7-5.88-1.05l-4.38.88c3.65.43,6.49.4,10.26.17ZM652,496.31c-1.56-.24-2.93-.24-4.12.02,1.56.24,2.93.24,4.12-.02ZM664.4,496.01l-4.47.95c1.62.65,3.16.46,4.47-.95ZM233.78,543.99c.65-2.38.35-4.02-1.19-5.19.26,1.77.63,3.39,1.19,5.19ZM238.09,560.99c.79-2.08.68-4.06-1.37-5.74l1.37,5.74ZM241.04,568.94c.15-2.78-.54-4.32-1.69-6.01-.05,2.38.62,4.27,1.69,6.01ZM254.5,598.54c1.22-3.39-2.06-5.07-3.12-7.4l-7.97-17.5c.15,2.48.91,5.01,2.04,7.21l9.05,17.7ZM265.6,612.8c-2.75-3.23-6.38-8.43-8.44-11.7-.22-.35-1.77-1.1-1.84-1,2.71,5.82,8.09,12.24,12.33,16.4.23.23.59,1.57.74,1.42l.82-.87-3.61-4.25ZM692.25,603.45c-3.48-.18-6.86.5-10.24,1.52,3.55.04,6.86-.25,10.24-1.52ZM355.8,667.63l-21.03-5.93c-12.36-3.49-36.8-15.16-45.91-23.82,1.14-.47,1.54-.71,1.93-.61l1.79.45c-5.14-5.05-2.89-.86-12.22-7.92-2.3-1.74-3.57-4.48-6.39-5.73,3.22,4.6,7.04,8.12,11.04,11.9,5.19,4.9,10.34,9,16.74,12.57,12.18,6.8,24.72,12.42,37.96,17.04,9.6,3.35,16.36,4.86,26.49,6.48,4.05.65,8.2,1.58,12.24,1.33l5.62-.35c-9.15-1.92-18.49-2.64-28.26-5.39ZM515.97,637.52c-3.07-.61-6-1.23-9.49-1.36l7.19,1.89c.29.08,1.37.58,1.32.57-.03,0,.44-.52.98-1.11ZM365.18,667.21c-1.94-.57-2.81-.8-4.03-1.02,1.29,1.08,2.79,1.47,4.03,1.02ZM456.22,669.11c1.13.63,3.46.71,3.52-.69l-3.52.69ZM444.11,670.84l-14.48.79c-2.62.14-5.32.5-8.24.91,2.56,1.1,20.71.42,22.72-1.69ZM448.12,670.2c-2.04.21-3.06.33-3.37.42.88,1.58,3.06.56,3.37-.42ZM394.78,673.39l-4.04-.75c-1.99-.37-4.26-.13-5.83.39,3.84,1.28,6.44,2.07,9.87.37ZM407.27,674.33l-2.59-1.95-7.48,1.52,10.07.43ZM420.18,672.89c-2.69-1.23-4.63-1.48-5.69,1.18l5.69-1.18ZM408.13,673.13c-.39.08.53,1.29.91,1.14l1.05-.4c.25-.09-.14-1.14-.4-1.08l-1.56.34ZM413.52,674.28c.41.05.73-1.46.34-1.43-.28.02-1.32.03-1.52.2l-.94.85c-.17.15,1.39.3,2.12.39Z"/>
  <path d="M597.01,715.73l-4.18,4.65c-.33-.78,4.02-8.7,4.84-8.02l-.66,3.36Z"/>
  <path d="M449.48,675.59c-2.31,1.07-4.71,2.4-6.71.05l6.71-.05Z"/>
  <path d="M651.94,609.4c-1.71,1.49-3.85,2.92-5.89,3.84,1.53-2,3.05-3.73,5.89-3.84Z"/>
  <path d="M552.96,404.74l-.83,4.03c-.74-1.68-.51-3.05-.1-4.57l.37-1.37c.07-.28,1.21.11,1.11.38l-.54,1.53Z"/>
  <path d="M273.49,350.75c.46-1.2,2.06-2.88,2.98-2.52.43,1.26-1.59,2.46-2.98,2.52Z"/>
  <path d="M436.86,677.49l-4.67-.1c1.84-.96,3.62-2.08,4.67.1Z"/>
  <path d="M652.82,463.34l-2.11,1.01-.09-1.54c-.02-.43,1.45-.26,1.87-.42l1.22-.47c.24-.09.44.78.2.89l-1.09.52Z"/>
  <path d="M455.85,674.32c-1.3,1.8-2.81,1.44-4.28.8l4.28-.8Z"/>
  <path d="M404.04,679.38l-5.4-.05c1.44-.56,2.97-.54,5.4.05Z"/>
  <path d="M697.24,485.01c-.63.62-1.24,1.27-1.36,1s-.71-1.03-.43-1.12l1.41-.45c1.29-.64,1.52-.54.37.58Z"/>
  <path d="M551.11,413.01l-.44-1.91c-.14-.6.42-1.29,1.48-1.74l-1.04,3.65Z"/>
  <path d="M764.26,422.33c-.72-.8-.18-2.11,1.49-2.87l-1.49,2.87Z"/>
</svg>