<?xml version="1.0" encoding="UTF-8"?>
<svg id="Layer_1" data-name="Layer 1" xmlns="http://www.w3.org/2000/svg" viewBox="0 0 1000 1000">
  <path d="M654.33,715.89l-60.09-.73-31.11-.53-53.41-1.36c-13.18-.34-19.8,1.23-32.9.91-14.18-.35-3.5,1.98-11.89,2.04l-16.25.13-55.3.17-28.11.07-42.67-.46-53.84-.82c-13.62-.21-26.52.12-40.14.55l-40.1,1.27-55.1,4.2c-11.51.88-22.43,1.43-34,1.16-27.36-.65-8.06-.1-21.78-3.65-.73-.19-2.59-1.33-2.73-2.04-.18-.89,1.04-2.25,1.86-3.43l-4.82-3.43,4.05-.81-3.46-1.93c-.82-.46-.01-2.75.53-3.55l2.08-3.08c-9.17-6.44-8.01-36.25-7.36-47.46l-17.79-3.44c-.16-.88,1.21-2.97,2.18-3.86l-.79-2.73c-1.22-4.21,13.26-4.34,20.59-6.93,4.04-1.43,3.52-8.47,5.34-10.74,10.55-11.54,10.56-12.58,23.79-22.44l35.7-26.6c12.47-9.29,25.08-16.92,38.51-24.8,3.83-2.25,7.51-5.29,11.06-8.05l31.63-24.53c6.19-4.8,12.61-8.31,20.04-11.33l1.3,3.66c30.96-5.55,61.52-5.16,93.72-3.75,2.34-7.64,2.52-15.24,3.99-23.1l15.67-83.71,6.27-46.92,5.34-28.89,3.8-34.08,2.71-20.89c.28-2.14,1.43-6.54,2.65-8.25l4.58-6.38c9.29-3.84,19.12-7.21,29.02-10.17,3.5-1.05,8.66-1.06,11.25-3.43,2.74-9.15,6.95-30.27,20.06-25.41l2.29.85c.47.17.46-.77,1.14-2.4,9.99,4.82,12.58,13.96,20.27,9.08,5.84-3.71,12.16-7.41,18.76-9.56,5.28,3.63,9.87,1.07,18.24,4.62,6.72,4.72,11.27,10.4,19.12,7.03.55-.69,1.04-1.83,1.74-1.84l3.37-.06c.15-.37.3-1.35.65-1.26l2.46.64.49-2.82c.16-.92,3.91.14,4.98-.32,5.02-2.15,12.8-1.24,18.77,2.83l7.67,5.23c8.7,5.93,16.46-4.94,36.77-5.32,3.73-.07,7.49,3.89,10.74,5.78,5.79,3.37,18.28-1.74,24.69,4.86,2.69,2.77,6.25,7.72,7.26,10.98l2.73,8.79c1.84,5.93,2.47,12.43,3.82,18.68,2.64,12.26,5.33,24.13,7.35,36.5l4.17,25.51c1.42,8.67,3.29,16.77,5.43,25.23s3.58,16.94,5.23,25.51l1.69,8.76,3.11,9.08,9.24,51.84c2.92,16.37,6.99,31.83,11.16,47.9l3.78,14.57,18.12-2.44,48-2.58c8.04-.43,15.81-.23,23.84-.11l39.89.61,87.36-.42c3.03-.01,5.44-.67,7.83-1.85.59.27,2.02,1.18,2.63,1.1.77-.1,2.15-.5,2.94-.56l3.99-.29c.54-.04,1.97.04,2.14.53l.77,2.22c10.11-1.21,4.86,5.45,11.72,7.07l2.68,20.01c1.04,7.8-.58,16.46-1.29,24.01l3.86,1.45c0,2.63-.04,7.63-.69,9.82-2.4,3.59-5.4,8.22-8.38,11.42-14.86,15.99-30.1,30.69-46.35,45.13-7.08,6.28-14.21,11.61-21.74,17.41-11.02,8.48-20.32,18.27-30.39,27.97-10.78,10.38-21.25,19.84-32.83,29.31-6.34,5.18-10.55,4.08-9.93,5.35-.18-.36-.97-1.62-1.36-1.74l-6.61-2c-10.02,3.46-15.47,3.83-26.67,4.3l-30.18,1.26c-4.24.18-8.97-2.09-13.15.19,4.21.37,7.56-.18,11.55,1.22l-56.06.51-22.88-.02ZM517.02,234.05c-2.34-.37-4.39-.36-6.18.03,2.34.37,4.39.36,6.18-.03ZM517.23,265.73c10.08-3.4,20.81,1.71,26.91,9.88l4.87-.67c12.53-11.6,12.18-6.27,14.81-5.8,15.94,2.83,8.97,8.69,18.72,6.12l2.66-17.04,6.83-5.09c3.34-2.48,8.44-3.44,12.33-5.16-5.5.42-8.57-4.19-12.58-5.49-8.01-2.6-34.44,16.43-46.2-3.34-1.34.36-3.28.89-3.82.18-.65-.86-.65-2.57-.66-3.58-.99-5.13-13.04,2.69-15.1,4.23-.73.55-1.36,3.19-2.25,3.12-.74-.05-2.54-.42-3.29-.41l-17.62.17,3.09,1.92c-11.52.86-16.38-14.92-25.98-8.73-14.28,9.21-23.5,14.72-39.15.05l.95,14.55c.37,5.7-.06,10.79-2.12,16.23l9.21,9.31c1.71-.99,1.23-.23-.04,1.74,10.34-1.1,17.55-16.08,34.52-11.49,3.25.88,6.59,4.18,9.26,6.5,8.34,7.25,9.37-2.03,24.65-7.19ZM405.48,247.15c-2.42.1-21.65,7.63-20.02,8.57,1.24.05,23.6-8.02,20.02-8.57ZM404.14,274.69l14.53-9.07c3.95-2.46,8.31-2.98,13.29-2.76l-.11-11.82c-3.96,4.32-7.92,7.09-13.34,8.8l-21.73,6.87c2.11,3.07,4.67,5.75,7.36,7.98ZM607.78,401.28l.61-45.08-.43-16.98-1.5-22.33c-.48-7.21-2.66-29.9.58-34.73.32-.47,2.02-.38,2.27.13l1.17,2.4c2.22,4.57,2.31,9.08,3.16,14.11,3.04,18.15,4.71,35.76,4.65,54.16l-.12,35.28c-.06,18.29-.84,21.02,2.01,40.63,1.11,7.64,4.49,44.73.17,49.12,2.54,5.04.32,12.37,2.74,20.69l3.16-1.57c-.1.05,14.28,6.24,11.86,4.91l30.35,16.77-5.53-22.6c-4.36-17.79-6.95-34.9-10.45-52.89l-13.85-71.13c-2.06-10.59-3.51-20.59-4.87-31.15l-4.09-31.79-1.71-9.39-3.98-22.01-2.77-16.55c-6.92,3.06-12.34,4.99-18.72,6.76-1.35,3.51-1.72,8.46-1.32,12.4l.42,4.18c.08.84-2.16,2.39-2.72,3.23.1,6.09,1.06,14.38.78,21.03l-1.4,33.32-5.81,46.92-3.29,37.84c-1.86,21.38-4.13,42.18-7.97,63.51-1.85,10.29-2.31,19.93-3.12,30.28l-1.15,14.72c-.52,6.68-.96,12.25-.48,19.61l6.04-11.93,16.85-32.03c.57-1.08,11.33-13.13,11.71-10.3l.66,4.86,4.86-4.02,4.08-.31-1.16-6.87c.88-3.7.08-6.31-.82-10.18-.96-4.15-.55-8.72-.95-13.32l-2.3,4.72c-2.26-7.18.12-11.61-2-19.46.3-1.04.71-3.01.54-4.97l-1.85-22-1.75,5.24c-1.47-7.67-2.18-15.67-2.36-23.94l-.2-9.31ZM379.9,288.31c.35-4.15-1.12-9.16,3.12-10.98l-3.75-3.67-3.3,35c-.32,3.34-.73,6.41-.23,9.31,1.8-10.01,3.27-19.22,4.16-29.66ZM557.41,494.99c3.54-22.79,5.04-45.31,6.51-68.41.43-6.76.84-12.74,1.76-19.47,2.45-17.94-.76-8.22,1.35-25.88l3.77-31.52c.53-4.41.82-9.09,1.09-13.68l1.81-30.71.8-8.18c-6.18.27-9.27-1.15-13.38-4.92-9.49,9.97-23.86,10.24-33.06.45l-5.58-5.94-9.97,6.8c-4.61,3.14-8.62,4.08-14.08,4.16-16.8.25-12.97-10.39-23.38-13.52l-13.27,8.64c-7.35,4.78-18.22,4.41-24.44-1.65-3.68-3.59-6.04-6.75-9.76-10.91-10.13,4.47-19.98,15.68-33.2,8.37-3.91-2.16-11.24-14.82-10.23-7.41.62,4.53.69,11.29.25,16.47l-2.5,29.42c-.14,1.67,1.12,4.68,1.57,6.18l-1.55,24.33c-3.3,51.92-20.47,117.1-25.03,171.08-.67,7.91-2.47,14.73-4.37,22.77l47.2,6.99c7.41,1.1,14.23,2.52,21.71,3.14,19.63,1.63,45.97,5.95,65.31,10.17,7.66,1.67,15.07,3.46,22.71,4.62,7.12,1.08,14.07,1.39,21.04,2.98,4.3.98,7.83,4.08,11.33,5.6,3.52,1.52,6.01,2.29,10.27,4.56.28-1.68.51-5.09.65-7.87l.59-11.17,1.45-38.47,1.76-30.55c.12-2.17.46-4.18.81-6.47ZM373.92,338.71l1.47-3.2c.18-.4-1.52-.98-1.67-.57l-.77,2.17c.76,1.25,1.21,1.98.98,1.6ZM650.03,351.37c2.7-1.86,1.54-4.02-.48-4.14l.48,4.14ZM592.71,572.82l32.25-16.52,33.23-18.51c-10.48-6.84-19.2-13.03-28.38-20.2-4.62-3.61-9.97-6.52-11.81-11.97-2.23,6.35-4.14,11.57-6.52,17.02l-7.1,16.28c-2.45,5.61-4.8,10.96-7.67,16.41l-11.68,22.18c2.96-.8,5.39-2.25,7.66-4.68ZM860.35,561.11c11.4-9.71,20.7-15.21,32.83-28.21-25.78.49-50.2.84-75.87.13l-50.31-1.38-54.08-2.19-15.23-1.8-5.5,1.7c1.91,1.43,3.26,4.88,2.47,7.6-.95,3.3-2.62,5.52-5.87,7.19l4.25,2.89c-3.24,3.61-6.68,5.32-10.24,7.83-15.15,10.66-22.75,10.53-41.16,20.26l-13.92,7.36-12.65,5.45-15.11,7.95c-8.01,4.21-15.04,10.91-23.39,13.51l-7.13,2.22,2.45-7.37c-3.74,1.64-5.46,1.91-7.73.88l-4.01,1.01-2.72-8.55c-2.21,7.03-7.33,9.2-13.47,9.13-17.43-.22-37.91-2.44-55.25-5.62l-44.01-8.06c-3.85-.7-8.16-.67-12.08-1.03-19.97-1.84-39.51-3.63-58.92-8.45-7.08-1.76-13.91-2.15-21.27-2.82-15.29-1.4-26.83-17.05-16.37-14.97-.04.81.04-.8.06-1.17l-2.63-.08c-.4-.01-.15-1.13.08-1.46l.9-1.29c-.66-.31-3.66-1.24-4.56-1.92-1.77-1.33-1.31-6.68-1.83-8.83-.49-2.03-1.44-4.97-1.07-6.86l3.02-15.5-33.02-.09-30.14-.47c-9.91-.15-19.31-1.2-28.91-3.2-22.24,25.08-40.95,41.54-69.11,59.64-7.56,4.86-14.37,10.37-21.44,15.84l-19.19,14.82-9,7.07c-3.89,3.06-7.25,6.26-11.28,10.17,39.21-2.6,76.23-1.99,114.78-.9l96.69,2.75,65.21-.92,96.45.26,32.35.72,12.59.22c12.53.22,15.91-.38,28.97-.2l21.4.29c19,.26,44.92-2.18,61.04-1.32l11.27.6h6.89c1.64,0,5.13,1.77,6.27.58,1.84-1.91,5.21-1.69,7.02-.89l-5.54,1.63,14.91-1.45c7.27,4.68,3.51-2,17.24-.64,1.18,1.24,1.37,1.84,2.09,1.79,8.86-.65,5.91,1.49,12.22.5l8.06-1.26,6.4.15,40.48-.58,24.17-.37c1.02-.02,3.42,1.63,4.2.99s2.16-2.33,3.05-3.26l10.83-11.32c3.53-3.69,6.87-7.05,10.99-10.14,2.07-1.56,4.03-3.49,5.31-6.45-5.64,4.78-11.36,9.5-16.92,14.88-3.93,3.8-7.31,8.09-12.2,11.23-1.78-1.68-1.82-5.28-.05-7.23,16.49-18.29,34.66-34.09,53.37-50.03l12.88-10.97ZM883.51,527.45c4-.12,7.86-.87,11.9-.32,2.29.31,4.33-.29,5.9-1.67l-10.07-.39c-1.26-.05-4.03.49-5.58.52l-27.42.54c-7.21.14-14.47-2.21-21.75,1.2,16.17.58,31.28.61,47.02.13ZM885.45,586.92l10.09-9.06,6.99-7.09c10.33-10.47,6.45-4.39,15.02-13.22,2.92-3.01,7.73-4.97,10.41-8.64,1.46-2,.38-7.57-.05-9.62-5.15,4.83-9.78,9.29-14.45,14.29-7.24,7.75-14.84,14.33-23.02,21.18l-46.94,39.37-38.29,35.08,1.38,12.01c2.55-2.97,5.22-6.47,8.6-9.24,24.89-20.38,46.38-43.64,70.26-65.07ZM840.98,643.86l-13.22,10.84-19.43,16.81c-1.94,1.68-2.81,5.09-2.7,7.77l.49,12.31,6.01-7.43c15.63-19.34,33.01-36.14,51.47-52.85l37.53-33.97,29.48-29.43-2-14.67c-7.2,4.14-13.74,9.14-18.26,16.33,2.29-1.23,3.89-2.1,5.46-2.63l-3.85,4.27c-2.51,2.79-5.44,7.12-9.3,7.08,1.83,6.27-8.34,6.09-6.8,11.02-2.18,1.64-4.79,3.55-6.77,6.25-10.86,14.82-33.54,36.34-48.12,48.31ZM804.22,644.54l10.88-12.33-13.12,9.41c-.67.48-2.16,2.25-1.68,2.71l1.25,1.21c.36.35,2.32-.58,2.68-1ZM694.73,635.34c.08-1.07-2.62-1.47-3.77-.66-.21.87,2.14,1.3,3.77.66ZM782.96,641.03c-7.23-.78-13.64-.11-20.48.62l-10.58,1.12c6.63,1.04,23.25.39,31.06-1.74ZM751.07,642.68c-2.34-.37-4.39-.36-6.18.03,2.34.37,4.39.36,6.18-.03ZM674.85,672.42l52.11-2.31c3.5-.16,7.28.72,11.13.87l.07,2.01-22.33.6-40.25,2.09-82.4.58c3.96,3.28,8.27.17,12.13,1.26,5.51,1.56,18.14-1.34,27.54,1.44-5.87,2.03-12.23-.13-17.87.53-4.27.49-8.32.32-12.43.31-11.95-.02-23.93.4-36.39-.38l-41.81-2.62c-10.54-.66-36.68-2.49-45.19-.65-6.27,1.36-10.99,1.14-17.01.79,2.43.14-38.6.83-39.6.9-49.43,3.71-98,4.54-147.62,4.84-24.04.15-46.55,0-70.38-1.94l-22.22-1.8c-30.54-2.48-58.53,3.19-86.87-2.18l.06,19.18,41.83-2.13c31.73-1.62,62.42-4.32,94.26-4.5l49.25-.27,51.33.68c24.37.32,47.73,2.01,72.04,1.24l63.98-2.03c12.59-.4,24.78-.3,37.19.9l20.78,2.02,43,1.05,30.96-.41c17.09-.23,33.27-.89,50.43-.35l55.32,1.72c17.29.54,33.68-1.9,51.28-.76,8.72.57,17.8-2.37,26.57.31-.78-15.41-.94-28.93.47-44.49-3.89-.14-7.99.26-12.01,1.39-1.02-1.26-1.32-1.25-1.84.92l-2.41-1.28c-.38-.2-1.89,1.46-2.59,1.5l-35.53,2.14c-3.32.2-5.52.7-7.52,1.87-8.59-5.85-11.38,3.65-15.72.74l4.24-1.76-8.28-.12c-.26,0-.46,1.54-.57,1.79-.11.22-.31.35-.48.15s-1.24-1.99-1.5-1.96l-9.21,1.14,5.16,1.9-61.48.62h-18.13s-31.19.11-31.19.11l-10.01.45-116.46-.3-57.34.25-105.33.02-56.39-2c-29.06-1.03-57.19-3.05-86.32-2.6l-60.51.94,2.11,19.25c5.14-1.31,9.68-3.03,14.56-3.33l45.88-2.73c22.06-1.31,43.37,1.74,65.32,2.69l23.99,1.04,16.18.4,26.63-.57c43.52-.92,86.34-1.32,129.92-4.43,10.87-.78,20.59-1.16,31.27-1.16l20.99-.02,40.71,1.43c8.06.28,15.46.87,23.74,1.78l12.55,1.37c12.24,1.34,24.18,2.67,36.55,2.25l8.88-.3,13.18.19c3.04.04,7.26.88,9.84.61,3.68-.38,6.5-.46,10.38-.33,13.75.48,27.23.36,40.92-.19l8.44-.34ZM591.64,677.48c-4.49-1.83-8.67-1.46-12.51-.46l12.51.46ZM721.02,714.09c-3.79-.78-7.08-.76-10.22-.07,3.92.49,7.14.52,10.22.07Z"/>
  <path d="M656.19,315.42c-2.7-4.44-2.89-8.93-2.13-13.68l2.13,13.68Z"/>
  <path d="M659.27,338.05l-1.69-3.94c-.38-.89.66-2.21,1.92-3.41l-.24,7.36Z"/>
  <path d="M532.38,336.24l-1.52,9.13-4.34-2.8c-1.7,5.18-2.2,10.62-2.69,16.46-.62,7.4-2.58,14.54-4.24,21.71-2.98,12.84-8.14,24.6-16.38,34.84-.31.39-1.34,1.59-1.67,1.33l-1.91-1.45-9.26,10.5c-11.55,13.09-19.62,9.38-19.6,15.14-9.5,4.62-23.19,5.02-32.91-.92-10.44-6.37-16.59-16.98-19.94-28.64-7.4-25.77-2.81-44.5,3.12-69.56-2.61-3.62-5.16-7.84-4.41-12.22.76-4.46,3.9-8.51,8.22-10.71,6.94-3.53,15.49-1.4,18.71,5.89l-.18,7.21c-.05,1.94-1.86,4.91-3.28,8.09l-5.35-4.01c-1.77,2.55-2.88,6.57-3.52,10.5-3.23,19.75-4.26,39.29,1.02,58.82,1.38,5.1,4.45,10.39,7.33,14.64,5.99,8.84,16.48,10.97,25.99,6.66,10.67-4.84,18.09-13.46,24.4-23.45,9.77-15.45,13.01-33.11,15.14-51.16.74-6.23.57-11.39.57-17.46,0-9.72,13.4-15.09,21.37-11.24,5.36,2.59,7.63,7.64,7.55,12.94l-1.12-.81c-.31-.22-1.03.18-1.09.56ZM506.97,352.14c1.62-2.42,2.21-5.12,1.41-8.27-.59,2.63-1.03,5.1-1.41,8.27Z"/>
  <path d="M556.6,480.26c1.41-3.14-2.3,30.25-3.73,22.51.76-8.04,1.74-15.18,3.73-22.51Z"/>
  <path d="M552.61,521.81c-.61-3.55-.62-7.14-.03-11.23.61,3.55.62,7.14.03,11.23Z"/>
  <path d="M558.64,465.57c-.47-2.16-.47-4.5-.03-7.2.47,2.16.47,4.5.03,7.2Z"/>
  <path d="M557.64,472.59c-.39-1.79-.4-3.84-.03-6.18.39,1.79.4,3.84.03,6.18Z"/>
  <path d="M614.58,479.64c-.02-.39,1.92.34,1.9.73l-.09,1.65c-.02.39-1.65.96-1.67.57l-.14-2.95Z"/>
</svg>