<?xml version="1.0" encoding="UTF-8"?>
<svg id="Layer_1" data-name="Layer 1" xmlns="http://www.w3.org/2000/svg" viewBox="0 0 1000 1000">
  <path d="M304.95,605.58c-2.17,3.43-3.87,6.23-5.66,9.4l-5.16,9.15-9.87,18.11c-.65-2.53.11-3.6.57-5.99l-3.7,2.82c2.6-9.55,6.25-17.21,10.6-25.26l7.7-14.23c.78-1.44,2.03-2.6,1.05-3.93-3.51,5.33-5.66,11.11-9.4,15.75l-7.45,9.25,3.03-8.36c-2.5,4.63-4.47,9.29-8.25,13.39.2-6.55,4.33-10.68,5.93-16.17.55-1.89,1.19-3.66,2.19-5.41l3.88-6.78c1.6-2.8,3.94-5.13,4.28-8.57-1.65.42-6.5,12.41-7.48,11.11l-1.1-1.47-1.74,1.14c-.5.33-1.16-1.78-.85-2.4l4.38-9.08,7.69-16.56c6.29-13.55,14.54-23.75,21.19-35.88,6.67-12.15,11.06-16.23,17.35-27.93,1.13-2.11,3.09-4.56,4.4-6.72l5.14-8.48c3.74-6.17,7.94-11.96,12.47-17.55l18.86-23.28,6.5-8.28,13.57-17.49c-1.84-3.96-4.52-5.99-7.24-8.87l-19.7-20.92c-2.12-2.26-4.1-4.22-6.12-6.65l-12.92-15.61c-1.6-1.93-2.37-3.39-2.99-5.54l-6.39-8.58c-2.55-3.43-5.22-6.77-5.66-11.06,3.29,1.68,3.95,3.77,6.74,2.41-2.56-6.42-6.36-6.8-7.07-13.05l3.75,1.73-.83-3.14c-.08-.29-.89-1.17-.67-1.36l1.41-1.22-1.72-3.39,2.3-5.95,5.86,5.65c1-.28,2.74-.4,3.24.15l7.87,8.74c-2.06-3.54-2.79-5.81-4.52-8.64l-4.12-6.75-2.28-4.51c.25-.62,1.77-1.95,2.61-2,2.24-.13,6.49,2.57,7.91,6.47l1.28-3.45-3.78-6.71c-.26-.46-.45-1.91.01-1.93,2.63-.11,5.2,5.7,10.03,8.05l.42-7.48c3.95,2.5,6.13,4.67,9.35,7.16,1.26.98,3.75,1.9,4.97,3.18,4.87,5.09,5.12,4.77,8.8,8.69,1.79,1.91,3.59,4.15,5.44,5.92,4.87,4.68,9.61,9.17,14.2,14.22l6.13,6.76c7.12,7.85,6.43,3.17,16.86,15.45,1.18,1.39,3.2,4.14,4.5,3.16,1.89-3.08,3.32-5.16,5.62-6.74l-.13,1.79c-.02.31,1.17-.15,1.4-.41l4.4-4.93c3.07-3.44,5.76-6.78,9.25-9.73,7.54-6.39,13.04-14.34,19.69-21.54l15.16-16.43,19.53-20.28,12.11-12.83,9.88-8.85,4.01-4.3c6.04-6.48,15.88-15.3,23.03-20.61l9.59-7.12c3.18-2.36,7.46-3.7,11.16-5.4,3.42-1.58,5.6-4.13,10.35-3.11-3.58,4.21-6.78,5.28-9.89,9.37,9.38-5.32,5.46,1.48,13.8-6.98l5.63-5.71c1.14-1.15,4.57-2.24,5.88-2.82-1.43,3.36-5.88,1.85-6.5,6.06l18.63-9.05c.56-.27,2.49-.15,2.34.32s-.65,1.39-1.14,1.68l-5.64,3.4,2.76-.06c.41,0,1.27.59,1.09.95l-.91,1.75-.65,1.26c-.13.25.1,1.13.37,1.04.41-.12,1.52-.53,1.9-.77l8.22-5.15c3.05,1.44-3.18,5.02-2.1,6.05l1.33,1.26-9.57,7.95c3.13.07,3.44-2.98,7.11-1.96-5.16,5.67-12.43,8.71-17.01,14,.92.41,2.02.92,2.05.94.16.08-10.41,9.08-10.17,10.88l15.07-12.32c1.61.62,3.75.81,4.9-.3,4.95-4.8,9.94-8.79,15.56-12.38,1.87,3.93-.81,6.04-2.23,8.87-1.81,3.59-4.1,6.11-7.21,8.82-4.32,3.76-8.3,7.73-12.06,11.71,3.48-.48,3.39-4.1,7.06-3.36-.98,1.77-2.35,2.96-4.06,4.38-4.6,3.79-10.44,12.89-13.94,15.91l-14.17,12.23c-2.71,2.34-5.62,4.21-8.12,7.07-1.2,1.37-3.06,1.84-4.97,1.81l.67,1.72c.21.55-.8,1.35-1.4,1.91l-4.71,4.34c-2.66,2.45-4.89,5.04-7.32,7.71l-21.13,23.22-11.21,12.1-7.21,7.95-17.79,18.26c-1.32,1.36-2.67,2.92-3.88,4.31l-15.12,17.23-8.27,8.95,5.28,6.67c2.11,2.67,4.64,5.49,7.01,7.92l5.22,5.35,19.28,19.74,3.07,3.07,7.54,7.5,7.08,7.21c1.83,1.87,3.91,3.69,5.56,5.7l3.69,4.51c-2.54-.61-3.52-1.28-4.99-.59,3.35,4.14,10.23,9.09,11.06,13.28.09.44-1.97,1.04-1.68,1.37l1.83,2.04c.38.43-1.28,2.1-1.85,2.15-1.41.11-3.49-.47-5.96-.94-.82.02,6.55,8.58,2.46,7.08-3.75-1.37-8.83-5.28-11.96-8.32-1.58.78,2.65,2.34,1.04,2.83-.4.12-2.33.49-2.65.27l-11.01-7.27c4.16,7.74,10.18,11.45,13.92,17.54l-9.3-2.1,3.16,4.52c1,1.44,1.95,2.98,3,4.67l-2.16,2.32c-9.85-4.1-4.86-4.24-13.06-7.4l2.96,4.35-2.87-.83,3.86,5.69c-4.05.38-15.42-9.29-15.42-9.26-.01.11-.15.58-.43,1.58-4.85-2.51-8.46-6.39-12.94-9.9-17.58-13.77-33.76-28.56-49.6-44.39l-27.83,32.19c-2.14,2.48-4.18,4.8-6.07,7.5l-15.32,19.29-8.88,11.54-2.97.84c-2.73,5.43-6.17,9.96-9.58,15.04l-7.27,10.83-6.56,8.59-4.41,6.1c-2.69,3.73-4.89,7.52-7.28,11.41l-8.62,14.06c-1.02,1.67-2.5,3.4-4.03,5.49l1.1-5.2c-7.11,8.41-7.03,14.28-14.73,23.27l1.04-5.15c-3.07,3.74-4.84,7.12-7,11.36-.97,1.91-2.89,3.2-4.33,4.75-2.31,2.5-3.86,6.03-5.85,9.15l-4.04,2.71.13-2.31c.01-.26-.13-.44-.43-.4l-1.88.26,13.37-27.84c-5.64,4.57-5.49,11.57-11.26,15.85l8.78-20.42c1.54-3.58,3.43-6.61,4.03-10.57ZM569.2,245.33c2.78.36,4.02-.87,4.84-3.13l-4.84,3.13ZM573.09,250.36l2.75-2.39c-1.98.19-3.53,1.06-2.75,2.39ZM539.44,278.6l-1.83-.14-2.97,4.22c1.89-.82,2.55-1.63,4.8-4.09ZM564.62,285.41c.64.07-.64-.07-1.27-.14l-1.33,1.71c-.14.19.94.49,1.09.3l1.51-1.88ZM511.23,307.24c4.5-5.18,9.43-9.44,14.11-15.23-5.6,4.22-17.12,14.7-19.63,21l5.51-5.78ZM568.52,312.94c-1.18-.28-1.94,1.57-2.67,3.51,1.26-.01,2.75-.79,2.67-3.51ZM375.3,333.83l-2.62-2.9c-.67,1.3.93,2.97,2.62,2.9ZM462.29,359.67c.87-1.45,1.56-2.86,2.23-4.58-2.16.87-2.9,2.42-2.23,4.58ZM384.92,451.06c3.07-2.11,4.5-4.79,5.95-7.46-2.71,2.39-4.8,4.84-5.95,7.46ZM485.54,446.24c-.36-1.88-1.25-2.63-2.71-2.24l2.71,2.24ZM379.64,456.84c2.12-.4,3.19-1.5,3.1-3.45l-3.1,3.45ZM371.09,468.4c3.97-3.21,6.7-6.16,8.04-10.53-3.19,3.53-5.91,7.02-8.04,10.53ZM328.09,529.5c1.87-1.63,2.98-3.16,3.8-5.21-2.19,1.18-3.55,2.88-3.8,5.21ZM323.31,536.83c2.34-1.51,3.86-3.34,3.88-5.93-1.75,1.78-3.24,3.71-3.88,5.93ZM314.36,552.25c3.82-4.95,5.98-8.39,8.51-12.87-1.24-2.75-10.88,15.45-8.51,12.87ZM341.56,550.19l2.18-4.21c-2.43.77-3.67,2.64-2.18,4.21ZM340.57,571.7c3.26-2.15,5.06-5.45,6.12-9.25-2.37,3-4.25,5.81-6.12,9.25Z"/>
  <path d="M642.43,690.07l21.44,22.66c5.11,5.4,10.43,9.98,16.12,14.76,9.42,7.91,27.38,23.51,39.44,12.32,2.91-2.7,6.08-6.03,6.36-10.16.48-7.16-2.9-13.28-7.7-18.5-15.34-16.69-32.21-31.29-48.25-47.3l-10.15-10.13-14.35-14.94-5.82-6.29-23.11-25.82c-2.32-2.59-5.95-4.91-8.47-7.45l-7.09,4.73c-1.24.83-2.93,2.71-4.22,3.91l-7.41,6.93c-.67.63-2.58.95-3.32,1.06-.24.79-.71,2.51-1.29,3.08-.69.7-2.69.39-3.35.14l-4.73,2.54c-2.93,1.57-7.48,2.6-10.06.13l-2.58-5.71c-1.29-2.86-1.09-5.73-3.74-8-12.81-11-13.62-14.34-24.91-27.85-18.31,10.31-36.91,19.1-57.37,23.73-3.73.84-7.62.94-11.41,1.53-7.03,1.08-13.96,2.05-21.11,2.02-10.69-.03-20.97.28-31.6-.58-7.31-.59-14.23-2.3-21.41-3.47-6.27-1.02-12.4-5.46-20.42-8.74-2.02-.83-3.76-1.49-3.78-3.9l12.75,2.96c-1.61-2.43-3.15-2.45-5.97-4.09,5.22-1.47,8.6,1.89,14.17,1.27-9.31-3.97-12.74-1.71-22.03-7.8-.88-.58-.37-3.85.27-4.57l8.13.76-1.74-3.38.09-3.49c.27-.19,1.81-.68,1.91-1.11l.53-2.21,10.37,1.19-2.07-3.97,3.33.14c.63.03,1.43-1.52,1.59-1.81,9.34,3.85,45.1,9.23,53.37,7.5l5.49-1.15c11.1-2.32,21.6-3.38,32.4-6.53,13.81-4.03,26.53-9.27,38.41-17.47,6.57-4.53,13.05-8.78,18.65-14.53,6.37-6.54,13.35-12.22,18.62-19.84,12.36-17.87,20.48-38.17,23.5-59.8,1.6-11.44,1.84-22.46,1.87-33.87.06-20.14-5.72-39.62-12.24-58.52-1.26-3.65-2.88-8.38-1.84-11.88,3.48-11.66-.82-7.84,10.67-19.23,2.04-2.02,4.5-4.53,7.39-4.56,2.01-.02,3.78,3.25,3.93,5.04.2,2.29,2.37,2.78,3.42,4.08,9.01,11.23,13.95,24.91,17.44,39.19.88,3.61.18,7.43,1.85,10.75l-.52-9.45c4.08,9.48,1.48,21.48,5.07,32.42.75-4.34.8-7.53,1.18-11.63.41-4.44-1.41-8.91-2.08-13.39-.53-3.49-.75-7.02-2.09-10.28l-2.32,1.74.75-6.53c.3-2.58-1.91-7.59-2.8-10.01-.1-.28.75-1.76.9-1.5s.68,1.12.8,1.47l2.88,8.3.98-3.34c4.53,11.75,7.24,26.07,9.18,39.15,2.78,18.81,2.33,36.9-1.97,55.48-3.19,13.79-7.13,27.04-12.62,40.05-2.28,5.41-4.44,10.83-7.52,15.73l-9.89,15.73c-2.88,4.57-6.16,8.46-10.17,12.7l9.41,10.55c3.98,4.46,8.19,8.19,12.71,12.14,1.18,1.03,3.25,3.83,4.56,3.27,2.14-.91,3.36-1.2,5.24-.29l7.8,3.78c.64.31,2.86-.91,3.46-.52.72.47,1.89,1.39,2.78,2.26l19.4,18.94,22.7,22.41,10.76,10.25,16.75,17.23,19.05,18.5c9.28,9.02,18.52,17.4,25.7,28.29l8.13,12.33c13.35,20.25,10.17,46.24-9.02,62.33-7.01,5.88-15.45,10.33-24.66,10.88-9.99.6-19.17-1.22-27.69-5.94-15.11-8.36-13.26-4.93-25.73-18.46l-12.65-13.72-6.87-8.11-19.94-22.96c-2.05-2.36-4.08-4.99-5.99-7.62l-34.02-47.06c-3.66-5.06-6.33-10.23-9.34-15.58-1.42-2.52-3.72-5.01-3.21-7.82,2.05-1.06,5.35-2.1,7.68-2.04,4.7,4.26,8.79,8.92,12.65,13.74.43.54,2.31.92,2.98,1.37,8.39,5.67,12.04,13.1,19.47,20.41.31.31.88,1.17,1.11,1.44.31.36,1.7.07,2.32.13,1.48,1.65,3.79,4.27,5.25,6.31,5.94,8.32,12.25,15.51,19.45,23.12ZM575.54,593.4l11.82-10.71c-3.59-5.32-7.81-9.78-12.16-14.39l-9.75-10.33-12.94,10.51,13.77,15.3c2.93,3.26,5.66,6.19,9.26,9.63ZM392.54,572.37c-1.29-1.15-2.15-1.45-3.74-1.23,1.17.64,2.49,1.09,3.74,1.23ZM471.7,574.89c-4.57-.05-9.07.82-13.63,1.85,4.67.04,9-.64,13.63-1.85ZM426.58,578.89l-14.45-1.89c4.6,1.69,9.36,2.53,14.45,1.89ZM449.23,578.36c-2.04-1.62-4.05-1.47-6.45-1.11l-6.57.98,13.02.13Z"/>
  <path d="M300.5,537.86c-4,.13-7.05-2.72-10.04-3.39-2.23-.5-4.52.3-6.32-1.9-14.68-17.85-26.13-37.69-34.17-59.46-2.45-6.63-4.2-12.98-4.97-19.84-1.01-8.93-3.16-17.62-3.34-26.77-.17-8.37-.97-16.61.25-24.78l5.03-33.66c.21-1.41,1.25-3.56,1.72-4.77v1.97c.02.33.69.91.87,1.01,1.24-10.68,4.09-17.01,8.5-26.38,1.14-2.43,1.85-6.08,3.55-7.43,2.79-2.2,4-5.15,5.42-8.6.48-1.15,1.91-2.88,2.5-4.02,5.68-10.99,12.72-20.36,21.24-29.26l10.63-11.11c1.59-1.67,3.86-2.74,5.76-3.96l6.18-3.99c-9.02,9.45-18.98,18.53-27.52,29.19-6.11,7.63-16.46,25.93-20.15,34.94-1.43,3.49-3.57,6.59-3.74,10.49l9.78-20.27,4.46-6.96c7.6-11.85,15.45-22.58,25.19-32.73,3.28-3.42,5.92-7.42,9.81-10.49l19.41-15.3-2.49,4.7c10.64-6.49,20.6-12.08,31.59-17.5,5.28-2.61,10.62-4.48,16.11-6.65,13.13-5.18,26.13-8.41,40.23-9.93,18.38-1.99,35.63-1.59,53.66,2.79,7.74,1.88,15.72,2.26,23.13,5.38l13.95,5.87c1.43.6,11.4,6.34,11.32,9.58-.06,2.38-4.68,2.96-4.07,4.5.28.72.8,1.8,1.2,2.58l2.43,4.73-2.21,4.44c-2.19,1.36-2.8,3.1-1.74,6.09-2.34.83-5.53,2.12-8.08,2.56-7.39,1.28-19.89-7.24-29.73-9.24-12.47-2.53-25.04-4.18-37.66-3.61-10.66.48-21.03,1.66-31.16,4-9.94,2.3-18.53,6.63-27.75,10.53-12.53,5.29-23.36,11.88-33.78,20.54-7.26,6.03-14.17,11.75-20.16,19.03l-6.48,7.88c-2.13,2.59-4.51,5.27-6.08,8.31-5.3,10.32-10.33,20.36-14.46,31.25-3.39,8.96-4.63,18.29-6.6,27.58l-2.07,9.74-1.3,24.54c-.14,2.64-2.42,5.17-1.98,8.46,1.49,11.29,3.71,22.08,6.99,32.98,2.52,8.37,6.87,15.2,11.24,22.66l10.12,17.27-7.12,9.77c-3.73,5.12-3.74,3.58-7.61,9.9-.42.68-1.74,1.82-2.05,2.52-.31.7,1.67,1.81,2.43,1.84.9.04,1.64.17,2.07.38s-1.44,1.99-1.93,2.01ZM399.24,250.41c.54-.58-.31-1.42-1.37-1.49l-4.02,2.11,5.38-.62ZM275.93,336.84l8.49-15.06,7.67-11.09c2.26-3.41,4.57-6.32,6.63-9.99-3.61,3.85-6.8,7.34-9.96,11.32-1.42,1.79-16.57,23.61-12.83,24.82ZM273.56,342.02l1.05-2.35c.15-.34-.61-1.41-.53-1.01l-1.04,2.33c-.15.34.59,1.42.52,1.03ZM270.41,348.7c1.63-2.79,2.09-3.81,1.56-4.72-1.31,2.18-2.09,3.76-1.56,4.72ZM253.72,372.23l6.57-22.56c-3.5,7.09-5.82,14.65-6.57,22.56ZM263.68,370.16c.76-2.51,1.33-4.77,1.86-8.21-1.9,2.11-2.74,4.97-1.86,8.21ZM257.53,413.54c.44-2.39.9-4.94,1.07-7.32l.76-10.56c.57-7.98,2.61-15.33,3.87-23.98-2.59,4.52-3,10.07-3.87,15.58-1.41,8.9-2.69,17.42-1.82,26.29ZM249.99,391.93c.84-3.97,1.58-7.8,1.9-12.18-1.4,3.85-2.13,7.84-1.9,12.18ZM249.38,397.95c.33-2.02.32-3.78-.02-5.39-.33,2.02-.32,3.78.02,5.39ZM260.9,448.24l-.95-5.3c-.72,2.13-.27,3.89.95,5.3ZM266.16,466.3l-.99-4.56c-.52,1.89-.07,3.35.99,4.56ZM253.32,475.8c-1.17-5.1-2.11-8.2-3.37-11.81.22,4.49,1.43,8.49,3.37,11.81Z"/>
  <path d="M699.53,398.03c-10.21,1.95-19.52,2.74-29.52,1.35-2.92-.41-4.84-7.27-4.71-8.37.18-1.62,1.79-3.41,3.25-4.46,6.89-5,3.89-1.45,12.86-6.83,5.38-3.23,11.97-3.22,18.16-4.37,8.88-1.66,17.33-2.8,26.33-3.63l14.35-1.33c3.21-.3,6.49.16,9.54,1.62l-11.31,5.28,4.6-.21,3.77,3.64-1.91,1.83c-.42.41.89,1.76,1.35,2.73-4.47,2.83-9.82,4.45-15.01,5.92l-8.46,2.39-23.29,4.45Z"/>
  <path d="M382.73,707.98l.89-5.95-3.11,1.26c-2,3.97-3.78,7.77-6.92,11.52,1.08-4.18,3.89-7.15,3.95-11.57l-3.84,4-3.02-1.84c1.34-4.4,2.25-9.09,4.15-13.3,5.39-11.91,10.68-23.19,17.91-34.12,4.4-6.64,9.26-14.74,12.28-21.48.22-.49.89-1.3,1.02-1.52.2-.33.99,1.01,1.32,1.19l4.95,2.52.91,12.18c.52,6.92.4,12.33-2.88,18.46l-21.95,40.96c-1.92.2-3.09,1.14-3.96,2.7l-.7,1.25c-.11.2-.43.05-.48-.17l-.3-1.28c-.38-1.64-.48-3.19-.23-4.81Z"/>
  <path d="M705.31,462.85l-1.39,2.27c-.69,1.13-6.65,1.09-10.15.11l-12.81-3.58c-4.39-1.22-8.47-2.67-12.6-4.59-3.16-1.47-12.2-4.99-10.11-9.04,1.02-1.98-.06-4.52-.77-6.77-1.07-3.39,4.18-4.55,6.57-4.69l6.48-.37c6.63-.38,12.6,2.62,18.32,5.39l11.86,5.74c1.8.87,5.3,2.29,5.97,3.96l2.61,6.47-9.12-2.95,2.69,3.76c.02,1.59.56,3.17,1.62,3.97.47-.75.88-1.83,1.11-1.58l1.23,1.3c.28.3-1.31.24-1.53.6Z"/>
  <path d="M459.87,683.9c-5.16,4.94,1.83,7.67-2,11.73l-2.13-5.24c-1.7-.15-3.69-1.11-4.3-2.8-4.62-12.75-7.04-22.04-4-35.7.83.12,1.92.87,2.65,1.55.77-2.33,1.82-5.65,3.66-7.77,1.09-1.25,4.32-1.6,5.6-1.05,4.52,1.96,1.36,7.85,5.69,7.75,1.95,10.57,2.62,21.12,2.83,32.02l-3.2,4.65-4.8-5.14Z"/>
  <path d="M675.78,330.72c-5.4,5.26-10.91,9.13-17.02,12.71-1.99,1.16-3.84,2.63-5.96,1.7-1.65-.71-3.87-2.82-3.36-5.19,2.56-12.03,12.51-21.21,21.75-28.37,1.95-1.51,3.83-3.43,5.87-3.28l5.27.4c-.74,1.62-1.53,3.24-1.18,3.97s2.32.84,3.56.97l-3.02,10.33c-.68,2.33-3.83,4.73-5.9,6.76Z"/>
  <path d="M604.05,345.01c-2.83-3.57-5.29-7.66-6.6-12.65,3.04,3.69,4.85,7.68,6.6,12.65Z"/>
  <path d="M604.05,340.53c1.18.03,6.51,12.46,4.91,12.45-2.19-4.38-3.59-7.88-4.91-12.45Z"/>
</svg>