<?xml version="1.0" encoding="UTF-8"?>
<svg id="Layer_1" data-name="Layer 1" xmlns="http://www.w3.org/2000/svg" viewBox="0 0 1000 1000">
  <path d="M418.41,586.13c6.29-1.08,11.94-1.62,18.09-1.18,8.88.64,4.96-.83,13.58,1.77l14.16,4.27c3.26.98,6.38,3.32,6.92,6.82l.66,4.31,2.53-3.87c2.32-3.55,4.86-7.34,6.18-11.53,3.49-11.03,4.55-22.24,5.22-33.88,2.21-38.62-7.56-78.73-18.23-115.74l-6,1.14c-17.54,3.33-34.96,1.73-52.23-2.34-11.21-2.64-21.21-6.41-31.11-12.11-16.94-9.75-30.56-21.64-39.94-39.13-6.65-12.4-13.9-30.6-18.72-44.11-1.68-4.72-2.4-9.73-5.86-13.55s-6.41-7.54-9.55-11.61-7.08-6.99-10.64-10.55c-6.97-6.97-2.68-3.91-5.52-8.51l.04-1.58c-2.44-4.04,2.14-4.16,3.48-10.84l16.35-2.78c5.25-.89,10.59-1.22,15.89-1.72,3.27-.3,7.24.74,10.3-.5,1.35-.54,2.89-1.22,4.21-1.18l16.76.5c2.01.06,4,.3,6.02.47,8.6.75,16.96.94,25.4,2.95,13.84,3.3,27.19,6.92,39.85,13.71,19.25,10.33,36.65,29.51,45.15,49.75,4.55,10.85,7.74,21.54,9.31,33.21,1.26,9.39,2.07,18.69,1.85,28.04-.03,1.32-.61,1.96.34,3.55,3.24,5.38,6.94,10.41,8.87,16.36l3.22,9.94,1.05-9.9c1.55-14.6,5.21-28.89,10.48-42.4,1.06-2.73,1.6-3.81,1-6.76l-3.66-18.01-1.94-7.29c-3.96-14.89,2.51-39.64,7.8-54.31,8.11-22.52,22.36-41.48,42.56-54.47,6.72-4.32,13.14-8.44,20.82-11l30.86-10.31c3.05-1.02,6.21-1.21,9.29-2.06l16.42-4.51c21.32-5.85,37.79-8.96,54.71-24.91l14.5-13.67,1.24.75c.31.19,1.01-.74,1.36-1.17.87-1.06,2.14-1.88,3.1-1.23,1.17.8,1.28,1.94,1.19,3.39l-.13,2.11c-.02.33.68.05.94-.13l1.67-1.17,1.93,4.69c.09.22.4.95.39.97-.01.01.48-.51.68-.73l.83-.91c.14-.16.81,0,.78.21l-.2,2.02,3.33-4.12c.59-.72,3.2-1.14,3.8-.67-1.1,3.49-.66,5.33.88,8.03l1.15,2.02c-.13-.23-3.88,4.08-4.11,8.05,3.49-1.6,1.85-6.46,6.95-9.75.61,3.1.28,5.34-.21,8.27-2.5,15-3.81,29.77-5.43,44.92-2.01,18.92-7.18,39.18-14.02,56.81-6.53,16.81-17.66,36-29.11,49.94-5.53,6.73-12.1,12.08-18.78,17.73-7.77,6.57-16.25,11.29-25.25,16.04-11.65,6.14-23.22,10.75-35.86,14.51-10.98,3.27-21.48,6.58-32.89,8.35-13.29,2.06-21.69,4.6-34.93,1.05-11.83,27.87-15.21,58.97-16.34,88.79-.34,8.99-.61,17.03.68,25.88,1.88,12.86,1.02,25.33.23,38.08-.61,9.84-2.05,18.76-5.29,28.14-3.63,10.51-7.35,20.6-12.8,30.35-1.11,1.99-1.75,3.89-2.55,6.58,3.9-1.1,6.65-2.45,9.87-4.47l6.93-.47c3.85-.26,6.34,3.09,6.6,7.34l8.99.55,5.35,9.58c2.94,5.27,4.14,11.84,4.38,18.07.44,11.59.91,23.09-1.16,34.7-4.48,25.12-21.2,51.68-38.23,70.33-8.77,9.61-25.03,23.92-35.81,31.35-9.87,6.8-19.59,13.27-30.43,18.49-6.51,3.14-12.83,5.18-19.55,7.74-19.81,7.56-40.92,9.83-61.66,5.22-20.93-4.65-37.62-15.63-51.73-31.46-8.12-9.11-13.37-19.61-17.18-31.34-6.55-20.16-3.32-43.11,4.33-62.66,5.03-12.87,11.18-24.68,19.37-35.78,3.73-5.05,7.01-9.96,11.2-14.7,7.47-8.45,15.4-15.76,24.01-23.19,19.82-17.12,43.18-29.1,68.59-35.47,4.31-1.08,8.24-1.41,12.4-2.13ZM592.8,290.92l16.7-8.3,13.45-6.46c2.75-1.32,6.11-2.84,9.19-3.35,2.4-.4,2.98,4.25,1.57,5.72-.98,1.02-2.15,3.57-3.17,4.41l-22.93,18.99c-14.84,12.28-29.6,23.99-42.1,38.8-9.57,11.33-17.2,23.46-23.43,36.78l17.74-3.52,14.8-3.72c4.5-1.13,8.69-2.68,13.13-4.28,15.61-5.6,30.57-12.11,43.99-22.06,13.79-10.22,25.3-22.77,34.13-37.36,6.81-11.25,12.08-22.35,15.7-34.86,4.75-16.47,8.09-32.66,6.78-50.46l-7.93,4.26c-19.84,10.67-41.36,15.68-63.29,20.57-13.62,3.04-25.93,8.13-38.86,13.24-13.44,5.31-25.48,13.78-34.44,25-19.04,23.84-28.99,52.04-31.3,82.24l-1.5.58c-.25.1.02,1.3-.02,1.6l-1,8.47c-.19,1.6-.34,2.94-.43,4.85,2.58-5.41,3.23-6.64,2.13-12.38l1.84,3.38c6.12-12.76,14.1-23.61,22.29-34.77,2.49-3.4,5.33-6.09,8.37-9.09l5.58-5.51c12.95-12.79,26.42-24.51,43.02-32.76ZM331.12,287.22c-.64-.84-2.69-.82-2.74,0,.17.86,2.65.8,2.74,0ZM359.33,289.39l-4.43-.18c.86,1.66,2.83,2.39,4.43.18ZM390.04,295.86l-4.52-4.71-5.48-1.66c-.94-.28-3.39.96-3.82,1.21,1.57.6,2.68,1.08,3.86,1.91,3.11,1.71,6.04,2.88,9.97,3.25ZM419.73,297.23c-1.55-1.54-3.44-2.95-5.86-2.56,1.76,1.04,3.28,1.82,5.86,2.56ZM451.07,318.22c-6.08-7.62-10.84-10.24-16.39-16.09-4.58-1.71-10.59-6.25-15.95-7.59,2.64.15,3.26,3.21,4.52,4.15l16.1,12.15c1.53,1.15,2.49,2,4.34,3.59-.04.21,1.43-.82,1.59-.36l.87,2.45c.44,1.25,3.19,2.23,4.94,1.71ZM468.03,385.78c2.46,2.11,7.58,15.93,10.89,19.61.47.03,1.16.21,1.14-.01s-.06-1.11-.1-1.37l-1.31-8.12c-.69-4.31-3.07-10.03-4.96-13.6,3.03,5.75-6.19-10.19-3.65-5.49-.22,2.02-.4,4.12-.39,5.63,1.14,3.05,2.75,5.33,2.89,8.33l-4.53-10.52-3.29-9.44c-3.54-10.14-8.81-19.36-14.29-28.53-4.87-8.15-10.71-14.7-18.11-20.35-10.41-7.95-14.62-9.16-25.84-14.71-9.48-4.69-18.88-7.98-29.5-9.41l-12.06-1.62c-6.13-.82-11.4-.01-17.43.77-7.94,1.04-15.95-.16-24.51.24,12.01,8.49,20.1,29.64,25.87,43.24l6.86,16.15c8.37,19.72,26.84,40.52,47.27,47.57,16.14,5.57,36.02,8.76,52.97,6.06-2.78-8.26-16.78-23.04-22.91-28.1l-22.54-18.61c-7.57-6.25-15.81-11.23-22.94-17.93l-5.68-5.34,2.87-4.58c2.45.11,5.81-.6,7.75.07,22.58,7.72,51.49,29.49,69.68,45.05l5.84,5ZM318.53,297c.05.5,1.25,1.12,1.68,1.38.32.19.18-1.33.22-1.7s-1.94-.05-1.9.32ZM559.69,402.66l-.92-1.4-4.38,1.11,5.3.29ZM441.66,737.08l-6.86,8.58.42,2.44c-10.44,10.55-19.94,18.21-33.03,25.48-12.39,6.88-26.14,13.17-40.72,14,2.35,2.45,28.6-.45,31.55-1.45l8.97-3.03c25.45-8.59,50.15-28.15,67.89-48.07,6.87-7.71,13.44-15.29,18.91-24.16,12.16-19.71,16.96-44.11,14.04-67.56l-11.47,7.87c-5.16,3.54-9.93,7-14.68,11.16-6.26,5.47-13.68,9.13-20.38,14.18l-20.33,15.33c-6.51,4.91-16.19,13.97-21.76,6.54,1.23-1.54,2.29-3.06,1.82-4.08-.53-1.18-1.25-2.4-2.25-3.71l-2.41,2.36.77-3.21-3.45,2.5c.74-2.91,1.11-6.18,2.54-8.61,4.47-7.59,10.19-13.88,16.43-19.97,2.31-2.25,4.02-4.77,6.15-7.14,12.28-13.67,23.12-28,31.98-44.11,1.08-1.96,2.09-2.97,1.65-5.33-.68-3.71-1.29-8.87-5.51-10.33-10.12-3.49-20.57-3.49-31.03-1.22-8.34,1.81-17.29,1.77-24.96,7.34,3.04.18,5.83-.29,8.5-.98,8.4-2.16,26.92-3.98,35.54-.97l-2.84,1.75c2.11.14,4.19.31,6.24,2.42l-7.36.72,1.72,1.31-7.79,1.3-12.67,2.1c-3.98.66-8.17,1.33-11.94,2.45-22.15,6.57-41.75,17.27-59.01,32.47-10.35,9.12-18.51,19.68-26.8,30.67-2.33,3.09-3.96,6.67-5.97,10.08-1.95,3.31-3.38,7.04-5.19,10.56-2.84,5.54-4.43,11.21-6.14,17.14-3.47,12.03-3.95,23.88-.18,35.93,1.38,4.41,2.5,9.37,5.56,12.9l18.42,3,13.86,3.19c.35.08,1.2.9,1.41.71l1.45-1.3c2.79,3.54,7.46,1.07,10.88.77,5.79-.5,11.13-.57,16.9-2.3,11.14-3.34,21.58-8.23,32.16-12.96,10.16-4.54,12-9.13,20.43-14.85l-2.95,5.03,1.12,2.82,10.4-9.78ZM469.65,606.24c1.2-1.29,1.6-2.89.95-4.76l-.95,4.76ZM488.52,626.73c1.02-1.1,1.79-1.76,1.44-1.94s-1.22-.64-.93-.49l-.76,1.51c-.11.22.24,1.04.24.92ZM484.22,635.01c2.31-2.82,5.69-4.89,2.84-7.42l-3.99,5.67c-.21.3-.37,1.19-.41,1.49s1.34.53,1.56.26Z"/>
  <path d="M449.7,727.53l2.18-3.05c.51,1.42-.13,2.74-2.18,3.05Z"/>
  <path d="M450.89,729.15l1.97-2.39c.34,1.29-.32,2.07-1.97,2.39Z"/>
</svg>