<?xml version="1.0" encoding="UTF-8"?>
<svg id="Layer_1" data-name="Layer 1" xmlns="http://www.w3.org/2000/svg" viewBox="0 0 1000 1000">
  <path d="M483.25,664.4c-.31-.66-.38-1.05-.62-1.29.87,0,1.5-.18,1.73.29.17.35,0,.7-.29.87-.24.14-.54.21-.82.13Z"/>
  <path d="M482.05,662.54c-.69,0-.99,0-1.25-.03-.15-.63.1-.93.38-1.12.24-.16.65-.04.86.27.12.19-.11.63,0,.88Z"/>
  <path d="M633.15,298.01l-1.62.87c.31.9,1.25,1.1,1.9.88.46-.15.3-.87.29-1.28.57-.07,1.14.19,1.7.2-.11.72-.02,1.54.6,1.87.13.07,3.24,1.23,3.38.73.07-.27-.54-.79-.34-1.11,1.02.08,2.08.39,3.21.93l13.28,6.27c10.33,4.88,25,16.46,31.63,26.01l8.36,12.04-.68.88c3.29,1.57,2.58,6.13,6.24,9.98-.12,2.09,2.12,3.55,2.54,5.41s.71,3.66,2.11,5.04c.09,1.69.92,3.55,1.48,5.36,1.99,6.51,3.7,12.95,4.92,19.67.34,1.87.31,3.56.79,5.54,2.36,9.72,2.25,17.12,1.74,27-1.29-1.07.43-2.99-1.66-3.63-.1,7.09.59,13.56-.65,20.38s-1.89,13.65-3.85,20.3c-.49,1.67-1.26,2.9-1.65,4.63-.8,3.57-10.5,26.05-13.96,31.31.56-.85-4.97,5.63-4.96,3.89-.32-.35-.29-.95-.84-1.26-1,.75-1.16,1.55-1.41,2.29-.72.03-1.28-.57-1.64-1.06.39.2.4.01,0,0-3.12-.92-5.44-4.14-8.15-6.16-2.02-1.51-14.56-7.09-17.84-7.77.74-2.89,2.14-5.09,3.46-7.56,3.08-5.78,7.11-16.36,8.76-21.68.43-1.39,1.94-2.59,1.61-4.37-.5-2.7.6-4.75,1.97-6.97.3-.48,2.85-13.81,2.8-13.08l.75-11.55c.54-8.23-1.37-25.1-3.39-33.37-4.33-17.77-13.67-32.05-27.12-44.32-10.6-9.67-20.63-9.36-24.43-12-2.18-1.51-5.28-.51-7.76-.88-6.02-.89-17.04-.48-22.53,1.05-8.92,2.48-17.93,4.6-26.04,9.33l-16.78,9.8c-2.27,1.33-3.72,3.98-6.01,5.62-5.83,4.19-10.87,9.37-15.68,14.69-2.35,2.6-3.87,5.66-6.5,8.02-1.84,1.65-2.24,4.35-3.5,6.33l-5.77,9.11c-1.9,3-11.95,13.25-16.1,9.31-.55.62-.65,1.91-1.4,1.81-.65-.09-1.14-.64-1.86-.9-2.55-.93-6.13-.55-8.16-2.69-4.75-5.01-6.55-7.76-9.85-13.74-5.11-9.25-10.79-17.93-18.51-25.39l-10.81-10.46c-7.14-6.91-25.75-15.27-35.5-17.81-22.45-5.85-33.86-1.82-53.38,8.06-2.88,1.46-5.15,3.95-8.23,4.99-2.51.85-3.52,3.04-5.37,4.51-12.99,10.26-21.57,24.02-25.37,40.01-1.08,4.53-1.82,8.39-2.16,13.03-.57,7.66-1.44,14.86-.85,22.73.99,13.19,4.55,25.83,8.47,38.53,1.21,3.91,2.24,7.6,3.81,11.31l6.51,15.43,9.13,18.06c3.84,7.59,8.42,14.45,12.73,21.73,1.6,2.7,3.82,4.7,5.52,7.17s3.05,4.42,5.32,6.47c2.74,2.46,5.71,9.12,7.66,9.96,1.24.77,1.51,2.92,2.97,3.53.24.1.34.46.58.58-.08.54.04,1.33.76,1.11.37-.12.72-.36,1.05-.53l5.17,6.84c6.27,8.28,14.67,17.53,22.4,24.4,2.59,2.3,4.82,5.35,7.71,6.97,1.73.97,2.65,1.85,3.38,3.21-.62.08-.98.76,0,0,3.83,3.08,7.26,6.75,10.73,10.57.51-.15.76-.5,1.06-.45.24.04.94.28,1.11.58,1.78,3.13,4.87,4.75,7.11,7.34,2.05,2.38,4.3,4.16,6.7,6.16l10.33,8.64,14.06,12.97c2.81,2.59,5.53,5.26,7.88,8.26,2.72,3.47,3.22.28,3.5,2.84.07.67-.47-.02-1.23,0-.39,1.27,1.41,1.5,1.99,1.98.08,1.57,1.73,1.31,2.45,1.89,3.63,2.93,6.93,6.14,10.6,9.95,0,0,18.43-17.52,21.62-19.22,1.95,3.51,3.61,6.62,5.27,10.03.38.79-.69,1.53-1.02,2.32,2.59.15,5.27,2.02,6.74,3.95l7.25,7.14c-3.56,3.38-21.14,16.71-21.14,16.71l7.64-3.27c-2.14,2.16-11.44,6.51-12.52,7.65-1.36,1.43-15.45,6.68-18.32,3.97,2.01-1.75,3.4-3.82,5.08-5.64-4.5.61-2.95-.5-6.41-2.07-.22-.24-.08-1.02-.53-1.1-.54-.09-.83.12-.84.35-.02.56-.17,1.23.31,1.38.26.08.8-.17,1.05-.04.86.88,1.05,2.22,1.19,3.49-2.77-.27-4.07-3.14-5.65-2.37-.3.15-.49.48-.61.77-.27-.16-.73-.25-.98-.56-.17-.24-.36-.48-.56-.7-.25-.51-.65-.92-1.19-1.12.2-.36,1.01-.57,1.06-.92.06-.41-.65-1.11-1.03-1.38l-9.22-6.59c-.34-.25-.61.31-.53.48.11.26.05.53,0,.81-.38-.33-1.21-.14-1.79-.83-.2-.24-.22-.51.6-1.13-.61-1.02-2.65-.36-3.29-1.27-1.64-2.32-4.12-2.65-6.09-4.16l-13.32-10.2c-3.52-2.69-6.9-5.2-10.36-7.97l-6.97-5.58c.49-.42,1.12-.49,1.6-1.12l-3.28-2.97c-.48.61-.42,1.27-.69,1.82-1.49-.97-2.61-1.42-2.75-2.79,1.12.27,1.68,1.24,2.52.45-1.51-2.21-3.65-3.43-5.34-5.02-2.62-2.47-4.89-5.6-8-7.43-.36-.21-.47-.89-1.09-.75.29-.99-.87-1.23-1.16-1.77-.78-1.45-2.23-2.38-3.91-3.04-3.15-1.23-4.2-4.83-6.4-6.68-1.93-1.62-3.75-2.5-5.29-4.66-2.1-2.93-5.48-4.89-7.81-7.63l-5.35-6.28c-.58-.68-.6-1.65-1.53-1.86-.55-.13-1.61.34-2.56.43l-11.24-13.75c-1.47-1.8-2-4.13-4.05-5.15-.28.35-.51.54-.66.55-.16.01-.58-.1-.74-.38-2.4-4.19-8.89-9.32-11.17-14.13-.79-1.66-2.63-2.13-3.5-3.32l-9.6-13.06-13.11-19.13c-4.11-5.99-7.64-11.56-10.86-18.04l-7.34-14.76c-3.01-6.07-5.61-12.05-7.37-18.59,1.48-2.06-.4-3.5-.94-5.19l-2.8-8.81-6.88-23.45c-.89-3.04-1.06-6.18-1.69-9.27-1.92-9.34-1.16-18.64-1.21-28.13-.04-6.66.23-12.76,1.83-19.26,1.06-4.31,1.65-8.85,3.3-13l6.17-15.54c1.3-3.27,3.43-6.21,5.34-9.18l3.17-4.92,3.59-3.92c7.7-8.4,7.05-8.43,15.84-16.29,5.18-4.63,10.83-8.19,17.09-11.25,7.72-3.77,14.84-8.13,23.15-10.59,14.38-4.27,23.07-3.72,37.91-3.52,6.6.09,12.53,1.28,18.88,2.6,9.65,1.99,18.15,5.38,26.62,10.21,5.96,3.41,11.34,6.63,16.18,11.66,8.05,8.37,15.81,11.87,24.24,22.37l6.95,8.66c2.4-2.49,3.78-5.79,6.35-7.87,1.31-1.06,1.45-1.83,2.3-3.1,4.71-6.97,10.8-12.43,16.63-18.51,14.68-15.3,32.25-23.85,51.81-30.41-.07,1.06-1.17,1.02-2.4,2.01,1.02,1.17,4.29-.56,4.26-1.18-.03-.5-.51-.82-1.85-.83.66-1.21,1.91.12,3.01,0,3.1-.34,6-.43,8.65-1.35,2.88-.31,5.68-1.3,8.72-2.02,2.02-.48,4.12.16,5.68-1.04-1.29-.51-2.63.22-2.86-.88l9.14-.46c9.69-.49,19.17-.11,28.35,2.23ZM569.93,304.23c-1.51-.66-3.05-.14-4.66.86,1.55.61,3.01.18,4.66-.86ZM565.1,305.83c0-.16-.13-.29-.29-.29s-.29.13-.29.29.13.29.29.29.29-.13.29-.29ZM609.42,308.04c-2.01-.31-3.61-.31-5.76,0,1.78,1.11,3.68,1.08,5.76,0ZM648.15,317.95c0-.16-.13-.29-.29-.29s-.29.13-.29.29.13.29.29.29.29-.13.29-.29ZM649.8,318.81c0-.27-.22-.5-.5-.5s-.5.22-.5.5.22.5.5.5.5-.22.5-.5ZM659.45,324.79c-.16.45.37.84.53.94s.68.15.82-.3c.09-.26-1.42-.46-1.35-.64ZM389.18,330.7c-2.09-.57-3.4-.58-4.65-.02,1.79.45,3.21.38,4.65.02ZM393.79,330.69c-1.89-.56-3.03-.59-4.07-.01,1.59.43,2.83.38,4.07.01ZM398.19,330.89c-1.68-.93-2.82-.86-4.16.01,1.26.96,2.94,1.01,4.16-.01ZM680.27,344.06c-.18-1.55-.77-1.97-1.6-2.09l1.6,2.09ZM685.46,351.69c-.22-2.42-1.88-3.1-2.6-4.49.5,2.06,1.12,3.91,2.6,4.49ZM691.33,363.31c.05-1.94-.88-3.21-2.07-3.97.96,1.64.61,3.15,2.07,3.97ZM691.98,364.66c0-.16-.13-.29-.29-.29s-.29.13-.29.29.13.29.29.29.29-.13.29-.29ZM693.3,367.88c-.99.66,2.47,8.59,2.71,6.92.37-2.48-.87-3.45-1.9-6.94-.15-.51-.35-1.84-1.29-1.62-.61.15,0,1.23.48,1.64ZM321.91,371.51c.53.18.87-.35.96-.52s.15-.67-.3-.82c-.28-.09-.43,1.43-.67,1.34ZM320.06,374.55c1.17-.35,1.18-1.32,1.58-2.11-1.07.44-.96,1.41-1.58,2.11ZM316.55,380.66c-2.25,6.23-4.25,8.65-4.55,16.15-1.11,1.84-1,3.86-1.04,6.25-.04,2.59-1.49,4.81-.56,7.52.86-1.14.99-2.55,1.02-4.07.06-3.53.95-6.62,1.52-9.75.38-2.1.3-4.18,1.11-6.48,1.1-3.13,2.42-6.09,3.09-9.56.92-1.24,1.48-2.58,2.18-4.23-1.29,1.06-2.4,2.24-2.77,4.18ZM691.44,465.8c-.62.05-.92.79,0,0,.89-1.41,2.42-2.94,2.97-4.78l6.2-20.86c.66-2.23,1.51-5.38,1.06-7.58s.31-3.55.33-5.32c.02-3.56-.24-6.39.67-9.98.59-2.33.43-12.29.01-13.39-.82-2.14-.8-2.87-.62-5.11.11-1.32-2.77-19.25-5.32-20.59-.42,2.76,1.39,4.6,1.7,7.08.75,6.04,2.13,11.81,2.57,17.8.65,8.79.33,17.23-.67,25.99l-1.03,9.07c-.47,4.15-5.92,22.62-7.87,27.68ZM309.61,416.28v5.77c0,6.86.7,13.54,1.87,20.3l1.97,11.34c2.01,11.59,7.08,18.08,8.62,24.23.61,2.43,2.22,6.61,3.11,8.72.2.46.09,1.78.98,1.57.7-.17-.13-1.26-.4-1.57.28-1.55-3.36-9.77-3.73-11.78-.65-3.56-1.5-6.22-3.62-9.25-1.31-1.87-1.25-4.82-2.2-7.02-2.28-5.28-2.34-10.98-3.72-16.25-1.7-6.5-1.74-13.18-2.3-20.29-.14-1.81-.17-3.97,0-5.77.36-1.58,1.29-3.44.2-5.27-.34,1.91-.26,3.38-.78,5.27ZM689.94,469.9c1.07-.72,1.2-1.71.61-2.28-1.07.72-1.2,1.71-.61,2.28ZM657.59,489.75c.45.16.83-.37.93-.53s.15-.68-.3-.82c-.26-.08-.46,1.41-.64,1.35ZM327.23,491.25c.29-1.31-.33-1.83-.73-2.34-.37,1.08.48,1.69.73,2.34ZM329.05,495.29c.36-2.04-.51-2.77-1.46-3.52-.31,1.63.4,2.79,1.46,3.52ZM329.87,496.44c0-.2-.16-.37-.37-.37s-.37.16-.37.37.16.37.37.37.37-.16.37-.37ZM331.26,500.48c.29-1.31-.33-1.83-.73-2.34-.37,1.08.48,1.69.73,2.34ZM341.27,517.76c-.66-2.95-2.35-5.19-3.87-7.7s-2.08-5.47-4.54-7.21c.78,2.97,2.94,5.03,4.26,7.66,1.29,2.58,2.4,5.01,4.15,7.25ZM342.15,519.98c.51.15.44-.85.09-1.01-.19-.09-.46-.67-.64-.54-1.05.79,4.34,2.66.55,1.56ZM688.71,493.93c0-.16-.13-.29-.29-.29s-.29.13-.29.29.13.29.29.29.29-.13.29-.29ZM686.19,497.91c.7-1.03,1.61-1.67,1.66-3-.94.85-1.36,1.89-1.66,3ZM687.64,499.54c1.79-.43,1.42-1.98,2.13-3.02-.83.97-2.33,1.38-2.13,3.02ZM685.89,499.41c0-.35-.29-.64-.64-.64s-.64.29-.64.64.29.64.64.64.64-.29.64-.64ZM354.31,539.39c.53-1.36-.26-2.73-1.42-2.59.04,1.01.2,1.87,1.42,2.59ZM359.84,545.46c-1.16-1.82-2.73-3.08-3.99-4.76-.61,2.54,2.26,2.33,2.61,4.34.08.46.27.78.45,1.02s1.19-.22.94-.6ZM376.48,568.48c-.17,1.61,1.79,1.7,2.11,3.16.13.61.49,1.19,1.08.93.31-.13.4-.47.31-.85.69,2.67-4.09-6.03-3.49-3.24ZM380.54,573.43c0-.16-.13-.29-.29-.29s-.29.13-.29.29.13.29.29.29.29-.13.29-.29ZM381.7,574.59c0-.16-.13-.29-.29-.29s-.29.13-.29.29.13.29.29.29.29-.13.29-.29ZM383.32,577.1c-.44-.81-.45-1.04-.61-1.69-.69.25-.53.92-.16,1.18.17.12.39.63.78.51ZM384.58,578.05c0-.16-.13-.29-.29-.29s-.29.13-.29.29.13.29.29.29.29-.13.29-.29ZM385.43,579.08c.03.75.43.89.64.99.25.13.77-.02.83-.3.11-.45-.08-.84-.31-.84s-1.18-.19-1.16.15ZM388.41,580.93c0-.2-.16-.37-.37-.37s-.37.16-.37.37.16.37.37.37.37-.16.37-.37ZM389,582.1c-.07.56.98,1.79.97.98,0-.43-.05-.83-.3-.89-.14-.04-.65-.29-.67-.1ZM391.04,584.41c-.35.87.29.97.72.87.18-.04.37-.36.08-.56-.16-.11-.58-.86-.81-.3ZM393.23,586.12c0-.16-.13-.29-.29-.29s-.29.13-.29.29.13.29.29.29.29-.13.29-.29ZM406.34,599.3c-.68-.88-.93-1.41-1.81-1.66.46.96.91,1.84,1.81,1.66ZM467.74,678.57c-1.57-2.86-4.2-4.02-6.67-5.14,2.04,2.18,4,4.43,6.67,5.14ZM475.11,684.42c-.76-1.35-1.97-2.4-3.4-2.08.89,1.26,1.93,1.63,3.4,2.08ZM482.3,692.14c-.93-2.51-2.65-2.54-4.01-3.43.86,1.64,2.11,3.89,4.01,3.43Z"/>
  <path d="M412.26,639.47c.03.39.89.53,1.09.75.05.55.28,1.09.43,1.62-1.28-.19-2.49-1.04-2.71-2.37.39-.06.81.08,1.19,0Z"/>
  <path d="M378.33,561.55l-1.25.06c-.03-.46-.26-.84-.58-1.15-1-1.01-1.63-2.38-2.97-2.95.08-.51-.74-.93-.14-1.88,1.92,1.99,3.76,3.71,4.93,5.92Z"/>
  <path d="M482.63,663.11c-.31-.3-.5-.42-.58-.58.32.29.51.41.58.58Z"/>
  <path d="M683.13,635.89c-.19-.37-.79-.67-1.26-.2-.37.38-.38,1.68.18,1.9-.06-.07,1.52-.85,1.08-1.7Z"/>
  <path d="M658.98,636.89l-.1.27-.18.22c-1.08,1.31-2.76,2.11-4.39,2.88-.88.42-1.71.81-2.39,1.26l-1.23.8-4.57-5.96c-.53.29-1.05.39-1.47.41-2.64.12-4.99-2.81-7.07-5.39-.74-.93-1.45-1.8-1.94-2.23-7.35-6.45-17.21-8.92-27.04-6.8l-6.26,1.35c-.41.09-.81.17-1.2.26-3.27.69-5.63,1.19-8.31,2.86-.36.23-.72.44-1.08.67-3.31,2.03-6.43,3.95-8.04,7.46l-1.45,3.17-1.44-3.17c-.19-.42-.3-.81-.36-1.18-.29.39-.57.78-.84,1.17-1.43,2.01-2.91,4.1-5.37,5.61l-2.51,1.55.09-2.94c.01-.37.03-.74.05-1.1.07-1.28.1-2.18-.12-2.9l-2.77,2.99-1.15-1.41c-1.44-1.75-.74-3.5-.31-4.55.14-.36.28-.69.33-.97l.98-5.45c.58-3.22,2.96-5.44,5.05-7.39.78-.72,1.51-1.41,2.14-2.12,3.72-4.19,8.16-6.81,12.39-9.14,6.7-3.69,9.76-4.94,17.2-6.17,21.59-3.57,36.95,1.37,48.34,15.54,3.95,4.91,8.08,11.67,5.01,20.42Z"/>
  <g>
    <path d="M661.91,568.74c.34.58.77,1.3.84,2.24.1,1.42-.73,2.35-1.34,3.03-.28.31-.54.6-.67.87-.66,1.4-1.44,2.45-2.27,3.33-.83.87-1.72,1.57-2.59,2.26-.56.44-1.09.85-1.61,1.32-2.81,2.51-5,4.17-9.36,4.17-.11,0-.22,0-.33,0-5.85-.11-11.84-.89-15.98-5.83-3.57-4.25-5.39-6.69-6.05-9.08-.7-2.5-.09-4.58.92-8.04.41-1.4.87-2.99,1.36-4.98l.27-1.11,1.13-.1c3.33-.28,4.53-1.04,5.11-1.4.41-.26,1.02-.64,1.83-.45.66.16,1.04.55,1.47,1.22.58-.32,1.45-.61,2.39-.04l.27.17c1.25.75,2.53,1.53,3.05,3.34,1,3.49,4.75,4.26,7.66,3.86,1.31-.18,2.36.42,3.14.86.21.12.42.24.61.33,1.57-1.55,3.25-2.06,5.21-1.61,3.14.74,3.95,2.1,4.56,4.87.04.18.21.48.38.76Z"/>
    <path d="M699.73,562.05s.01.04.02.06c.95,3.04,2.03,6.48,4.42,10.19l1.84,2.85,1.01-3.24c2.38-7.63.54-12.14-.94-15.77-.52-1.28-1.01-2.48-1.25-3.67-1.09-5.44-4.52-10.9-7.56-15.73-1.78-2.84-3.46-5.52-4.51-7.9-.02-.08-.03-.33-.03-.5,0-.86-.01-2.65-2.26-3.63-1.15-.51-1.9-1.69-2.68-2.94-.3-.47-.61-.96-.95-1.43-2.68-3.66-6.12-6.25-9.45-8.75-1.47-1.11-3-2.25-4.41-3.46-6.21-5.33-12.36-8.51-19.32-9.99-.09-.04-.19-.08-.3-.12-.2-.07-.5-.16-.87-.27-.71-.22-1.7-.51-2.8-.84-2.57-.76-7.35-2.19-8-2.5.42.2.95.9.72,1.75-.02.06-.03.12-.06.17-.44-.15-.81-.27-1.06-.37l.03-.19.24-1.57h0l-21.54-3.3c-7.12-1.09-8.46-.8-10.57-.08-1.32.45-3.14,1.06-8.95,1.26-4.57.15-8.46,1.09-12.58,2.08-.63.15-1.26.3-1.9.45-10.15,2.39-19.65,6.43-29.9,12.71-2.4,1.47-4.6,3.11-6.74,4.7-1.22.9-2.47,1.84-3.74,2.72-5.99,4.18-10.15,9.12-14.23,14.23-9.22,11.55-15.17,21.8-18.73,32.28-3.28,9.66-6.93,21.67-5.98,28.83.31,2.38.28,4.5.24,6.74-.02,1.21-.04,2.46,0,3.75.36,12.06,3.41,24.23,9.89,39.47.63,1.47,1.01,2.41,1.27,3.03.54,1.31.62,1.51,1.11,1.99.22.22.81.81,2.78,3.76l7.3,10.91c1.41,2.1,2.86,4.28,4.76,6.05l7.35,6.84c.34.32.69.66,1.05,1,1.49,1.44,3.18,3.07,4.99,4.02l11.71,6.11c5.21,2.72,11.45,5.76,18.28,7.71l7.76,2.21c6.73,1.92,18.33,4.11,25.78,4.11,1.26,0,2.4-.06,3.39-.2l7.04-.98c6.96-.97,15.21-2.9,22.63-5.29,6.07-1.95,14.63-5.19,20.96-9.54,3.61-2.47,7.76-5.39,11.38-8.76l8.59-8,7.13-8.53c.77-.92.85-2.09.91-3.13.03-.38.07-.99.16-1.21,1.51-1.22,2.38-2.7,3.15-4.02.4-.68.77-1.32,1.2-1.87,2.62-3.41,3.44-6.77,4.3-10.32.14-.59.29-1.19.44-1.8.19-.73.47-1.42.78-2.14.63-1.51,1.34-3.22,1.23-5.54-.04-.91.42-1.98.9-3.11.87-2.03,1.95-4.55.44-7.27l-1.71-3.06-1.17,3.31c-1.55,4.37-3.31,9.01-5.45,13.69.26-1.28.35-2.63.19-4.08l-.03-.22c.44-.1.93-.31,1.3-.78.41-.51.57-1.15.46-1.93,0-.09.07-.3.11-.44.17-.59.45-1.57-.19-2.46-.28-.39-.68-.67-1.18-.83.17-.56.37-1.13.57-1.73,1.14-3.32,2.44-7.09.16-11.9l-1.56-3.29-6.38,15.92-.29-2.34-2.15,1.47c-2.1,1.44-2.82,3.49-3.45,5.29-.29.84-.57,1.63-.97,2.38-3.19,5.95-5.9,10.54-8.77,14.89-1.01,1.52-2.19,2.92-3.34,4.27-.85,1.01-1.74,2.05-2.54,3.14-2.82,3.81-6.03,6.19-9.93,8.92-6.21,4.34-12.76,8.66-18.65,10.86-20.47,7.64-43.09,6.01-65.43-4.73-.91-.44-1.81-.87-2.7-1.29-3.94-1.86-7.65-3.63-11.45-5.99-.87-.54-1.76-.74-2.55-.92-1.16-.26-1.78-.43-2.33-1.19-1.42-1.99-3.22-3.66-4.97-5.28-1.26-1.16-2.44-2.26-3.49-3.46-.51-.59-.94-1.31-1.4-2.08-.72-1.19-1.45-2.42-2.63-3.43-1.55-1.33-2.35-3.12-3.19-5.01-.37-.83-.75-1.68-1.2-2.51-3.8-7.01-6.15-16.24-6.82-26.71-.61-9.66.3-19.61,2.56-28,.37-1.38-.43-2.42-.87-2.98-.03-.04-.07-.09-.1-.13.64-4.98,2.57-9.79,6.05-15.12,1.04-1.59,2.05-3.24,3.03-4.83,2.86-4.66,5.82-9.48,9.74-13.28,11.62-11.26,27.23-19.06,47.7-23.87,3.03-.71,5.89-.83,8.91-.95,2.14-.09,4.34-.18,6.63-.5,7.18-.99,13.66.23,21.69,4.1l8.29,3.99c17.99,8.65,30.98,21.96,38.61,39.56l2.81-.97c2.44,5.75,4.69,11.81,4.89,13.09,0,1.39.58,2.73,1.57,3.69,1.03.99,2.41,1.5,3.87,1.44l.63-.03.44-.46c2.54-2.63,1.22-7.78-.06-12.76-.26-1.02-.53-2.06-.72-2.98.24-.04.48-.12.72-.28.49-.31.76-.73.87-1.26ZM681.87,635.7c.47-.47,1.07-.17,1.26.2.44.85-1.13,1.63-1.08,1.7-.56-.22-.55-1.52-.18-1.9Z"/>
  </g>
  <path d="M598.52,570.4c-.14.56-.27,1.08-.35,1.56-.8,4.45-2.86,8.19-5.95,10.83-3.01,2.57-6.81,3.92-11.02,3.92-.25,0-.49,0-.74-.01-6.06-.23-11.05-2.03-15.23-5.51-5.11-4.25-6.56-7.64-6.56-10.11,0-.84.17-1.57.42-2.2.05-.14.21-.51.46-.9-.11-.19-.23-.37-.36-.55-.49-.71-1.23-1.78-.67-3.24.22-.58.65-1,1.21-1.21,1.06-.38,2.1.18,3.02.69.09-.53.23-1.08.59-1.55l.64-.82,1.01.26c.48.12,1.15.17,1.85.23,1.51.12,3.22.25,4.7,1.12,1.96,1.17,6.81,3.6,9.39,1.08.25-.25.49-.49.72-.72,1.36-1.37,2.53-2.56,5.05-3.35.18-.06.48-.24.77-.41,1.07-.65,3.29-1.99,5.5.44.22.24,1.02.48,1.55.64.74.22,1.5.45,2.12.9,3.46,2.49,2.55,6.2,1.89,8.91Z"/>
  <path d="M595.66,296.25c.23,1.09,1.57.37,2.86.88-1.56,1.19-3.66.56-5.68,1.04-3.04.72-5.84,1.71-8.72,2.02,2.73-.3-3.93,0-4.04-.16-1.06-1.52,3.35-1.34,8.49-3.11,2.39-.82,4.83-.55,7.08-.66Z"/>
  <path d="M701.11,356.28c-3.67-3.85-2.96-8.41-6.24-9.98l.68-.88c2.69,1.04,2.89,4.16,4.3,6.62,1.43,2.5,3.92,4.69,3.45,7.77-.7-1.59-1.32-2.61-2.19-3.53Z"/>
  <path d="M421.36,647.65c-.36.4-.87.57-1.33.56-.73-.01-.86-.67-.96-1.13-.46-1.96-2.41-4.04-4.46-4.17-.21-.39-.69-.59-.83-1.07-.15-.53-.38-1.07-.43-1.62,3.11,1.84,5.38,4.96,8,7.43Z"/>
  <path d="M412.26,639.47c-.38.09-.8-.06-1.19,0l.02-1.78c.29.54,1.45.78,1.16,1.77Z"/>
  <path d="M413.35,640.22c-.2-.22-1.06-.36-1.09-.75.62-.14.73.54,1.09.75Z"/>
  <path d="M705.77,366.73c-1.4-1.38-1.7-3.21-2.11-5.04,2.52-.04,3.15,4.55,2.85,5.21-.08.17-.57-.37-.74-.17Z"/>
  <path d="M290.26,465.44c-1.26-3.45-2.39-6.45-2.42-10.07,1.18,3.24,2.83,6.29,2.42,10.07Z"/>
  <path d="M639.07,300.17c-.2.32.41.83.34,1.11-.14.51-3.26-.66-3.38-.73-.63-.33-.71-1.15-.6-1.87,1.38,0,2.98.14,3.65,1.49Z"/>
  <path d="M687.97,501.17c0,.62.06,1.25-.1,1.72-.23.69-.95.69-1.53.3-.25-.17-.41-.73-.62-.98.25-.75.41-1.55,1.41-2.29.54.31.52.91.84,1.26Z"/>
  <path d="M481.43,697.14l.56.7c.25.31.71.39.98.56l2.09,2.06c-1.09.29-5.48-3.24-5.47-3.48,0-.36.48-.65.66-.96.54.19.94.61,1.19,1.12Z"/>
  <path d="M419.07,647.08c-1.72-.96-3.51-2.4-4.46-4.17,2.05.13,4,2.21,4.46,4.17Z"/>
  <path d="M294.61,479.14h.58c.27,1.02,1.9,1.82.64,3.19-1.13-.98-1.12-2.2-1.22-3.19Z"/>
  <path d="M633.73,298.48c.01.41.17,1.13-.29,1.28-.66.22-1.59.02-1.9-.88l1.62-.87c.22.06.37.37.58.47Z"/>
  <path d="M710.16,378.75c-.25-1.4-1.33-2.45-.4-3.78,1.22,1.19.74,2.43.4,3.78Z"/>
  <path d="M470.5,688.42c.73.23,1.6.54,1.61,1.63-1.1-.08-1.08-1.18-1.61-1.63Z"/>
  <path d="M473.85,691.29c.03-.21.43-.05.62-.04s.23.36.15.69c-.07.27-.84-.23-.77-.65Z"/>
  <path d="M488.04,695.92v.58c-.26-.13-.8.12-1.06.04-.47-.14-.33-.82-.31-1.38,0-.23.3-.43.84-.35.45.07.31.85.53,1.1Z"/>
  <path d="M377.08,561.61c-.24-.12-.34-.48-.58-.58v-.58c.31.32.55.7.58,1.15Z"/>
  <path d="M378.33,561.55c.13.24.4.42.56.64-.33.16-.68.41-1.05.53-.72.22-.84-.56-.76-1.11l1.25-.06Z"/>
  <path d="M295.19,479.14h-.58c.07-1.24-.85-1.78-.43-2.95.91.84.77,2.02,1.01,2.95Z"/>
  <path d="M293.78,475.1c-.25-.65-1.1-1.26-.73-2.34.4.51,1.02,1.04.73,2.34Z"/>
  <path d="M312.48,442.34h-1c-1.17-6.75-1.87-13.43-1.87-20.29h.58c.56,7.12.6,13.79,2.3,20.29Z"/>
  <path d="M341.27,517.76c-1.75-2.24-2.86-4.67-4.15-7.25-1.32-2.63-3.48-4.68-4.26-7.66,2.46,1.74,3.03,4.72,4.54,7.21s3.21,4.74,3.87,7.7Z"/>
  <path d="M312.94,396.76c-.57,3.13-1.46,6.22-1.52,9.75-.03,1.53-.16,2.93-1.02,4.07-.92-2.72.52-4.93.56-7.52.04-2.38-.08-4.4,1.04-6.25l.94-.05Z"/>
  <path d="M572.47,301.53c1.34.01,1.82.33,1.85.83.04.61-3.23,2.35-4.26,1.18,1.23-.99,2.33-.96,2.4-2.01Z"/>
  <path d="M686.19,497.91c.3-1.11.72-2.15,1.66-3-.05,1.33-.96,1.97-1.66,3Z"/>
  <path d="M609.42,308.04c-2.08,1.07-3.99,1.11-5.76,0,2.16-.3,3.75-.3,5.76,0Z"/>
  <path d="M691.33,363.31c-1.46-.82-1.11-2.33-2.07-3.97,1.19.76,2.12,2.03,2.07,3.97Z"/>
  <path d="M310.18,416.28h-.58c.51-1.89.44-3.36.78-5.27,1.09,1.83.16,3.69-.2,5.27Z"/>
  <path d="M569.93,304.23c-1.65,1.04-3.11,1.46-4.66.86,1.6-1,3.15-1.51,4.66-.86Z"/>
  <path d="M398.19,330.89c-1.23,1.02-2.9.98-4.16.01,1.34-.88,2.48-.94,4.16-.01Z"/>
  <path d="M329.05,495.29c-1.06-.73-1.77-1.89-1.46-3.52.95.75,1.82,1.48,1.46,3.52Z"/>
  <path d="M475.11,684.42c-1.47-.44-2.51-.81-3.4-2.08,1.43-.32,2.64.73,3.4,2.08Z"/>
  <path d="M406.34,599.3c-.89.17-1.35-.71-1.81-1.66.87.25,1.12.79,1.81,1.66Z"/>
  <path d="M694.12,367.86c-.27.03-.54.04-.81.02-.47-.41-1.09-1.49-.48-1.64.94-.23,1.14,1.1,1.29,1.62Z"/>
  <path d="M354.31,539.39c-1.21-.72-1.37-1.58-1.42-2.59,1.16-.14,1.95,1.23,1.42,2.59Z"/>
  <path d="M317.14,380.71l-.59-.05c.37-1.93,1.48-3.12,2.77-4.18-.7,1.64-1.26,2.98-2.18,4.23Z"/>
  <path d="M389.18,330.7c-1.44.35-2.86.43-4.65-.02,1.25-.55,2.56-.55,4.65.02Z"/>
  <path d="M389,582.1c.02-.19.53.06.67.1.25.06.29.46.3.89,0,.8-1.03-.43-.97-.98Z"/>
  <path d="M393.79,330.69c-1.25.36-2.48.42-4.07-.01,1.04-.57,2.18-.54,4.07.01Z"/>
  <path d="M689.94,469.9c-.59-.57-.46-1.56.61-2.28.59.57.46,1.56-.61,2.28Z"/>
  <path d="M385.43,579.08c-.01-.34.93-.15,1.16-.15s.42.39.31.84c-.07.28-.58.43-.83.3-.21-.1-.61-.24-.64-.99Z"/>
  <path d="M685.46,351.69c-1.48-.58-2.11-2.42-2.6-4.49.72,1.39,2.39,2.07,2.6,4.49Z"/>
  <path d="M359.84,545.46c.25.39-.76.85-.94.6s-.37-.56-.45-1.02c-.35-2.01-3.22-1.8-2.61-4.34,1.27,1.67,2.83,2.94,3.99,4.76Z"/>
  <path d="M325.18,486.64h.58c.27.31,1.1,1.41.4,1.57-.88.21-.78-1.11-.98-1.57Z"/>
  <path d="M376.48,568.48c-.6-2.8,4.18,5.91,3.49,3.24.1.38,0,.72-.31.85-.59.26-.95-.31-1.08-.93-.31-1.47-2.27-1.56-2.11-3.16Z"/>
  <circle cx="685.25" cy="499.41" r=".64"/>
  <path d="M687.64,499.54c-.2-1.64,1.31-2.05,2.13-3.02-.71,1.04-.34,2.59-2.13,3.02Z"/>
  <path d="M391.04,584.41c.23-.56.65.19.81.3.29.2.1.52-.08.56-.44.11-1.07,0-.72-.87Z"/>
  <path d="M680.27,344.06l-1.6-2.09c.83.12,1.42.53,1.6,2.09Z"/>
  <path d="M321.91,371.51c.24.08.39-1.44.67-1.34.45.15.39.66.3.82s-.44.7-.96.52Z"/>
  <path d="M342.15,519.98c3.8,1.11-1.6-.77-.55-1.56.17-.13.44.46.64.54.35.16.42,1.16-.09,1.01Z"/>
  <path d="M331.26,500.48c-.25-.65-1.1-1.26-.73-2.34.4.51,1.02,1.04.73,2.34Z"/>
  <circle cx="329.5" cy="496.44" r=".37"/>
  <path d="M327.23,491.25c-.25-.65-1.1-1.26-.73-2.34.4.51,1.02,1.04.73,2.34Z"/>
  <path d="M657.59,489.75c.17.06.38-1.44.64-1.35.44.14.4.67.3.82s-.48.69-.93.53Z"/>
  <path d="M691.44,465.8c-.46.39-.61.41-.58.31s.27-.29.58-.31Z"/>
  <path d="M659.45,324.79c-.07.18,1.44.38,1.35.64-.15.45-.66.39-.82.3s-.69-.48-.53-.94Z"/>
  <path d="M417.56,603.61c-.49.38-.65.4-.6.31s.29-.27.6-.31Z"/>
  <path d="M383.32,577.1c-.38.12-.61-.39-.78-.51-.37-.26-.53-.93.16-1.18.17.66.17.89.61,1.69Z"/>
  <circle cx="388.04" cy="580.93" r=".37"/>
  <path d="M320.06,374.55c.62-.7.51-1.67,1.58-2.11-.4.78-.4,1.75-1.58,2.11Z"/>
  <circle cx="392.94" cy="586.12" r=".29"/>
  <circle cx="384.29" cy="578.05" r=".29"/>
  <circle cx="381.41" cy="574.59" r=".29"/>
  <circle cx="380.26" cy="573.43" r=".29"/>
  <circle cx="649.3" cy="318.81" r=".5"/>
  <circle cx="647.86" cy="317.95" r=".29"/>
  <path d="M684.09,501.15c.2,0,.29.06.29.08s-.1.02-.29-.08Z"/>
  <circle cx="564.81" cy="305.83" r=".29"/>
  <circle cx="688.42" cy="493.93" r=".29"/>
  <circle cx="691.69" cy="364.66" r=".29"/>
</svg>