<?xml version="1.0" encoding="UTF-8"?>
<svg id="Layer_1" xmlns="http://www.w3.org/2000/svg" version="1.1" viewBox="0 0 1000 1000">
  <!-- Generator: Adobe Illustrator 30.3.0, SVG Export Plug-In . SVG Version: 2.1.3 Build 182)  -->
  <g>
    <path d="M434.8,559.8c-2.6-2.1-4.9-.2-12.3-2.4-.5-.2-1.1-.3-1.6-.5,0,0,.1.1.2.2l-1.2.8c-.8.5-.3,1.1.7,1.8.7.3,1.4.6,2,.9,0,0,0,0,0,0,8,3.7,0,2.1,11.5,1.7.6,0,1.1-2,.7-2.4h0ZM413,553.9l2.9,1.3c.3.1.6.2.9.3,0,0,.1,0,.2,0,.3,0,.6.1,1,.2,0,0,.1,0,.2,0l-4.8-1.8c-.1,0-.2,0-.3-.1h0ZM400.8,547.9s.1,0,.2.1h0c0,0,0-.1-.2-.1ZM818.7,691.5c-7.6-9.5-15.8-17.6-24.5-26.2l-29.6-29.5-32.7-31.7-29-28.4c-4.5-4.4-9.8-7.3-16-7.7l-6.9,2.4-11.4-12-18.7-18.2c7.7-8.4,13.9-16.4,19.2-25.9l.6-1.1h0c.3-.5.5-1,.8-1.5h0c0-.2.2-.3.3-.5,1.1-2.1,2.2-4.2,3.3-6.4q.7-1.4,0,0c.6-1.2,1.2-2.4,1.7-3.6.2-.5.5-1,.7-1.5.4-.8.7-1.5,1.1-2.3h0c1.4-3.1,2.8-6.1,4.1-9.3h0c.7-1.6,1.3-3.2,2-4.8.3-.9.7-1.8,1.1-2.7.3-.9.7-1.7,1-2.6h0c1.1-3,2.2-6,3.2-9.1q.7-2,0,0c.4-1.1.7-2.3,1.1-3.4.4-1.2.8-2.4,1.1-3.6h0c.3-.9.6-1.9.8-2.8h0c.2-.5.3-1,.5-1.5l.7-2.7h0c1.1-4.1,2.1-8.3,3-12.4.7-3.5,1.3-7.3,1.6-10.9h0c0-.4,0-.8,0-1.2l.3-4.3.6-10.2c0-1.1.1-2.1.2-3.2h0c.1-2.6.2-5,.1-7.4,0-8.7-.9-16.7-2.3-24.6h0c-.5-2.6-1-5.1-1.6-7.7,0,0,0,0,0,0-1.4-5.8-3.1-11.7-5.1-17.9-.2-.5-.3-1-.5-1.5h0c-.6-1.8-1.2-3.6-1.8-5.4-.1-.3-.2-.7-.3-1-.3-1-.7-1.9-1.2-2.9-.4-.9-1-1.8-1.7-2.9,0,.9,0,1.7,0,2.5.2,2.1.8,4.1,1.6,6.3,4,11.6,5.8,23.4,6.3,35.6.1,2.8.8,6.3-.1,8.7-.2.4-1.6,1.4-1.8,1-2.2-4.5-3.7-18.7-5.9-26.6-10.5-38.4-17.4-53.1-38.6-86.2-.6-1-2.6-2.3-3.4-3.1-3.5-3.7-6.5-10.8-11.5-12.5-5-1.6-6.8-2.9-10-6.7-1.9-2.2-4.6-4.2-7.4-6-1.5-.9-3-1.9-4.4-2.8-.5-.3-1-.6-1.4-.9-1-.7-2-1.4-2.9-2.1-1.5,1.1-2.8,1.5-4.2,1.4-1.1,0-2.2-.4-3.4-.9-3.1-1.2-4.4-2.4-5.3-3.8-.5-.8-.9-1.7-1.4-2.8-.9-1.8-2.2-4.2-5.1-7.3l-5.8-3.2c.8-5-8-10.1-11.5-11.6-11.5-4.8-24.2-9.1-37-11.9-8.1-1.8-16.2-2.9-24-3.3l-10.1-.4c-58.4-2.5-6.5-9.4-58.4,8.4-12.8,4.4-25.1,8.5-36.7,15,0,0,0,0,0,0-1.7,1-3.4,2-5.1,3l-8.1,5.1s-.2.1-.3.2c0,0-.1,0-.2.1-2.4,1.4-12.1,6.7-11.9,4.2l5.9-2.7,4.1-4.3c-3.9.8-6.3,1.6-7.8,2.4,0,0,0,0,0,0-1.7.9-2.4,1.7-3,2.5-.9,1.1-1.6,2-4.5,2.8-1.5.4-2.8,1-4.4,2,1.2,1.1,2.8,2,4.1,2.7-11.8,8.9-11.4,5.8-23.4,17-1.2,1.1-2.8,2.3-4,3.6l-.3.3h0c0,0-10,10.9-10,10.9-3.6,4-6.6,8.8-9.4,13.4l-3.8,6.4c-1.8,2.9-3.7,6.1-5.3,9.2l-7.4,14.9-2.9,6.4c-4.8,10.5-3,14.6-8.6,22.6-.3-.3-.5-.7-.6-1-1.9-3.9,1.7-6.8,2.9-10l5-14.2c.5-1.5,2.3-3.5,2.8-4.8l3-7c2.2-5.1,10.4-19.7,13.8-24.6l4.1-6c6.3-9.3,13.1-17.4,21.7-25.5-.8-.7-2-.5-3.5.3-6,3.5-16.4,17.4-18.2,19.7-7.6,9.9-14.1,19.8-19.7,31.1-7.6,15.4-14.3,31.1-18.6,47.8-2.9,11.2-4,22.2-4.9,33.6-.6,8-.8,31.3.4,38.8l3.1,19.2c1.2,7.3,4.1,14,6.5,21,4.1,12,10.1,22.7,16,33.9l3.7,7c3.9,7.4,9.2,13.6,14.3,20.2,3.8,5,8.1,9.4,13,13,2.7,2,5.6,3.7,8.7,5.2l4.2,5.1c.7.9,2,2,3.2,2.7,0,0,0,0,.1,0,.7.4,1.4.6,2,.3,1.2-.4,2.7-1.4,3.3-1l2,1.5v-2.6c.2-.4,1.4-.5,1.7-.2l1.1,1.1c.7.7,1.4,1.6,2.1,2.6.7.9,1.4,1.7,2.1,2.5,1.1,1.2,2.4,2.1,3.9,2.3.2,0,.3,0,.5,0,1.6.2,3,.4,4.3.6,1.5.3,2.9.6,4,1,1.5.5,2.7,1,3.6,1.5.5.3,1,.6,1.4.9,1,.7,1.6,1.4,2,2,.6.9,1,1.5,1.8,1.7,1.5.4,3.1-1.2,5-1.1.8,0,1.7.5,2.6,1.5,1.9,2.1,4,3.9,5.8,5.9.5.5.9,1,1.2,1.5.9,1.2,1.6,2.4,2.4,3.5.3.5.7.9,1,1.3.3.3.6.6,1,.9h0s5.1,4.4,5.1,4.4c-.6,0-1.2,0-1.7-.2-3.4-.7-5.2-3.2-7.7-5.3l-5.2-4.5-.3,1.4-.3,1.4v.3c0,0-4.8-2.4-4.8-2.4,1,4.6,4.1,7.6,8.1,8.6-1.4-1.3-2.6-2.4-2.5-4.3l1.7,1.1,12.1,8.2s0,0,0,0l2.4,1.6c6.4,4.4,32.9,13,42.3,14.1l20.6,2.5c9.3,1.1,28.8-.5,44.2-2.6,2-.3,4-.6,5.8-.9h0c.7-.1,1.4-.2,2-.3,2.6-.4,4.9-.9,6.8-1.3.4,0,.8-.2,1.1-.3,1.3-.3,2.7-.6,4-1,.5-.1,1.1-.3,1.6-.4,1-.3,2-.6,3.1-.9,1-.3,2-.6,3-.9h0c1-.3,2.1-.6,3.1-1h0c.5-.2,1-.3,1.5-.5,1-.3,2.1-.7,3.1-1.1.9-.3,1.9-.7,2.8-1,.7-.3,1.4-.5,2.1-.8,5.2-2,10.2-4.2,15.2-6.4,6.3-2.9,11.7-6.6,17.6-10.2,6.6-4.1,11.8,11.4,16.9,17,4.5,4.9,8.9,9.4,13.7,14,2.3,2.2,4.4,3.6,2.9,7.8l4.9,3.3c2.8.2,5.2.8,7.7,1.7l17.3-12.6c4.5-3.3,8.5-6.5,12.7-10.3,1.2-1.1,3.6-2.7,5.3-2.5l15.4,17.1,25,25.6c12.5,12.8,23.9,26,37.1,37.9l21.2,19.1c7.5,6.7,14.2,13.9,20.3,21.8,4.4,5.7,6.6,12.3,7.6,19.4.7,5.6-2.9,9.9-7.6,12.9-10.6,6.9-24.8-.4-34.4-6.6-8-5.2-14.5-11.8-21-18.8l-21-22.8-54.7-57.9-18.1-17.4c-.7-.7-2.4-2-3.2-1.8-1.7.3-4.4,2.2-4.9,4.2-.1.5,1.9,1.1,2.3,1.6l13.2,21.8c9.3,15.4,20.6,28.6,31.4,43,10.8,14.5,21.9,27.8,34,41.3,12.9,14.4,32.8,38.1,50.8,44.9,11.4,4.3,27.9,2.4,38.8-2.3,12.9-5.6,21.1-16.8,25.7-29.7,8.4-23.5-4.8-43.9-19-61.6h0ZM455.7,226.2c-2.5.5-4.9,1.1-7.3,1.6-.9.2-1.8.4-2.7.5-.6.1-1.3.2-1.9.3-.6,0-1.2.2-1.9.2-1,.1-2,.2-3.1.2,2.8-1.4,5.6-2.6,8.5-3.6.7-.2,1.4-.5,2.1-.7h0c1.3-.4,2.6-.7,4-1l6.2-1.3h0l2.3-.5,1.7-.4,1.3-.3h0l4.2-.9,3.7-.4h0l4.6-.5h0l2.7-.3c6.2-.6,11.9-1.6,17.8-.5l-5.5,1c-.8.8-2.8,1.5-4.3,1.5-3.2,0-6.2.3-9.3.6-2.8.3-5.7.7-8.7,1.4l-6.2,1.3h0l-8.3,1.7h0ZM304.3,366.6l-1.2,9.2c-.3,2.5-.6,4.4-2.3,6.2-.1-.2-.3-.6-.3-1.2h0c-.5-3-.3-9.7,1.6-12.8.6-.9,1.3-1.5,2.2-1.5h0ZM324.8,307.1l-8.5,21.3c-.4,1.1-.9,2.1-1.3,3.2h0c-1.9,4.7-3.7,9.3-5.1,14.1-.4,1.3-.7,2.5-1,3.7h0c-1.2,4.3-2.3,8.3-3.9,12.9-.2-.3-.4-.5-.5-.8-1.5-3.1,1.7-5.5-.2-8.7-.7-1.1-1.6-2.9-1.3-3.9.3-1.5,1.7-2.6,3.4-3.7,1.7-1.1,2.2-5.2,3.3-6.9,5.1-7.8.3-6,5-16.4,1.5-3.3,3.1-6.1,4.7-9.3l9.7-18.7,7.4-7.5,1.2-1.2c1,3.7-9.9,14.5-12.9,22h0ZM505.1,577.9c-2.4,3.9-6.8,2-10.3.6,3.1-1.8,6.4-2.3,10.3-.6ZM411.4,580.9c-.1-.2,0-.5.2-.6.1-.1.6,0,1,0,.3,0,.6.1.8.2,4.4,2.6,9.8,5.3,15.4,7.6,0,0,0,0,.1,0,3.6,1.5,7.3,2.8,11,3.9,1.2.3,2.4.7,3.6,1-.6,2.1-1.9,2.3-3.3,1.9-1-.3-2.1-.8-3-1.1-6.7-2-22.1-7.9-25.8-12.9h0ZM550.4,561.2c-3.6,1.2-6.9,2.7-10.5,3.4l-4.3.8s0,0,0,0l-25.4,4.9c-.5,0-1,.2-1.6.3-.4,0-.9.1-1.3.2-.3,0-.6,0-.9.1-4.5.5-10.5.7-13.7.7l-8-.2c-18-.4-30.1-4.9-47.5-8.5-4.4,5.5-9.1,3.8-14.4,1.1-2.7-1.3-6-2.5-8.7-4.2l-10.3-6.3,1.5-1.9c.3-.3,1.5.6,1.9.9,3.9,2.7,8.1,4.9,12.5,6.8.3.1.5.2.7.3.7.3,1.4.6,2,.9,0,0,0,0,0,0,8,3.7,0,2.1,11.5,1.7.6,0,1.1-2,.7-2.4-2.6-2.1-4.9-.2-12.3-2.4-.5-.2-1.1-.3-1.6-.5h0c-.3,0-.6-.2-.8-.3l-1.9-.7h0l-4.8-1.8c-.1,0-.2,0-.3-.1h0c-6.9-2.7-9.7-5.9-9.2-2-.2.1-2.3,0-2.6-.4l-1.6-2.3c1-.7,1.4-1,1.4-1.2h0c0,0,0-.1-.2-.1h0c-.2,0-.6,0-1.2.2-1.5-1-2.9-2.1-4.3-3.1h0c-1.4-1.1-2.8-2.2-4.1-3.4h0c-1-.8-1.9-1.7-2.8-2.6h0c-.9-.8-1.7-1.6-2.5-2.4-.6-.6-1.3-1.3-1.9-1.9h0c-1-1.1-2.1-2.1-3.1-3.3-.5-.6-1.1-1.1-1.6-1.7-4.8-5.1-9.4-10.2-13.8-15.4-.9-1.1-1.8-2.1-2.6-3.2-.6-.7-.6-.7,0,0-1.6-1.9-3.1-3.9-4.6-5.8,0,0,0,0,0,0-.6-.9-1.3-1.8-1.9-2.7-1.2-1.7-2.4-3.3-3.5-5.1h0c-.7-1-1.3-2-2-3h0c-.2-.3-.4-.7-.6-1-.9-1.4-1.7-2.9-2.6-4.4h0c-.7-1.2-1.3-2.3-1.9-3.5h0c-.3-.6-.6-1.2-.9-1.8-.4-.7-.7-1.4-1.1-2.2,0,0,0,0,0,0-1-2.1-2-4.1-2.9-6.3-.6-1.4-1.1-2.7-1.7-4.1h0c-.7-1.9-1.5-3.9-2.1-5.8,0,0,0,0,0,0-.6-1.7-1.1-3.4-1.6-5.1h0c-.2-.7-.4-1.4-.6-2.1h0c-.4-1.5-.8-3-1.2-4.5h0c-.2-.9-.4-1.8-.6-2.7-.2-1.1-.5-2.3-.7-3.5-1.8-9.5-2.5-19.2-2.1-29.1,0-.6,0-1.2,0-1.7.2-4,.6-8,1.2-12h0s.7-5.1.7-5.1h0l1.5-10.4h0l.4-2.8c0-.6.2-1.3.3-2,1.3-7.8,3.9-17.9,7-27.9h0c.2-.8.5-1.5.7-2.3.2-.5.3-1,.5-1.5h0c.5-1.5,1-2.9,1.5-4.4,1-2.9,2.1-5.8,3.2-8.5h0c1.6-3.9,3.1-7.4,4.7-10.3,9.4-18,22.3-33.6,37.5-46.9,4.7-4.1,9.5-7.8,15-10.4.9-.4,1.8-.8,2.8-1.2,3.4-1.3,8,1.8,11.5-1.2l-10,.3c4.4-4,9.3-6,14.5-8.4,21.6-10,27.1-11.6,50.8-16,11.8-2.2,29.5-1.7,45.5.3h0c2,.2,3.9.5,5.8.8.3,0,.6,0,.9.1.9.1,1.8.3,2.7.5,1.1.2,2.2.4,3.3.6.2,0,.3,0,.5.1.2,0,.3,0,.5,0,.6.1,1.2.2,1.8.4.5.1,1,.2,1.5.3.4,0,.8.2,1.2.3.4.1.9.2,1.3.3.2,0,.5.1.7.2,1.1.3,2.2.6,3.2.9,5,1.5,9.9,3.1,14.7,5,0,0,0,0,.1,0,8.5,3.2,16.7,7,24.6,11.7,5.7,3.4,10.2,8.8,14.6,13.8,14.1,15.9,25.9,33.2,36.5,51.8,6,10.5,10.3,21.1,13.5,32.6l2.6,9.5c.7,2.6,2.8,13.4,3.2,16l1.3,10.2c1.6,12.7,0,25.2-1.8,38.2-3.3,24.3-12.9,47.2-26.9,67.5-18.1,26.3-45,44.2-74.9,54h0ZM644.4,596.1c-.5.7-1.3,1.5-1.9,1.7-2.1.9-5-7.6-5.7-8.5-3.6-4.2-7.1-8.3-10.9-12.1-2.7-2.6-5.3-4.2-7-7.7l14.1-12.7c.6-.6,2-1.4,2.8-1.6.7-.2,1.3,2.2,1.7,2.8,6.6,8.7,14.5,15.9,22.8,23.3-6.3,4.8-11.6,8.9-15.9,14.8h0ZM400.8,547.9s.1,0,.2.1h0c0,0,0-.1-.2-.1ZM418.1,555.8l-4.8-1.8c-.1,0-.2,0-.3-.1l2.9,1.3c.3.1.6.2.9.3,0,0,.1,0,.2,0,.3,0,.6.1,1,.2,0,0,.1,0,.2,0h0ZM434.8,559.8c-2.6-2.1-4.9-.2-12.3-2.4-.5-.2-1.1-.3-1.6-.5,0,0,.1.1.2.2l-1.2.8c-.8.5-.3,1.1.7,1.8.7.3,1.4.6,2,.9,0,0,0,0,0,0,8,3.7,0,2.1,11.5,1.7.6,0,1.1-2,.7-2.4h0Z"/>
    <path d="M363.7,245.6l-8.2,7.5c-.4.4-1.4.5-2.4.5-1,0-2.1-.3-2.8-.7,4-3.1,7.6-5.8,12.1-7,.4-.1.9-.2,1.3-.3h0Z"/>
    <path d="M564.8,411.9c.8,5.7,1,11.3,1.3,16.9l.5,11.5c.7,15.5.5,28.2-1.7,43.3,11.5,1.8,13.4,1.7,23.8,6.4l1.2,8.7c.1.8-.3,2.8-.8,3.3s-2.1,1-2.9,1l-11.6.7c-7.6.5-15.2,0-22.8-.2l-36-.7c-7.9-.2-15.4,0-23.4.3l-16.6.5-10.7.7c-10.1.7-19.6,1.7-29.7,3.4l-40.7,6.5c-4.4.7-13.8,1.3-13.9-4.4-.1-5,25.4-14.3,30.9-16.2,1.7-.6,2.5-2,2-3.6-1-2.8-.9-5.3-1.3-8.2l-5.8-39.1c-.6-4.2-.1-8.7-.5-13-.4-5-.4-9.6,0-14.5l.9-12.4c.3-4.2,3.7-10.6,7.9-13.3l1.5,7.9.5-9.5c.5-.7,2.6,1,2.7,2l1.8,19.2.7,11.5.8,17.9.5,26.8c0,5.5,1.7,19.5-.7,22.9-.4.5-1.4.2-2.9.1-1,0-.9,4,.2,4,6.5-.5,13.7-1.8,19.9-2.9l7.9-1.4,15.9-2.6-1.3-15.4-.6-10.7-.2-40.6c4.3-5.5,18.5-6.9,24.4-6.6l14.7.7c1.7,0,4.8,1.7,6.7,2.2,2.4.6,3.9,2.7,3.9,5.1,0,13.2-.4,25.8.3,38.9.4,7.6.5,15.4.2,22.8.3.4,2,1.4,2.9,1.3l22.1-.3,15.2-.7.4-63.4.4-11.1.2-17.4c3.4.5,4.7,3.5,7,5.7,5,5,2.3,1.9,4.5,16.5h0Z"/>
    <path d="M509.9,342c-8.9-7.6-16.5-14.8-24.6-22.8-1.3-1.3-5.1-1.4-6.2,0l-7.5,8.3c-8.5,9.4-17.3,18.2-26.7,26.8l-20.9,19.2-16.8,15.4c-5.3,4.9-10.1,9.7-16,14-3.9,2.9-10.3,3.6-13.9-.2-2-2.2-3.1-7.6-2.3-10.3l13.7-13.5,25.8-26.3c18.4-18.8,37.1-36.5,58.2-52.1,1.9-1.4,4.6-2.4,6.9-3.2,6.5-2.3,19,7,24,11.3l25.5,22.1c3.4,3,6.8,6,10,9.2,7.1,7,14.4,13,21.9,19.5l16.5,14.2c2.7,2.3,16.5,13.2,16.2,15.8-.3,2.5-5.2,11.6-8.3,13.9l-18.2-13.2-23.5-18.8-34.1-29.2h0Z"/>
  </g>
  <path d="M458,637.4l-20.6-2.5c-7.9-1-15.8-3.6-23.3-6.1-23-7.7-44.4-19.9-64.2-33.6-18.9-13.1-37.3-27.1-52.2-44.8-13.4-16-20.6-33.7-29-52.5-7.4-16.7-15.7-42.2-16.8-64l-.6-11.9c-.4-8.2-.4-15,0-21.5l.7-11.1c.4-5.9,1.1-11.6,2-17l1.2-6.6c2.5-14.3,7.1-26.8,12.8-41.5,3-7.8,5.2-14.1,8.7-20.9.9-1.8,2.4-4.6,3.3-6.4,3.4-6.8,3.7-9.3,7.5-14.9l4.5-7.2c5.6-8.3,8.9-14.4,17.8-22.4h.1c1-1.2,3.2-3.6,6.6-5.1,1.1-1.7,3.7-4.8,10.3-8.9,3.7-2.3,5.7-6.3,8.5-7,.3-.2.6-.4.9-.6,1.9-1.3,3.8-2.2,5.7-2.9,1.9-2.3,4.6-4.1,8-5.5,2.8-1.4,8.2-6,12.7-6.9,1.4-.3,2.9-.3,4.3-.1,2-1.4,3.8-2.3,5.6-3.2.5-.3,1-.5,1.5-.8l.7-.3c12.4-7,22.3-10.2,34.8-14.7l.7-.2c10.9-3.9,22.1-6.5,33.5-8.1-7.9-1.9-15.3-3-23.2-3.6l-9.3-.7c-6.6-.5-14.5-.9-22.1,0l-7,.7c-15.1,1.6-36,11.4-46.8,16.6l-6.8,3.3c-3.8,1.9-7.3,3.9-11.1,6-1.5.9-3.1,1.8-4.7,2.7l-15.7,8.7-6.2,4.8c-13.8,10.7-25.1,19.7-35,31.2-11.4,13.2-26.5,34-34.9,53l-4.9,11.2-2.7,8.2c-.2.6-.4,1.7-.6,2.8-.4,1.9-.8,4-1.5,6.2l-2.6,7.7c-1.3,4-4.1,24.9-4.6,29.5h0c0,1-.2,1.9-.5,2.7-.5,2.7-.1,10.6,1.2,23.5.1,1,.2,1.9.3,2.6l2.8,27.1c.7,7.3,1.6,14.3,3.4,20.5l3,10.2c5.2,17.3,8.7,25.8,16,43.3.7,1.6,1.3,3.3,2,4.9,1.9,4.6,3.6,9,6,13l24.6,42.3s0,.1.1.2l10.1,17.9,4.9,8c3.3,5.4,6.7,10.5,10.3,15.9,2.5,3.8,5.2,7.7,7.7,11.8l7.8,12.3,29,42.4c.9,1.4,1.7,2.6,2.5,3.8,1.1,1.7,2.1,3.2,3.2,4.7l23.1,30.4,22.2,27.4c2.5,3.1,5.5,6.1,8.6,9.2,1.8,1.8,3.6,3.6,5.5,5.6,1.5,1.5,5.9,4.3,8.8,5.6.9-1,1.9-2.3,2.7-3.2.5-.7,1.1-1.3,1.6-2l17.2-21.1c5.9-7.3,11.2-14.5,17.7-23.9l33.5-48.2c1.2-1.8,2.4-3.6,3.6-5.5,1.4-2.2,2.9-4.5,4.6-6.9,2.2-3,5.8-9.1,9-14.8-13.7,1.6-29.6,2.7-38.8,1.6h0Z"/>
  <path d="M245,720.2c3.9,1,6.7-.2,10-1.1,26.7-7.2,20.6-5.2,47-6.5,5.1-.3,26.1-2.1,26.3,1.4,0,.8-1.3,2-2.1,2.2l-10.6,1.7-17.3,1.4-10.9,1.5c-11.7,1.6-16.7,2.5-27.7,6.5-9.1,3.3-18.1,6.7-25.5,12.9-3.8,3.2-6.3,8.6-2.9,12.7,8.8,10.4,38.4,18.2,51.9,21.7,3.2.8,6.1,1.7,9.4,2.3l11.6,2.1c3.6.7,7.1,1.2,10.7,1.6l21.6,2.5,17,1.4,33.2,1.5c11.5.5,22.7,1.4,34.2.2l6.2-.6c9.3-.9,18.3-.1,27.7-.9l20.6-1.7,16.8-1.7,14.8-2.1c3.4-.5,7-1.1,10.3-1.8l29.3-5.8c8.9-1.8,39.5-9.7,40.6-19.8.9-8.7-24-16.8-31-19.5-11-4.1-27.2-8.5-38.6-10l-12.3-1.7-10-1.5c-3.2-.5-6.9-1.1-8.6-4l.3-6.1c-2-5.1-.2-9.5,4.6-12,2.3-1.2,5.4-3.2,8-3.4,9.4-.9,18-.7,27.6.4l-1.7,1.6c2.8-2,17.3,1.9,20.8,2.9,17.8,5,34.8,11.4,50.8,20.5,8.1,4.6,15.2,10.4,18.4,19.3,2.4,6.5,2.8,14.3,1.1,21.1-5.4,21.7-37.8,34.4-57.4,38.7l-10.7,2.3c-2.8.6-5.6,1-8.5,1.5l-10,1.5-13.2,2c-21.6,3.4-44.8,6.1-66.7,7l-11.5.5c-13.4.6-26.5.4-39.8,0-3,0-6.2-.7-9.2-.6-11.5.4-22.5-.9-33.8-1.8l-20-1.7c-9.2-.8-17.9-2.2-26.9-3.9l-7.8-1.5-10-2.2-6.2-1.5-9.8-2.5c-5.4-1.4-10.3-3.1-15.5-4.8-18.2-6.3-49-19.6-50.2-42.4-.5-7.9,4.2-15.9,9.9-21.1s12.2-9,19.2-12.3c11.3-5.3,34.9-11.2,47.4-12.4l15.8-1.5c4.4-.4,8.5,0,12.7,1-2.8.9-5.1,1.1-7.8,1.2l-13,.4c-10.5.3-15.3,3.9-17,4.2-3.7.7-8,1.4-11.5,2.6-7,2.5-13.4,4.7-20,7.7h0ZM498,698.7c4.4.7,9.1,1.4,11.4-3.1l-9.3.5c-1,0-2.6,2.2-2.1,2.7h0Z"/>
</svg>