<?xml version="1.0" encoding="UTF-8"?>
<svg id="Layer_1" data-name="Layer 1" xmlns="http://www.w3.org/2000/svg" viewBox="0 0 1000 1000">
  <path d="M566.04,767.78l-27.5,19.47c-21.9,15.5-51.67,17.66-74.92,3.75-13.96-8.36-25.85-18.5-38.38-28.47-8.35-6.65-17.76-8.94-28.39-8.98l-29.64-.13c-9.35-.04-18.04-2.6-27.09-4.48-4.52-.94-7.17-3-10.37-4.7-11.94-6.34-20.68-15.4-26.47-27.76-15.55-33.18-11.61-55.75-35.29-72.16-10.2-7.07-19.56-14.16-29.44-22.03-17.8-14.19-29.38-35.64-27.82-59.01,2.39-35.86,28.9-53.2,12.45-93.12-6.04-14.65-9.74-31.09-10.08-47.35-.31-14.71,6.57-28.53,15.56-39.51,18.87-23.05,49.37-33.84,62.63-56.91,4.58-7.97,7.69-18.87,8.66-27.26-1.54-11.87,7.14-15.96,7.31-15.69l-1.52-2.45c10.18-20.83,18.02-21.95,34.39-31.97,22.54-13.8,46.74-2.86,75.49-6.82,22.49-3.1,37.6-29.23,66.13-39.18,16.8-5.86,37.59-3.57,53.36,4.24,27.44,13.59,40.79,43.16,76.76,39.51,15.49-1.57,31.94-2.49,47.11,3.07,17.01,6.23,31.88,18.88,40.19,34.97,5.53,10.7,9.59,22.75,11.98,34.19,9.48,45.28,39.02,41.06,58.59,66.58,5.36,6.99,9.77,14.37,13.81,22.17,8.11,15.66,7.07,35.02,1.03,51.44l-10.81,29.39c-6.05,16.44-5.14,32.17,1.69,48.98-4.02-.16-3.7-3.49-5.58-6.6l6.26,30.85c2.79,13.76,2.62,27.97-2.69,40.85l-4.4,10.67,8.49-7.39c-2.93,16.61-22.93,29.04-34.83,36.87l-26.71,17.57,4.96-6.76c-9.8,2.57-13.99,12.13-16.37,20.74,3.01-5.25,4.6-9.99,9.06-12.02-6.47,15.66-11.77,28.59-16.86,43.7-8.03,23.81-26.22,45.36-51.53,51.27-27.35,6.39-54.48-7.09-79.27,10.45ZM512.43,753.98l35.86-23.88c13.67-9.11,28.84-13.25,45.41-12.75l23.19.69c7.6.23,15.05-1.64,22.05-4.39,7.07.62,13.14-4.64,13.4-11.72,14.16-21.43,12.23-42.34,29.62-63.25l16.33-10.89c4.77-3.18,9.59-6.34,13.71-9.54-8.42-4.18,14.58-6.45,27.69-28.78,1.93-3.29,4.64-9.49,4.33-13.47-3.46-43.73-33.99-51.83-6.23-109.38,5.99-12.42,9.93-25.3,6.87-39.29-1.21-5.52-3.68-12.35-8.08-16.17-22.37-19.41-36.27-21.75-52.49-43.86-4.63-6.31-6.78-14.39-8.97-21.88l-8.76-29.95c-2.37-8.1-7.65-16.51-14.8-21.3-6.53-4.38-15.36-5.34-23.02-5.2l-24.85.43c-16,.28-31.71-3.87-44.67-13.36l-39.1-28.64c-10.68-7.82-26.61-7.22-37,.15l-36.43,25.83c-17.27,12.25-49.73,9.39-70.14,6.74-2.56-.33-6.47-2.69-9.03-1.99l-9.37,2.58,10.87-.24c-14.95,2.85-27.14,11.8-32.17,26.9l-10.54,31.59c-6.1,18.3-17.45,32.34-33.71,42.57-19.47,12.24-40.51,24.11-37.58,51.16,1.16,10.76,4.28,21.27,8.35,31.41,8.96,22.32,8.86,45.31-.26,67.54-9.12,22.22-16.82,45.66,4.16,62.16,7.76,6.1,15.59,11.84,23.77,17.39,9.66,6.57,17.89,13.06,25.19,22.52,1.25,1.62.93,6.08,1.56,7.84l6.49,18.03,1.66-4.04,11.69,36.19c2.18,6.76,6.8,12.6,13.62,15.21,7.28,2.78,15.85,5.3,23.82,5.4l31,.41c33.19.44,46.64,21.97,70.38,37.19,10.05,6.45,25.51,11.17,36.2,4.04ZM304.65,323.89c2.86-6.11,4.57-10.6,5.89-17.65-3.07-1.58-7.79,17.25-5.89,17.65ZM720.85,365.75l-13.9-13.58c.91,3.81,10.92,15.85,13.9,13.58ZM769.03,410.71c.53-8.93-6.11-15.86-11.72-19.8l11.72,19.8ZM754.99,600.02c6.32-4.15,6.85-8.43,6.44-14.13-.22-3.09,1.63-6.37-.76-9.72l-1.59,9.67-4.09,14.18ZM759.95,603.9c5.53-2.8,10.35-8.47,8.67-14.48-.98-3.51,1.19-7.67-1.47-12.03l-2.78,15.75c-.65,3.69-1.9,6.18-4.41,10.76ZM702.1,654.42c1.69-.74,3-1.27,2.51-1.5-6.86-3.28-9.61,9.45-11.7,16.83l9.19-15.32Z"/>
  <path d="M546.85,534.5c-4.85-16.98-8.65-32.88-11.22-49.82l-5.5-36.28c-.46-3.06,3.17-6.6,5.27-7.7l3.52-1.85c-2.19,1.15,9.13.76,11.16,8.36l17.51,65.38,12.07-30.78c1.58-4.04,9.43-7.97,13.12-9.78l10.63,2.96c11.08,16.15,10.7,25.76,18.43,42.34l16.55-71.54c1.27-5.48,5.05-13.14,9.34-15.58l6.49-3.68,1.58,7.79,5.23-3.97c2.89,3.4,4.77,6.69,5.51,10.23l2.89-3.92c-.54,3.99-.76,7.27-1.52,10.41l-7.19,29.76c-6.37,26.34-11.84,51.97-19.63,77.87-2.51,8.33-11.01,16.81-19.63,13.28-10.58-4.33-14.01-16.66-18.17-26.11l-9.85-22.34-10.53,32.69c-2.31,7.16-7.14,14.5-15.02,15.66-14.25,2.11-18.42-24.29-21.03-33.42Z"/>
  <path d="M356.88,523.16c.47,14.07,4,52.13-10.89,56.09l-7.98-3.61c-1.49-4.6-3.13-9.51-3.58-14.44-3.16-34.64-4.07-68.73-3.05-103.46.16-5.49,3.25-9.56,7.04-12.13,4.96-3.36,9.78-2.63,14.55.91,6.83,8.18,12.91,16.62,18.86,25.66l29.95,45.54c-1.03-24.24-2.9-45.39-.06-68.21.64-5.18,4.42-10.52,9.77-11.77,21.87-5.1,17.06,82.2,16.55,94.37-.57,13.48-.12,26.03-2.49,38.41-7.56,4.05-16.61,5.52-21.96-1.35-4.47-5.74-8.65-11.93-12.51-18.25l-35.18-57.58,1,29.82Z"/>
  <path d="M473.59,514.53l-.7,8.65c-.6,7.46-.5,15.08.27,22.74,16.89-3.22,54.76-14.13,54.77,10.95l-9.46,8.3c-8.09,1.77-16.18,2.62-24.43,3.79-11.09,1.57-22.16,3.74-33.41,2.29-3.1-.4-8.38-5-10.03-7.97-3.85-35.34-6.49-69.72-4.02-104.83.54-7.71,6.2-14.5,12.79-16.66s13.37-.72,19.56-1.85c8.25-1.51,36.98-9.34,41.56,3.75,1.38,3.96-.25,6.12-2.89,9.83-5.35,7.54-9.09,5.99-24.9,6.82l-23.85,1.24,1.53,30.59c12.66.08,27.48-6.93,38.98-.41,5.45,3.09,3.68,10.41.15,14.1-9.57,9.98-21.04,6.85-35.91,8.67Z"/>
</svg>