<?xml version="1.0" encoding="UTF-8"?>
<svg id="Layer_1" data-name="Layer 1" xmlns="http://www.w3.org/2000/svg" viewBox="0 0 1000 1000">
  <path d="M748.87,575.46c1.34,4.89-6.22,12.26-7.95,19.41l2.34-1.6-5.82,12.95c-.93,2.06-1.67,4.16-2.8,6.17l-5.15,9.26c-2.07,3.72-2.82,8.09-5.21,11.66l-2.49,3.72c-2.32,3.47-4.73,6.46-6.98,9.92l-1.79,2.75c.84,1.32.46,2.94-.9,3.93-14.47,10.52-3.84,13.01-10.71,11.08l-10.49,11.85c-2.03,2.29-4.07,4.69-6.19,6.74l-9.98,9.64c-3.91,3.78-7.97,7.1-12.32,10.21l-22.32,15.93c-3.33,2.38-7.68,4.07-10.44,6.93-1.87,1.94-2.58,2.79-5.52,2.35l-4.98,3.3-8.71,5.36.68,2.24,4.83-2.91c1.55-.93,6.96-4.43,7.06-4.37l1.79,1.05,5.67-3.08c.39-1.12,1.12-2.33,1.95-2.84l6.27-3.8c.52-2.44.96-2.72,2.64-3.76,9.19-5.7,12.4-8.68,21.03-13.88l3.75-3.6-1.49,3.08c4.59-2.18,7.01-5.5,9.58-8.38l8.36-9.37c1.89-.43,5.01-.9,5.12-3.59l-.96.49c-.19.1-1,.13-.87-.06l.74-1.03c.84-1.18,2.06-2.11,3.06-1.95,2.9.46,2.91-3.32,4.32-4.76,3.26-3.35,6.56-6.24,9.5-9.74,3.79-4.54,6.92-9.26,10.3-14.02l3.65-5.13,7.4-10.27c1.07-1.48,1.49-4.17,2.77-5.36,4.45-4.16,6.99-10.1,9.3-15.92l4.24-10.69,1.01.96c.13.12.51-.53.6-.73l5.94-13.89,7.69-21.23-2.27,9.73c-.93,3.97-2.72,7.42-3.3,11.57l9.21-24.7-3.32,15.72,2.22-3.63c.48,3.58-1.03,6.02-2.16,9.09l-2.46,6.68-1.02-1.1-2.77,5.21c-.1.19-.11,1.49.07,1.57l1.32.52-3.63,8.07c-.2.45.31,1.89-.02,2.2l-1.95,1.8c.06,1.83-.31,4.71-1.6,6.23l.07-3.44-6.52,11.78c-1.29,2.33-2.56,4.68-3.57,6.93l2.77-.51c-6.46,11.9-12.97,23.16-21.56,33.48l-10.19,12.24c-2.49,2.99-4.93,5.97-7.79,8.67-9.29,8.73-18.04,17.6-28.31,25.16l-17.68,13c1.99-.18,3.35-1.6,5-2.56,2.56-1.49,5.09-2.94,7.42-4.79,2.48-1.96,4.67-3.65,7.45-4.44-9.33,7.64-19.37,14.7-29.23,20.19l-17.47,9.73c-4.97,2.77-9.96,4.61-15.06,6.83-9.93,4.32-19.41,8.72-30.07,11.08-4.21.93-7.85,3.42-12.21,2.26,4.28-2.29,8.46-.74,11.06-3.41-3.62.07-9.73,1.83-12.73,3.01-.58.64-.92,1.03-.66.73l2.52.68c-2.31.91-4.16,1.39-5.59-.05-2,.19-4.94.56-7.37,1.17-16.44,4.11-27.21,4.92-44.12,5.29-6.39.14-12.46.3-18.76-.25l-21.41-1.88c-7.74-.68-15.2-2.62-22.86-3.99-9.39-1.67-17.83-4.8-26.84-7.6l-13.34-4.15c-5.1-1.58-9.96-4.43-15.07-6.33-6.16-2.29-15.3-6.85-20.79-10.59-8.3-5.65-16.94-10.36-24.96-16.48-4-3.05-12.28-11.69-15.49-11.03-6.33-5.64-12.66-11.32-18.42-17.51l-10.5-11.28-8.84-10.21c-3.19-3.69-5.18-8.34-8.17-12.24-7.48-9.75-12.31-20.54-18.27-31.27-.91-1.64-3.58-4.27-3.91-5.98-.05-.27-1.44-.18-1.38-.45l.4-1.97-1.25-.42c-1.23-.41.74-2.41-1.09-6.39l-6.72-14.56c-.25-.55.17-2.39-.12-2.88-.35-.59-1.65-.97-2.63-.98,1.13-4.56-1.63-4.79-1.91-9.76-.14-2.49-.74-4.76-2.24-6.18.4,2.3.63,3.37.72,4.89-1.76-2.37-1.44-4.7-1.71-6.78-1.04-8.11-3.94-16.31-5.63-24.62l-.82,2.13c-4.59-13.63,1.02-2.92-1.98-20.16-1.96-11.28-1.63-22.61-2.57-34.5-1.45,4.33-.42,9-.1,13.71l.71,10.64c.13,1.93.04,4.22-.19,6.51-1.62-6.05-2.53-29.41-2-35.59l.65-7.53,1.41,5.74.88-13.35,2.35-16.08-.96-1.26-2.36,9.58.85-8.39,1.33-9.59,1.95-7.98c1.64-6.69,2.7-12.65,4.65-19.15,4.17-13.91,9.36-27.01,14.9-40.34,1.69-4.08,3.37-7.79,5.43-11.16.42,1.02.79,2.21.93,2.05l1.05-1.33c.12-.15-.14-1.17-.33-1.12l-.9.25c-1.18-3.26,2.84-3.61,3.87-5.26l16.01-25.67c2.61-4.19,13.91-18.68,17.91-22.7,1.46.74-9.95,12.72-5.93,10.58,4.67-5.16,8.12-10.52,12.71-15.33l8.27-8.65c3.48-3.63,6.69-6.84,10.46-10.05l5.83-4.97,6.7-5.64,9.59-8.01c3.04-2.54,13.42-7.59,18.56-11.37,3.12-2.3,5.88-4.36,9.63-5.96,4.51-1.92,8.53-4.38,12.77-6.62,11.55-6.09,12.62-4.93,23.56-9.27l12.3-4.87c14.45-5.73,10.09.46,21.08-5.38,11.38-6.04,45.71-8.94,61.53-8.13,2.62-2.07-3.17-.45-2.71-2.07,5.51-.35,9.87-.28,15.29-.07,1.34.35,1.35.54-.11,1.06l-6.27-.02h-1.45c-.31,0,.63.82,1,.84l24.86,1.4c-.94-.78-2.96-.68-4.7-.81l-10.67-.78c-1.03-.59-.85-.68.47-1.11,6.67-.06,12.95.98,19.51,2.42,1.65.36,3.69-.15,4.83-.27,3.68-.36,8.03.75,12.54,1.5,1.67.31,1.33.59-.67.87,7.71,1.89,16.23,2.14,23.24,6.22l2.82,1.64,12.87,4.93c6.06,2.32,11.96,4.62,17.69,7.51,17.83,8.99,38.2,20.69,53.26,33.75l10.53,9.13c12.06,10.46,23.98,22.47,33.31,35.3l10.32,14.19c3.47,4.76,10.09,17.47,12.19,23.37.79,2.22,2.84,4.56,3.8,6.78l4.03,9.37c.28.65.52,2.57.29,3.09s-.5.52-1.98,1.33l2.05,4.09,3.03,7.23,2.86,7.66c4.51,12.08,8.49,24.35,10.05,37.26.85,7.06,1.19,13.65,2.41,20.72.24,1.37-.75,2.36-2.49,2.52l.05,9.03-.58.28-2.11-11.97c-.39-2.19-.85-4.31-1.43-6.54-2.45,1.92-.14,3.86.08,5.79.69,6.12,1.36,12.13,1.59,18.39-.21-5.74-.34,23.1-1.5,17.75-.45-10.68-.63-20.28-3.25-29.9-1.08,1.37-1.31,1.57-.96.35l-2.07-12.26c-.07-.39-4.1-16.33-4.44-15.75-.79,1.83-1.13,2.29-1.17.84l-2.47-7.81c-.34-1.07-2.07-2.91-2.56-3.82-1.67-6.97-4-13.5-9.01-19.29.6,2.88,1.61,5.62,2.65,8.57l3.58,10.14c1.72,4.86,2.56,10.06,3.19,15.25l1.4,11.42-2.15-1.14c-1.97,7.19.69,6.93-.18,14.32-2.35-8.43-4.77-7.78-4.47-14.4l.89,1.95c.39-1.13.23-3.11-.31-4.92l-1.08,1.49-4.92-15.51c-.37-1.16-.23-3.81-.67-4.92l-2.76-6.86-.91-.85,3.93,16.82,1.87,9.55-.79.96-.69-3.86c-6.74-4.33-1.87-7.21-10.29-21.86-2.3-4-3.82-8.81-6.37-12.65l-8.7-13.08-14.08-21.23c-18.11-27.31-31.69-43.65-58.11-63.29-18.36-13.65-38.93-23.88-60.83-30.31s-34.08-9.15-56.77-10.56c-8.22-.51-15.7.38-24.15,1.12-29.44,2.59-58.12,10.63-84.27,24.23-33.47,17.41-65.08,46.19-84.78,78.16l-5.75,9.33c-6.49,10.53-11.48,21.25-16.15,32.75-7.95,19.57-13.25,43.7-14.89,64.79l-.59,7.54c-.76,9.8-.21,25.18,1.26,34.75l1.09,7.09c7.75,50.38,25,86.3,59.3,123.67,9,9.81,18.96,17.97,29.67,25.97,28.76,21.49,61.8,33.6,96.93,40.07,2.75.51,5.57,1.05,8.25,1.21l12.29.75c8.79.54,17.41-.96,26.27-1.56,6.73-.46,13.13-.7,19.69-2.27l17.5-4.19c26.58-6.36,62.45-23.39,83.57-40.75l17.88-14.7c3.32-2.73,5.86-5.3,8.58-8.42,1.95-2.22,6.21-3.98,6.52-7.84,5.52-6.84,7.81-4.74,11.38-12.56,1.94-4.26,5.38-8.64,8.49-12.14,2.31-2.6,3.33-5.12,4.62-8.54,1.36-3.63,4.44-6.91,6.3-10.34l6.97-12.88c3.93-7.27,4.65-4.07,3.02-6.07l4.76-14.22c.13-.39,1.13-1.51,1.27-1.28l.99,1.62,4.78-17.5c.08-.28.72-.79.78-.61.06.19.76,1.3.71,1.48l-2.32,7.95-2.3,8.69c-1.11,4.18-2.82,7.95-4.55,11.91-3.02,6.87-5.37,13.62-7.9,20.84l3.6-3.51c-2.46,8.8-11.52,23.9-16.76,31.19l-12.43,17.26c-4,5.56-5.03.99-8.55,7.58-.3,1.31-.2,1.28.43.27l1.29-.75c.26-.15.62-.34.52-.15-.11.21-.54,1.28-.69,1.44l-5.28,5.76c-4.7,5.12-9.5,9.39-14.59,14.02l-5.04,4.59c-2.44,2.22-4.51,4.44-7.2,6.3l-10.42,7.2c-17.83,12.31-39.35,23.67-60.18,29.26,4.96,2.54,8.91-.49,12.98-2.21l13.12-5.55c5.12-2.17,9.86-5,14.58-7.84l7.6-4.58c9.14-5.51,17.5-11.7,26.18-17.9,3.77-2.69,7.41-5,10.74-8.27l11.25-11.05c5.08-4.98,9.62-9.82,13.92-15.52l6.99-9.27c3.72-4.94,9.85-13.18,12.02-18.79.45-1.17,1.96-2.7,2.56-3.83l7.9-14.84c6.21-11.66,6.28-16.28,12.22-28.75l.08,3.1c-.26,1.27-.36,2.33.27.8,3-5.59,4.2-11.4,5.54-17.74-.41-1.82-.88-.72-1.11.65l-2.45,6.53c1.28-6.82,3.13-12.5,5.13-18.52l-.79,7.7c2.29-6.96,3.18-13.55,4.65-20.9l1.79,2.37.38-1.16c2.38-7.28.9-8.79,2.33-15.72l.96.45,1.55-.08-1,11.2c-.54,6.02-1.96,12.14-2.93,18.35.62,1.3.85,1.09.87-.29l1.6-3.05-.67,8.1c-.19,2.28-.68,4.94-1.03,7.42.49,1.42.68,1.61.66.19l.54-2.4c-.61-.68-.28-.31.82.91.86-2.38,1.43-4.58,1.76-7.85l-1.69,2.03c.89-3.82,1.71-6.42,3.04-9.37,1.13,1.9,1.28,3.21,1,4.78l-1.5,8.34c.78,1.32,1.02,1.58.52.12l3.14-7.71-2.35,12.87c2.4,2.16-1.02,1.59.65,7.68ZM487.14,236.36l4.79-.63c-4.23-.56-7.88-.08-11.68.87,2.44.21,4.59.06,6.88-.24ZM425.33,250.2c-2.03-.77-3.17-.46-3.28.95l3.28-.95ZM362.54,290.19c1.66-1.03,2.68-1.79,3.62-2.74-2.06-.25-3.63,1.12-3.62,2.74ZM324.34,306.69c2.37-1.07,3.23-1.92,3.61-3.4-1.82,1.1-2.94,2.21-3.61,3.4ZM286.93,347.52l4.98-7.07c.75-1.06,1.08-2.57.31-3.84-6.29,8.77-11.97,16.98-16.38,26.68l4.8-6.78,6.29-8.99ZM264.41,384.96c3.27-3.68,5.45-7.72,6.59-12.8-2.76,3.76-4.8,8.15-6.59,12.8ZM246.11,423.2l11.23-28.77c1.31-3.36,2.4-6.59,3.59-10.63l-2.95,5.72c-3.25,6.3-5.43,12.78-7.73,19.48-1.61,4.69-3.65,9.17-4.15,14.19ZM718.87,383.87c.17,4.95,2.28,8.17,5.16,11.38.94-1.01-4.65-12.24-5.16-11.38ZM255.05,412.71l3.25-9.4c.22-.64-.75-2.38-1.16-2.22-4.06,10.2-7.51,19.91-8.83,30.37,2.98-6.33,4.51-12.31,6.74-18.75ZM243.65,432.54l1.79-5.46c-2.03,1.17-2.6,3.29-1.79,5.46ZM752.12,449.77c1.08-5.1-.84-9.63-2.88-13.64.71,5.22,1.59,9.4,2.88,13.64ZM243.6,451.02c1.47-3.83,2.43-7.55,2.61-11.19-2.21,3.79-2.61,7.58-2.61,11.19ZM234.09,496.7c.76-1.68,1.13-2.13.8-2.3-.52-.27-1.12-.53-1.13-.17l-.02,1.61c.38.95.67,1.65.35.86ZM247.06,560.31c-1.5-7.37-2.67-14.47-4.91-21.05-.72,2.93,3.23,22.08,4.6,22.91.19.12.7.12.66-.1l-.36-1.75ZM242.35,555.54c.41-3.06.2-4.87-1.16-6.8-.54,2.45.19,4.7,1.16,6.8ZM740.75,563.47l-.81-3.22-2.49,7.26c1.29-.27,2.29-.52,2.89-.88s.58-2.49.41-3.17ZM254.08,588.57c-1.03-6.51-2.58-11.13-4.51-16.08.12,6.08,2.22,11.33,4.51,16.08ZM745.57,577.86l.95-2.12c.14-.31-.55-1.28-.48-.91l-.95,2.11c-.14.31.54,1.27.48.92ZM755.19,588.76l.89-2.84c.06-.2-.7-.13-.73-.09l-.76,2.03c-.12.31.64,1.14.6.9ZM256.71,597.13c.16-2.66-.46-4.83-1.75-6.92.07,2.57.77,4.73,1.75,6.92ZM262.81,612.74c-.08-1.88-.37-2.66-.98-3.47-.07,1.34.31,2.48.98,3.47ZM279.91,641.19c-.45-1.98-1.65-3.81-3.21-5.49.21,2.22,1.27,4.08,3.21,5.49ZM700.8,679.81l-.45-1.5-7.73,8.98c3.16-2.08,5.03-4.3,8.18-7.48ZM330.97,707.98c-2.6-3.33-5.05-6.08-7.94-8.65,1.71,3.93,4.39,6.72,7.94,8.65ZM571.14,727.03c-2.05.06-3.91.5-5.41,1.69,2.02.19,3.64-.46,5.41-1.69ZM550.03,734.32l4.55-2.06c-.46-.57-1.79.03-2.68.23l-6.9,1.54c1.35.98,3.29,1.08,5.03.29ZM600.1,741.18l-2.41,1.79,2.17.03c.35,0,.31-.83.25-1.82ZM590.16,743.27c-2.2.05-4.08.7-6.03,1.77,2.29.32,4.09-.28,6.03-1.77ZM595.44,744.62c-.87-.78-1.39-1.3-1.59-1.18l-2.92,1.74c1.9.04,3.32-.17,4.51-.56ZM430.55,747.3c-1.88-1.46-2.84-2.59-3.93-.94l3.93.94ZM582.18,746.4c-2.02-.77-3.19-.46-3.26.95l3.26-.95ZM564.52,750.99c3.29,1.3,5.19-.35,7.27-2.1-2.56.25-5.11,1.01-7.27,2.1ZM609.81,749.19l-5.34,2.62c2.19.33,4.31-.19,5.34-2.62ZM446.39,752.02c-1.85-1.37-3.79-2.12-6.25-1.75,1.97.89,3.87,1.45,6.25,1.75ZM546.23,754.51c-1.15-.65-3.51-1.02-3.5.9l3.5-.9ZM474.93,757.14c-1.82-.3-3.41-.29-4.87.02,1.82.3,3.41.29,4.87-.02ZM525.18,757.82c-1.82-.3-3.41-.29-4.87.02,1.82.3,3.41.29,4.87-.02ZM589.63,757.62c-3.57.49-7.11,1.79-10.44,3.91,3.81-.63,7.08-2,10.44-3.91ZM525.17,770.74c-7.78-.51-15.14-.51-22.5,0,7.78.51,15.14.51,22.5,0Z"/>
  <path d="M727.5,559.83c.23-3.3.91-6.24,2.24-9.45.04,3.51-.88,6.41-2.24,9.45Z"/>
  <path d="M445.98,678.66l-2.3,4.06c-.58-3.36,3.67-8.69,4-7.94l-.89-2c-.17-.39-1.16-1.54-1.43-1.22l-1.33,1.55-.08-5.53.63-4.07c1.26-8.16,1.18-16.87,3.22-25.03l3.69-14.77,9.54-36.09,6.23-22.24c1.72-6.12,4.1-11.71,4.85-18.1.32-2.78,1.32-5.37,2.19-7.97l2.96-8.8c-4.41.23-8.47.49-12.83.94-10.77,1.11-21.37.9-32.25,1.16l-8.79.22-7.75.39c-1.64.08-3.36-.97-4.37-2.44l6.6-1.52-9.91-.4c-.56-.02-1.73-.85-2.05-1.14-1.77-1.54,5.65-1.42,5.79-3.22-1.98-1.45-3.42-2.86-3.46-4.08,4.13-3.42,8.41-22.48,8.96-28.17l-4.93,13.28-2.15,5.78-.82-1.12c-.12-.16-.37.61-.49.91l-.48,1.24c-.09.24-.74.25-.77,0s-.11-1.67,0-2.04l5.36-18.2,6.09-20.51,4.67-16.54,13.15-43.94,8.89-27.12c1.36-4.16,10.76-25.79,12.56-28.69l3.72-5.99,1.9,3.19c1.73-.82,2.93-5.96,4.6-5.16l2.97,1.43c5.24-2.38,10.89-4.2,16.91-4.72l14.66-1.28,19.7-1.9,27.34-1.92,3.48,1.5c-.29.21-1.09.68-.93.76l1.42.66-2.62,1.57,10.48.81c.19,2.24,1.6,2.82,3.61,4.03l-1.37,7.18-.29,1.54c-.05.28.79.32,1.7.57l-7.5,17.68c-.55,1.3-.6,2.97-.91,4.4-1.54,7.19-5.57,13.53-8.23,20.4l-7.42,19.19c-4.61,11.91-10.57,22.52-16.22,34.65l31-2.95,9.62-.76,16.78-1.66c18.23-1.8,23.29,5.91,19.14,6.23l-3.17.25.1,7.47,4.76-.85c.16,1.94-.4,3.56-1.23,5.41l-3.3,7.38,2.21-.59c-.22,3.08-1.41,5.68-3.01,8.14l-14.27,21.84-11.76,17.26-11.4,15.88-19.33,28.29c-6.18,9.04-12.23,17.48-18.12,26.64-5.26,8.18-11.06,15.47-16.73,23.35l-18.48,25.66-7.37,10.38-6.57,9.77c-3.8,5.65-7.38,7.56-11.19,13.26l-4.07-1.33.36-2.59c-5.2,3.57-4.44,6.21-8.11,10.42l-.79-1.75c-.16-.36.71-.98,1.03-1.42l1.07-1.45c.28-.38-.8-1.1-1.28-1.38-.39-.24-1.29.47-1.55.9l-2.94,4.92-.69-1.98ZM548.94,343.87c-1.82-.3-3.41-.29-4.87.02,1.82.3,3.41.29,4.87-.02ZM477.1,614c4.33-4.17,6.81-9.53,10.3-14.55l15.67-22.53c11.95-17.18,24.6-33.3,35.76-51.06l8.19-13.03,14.97-22.36c4.45-6.65,8.65-12.7,12.82-19.89l-13.79.92c-9.94.67-19.58,2.87-29.51,3.99l-15.89,1.79c-5.54.62-10.67,1.78-15.29-2.52l-3.8-.99,3.14-2.4c-.88-.79-1.92-1.43-1.79-1.98l.54-2.2c-1.7-.52-3.18-1.09-3.54-2.03-.47-1.22,1.38-2.88,1.72-3.8.67-1.86,1.14-4.1,1.91-5.78l7.9-17.3,7.87-18.61,5.74-13.17c.77-1.76,1.52-3.33,2.48-4.99,4.19-7.27,2.13-7.96,6.84-13.54.36-1.22.88-3.52,1.55-4.72,3.94-7.06,7.35-13.46,10.21-21.36l-17.97.88c-6.25.3-12.45.93-18.61,1.71-3.38.42-6.75,1.64-10.23,1.83l-19.33,1.06-7.74,24.31-6.69,20.61-4.73,14.99-4.16,13.52c-4.96,16.11-8.74,32.29-15.29,47.78l-3.05,7.19c-1.15,2.71-1.55,6.1-2.85,8.69-1.22,2.44-2.06,4.42-2.9,7.21l10.36-.46,23.41-.9,27.03-1.59,4.87,2.14-.64,1.67,3.01-1.34c.3,1.28,1.52,2.69,2.64,4.05,2.19,2.63.64,7.24.32,10.52l-.71,7.29-5.67,24.6c-1.04,4.49-2.33,8.8-3.64,13.22l-6.97,23.42c-1.54,5.19-3.48,13.22-4.46,19.76ZM427.2,506.77c1.07-3.23,1.36-4.22,1.53-6.19-1.44,1.43-2.48,2.33-2.67,3.15-.16.7.76,2.54,1.14,3.04ZM423.29,512.32c2.06-.63,1.56-2.24.93-3.67l-.93,3.67Z"/>
  <path d="M507.18,775.19l-10.71-.15c2.11-1.54,4.36-1.09,6.96-1.29,7.02-.55,13.75-1.3,20.43.45-5.78.95-11.11,1.06-16.67.98Z"/>
  <path d="M718.75,588.36c.85-5.66,2.98-10.21,5.03-15.35.31-1.68.7-3.18,1.77-4.62l-2.51,11.84c-1.32,2.78-2.39,5.27-4.29,8.13Z"/>
  <path d="M763.84,559.53c2.06.56-2.84,13.78-3.71,15.82.71-5.39,2.2-10.44,3.71-15.82Z"/>
  <path d="M503.38,225.88l-10.95-.2,7.44-.67c1.57-.14,2.86-.71,3.52.87Z"/>
  <path d="M714.78,599.16c-.33-2.7.3-5.17,2.37-6.77.37,2.68-.73,4.89-2.37,6.77Z"/>
  <path d="M765,555.56l.93-7.52c.28-2.22.61-4.23,1.5-6.19-.14,4.98-.92,9.09-2.43,13.71Z"/>
  <path d="M548.16,770.55c-2.09,1.22-4.5,1.58-6.79.81l6.79-.81Z"/>
  <path d="M739.73,628.28c.43-1.83,1.3-3.46,2.57-4.83-.2,1.98-.91,3.42-2.57,4.83Z"/>
  <path d="M731.03,541.94c-.07-2.21.27-4.15.94-6.13.28,2.27-.04,4.05-.94,6.13Z"/>
  <path d="M761.77,484.3c-.38-1.94-.38-3.94-.02-6.24.38,1.94.38,3.94.02,6.24Z"/>
  <path d="M750.03,570c-.22-2.02.2-3.49,1.05-4.94.07,1.88-.28,3.42-1.05,4.94Z"/>
  <path d="M233.98,482.05l.02-5.36c.72,1.59.8,3.33-.02,5.36Z"/>
  <path d="M761.61,561.8c-.09-1.9.26-3.41.97-4.9.13,1.88-.23,3.43-.97,4.9Z"/>
  <path d="M530.53,773.63l-5.47-.05c1.46-.57,3.01-.55,5.47.05Z"/>
  <path d="M536.04,772.77c-1.21.26-2.6.27-4.18.02,1.21-.26,2.6-.27,4.18-.02Z"/>
</svg>