<?xml version="1.0" encoding="UTF-8"?>
<svg id="Layer_1" data-name="Layer 1" xmlns="http://www.w3.org/2000/svg" viewBox="0 0 1000 1000">
  <path d="M527.65,781.18c-19.07,2.66-48.73,2.39-66.99-1.94-12.06-2.86-23.74-5.65-36.01-7.64-3.96-.64-8.42-.26-12.5-1.57-23.5-7.6-45.69-17.2-66.36-30.7-13.21-8.63-24.18-18.56-35.16-29.79-35.61-36.4-54.71-59.87-73.62-107.55-6.36-16.03-10.32-31.6-13.15-48.31-1.38-8.14-3.66-16.22-2.1-24.26l7.34,31.11c.22.91,3.26,1.78,3.25.99s-.23-2.31-.52-3.54c-4.89-20.58-6.51-41.28-6.95-62.5-.38-18.2-.37-35.32,2.35-53.62,3.55-23.91,11.01-46.33,22.51-67.43,12.99-23.83,25.99-42.16,44.26-62.42,4.46-4.94,8.48-10.76,13.94-14.98,11.56-8.93,17.04-14.92,28.77-24.29,9.55-7.63,19.92-14.49,30.74-21.38,28.21-17.97,81.97-40.21,113.06-36.72l20.9,2.34c18.18,2.04,36.09,2.71,54.31,5.63,18.34,2.93,35.58,8.05,52.61,15.09,16.47,6.81,30.51,15.54,46.07,24.62,9.98,5.82,23.57,13.15,31.11,20.82.64.65.39,4.49,1.15,4.31l3.35-.8,4.04,4.15c3.52,2.31,8.08,4.59,6.66,9.16-.18.6,3.02-.02,3.5.42,5.71,5.26,12.85,14.79,17.08,22.21l17.31,30.37c11.42,20.04,18.25,41.77,24.78,64.04,10.65,36.34,14.68,70.73,12.18,106.98,3.73-3.68-1.22-8.92,3.25-13.15-.21,50.09-16.2,95.12-42.92,138.69-14,22.83-33.12,41.01-53.1,58.93s-39.63,35.93-63.74,48.45c-26.1,13.55-66.13,29.51-95.85,29.87,5.06-4.08,17.09-4.04,25.63-8.52l-21.14,2.95ZM527.73,733.84l8.05-1.19c1.33.64.63-.32-.8-2.02,4.52,1.32,6.81,1.59,10.79.22,39.05-13.44,46.42-17.94,80.6-40.66,18.61-12.37,36.17-25.69,49.59-43.86,13.52-18.3,23.18-38.23,32.31-58.96,13.9-31.55,27.95-79.27,20.81-113.01l-5.1-24.12c-6.48-30.68-18.05-59.26-33.93-86.19l-11.75-19.93c-4.11-6.97-10.64-12.86-16.45-19.01-6.35-6.72-14.18-11.74-21.61-17.37-6.85-5.19-13.78-9.33-21.12-13.79l-17.01-10.33c-17.43-10.59-37.61-13.9-57.53-18.78-17.26-4.23-34.62-6.65-52.23-2.24-3.95.99-7.52,2.04-11.84,2.39-13.3,1.08-11.31,1.93-24.17,5.17l-12.01,3.03c-18.55,4.67-36.08,10.43-53.26,18.25-14.54,6.62-26.14,15.2-37.87,25.64-8.86,7.89-16.12,16.68-24.49,25.11-12.71,12.79-23.75,25.9-30.83,43.04-7.03,17.04-13.67,33.98-17.91,52.21-12.9,55.47-2.73,118.6,21.3,169.93-1.22,1.85-1.88,4.27-1.04,5.96l12.12,24.56c1.32,2.67,4.73,5.38,6.62,7.9,6.85,9.14,14.3,16.97,22.09,25.32,30.61,32.81,71.48,47.15,114.34,56.91,20.25,4.61,39.89,5.72,60.91,4.52,3.57-.2,8.66,1.72,11.4,1.32ZM455.89,266.6c.25-2.17-30.1,4.61-29.03,6.51,10.39-1.55,19.01-3.97,29.03-6.51ZM425.96,273.5c-3.5-.57-6.5.82-8.8,3.04,3.78-.53,6.03-1.4,8.8-3.04ZM276.78,572.09c1.84,6.6,3.69,12.62,7.34,17.65-8.79-26.45-14.75-51.93-18.03-78.86l-.89,8.32c2.51,12.31,3.64,24.44,6.96,36.37l4.6,16.52Z"/>
  <path d="M495.92,214.9c-2.1.45-4.58-.19-7.38-1.18,2.1-.99,4.83-1.28,7.38,1.18Z"/>
  <path d="M521.08,786.51c-3.29.64-6.71.65-10.62.03,3.29-.64,6.71-.65,10.62-.03Z"/>
  <path d="M367.71,494.39l3.78-.65c.84-.14.63-3.17.32-3.98-3.92-10.19,2.78-6.96,6.05-16.46-.01,0,2.36,1.66,3.92,2.74l1.5-3.1c.75-1.55,8.83,3.99,8.85,7.77,1.49-4.47,6.73,2.74,7.35.9l1.3-3.83c3.89,1.59,7.26,5.23,9.87,8.5l24.09,30.16,21.23,28.69,64.17-91.28c11.13-15.83,32.3-43.33,45.18-56.69,4.42-4.59,8.15-9.15,12.54-14.29,1.16-1.35,4.85-2.73,6.19-3.91,9.5-8.32,9.33-10.36,18.94-16.04l10.87-6.43-10.59,16.25c4.4-4.11,7.46-7.59,11.31-10.78l13.36-11.08,1.22,4.86c.18.73,2.38-1.05,3.5-1.61,1.72,4.69.03,8.58-2.5,12.76l-10.93,18.1,8.61-7.42-2.51,13.67c-1.28,6.96-5.94,13.1-9.62,19.1l-14.07,22.96-17.31,26.59-19.64,29.03-37.6,54.76-39.85,61.8-15.49,16.81-4.69-2.62c-1.71-.95-3.12,4.3-5.87,5.88-.96.55-2.54-2.31-3.37-3.92-6.08-.04-14.69-.7-18.81-6.78-1.39-2.05-4.31-3.89-5.82-5.68-8.64-10.23-16.02-21.11-23.24-32.4l-29.33-45.82c-5.79-9.04-9.15-18.95-13.03-28.52-1.15-2.83-2.63-6.46.11-8.07Z"/>
</svg>