<?xml version="1.0" encoding="UTF-8"?>
<svg id="Layer_1" data-name="Layer 1" xmlns="http://www.w3.org/2000/svg" viewBox="0 0 1000 1000">
  <path d="M397.3,809.07l-31.56,1-32.2,1.17c-7.97.29-15.35-.26-23.4-1.27-8.64-1.08-10.22-5.01-15.33-2.5l1.6-1.85c-13.64-5.79-20.68-14.69-26.23-27.75-4.64-10.9-8.46-21.44-8.56-33.6l-.26-32.85c-.04-5.06.19-9.89-.34-14.98-.49-4.7-.12-9.51-.04-14.31l.54-32.47-.16-39.35-.47-9.27c-.79-15.49.42-30.5-.47-45.29-1.89,1.29-2.05,1.34-1.65.04,1-3.63,1.37-6.02,1.3-9.45l-.53-27.42-.67-24.85.1-21.71c.02-4.4-.54-8.54-.37-12.87l.32-7.97-.08-10.04c-.08-10.23-.83-20.19-1.38-30.49l-.92-17.07-.45-15.61c-.3-10.48-1.78-20.86-.86-31.24.73-8.23,1.88-15.93,1.64-24.22l-.46-15.38-.26-25.26c-.02-2.1,2.12-4.65.67-7.74-1.06-2.28-1.08-5.08-.4-7.25,1.36,1.58,1.7,1.96.46.41,3.63-3.15.29-5.63.54-7.67.99-8.28,3.43-16.39,6.34-24.2,3.8-10.22,9.47-18.26,17.28-25.49,1.31-1.22,3.01-3.45,4.38-3.76l2.96-.66c-4.26.95,28.48-18.79,61.94-15.88,19.77,1.72,38.85,1.59,58.65,1.98l29.34.58c13.06.26,25.56-1.39,38.54-1.24l13.14.16,52.89-2.99,25.08-.79c4.42-.14,36.49-1.61,36.57,1.55,0-.36,1.02-1.86,1.37-1.82,1.42.18,4.27.79,5.95,1.22l2.39.6c.5.13,1.22-1.78,1.73-1.74l8.16.58c5.05.36,9.73.52,14.75.52h8.59c-4.8-2.2-9.22.7-13.5-2.42l24.76,1.03c7.57,8.11,5.86-4.48,15.61,2.79.78,1.91.42.34-.03-1.36,9.5,1.19,18.92,4.35,27.31,9.92-5.4-.29-8.33-4.85-13.67-4.89l10.84,5.34,6.2,3.65-1.34-2.22c3.58-.77,3.03,3.37,4.47,4.68,6.66,6.06,12.43,12.32,16.19,20.78,4.5,10.12,8.66,20.46,9.99,31.66l3.85,32.47c.71,5.94.85,11.99.66,17.97l-.77,24.42v10.52s.1,17.98.1,17.98c.05,10.29.18,20.13-.39,30.52-.16,2.9-.2,6.03-.1,8.8l.97,24.84.52,15.05.26,10.67.73,11.55c.61,9.64.29,18.78.47,28.29l.51,27.53c.07,4.07-.64,8.11-.45,12.07l1.17,24.42,1.36,18.65.82,19.32c.53,12.34,1.91,24.41.16,36.61-1.21,8.41-.63,16.44-.4,25,.22,8.02.43,15.89.19,23.9-.14,4.78-.86,9.41-.31,14.05.36,2.98.72,5.18-.52,8.71l-1.75-6.59c-.5,4.74-.03,9.27.56,14.1.31,2.58.14,5.62.26,8.16l.9,17.83-1.66-1.31c-.28-.22-1.04.92-1.04,1.36.16,12.59-3.8,25.97-8.94,36.62-.23.48-.55,1.75-.64,2.04-.11.38.95.25,1.92.61l-3.92,2.29-7.85,9.44c-2.25,2.7-4.09,5.16-6.99,7.17-6.92,4.8-14.35,8.94-22.58,11.26-6.29,1.77-12.89,1.63-19.35,2.73-3.5.59-6.49.59-10.12.73l-19.73.76-18.69-.16-30.75-.09c-14.41-.04-32.53-1.65-45.3-.62-5.5.44-11.04.39-16.65.46l-25.47.3c-11.9.14-23.34-.37-35.19.82-12.15,1.23-24.02.86-36.16,1.13l-10.4.23-18.33.46-8-1.58ZM311.62,199.45l-5.38,2.04c2.11.46,4.12.07,5.38-2.04ZM304.07,203.04c-1.74-.6-3.97.41-5.3,2.63l5.3-2.63ZM296.32,207.23l1.54-1.19c.21-.17-.98-.51-1.2-.35l-1.08.8-1.54,1.15c-.22.16.95.48,1.18.35s.79-.52,1.1-.76ZM711.95,216.96c-2.37-4.05-4.86-6.55-8.36-8.3,2.74,3.32,5.49,6.07,8.36,8.3ZM281.55,219.62c3.07-2.44,5.59-4.92,7.69-7.79-3.57,2.01-6.05,4.47-7.69,7.79ZM715.82,222.39c-.34-3.2-1.4-3.84-3.16-4.02l3.16,4.02ZM539.29,221.97c.53.04.99-1.67.53-1.64-.31.02-1.54.04-1.76.24l-1.1.96c-.2.17,2.01.42,2.33.44ZM533.09,221.6c-2.26-.7-4.44-1.32-6.59.76l6.59-.76ZM524.66,222.44c-2.8-.68-4.56-.71-6.22-.06l6.22.06ZM274.98,229.65l4.62-6.95c-2.66,1.56-4.27,3.95-4.62,6.95ZM382.8,223.77l-16.77-.49c-1.44-.89-2.08-.96-1,.89,6,.05,12.04.09,17.76-.4ZM368.34,772.33c11.19-.4,21.1-.09,31.64.12l38.48.77c4.96.1,9.65-.08,14.49-.56l7.92-.78c3.96-.39,8.11-.89,12.12-.96l13.91-.27c5.75-.11,11.63.55,17.15-.03l19.55-2.07c2.94-.31,6.55,1.43,9.59,1.06l13.41-1.62,17.78-.83c24.18-1.13,15.1,1.59,33.95,1.47l23-.15,9.79.23,10.56.32c2.56.08,3.83.11,6.3,1.62l-.44-1.99c-.09-.4,1.28-.23,1.63,0l1.07.68,9.71-1.07-2.78,1.35c-1.05-.23.28.06,1.02.22,23.92-.1,44.38-8.27,45.75-34.88.51-10,2.09-10.02.44-19.39-.89-.15-1.54-.26-1.56-.26-.02,0,.86-.81,1.19-1.11.52-.47-.99-2.13-1.07-2.86-1.9-17.62-.02-41.56,0-57.8v-9.21s1.76-38.91,1.76-38.91c.44-9.76-.2-19.14-.45-28.97l-.63-25.47-1.45-29.25-.67-30.05-.4-33.86-.72-9.82-.28-18.87c-.02-1.67-.61-2.77-2.33-3.49-.74-6.25-.99-12.93-1.12-19.56l-.41-20.79.03-12.31.84-27.19.71-36.8c.29-15.1,1.3-21.46-.86-37.22-1.31-9.51-3.3-18.41-6.76-27.59-3.81-10.1-14.46-14.12-24.97-15.56l-9.65-1.32-22.87-.64-28.67-.44-24.4-.64-21.01-.61c-2.42-.07-5.88.92-8.37,1.08l2.23,1.06-22.81,1.43c-3.79-1.87-7.59.22-15.85-.08-3.26-.12-5.61.15-8.58.34-1.57.1-3.98-.09-5.93-.04l-16.02.46c-4.58.13-9.72-1.28-14.96.06l-4.55,1.17c-7.38,1.89-39.69,2.31-50.24,1.54l2.38-1.76-61.77-.86c-2.95-.04-5.82-1.1-8.39-1.04l-7.95.19c-13.82.32-20.73-.17-30.7,11.13-3.09,3.5-6.02,6.21-7.26,11.2-2.22,8.98-2.71,1.19-2.06,15.19l-1.21-4.94c-1.41,3.92,2.07,6.11.16,9.65l-1.04-3.46c-.21,3.52-.29,7.03-.28,10.87l.05,19.3c.05,18.74.43,36.95-.28,55.58-.47,12.29-.72,24.02-.37,36.2l.44,15.16.91,23.91c.34,8.8,1.32,12.57,1.5,22.14l.42,21.89.26,12.43,1.13,48.47.44,8.99,1.11,26.6c2.5-2.6-1.39-5.53,1.52-8.09l1.02,35.85c.03,1.11-1.35,2.98-2.05,3.32,3.22,11.9,1.23,32.3.99,45.93l-.9,51.1-.72,7.89-.46,29.58c-.16,10.51.55,20.42,5.9,29.5,1.8,3.07,3.65,6.91,7.94,7.24,4.9.37,10.45,2.23,15.29,2.09l19.14-.57c.89,1.13,1.15,1.7,1.43,1.35.21-.26,1.54-1.05,2.03-1.07l16.19-.58ZM365.05,226.87c-1.8-.28-3.37-.27-4.75.02,1.8.28,3.37.27,4.75-.02ZM728.08,253.58c-.4-4.38-1.57-8.09-3.43-11.8.44,4.21,1.37,7.93,3.43,11.8ZM262.52,310.95l-.23-23.85c0-.97-.25-1.67-1.26-2.9-.31,4.14-.09,8.07.43,12.42.58,4.81-.69,9.61,1.06,14.32ZM258.78,295.17c.74-1.55,1.51-4.46-1.03-4.82l1.03,4.82ZM258.09,313.56c.28-2.17.3-3.25.1-4.66-.37,1.5-.4,3.22-.1,4.66ZM261.81,317.42c.68-2.8.71-4.56.06-6.21l-.06,6.21ZM704.01,332c.98-.37,1.36-2.23.93-3.76-1.14.64-1.56,2.37-.93,3.76ZM704.31,398.49l.26-39.99c.06-8.85,1.39-17.31-.15-26.31-1.5,9.76-.4,18.86-1.33,28.44-.25,8.27-.33,16.34.02,24.6.36,8.44-1.01,8.44,1.2,13.27ZM734.43,388.6l.15-2.17c.02-.34-1.59-.45-1.58-.11l.2,6.03c.93-.93,1.11-2.04,1.23-3.74ZM733.51,392.64c-.76,6.26-.59,11.27-.41,17.41,2.35,3.07,1.21-18.53.41-17.41ZM704.3,403.27l.85-3.32c-.44-.33-1.07-.81-1.1-.83-.03-.02-.65.45-1.22.86l1.47,3.29ZM698.46,406.06c.68-2.8.71-4.56.06-6.21l-.06,6.21ZM698.66,415.4c.43-2.88.43-5.39-.02-7.85-.43,2.88-.43,5.39.02,7.85ZM698.52,422.82c2.67-2.45,1.23-4.81-.23-6.79l.23,6.79ZM734.92,440.06c.34-2.07.33-3.87-.02-5.53-.34,2.07-.33,3.87.02,5.53ZM292.1,457.78c.28-1.8.28-3.37-.02-4.75-.28,1.8-.28,3.37.02,4.75ZM292.1,466.26c.34-2.07.33-3.87-.02-5.53-.34,2.07-.33,3.87.02,5.53ZM292.97,469.92c-.72.78-1.03,1.77-.97,2.85l.83,14.31c.98-9.36,1.23-7.91.14-17.15ZM707.79,504.28l-.69-11.21-.32,15.59c1.93-.8,1.13-2.36,1.01-4.38ZM708.73,517.54l-1.04-6.46c-1.2,2.26-.62,4.37,1.04,6.46ZM266.05,581.18v-10.99c-1.63,3.8-1.47,7.58,0,10.99ZM296.16,645.31l.38-48.8c-1.47-8.85,1.79-17.4-1.56-26.19l-.13,82.47c.6-1.97,1.28-4.84,1.3-7.48ZM301.34,586.5c.55-4.96.59-9.48,0-14.01-.52,4.96-.52,9.47,0,14.01ZM265.91,601.93c.44-6.57.4-12.37.17-18.36-2.33,3.02-1.06,3.88-.93,5.99l.76,12.37ZM301.09,592.55c1.85-.78,2.03-2.75.24-3.11l-.24,3.11ZM742.11,654.23l-.14-5.89c-2.41,2.17-1.8,4.78.14,5.89ZM735.6,706.4l1.66-2.97.97,6.02c2.19-4.71.29-8.29.25-12.37l-.31-33.6c-.04-4.33-.64-8.64-1.15-13.14l-.12,42.48c0,3.49,1.54,6.82-.42,10l-1.13-8.39c-.62,2.18-.68,3.87-.79,6.14l1.04,5.81ZM295.18,662.04c.45-3.14.45-5.9-.02-8.62-.45,3.14-.45,5.9.02,8.62ZM706.17,670.47l1.52-3.45c.25-.57-.89-1.45-1.7-2.11l.18,5.56ZM707.57,693.49l-.04-18.65-1.55-1.41.02,21.8,1.56-1.74ZM741.69,682.74l-.68-4.68c-.46,4.44-.89,8.28.7,13.1.77-2.5.4-5.47-.02-8.42ZM707.44,702l-.9-3.89c-.91,1.36-1.26,4.1.9,3.89ZM721.5,702.68l.02,8.8c1.35,1.31,2.27-9.83-.02-8.8ZM707.19,707.41l.32-3.96-1.62,1.44c-.34.3.34,1.28,1.3,2.52ZM740.27,717.09c-.12-2.6-.47-4.37-1.46-5.93-.62,2.16-.27,4.2,1.46,5.93ZM266.42,727.56c.9-.89,1.86-2.22,1.42-2.63l-1.57-1.48.15,4.11ZM266.68,739.13l.9-7.16c-1.91,1.66-1.61,4.81-.9,7.16ZM272.31,767.38l-3.6-11.55c.51,8.68,3.58,16.76,8.23,23.1-1.13-4.33-3.39-7.57-4.63-11.55ZM633.69,770.26l-8.14.74c-1.63.9,10.1,2.04,8.14-.74ZM721.58,776.79c1.44-1.56,2.33-2.89,3.05-4.58-1.93.98-3,2.51-3.05,4.58ZM638.26,773.81l-23.49-.08c2.02,3.29,4.95.85,7.28.99,5.53.33,11.1,1.8,16.21-.9ZM494.91,775.48l-5.77.83c1.66.72,3.72,1.27,5.77-.83ZM511.42,775.45c-5.1-.22-9.73-.23-14.9.1,5.07,2.63,10.03,1.22,14.9-.1ZM487.5,776.57c-4.57-.76-9.08-1.04-14.01.28l14.01-.28ZM630.43,804.3l4.83-1.02-8.61-.27c1.48,2.47,4.19,4.65,7.56,2.16l-3.78-.87Z"/>
  <path d="M377.16,811.85l-12.4.69c-.41.02-1.47.37-1.79.47s-.19-.75-.18-1.63l14.37.47Z"/>
  <path d="M360.23,812.92h-8.46c2.37-1.61,4.73-1.25,8.46,0Z"/>
  <path d="M338.69,812.37c-1.7,1.51-4.09,1.84-6.17,1.01,2.05-.79,3.29-1.07,6.17-1.01Z"/>
  <path d="M310.08,810.81c-1.03,1.09-2.11,1.9-2.4,1.57l-1.45-1.64,3.86.07Z"/>
  <path d="M345,812.77c-1.68.31-2.94.49-4.73.49,1.06-1.43,3.37-1.23,4.73-.49Z"/>
  <path d="M543.14,577.33s-12.76,1.5-14.85,1.34c-.45-.03-35.99-2.81-28.36,2.15,0,0-1.72.18-2.36.23s-.76-.49-1.61-1.53c-1,.2-3.13.93-4.06.91l-7.33-.18-37.15,2.69c-3.15.23-21.43.13-20.49-2.67l.66-1.95c.15-.44-.93-1.4-.71-1.8l1.37-2.41-8.64-2.72,1.74-1.14c.31-.2-.47-1.11-.67-1.55l3.75-.44-4.54-3c.14-1.1,2.03-2.12,3.59-2.43l-1.2-1c-.11-.09,5.5-4.63,8.74-4.45l-.31-1.47c-.53-2.47,11.24-3.69,13.78-3.89l57.8-4.46,17.9-.81-6.47-.91c2.29-.97,5.17-1,7.48.3l4.43-1.56.26,1.68c1.18-.81,2.62-1.78,3.59-1.88s1.98.84,3.29,1.62c1.34.79,4.57-.65,6.24-.76,15.76-1.05,26.69-1.25,42.71-.39l37.17,1.99c5.57.3-2.6,2.69,18.27,2.46,5.29-.06,9.87.53,14.83,1.23l10.33,1.44-6.57.84c5.16.72,9.53,1.32,15.23,3.13-2.01,1.62-2.68,1.52-5.29,2.37l3.39.68-.63,4.14-9.67,1.26,8.52,1c2.27.27,4.51,2.01,5.27,4.79-1.86,1.27-4.63,2.45-6.97,2.94l-8.34,1.77-3.27,2.12c-6.58,1.14-13.06,1.85-19.8,2.17l-16.06.77-34.43.83c-8.19.2-16.13.81-24.29.74l-8.65-.07c-6.15-.05-11.9-.14-17.84-.7l6.29-1.63c1.33-.35,2.94-.54,4.65-.8l-.76-.98ZM543.65,551.32c10.05,1.94,19.4.91,28.89.89-5.61-2.23-22.91-1.48-28.89-.89ZM589.54,552.46c-4.39-1.37-8.47-1.06-12.5-.34l12.5.34ZM493.94,552.86c-1.93-.83-4.05-.47-6.35.71,1.91.6,4.27.67,6.35-.71ZM510.07,552.76c-3.14-.45-5.91-.45-8.63.02,3.14.45,5.91.45,8.63-.02ZM557.15,578.05c.83.8-.55-1.63-1.05-1.6l-7.8.45-1.74.1c-.37.02-.46.96-.43,1.33.12,1.57,6.16-.73,11.02-.28Z"/>
  <path d="M534.61,444.5c-16.28.64-18.67-1.27-36.16.39l-7.33.7-50.38,4.03c-5.41.43-11.08-.08-14.93-3.02l1.27-1.2c.16-.15,1.25-.43,1.06-.54l-2.32-1.27,2.93-2.75-9.65-3.58,3.88-4.31-3.13-1.38c-.62-.27,1.1-1.99,1.52-2.55l2.16-2.87c1.15-1.53,4.71-2.58,6.69-3.19l-1.18-1.26c-2.95-3.16,65.09-7.19,70.39-7.49,6.85-.38,12.71.71,19.18-.87l-3.34-1.03c1.86-1.36,3.54.79,5.19.92s4.77-1.34,6.54-.99c4.35.84,8.28.87,12.4-.16,8.09-2.03,16.77-1.59,25.3-1.26l18.39.71,35.32,2.05c1.7.1,3.71,2.13,5.34,2.17l23.29.45c2.27.04,6.64,1.85,8.59,1.18.57-.2,1,1.31,1.33,2.23l10.44,1.37c.67.09,2.83,1.95,2.26,2.25l-2.95,1.58,3.72,1.87c-3.42,3.16-6.71,3.1-10.83,3.54,5.13.79,10.29,1.5,13.82,6.31-5.54,2.71-12.05,4.34-18,4.54,3.71,4.72-33.46,5.03-35.26,5.08l-43.73,1.05-7.85.19-13.05-.13-16.83.16c-1.08-1.17-2.93-2.8-4.09-2.92ZM524.71,417.88c-1.8-.28-3.37-.27-4.75.02,1.8.28,3.37.27,4.75-.02ZM570.3,417.56l-27.98.26,17.77.67c3.6.14,7.03,1.48,10.21-.93ZM588.28,417.96l-11.59.42c5.25,1.02,10.14.76,15.14.42-.98-.35-2.79-.86-3.55-.83ZM507.75,418.65c-2.88-.43-5.4-.43-7.86.02,2.88.43,5.4.43,7.86-.02ZM494.5,419.48c-2.29-.64-4.42-.98-6.62.67,2.23.2,4.28-.15,6.62-.67ZM656.6,421.34c-.69-1.66-2.63-1.92-3.96-1.1l3.96,1.1ZM557.89,444.39c-.18-.29-1.36-1.48-1.77-1.47l-9,.08c.16.22.87,1.13.83,1.11-.03-.02-.55.76-.88,1.21,1.07-.2,3.1-.97,3.97-.96l6.85.04Z"/>
  <path d="M560.26,325.49c-7.56.19-14.59-.92-16.61-.44-.41.1,0-1.31.38-1.38l3.84-.76c-4.23-.52-8.62-.23-13.17-.52-8.32-.54-16-.8-24.29-.11l-63.6,5.3c-5.61.47-11.19-.49-15.61-2.73l.93-1.91c.17-.36-1.04-1.05-1.6-1.61.77-1.3,2.92-2.58,4.62-3.01l-11.5-2.91,4.24-4.79c-1.49-.29-3.15-.7-3.45-1.38-.74-1.72,3.67-5.05,5.84-6.12l5.67-2.79-.69-.13c-17.68-3.26,72.53-8.09,73.47-8.11l17.39-.33c.89-.02,2.25-2.66,2.87-2.32l2.63,1.48c1.77-1.69,4.86-2.24,7.73-.92l-5.53.88,10.27.23-2.45-1.18c-.11.05.92-.88,1.21-.7l2.13,1.36c1.96-2,5.25-1.58,8.39-1.65,5.33-.12,10.59-.44,16.03-.21l33.91,1.43c7.23.31,13.57.89,21.22,1.63l-3.43,1.45,19.99.66c5.71.19,11.01.46,16.44,2.24l4.62.72c-2.8.56-4.42.69-6.46,1.54l12.67.54c.62.03,2.22,1.81,1.77,2.03l-2.55,1.26,2.92,2.08c-2.78,3.12-6.16,3.6-10.17,4.18l6.44,1c1.71,3.7,7.02,2.63,6.17,4.25-1.16,2.21-7.07,4.08-10.13,4.51l-7,.96,1.49,1.02c-2.67.73-5.55,1.99-8.09,2.25-16.21,1.63-31.79,1.49-48.21,1.94l-14.87.41c-.39.01-1.48-.76-1.75-.95s-1.26,1.05-1.7,1.07l-22.43.56ZM591.61,295.79c-5.91-.08-14.27.08-20.3-.39-1.84-.14-19.86-1.31-18.96.97l27.16.36,11.97.64c.36.02,1.66-.38,1.92-.41s-1.46-1.18-1.79-1.19ZM516.23,296.56c-1.97-.51-4.01-.15-6.29.34,1.92.49,4.06.56,6.29-.34ZM563.3,321.54c-2.61-.41-4.89-.41-7.09.02,2.61.41,4.89.41,7.09-.02ZM553.26,323.08c-1.8-.28-3.37-.27-4.75.02,1.8.28,3.37.27,4.75-.02Z"/>
  <path d="M337.74,564.41c.07-5.22-1.64-21.46,4.2-22.99l2.04,11.32,1.79-5.12,2.7,19.61c.78,5.69.59,11.68.48,17.75-1.28.31-2.22.39-2.8.85s-1,2.5-.92,3.61l25.45-3.33c6.01-.79,11.52-.04,18.23.04.7-10.36-2.79-11.36-.83-22.46,1.03-5.83,1.59-11.52,1.62-17.55l-34.76-.66c.18,0-9.48-.91-10.04-3.61-.15-.72,1.4-1.92,2.12-1.89l1.9.06c.26,0,.52-.54.27-.64l-1.94-.82c4.89-3.25,8.89-1.88,16.44-3.7,7.48-1.81,21.84-1.84,28.75-1.78.19,0,1.14,1.68,1.26,1.82.18.2.59.42.78.21s.54-1.48.7-1.24l1.37,2.03c.27.4,1.17-.46,2.08-1.07,1.66,1.34,3.31,4,3.82,6.16l1.26.53c.42.17.83,1.64.88,2.15,1.36,13.01-2.14,19.05-1.39,28.98.5,6.52,1.34,12.94.16,19.41-14.78,14.65-16.86,8.04-26.22,8.5l-18.34.91-6.81-.17c-3.53-.09-7.24-1.06-10.4-2.3l5.01-.7-7.54-1.36c1.47-2.65,2.74-3.24,4.88-3.11-.96-1.1-1.65-2.29-2.23-4.02l-2.89-1.36c-.8-.37-1.35-3.15-1.34-4.06l.26-20Z"/>
  <path d="M543.14,699.41s-12.76,1.5-14.85,1.34c-.45-.03-35.99-2.81-28.36,2.15,0,0-1.72.18-2.36.23s-.76-.49-1.61-1.53c-1,.2-3.13.93-4.06.91l-7.33-.18-37.15,2.69c-3.15.23-21.43.13-20.49-2.67l.66-1.95c.15-.44-.93-1.4-.71-1.8l1.37-2.41-8.64-2.72,1.74-1.14c.31-.2-.47-1.11-.67-1.55l3.75-.44-4.54-3c.14-1.1,2.03-2.12,3.59-2.43l-1.2-1c-.11-.09,5.5-4.63,8.74-4.45l-.31-1.47c-.53-2.47,11.24-3.69,13.78-3.89l57.8-4.46,17.9-.81-6.47-.91c2.29-.97,5.17-1,7.48.3l4.43-1.56.26,1.68c1.18-.81,2.62-1.78,3.59-1.88s1.98.84,3.29,1.62,4.57-.65,6.24-.76c15.76-1.05,26.69-1.25,42.71-.39l37.17,1.99c5.57.3-2.6,2.69,18.27,2.46,5.29-.06,9.87.53,14.83,1.23l10.33,1.44-6.57.84c5.16.72,9.53,1.32,15.23,3.13-2.01,1.62-2.68,1.52-5.29,2.37l3.39.68-.63,4.14-9.67,1.26,8.52,1c2.27.27,4.51,2.01,5.27,4.79-1.86,1.27-4.63,2.45-6.97,2.94l-8.34,1.77-3.27,2.12c-6.58,1.14-13.06,1.85-19.8,2.17l-16.06.77-34.43.83c-8.19.2-16.13.81-24.29.74l-8.65-.07c-6.15-.05-11.9-.14-17.84-.7l6.29-1.63c1.33-.35,2.94-.54,4.65-.8l-.76-.98ZM543.65,673.39c10.05,1.94,19.4.91,28.89.89-5.61-2.23-22.91-1.48-28.89-.89ZM589.54,674.53c-4.39-1.37-8.47-1.06-12.5-.34l12.5.34ZM493.94,674.93c-1.93-.83-4.05-.47-6.35.71,1.91.6,4.27.67,6.35-.71ZM510.07,674.84c-3.14-.45-5.91-.45-8.63.02,3.14.45,5.91.45,8.63-.02ZM557.15,700.12c.83.8-.55-1.63-1.05-1.6l-7.8.45-1.74.1c-.37.02-.46.96-.43,1.33.12,1.57,6.16-.73,11.02-.28Z"/>
  <path d="M337.74,686.49c.07-5.22-1.64-21.46,4.2-22.99l2.04,11.32,1.79-5.12,2.7,19.61c.78,5.69.59,11.68.48,17.75-1.28.31-2.22.39-2.8.85s-1,2.5-.92,3.61l25.45-3.33c6.01-.79,11.52-.04,18.23.04.7-10.36-2.79-11.36-.83-22.46,1.03-5.83,1.59-11.52,1.62-17.55l-34.76-.66c.18,0-9.48-.91-10.04-3.61-.15-.72,1.4-1.92,2.12-1.89l1.9.06c.26,0,.52-.54.27-.64l-1.94-.82c4.89-3.25,8.89-1.88,16.44-3.7s21.84-1.84,28.75-1.78c.19,0,1.14,1.68,1.26,1.82.18.2.59.42.78.21s.54-1.48.7-1.24l1.37,2.03c.27.4,1.17-.46,2.08-1.07,1.66,1.34,3.31,4,3.82,6.16l1.26.53c.42.17.83,1.64.88,2.15,1.36,13.01-2.14,19.05-1.39,28.98.5,6.52,1.34,12.94.16,19.41-14.78,14.65-16.86,8.04-26.22,8.5l-18.34.91-6.81-.17c-3.53-.09-7.24-1.06-10.4-2.3l5.01-.7-7.54-1.36c1.47-2.65,2.74-3.24,4.88-3.11-.96-1.1-1.65-2.29-2.23-4.02l-2.89-1.36c-.8-.37-1.35-3.15-1.34-4.06l.26-20Z"/>
  <path d="M343.63,295.86l2.15-3.42,3.08,24.04c.6,4.7.2,9.09-.94,14l-1.27-2.44-.94,6.09,26.21-3.52c5.66-.76,10.97-.01,17.45-.17.22-9.33-2.88-13.18-1.06-23.04,1.03-5.58,1.65-10.7,1.61-16.58l-18.04-.55c-5.61-.17-11.35.31-16.91-.36l-4.59-.56c-1.84-.22-3.95-.98-6.02-1.62l2.37-4.18c1.37,1.01,3.13,1.24,4.39.26l-4.03-.93c2.69-1.23,5.42-1.78,8.63-2.17l15.33-1.83c14-1.67,16.32-1.05,27.93,1.83,1.44.36,2.7,3.48,3.02,4.98l1.86.44c.46.11,1.08,1.66,1.1,2.18.64,13.04-2.27,17.53-1.49,29.02.46,6.8.74,13.63-.19,19.98-2.32,1.65-3.76,2.86-5.1,4.5-5.91,7.23-18.15,1.55-28.41,3.38-9.9,1.77-19.37,1.33-28.79-1.47l5.5-.56c-2.84-.63-5.91-1.32-7.37-1.96l4.21-4.23-2.26-4.12h-1.66c-2.81,0-1.68-15.66-1.67-18.59l.05-17.83c.01-3.89.45-7.51,3.74-10.65,1.6,3.14,1.87,6.26,2.11,10.09ZM380.46,281.46c-2.07-.34-3.88-.33-5.53.02,2.07.34,3.88.33,5.53-.02ZM388.74,333.38s-.79-1.04-1.13-1.48c-.31-.41-1.53.98-1.93,1.48h3.06Z"/>
  <path d="M339.73,455.01l-.69,1.08c-.21.33-.99.81-1.13.45s-.64-1.71-.63-2.12l.28-16.74c.1-5.72-.55-24.67,3.76-27.63,1.18,2.62,1.43,4.24,1.9,6.63l1.27,6.34,1.01-5.73c2.43,9.86,3.98,25.86,3.19,36.33-1.93,1.12-2.85,2.46-3.35,5.27l24.4-3.1c6.5-.83,12.43-.53,19.54.21.68-10.13-3.1-13.79-1-23.78,1.17-5.58,2.04-11.26,1.74-16.82l-30.49-.23c-5.1-.04-9.97-1.29-15.1-2.72,2.89-7.84,10.39-6.13,18.62-7.77,7.58-1.51,23.06-2.79,29.82-1.15,2.22.54,3.69,2.36,7.05,1.15l2.35,5.68c6.92,2.68-.72,23.11.78,33.19.95,6.4,1.33,13.17-.14,18.67l-4.47,3.14-.71,4.19-.93-1.58c-1.29-2.17-2.08,3.33-6.2,3.11l-16.35-.88c-10.48-.57-20.6,2.54-30.91-1.18l3.12-1c-2.79-.74-4.18-1.19-6.26-2.31l2.74-2.28-1.01-1.8c-.25-.45.53-1.53.93-2.37.67-1.54.94-2.17-1.34-.04-.49-.92-1.34-2.99-1.78-4.22Z"/>
  <path d="M301.38,540.76c-.93-4.18-.63-7.99.04-12.2.41,4.06.42,8-.04,12.2Z"/>
</svg>